<svg width="60" height="60" viewBox="0 0 60 60" fill="none" xmlns="http://www.w3.org/2000/svg">
<path d="M17.5015 40.004V28.4077C17.5015 27.1335 17.7522 25.9099 18.2129 24.7732M42.5017 40.004V32.0425M23.057 19.3401C25.0434 18.1804 27.4318 17.5039 30.0016 17.5039C35.7004 17.5039 40.5085 20.8306 42.0131 25.379" stroke="#1192E8" stroke-width="3" stroke-linecap="round" stroke-linejoin="round"/>
<path d="M25 42.504V37.0627M35 42.504V29.6362C35 27.0778 32.7616 25.0039 30 25.0039C27.2384 25.0039 25 27.0778 25 29.6362V31.6217" stroke="#1192E8" stroke-width="3" stroke-linecap="round" stroke-linejoin="round"/>
<path d="M30 55C43.8071 55 55 43.8071 55 30C55 16.1929 43.8071 5 30 5C16.1929 5 5 16.1929 5 30C5 43.8071 16.1929 55 30 55Z" stroke="#1192E8" stroke-width="3" stroke-linecap="round" stroke-linejoin="round"/>
</svg>
