<svg width="32" height="20" viewBox="0 0 32 20" fill="none" xmlns="http://www.w3.org/2000/svg">
<path d="M7.3728 7.2719C7.31604 6.83189 7.53574 6.3638 7.78413 6.07757C8.06059 5.74253 8.53844 5.5039 8.93025 5.48438C8.97785 5.94331 8.79659 6.39248 8.52868 6.72692C8.25161 7.0522 7.81281 7.30974 7.3728 7.2719Z" fill="black"/>
<path d="M10.5443 11.1811C10.5346 11.2098 10.3826 11.7341 10.0109 12.2772C9.68688 12.7539 9.35366 13.2207 8.82027 13.2305C8.3058 13.2403 8.13431 12.9253 7.54355 12.9253C6.95279 12.9253 6.76238 13.2207 6.2766 13.2403C5.76213 13.2592 5.37215 12.7343 5.04809 12.2583C4.38105 11.2953 3.87634 9.54192 4.5623 8.35979C4.89552 7.76904 5.50519 7.39737 6.16247 7.38761C6.66718 7.37845 7.13405 7.72143 7.43919 7.72143C7.74372 7.72143 8.28627 7.32109 8.92463 7.35954C9.1724 7.37845 9.88705 7.45474 10.3442 8.13094C10.3063 8.16023 9.49647 8.6271 9.50623 9.60844C9.51539 10.7808 10.5346 11.1714 10.5443 11.1811Z" fill="black"/>
<path d="M14.4826 6.03027H11.8022V13.1798H12.9117V10.7374H14.4478C15.8503 10.7374 16.8359 9.77621 16.8359 8.37865C16.8359 6.98659 15.8704 6.03027 14.4826 6.03027ZM14.1854 9.8055H12.9117V6.96645H14.1903C15.1515 6.96645 15.7014 7.48214 15.7014 8.38354C15.7014 9.28554 15.1515 9.8055 14.1854 9.8055Z" fill="black"/>
<path d="M19.4846 7.87354C18.1963 7.87354 17.3938 8.56743 17.3346 9.50849H18.3452C18.4392 9.04284 18.8255 8.74563 19.4449 8.74563C20.0992 8.74563 20.4904 9.09228 20.4904 9.67205V10.0736L19.0635 10.1578C17.8246 10.2274 17.1265 10.787 17.1265 11.6988C17.1265 12.635 17.8399 13.2697 18.8603 13.2697C19.5444 13.2697 20.2035 12.9029 20.5056 12.3231H20.53V13.18H21.5559V9.58783C21.5559 8.54241 20.7485 7.87354 19.4846 7.87354ZM20.4904 11.2283C20.4904 11.9069 19.9057 12.422 19.1575 12.422C18.5832 12.422 18.2067 12.1248 18.2067 11.6689C18.2067 11.2234 18.568 10.9408 19.2069 10.8963L20.4904 10.8169V11.2283Z" fill="black"/>
<path d="M25.8241 7.9668H26.9537L25.0014 13.452C24.5553 14.7153 24.0402 15.1218 22.96 15.1218C22.8709 15.1218 22.603 15.112 22.5242 15.0974V14.2302C22.603 14.2497 22.7812 14.2497 22.8709 14.2497C23.3664 14.2497 23.6337 14.0416 23.7973 13.5064C23.7973 13.4966 23.8913 13.1896 23.8913 13.1847L22.0085 7.9668H23.1681L24.4863 12.2083H24.5058L25.8241 7.9668Z" fill="black"/>
<path d="M31.2386 2.47807C31.2359 1.99985 31.2221 1.49752 30.9987 1.06282C30.8184 0.711842 30.5293 0.420796 30.1779 0.241372C29.7396 0.0175802 29.2436 0.00433703 28.762 0.00152971C28.6552 0.000919423 28.5484 0.000919293 28.4416 0.000919293H2.7986C2.4068 0.000919293 2.00792 -0.0118357 1.62075 0.0576759C1.23236 0.127554 0.866559 0.30771 0.586316 0.586794C0.305889 0.866061 0.12677 1.23388 0.0571978 1.62123C-0.0124358 2.00858 0.0010515 2.40709 0.0010515 2.79908V17.2024C0.0010515 17.3092 0.000441213 17.416 0.0010515 17.5228C0.00379779 18.0031 0.0180175 18.5013 0.240894 18.9381C0.420074 19.2893 0.710509 19.5812 1.06234 19.7595C1.50059 19.9817 1.99772 19.9932 2.4782 19.9988C2.58439 20 2.6918 20 2.7986 20H28.4416C28.5484 20 28.6552 20 28.762 19.9988C29.2386 19.9933 29.7377 19.9833 30.1779 19.7595C30.5288 19.5811 30.8207 19.2892 30.9987 18.9381C31.2201 18.5014 31.2358 18.0022 31.2386 17.5228C31.2392 17.416 31.2392 17.3092 31.2392 17.2024V2.79908C31.2392 2.69167 31.2392 2.58487 31.2386 2.47807ZM30.5727 17.2024C30.5727 17.3074 30.5727 17.4124 30.5721 17.5198C30.57 17.8921 30.5777 18.2957 30.4049 18.636C30.2898 18.8626 30.1009 19.0507 29.8746 19.1657C29.5339 19.3389 29.1297 19.3302 28.7571 19.3323C28.6522 19.333 28.5466 19.333 28.4416 19.333H2.79433C2.69058 19.333 2.58683 19.333 2.48125 19.3323C2.10806 19.3297 1.70485 19.3386 1.36382 19.1645C1.13747 19.0489 0.950047 18.863 0.835313 18.636C0.662785 18.2947 0.67078 17.8922 0.668094 17.5192L0.667484 17.2684V2.73256L0.668094 2.48295C0.668705 2.39751 0.669315 2.31207 0.671756 2.22663C0.680056 1.93601 0.701477 1.62776 0.835313 1.3643C0.949863 1.13886 1.13881 0.949853 1.36437 0.835791C1.63058 0.701223 1.93328 0.680534 2.22622 0.672173C2.31166 0.669732 2.3971 0.669122 2.48193 0.668512L2.79866 0.667901H28.4417L28.7572 0.668512C29.1296 0.669244 29.5357 0.662714 29.8758 0.83573C30.1028 0.951074 30.2892 1.13886 30.405 1.36546C30.5786 1.70545 30.57 2.11123 30.5722 2.4835C30.5728 2.58847 30.5728 2.69344 30.5728 2.79902V17.2024H30.5727Z" fill="black"/>
<path d="M7.3728 7.2719C7.31604 6.83189 7.53574 6.3638 7.78413 6.07757C8.06059 5.74253 8.53844 5.5039 8.93025 5.48438C8.97785 5.94331 8.79659 6.39248 8.52868 6.72692C8.25161 7.0522 7.81281 7.30974 7.3728 7.2719Z" fill="black"/>
<path d="M10.5443 11.1811C10.5346 11.2098 10.3826 11.7341 10.0109 12.2772C9.68688 12.7539 9.35366 13.2207 8.82027 13.2305C8.3058 13.2403 8.13431 12.9253 7.54355 12.9253C6.95279 12.9253 6.76238 13.2207 6.2766 13.2403C5.76213 13.2592 5.37215 12.7343 5.04809 12.2583C4.38105 11.2953 3.87634 9.54192 4.5623 8.35979C4.89552 7.76904 5.50519 7.39737 6.16247 7.38761C6.66718 7.37845 7.13405 7.72143 7.43919 7.72143C7.74372 7.72143 8.28627 7.32109 8.92463 7.35954C9.1724 7.37845 9.88705 7.45474 10.3442 8.13094C10.3063 8.16023 9.49647 8.6271 9.50623 9.60844C9.51539 10.7808 10.5346 11.1714 10.5443 11.1811Z" fill="black"/>
<path d="M14.4826 6.03027H11.8022V13.1798H12.9117V10.7374H14.4478C15.8503 10.7374 16.8359 9.77621 16.8359 8.37865C16.8359 6.98659 15.8704 6.03027 14.4826 6.03027ZM14.1854 9.8055H12.9117V6.96645H14.1903C15.1515 6.96645 15.7014 7.48214 15.7014 8.38354C15.7014 9.28554 15.1515 9.8055 14.1854 9.8055Z" fill="black"/>
<path d="M19.4846 7.87354C18.1963 7.87354 17.3938 8.56743 17.3346 9.50849H18.3452C18.4392 9.04284 18.8255 8.74563 19.4449 8.74563C20.0992 8.74563 20.4904 9.09228 20.4904 9.67205V10.0736L19.0635 10.1578C17.8246 10.2274 17.1265 10.787 17.1265 11.6988C17.1265 12.635 17.8399 13.2697 18.8603 13.2697C19.5444 13.2697 20.2035 12.9029 20.5056 12.3231H20.53V13.18H21.5559V9.58783C21.5559 8.54241 20.7485 7.87354 19.4846 7.87354ZM20.4904 11.2283C20.4904 11.9069 19.9057 12.422 19.1575 12.422C18.5832 12.422 18.2067 12.1248 18.2067 11.6689C18.2067 11.2234 18.568 10.9408 19.2069 10.8963L20.4904 10.8169V11.2283Z" fill="black"/>
<path d="M26.9537 7.9668L25.0014 13.452C24.5553 14.7153 24.0402 15.1218 22.96 15.1218C22.8709 15.1218 22.603 15.112 22.5242 15.0974V14.2302C22.603 14.2497 22.7812 14.2497 22.8709 14.2497C23.3664 14.2497 23.6337 14.0416 23.7973 13.5064C23.7973 13.4966 23.8913 13.1896 23.8913 13.1847L22.0085 7.9668H23.1681L24.4863 12.2083H24.5058L25.8241 7.9668H26.9537Z" fill="black"/>
<path d="M8.52868 6.72741C8.25161 7.05269 7.81281 7.31023 7.3728 7.27239C7.31604 6.83238 7.53574 6.36429 7.78413 6.07806C8.06059 5.74301 8.53844 5.50439 8.93025 5.48486C8.97785 5.9438 8.79659 6.39297 8.52868 6.72741Z" fill="black"/>
<path d="M10.5443 11.1811C10.5346 11.2098 10.3826 11.7341 10.0109 12.2772C9.68688 12.7539 9.35366 13.2207 8.82027 13.2305C8.3058 13.2403 8.13431 12.9253 7.54355 12.9253C6.95279 12.9253 6.76238 13.2207 6.2766 13.2403C5.76213 13.2592 5.37215 12.7343 5.04809 12.2583C4.38105 11.2953 3.87634 9.54192 4.5623 8.35979C4.89552 7.76904 5.50519 7.39737 6.16247 7.38761C6.66718 7.37845 7.13405 7.72143 7.43919 7.72143C7.74372 7.72143 8.28627 7.32109 8.92463 7.35954C9.1724 7.37845 9.88705 7.45474 10.3442 8.13094C10.3063 8.16023 9.49647 8.6271 9.50623 9.60844C9.51539 10.7808 10.5346 11.1714 10.5443 11.1811Z" fill="black"/>
<path d="M14.4826 6.02979H11.8022V13.1793H12.9117V10.7369H14.4478C15.8503 10.7369 16.8359 9.77572 16.8359 8.37817C16.8359 6.9861 15.8704 6.02979 14.4826 6.02979ZM14.1854 9.80502H12.9117V6.96596H14.1903C15.1515 6.96596 15.7014 7.48166 15.7014 8.38305C15.7014 9.28505 15.1515 9.80502 14.1854 9.80502Z" fill="black"/>
<path d="M19.4846 7.87305C18.1963 7.87305 17.3938 8.56694 17.3346 9.508H18.3452C18.4392 9.04236 18.8255 8.74515 19.4449 8.74515C20.0992 8.74515 20.4904 9.09179 20.4904 9.67156V10.0731L19.0635 10.1573C17.8246 10.2269 17.1265 10.7866 17.1265 11.6983C17.1265 12.6345 17.8399 13.2692 18.8603 13.2692C19.5444 13.2692 20.2035 12.9024 20.5056 12.3226H20.53V13.1795H21.5559V9.58734C21.5559 8.54192 20.7485 7.87305 19.4846 7.87305ZM20.4904 11.2278C20.4904 11.9064 19.9057 12.4215 19.1575 12.4215C18.5832 12.4215 18.2067 12.1243 18.2067 11.6684C18.2067 11.2229 18.568 10.9403 19.2069 10.8958L20.4904 10.8165V11.2278Z" fill="black"/>
<path d="M25.8243 7.9668L24.5061 12.2083H24.4865L23.1683 7.9668H22.0088L23.8915 13.1847C23.8915 13.1896 23.7975 13.4966 23.7975 13.5064C23.634 14.0416 23.3667 14.2497 22.8711 14.2497C22.7814 14.2497 22.6032 14.2497 22.5245 14.2302V15.0974C22.6032 15.112 22.8711 15.1218 22.9602 15.1218C24.0404 15.1218 24.5555 14.7153 25.0016 13.452L26.9539 7.9668H25.8243Z" fill="black"/>
</svg>
