<svg width="23" height="22" viewBox="0 0 23 22" fill="none" xmlns="http://www.w3.org/2000/svg">
<path d="M11.0442 0C4.95413 0 0 4.94623 0 11.0285C0.605385 25.6593 21.4853 25.6551 22.0885 11.0284C22.0885 4.94624 17.1344 0 11.0442 0ZM11.0442 20.5423C5.79034 20.5423 1.51857 16.2745 1.51857 11.0285C2.04065 -1.59308 20.0498 -1.5894 20.5699 11.0286C20.5699 16.2745 16.2982 20.5423 11.0442 20.5423Z" fill="#1E3862"/>
<path d="M11.0444 2.30353C6.22833 2.30353 2.30762 6.21634 2.30762 11.0285C2.78738 22.6032 19.3032 22.5998 19.7812 11.0284C19.7812 6.21634 15.8605 2.30353 11.0444 2.30353ZM5.9404 13.3044C5.93086 13.8207 5.16168 13.824 5.15152 13.3044V9.34423L4.54015 9.59667C4.05664 9.78746 3.7612 9.07427 4.23644 8.86694C4.23643 8.86695 5.39608 8.38969 5.39608 8.38969C5.64242 8.27496 5.94795 8.48308 5.94039 8.75257C5.9404 8.75257 5.9404 13.3044 5.9404 13.3044ZM9.54161 12.2039C9.47911 14.1768 6.61929 14.1815 6.55572 12.2039V9.99506C6.55572 9.17067 7.22627 8.50013 8.0467 8.50013C8.87107 8.50013 9.54161 9.17068 9.54161 9.99506V12.2039ZM13.1152 12.2039C13.0518 14.1808 10.1919 14.1775 10.1293 12.2039V9.99506C10.1918 8.02214 13.0516 8.01742 13.1152 9.99509C13.1152 9.99506 13.1152 12.2039 13.1152 12.2039ZM13.6714 9.65977C13.7077 8.25743 15.7603 8.2537 15.7974 9.6598C15.7601 11.0661 13.7075 11.0618 13.6714 9.65977ZM14.9454 12.9336C14.6413 12.9468 14.4382 12.5738 14.618 12.3222C14.618 12.3222 16.7007 9.18252 16.7007 9.18252C16.9964 8.7641 17.6364 9.1801 17.3594 9.62036C17.3594 9.62034 15.2728 12.7601 15.2728 12.7601C15.1979 12.8744 15.0716 12.9336 14.9454 12.9336ZM17.032 13.6081C15.6295 13.5703 15.6262 11.5102 17.032 11.4742C18.4325 11.5114 18.4287 13.5694 17.032 13.6081Z" fill="#1E3862"/>
<path d="M17.0318 12.2631C16.6687 12.263 16.6721 12.8176 17.0318 12.8192C17.3859 12.8169 17.3892 12.2637 17.0318 12.2631Z" fill="#1E3862"/>
<path d="M15.0082 9.65977C15.0071 9.29633 14.4602 9.30029 14.46 9.65978C14.4602 10.0193 15.0071 10.0232 15.0082 9.65977Z" fill="#1E3862"/>
<path d="M11.624 9.289C11.2335 9.289 10.918 9.60457 10.918 9.99506V12.2039C10.9407 13.1325 12.3022 13.1375 12.3261 12.2039V9.99506C12.3261 9.60457 12.0106 9.289 11.624 9.289Z" fill="#1E3862"/>
<path d="M8.04684 9.289C7.66027 9.289 7.34473 9.60457 7.34473 9.99506V12.2039C7.36838 13.1365 8.72993 13.1335 8.75287 12.2039V9.99506C8.75287 9.60457 8.43732 9.289 8.04684 9.289Z" fill="#1E3862"/>
</svg>
