<svg width="52" height="52" viewBox="0 0 52 52" fill="none" xmlns="http://www.w3.org/2000/svg">
<path d="M16.4004 12.4C16.4004 11.6545 16.4004 11.2817 16.5222 10.9877C16.6846 10.5957 16.9961 10.2842 17.3881 10.1218C17.6821 10 18.0549 10 18.8004 10H33.2004C33.9458 10 34.3186 10 34.6127 10.1218C35.0047 10.2842 35.3162 10.5957 35.4786 10.9877C35.6004 11.2817 35.6004 11.6545 35.6004 12.4C35.6004 13.1455 35.6004 13.5183 35.4786 13.8123C35.3162 14.2043 35.0047 14.5158 34.6127 14.6782C34.3186 14.8 33.9458 14.8 33.2004 14.8H18.8004C18.0549 14.8 17.6821 14.8 17.3881 14.6782C16.9961 14.5158 16.6846 14.2043 16.5222 13.8123C16.4004 13.5183 16.4004 13.1455 16.4004 12.4Z" stroke="#FFB703" stroke-width="2.2"/>
<path d="M14 35.5996H38" stroke="#FFB703" stroke-width="2.2" stroke-linecap="round"/>
<path d="M14 22.8008H38" stroke="#FFB703" stroke-width="2.2" stroke-linecap="round"/>
<path d="M15.6021 19.2792L19.4471 16.2032C20.3152 15.5088 20.7492 15.1616 21.2635 14.9812C21.7777 14.8008 22.3335 14.8008 23.4452 14.8008H28.6285C29.7503 14.8008 30.3111 14.8008 30.8293 14.9842C31.3476 15.1677 31.7836 15.5206 32.6554 16.2264L36.4271 19.2797C37.9282 20.4948 38.8002 22.3228 38.8002 24.2541V34.9046C38.8002 36.3891 38.2842 37.8273 37.3405 38.9733L36.7672 39.6693C35.5516 41.1456 33.7394 42.0008 31.8269 42.0008H21.1313C20.2175 42.0008 19.7606 42.0008 19.3275 41.9413C18.0428 41.7649 16.8419 41.2025 15.884 40.3285C15.5611 40.0337 15.2685 39.6829 14.6836 38.9808C13.7251 37.8307 13.2002 36.3808 13.2002 34.8837V24.2768C13.2002 22.3326 14.084 20.4938 15.6021 19.2792Z" stroke="#FFB703" stroke-width="2.2" stroke-linecap="round"/>
<path d="M25.9998 26V32.4M22.7998 29.2H29.1998" stroke="#FFB703" stroke-width="2.2" stroke-linecap="round"/>
</svg>
