<svg width="48" height="48" viewBox="0 0 48 48" fill="none" xmlns="http://www.w3.org/2000/svg">
<rect width="48" height="48" rx="8" fill="#1192E8" fill-opacity="0.05"/>
<path d="M21.1109 13.4403C21.8452 12.8146 22.2122 12.5017 22.5961 12.3183C23.4839 11.8939 24.516 11.8939 25.4039 12.3183C25.7878 12.5017 26.1548 12.8146 26.8891 13.4403C27.1813 13.6894 27.3275 13.8139 27.4836 13.9185C27.8413 14.1583 28.243 14.3247 28.6654 14.4081C28.8498 14.4445 29.0411 14.4597 29.424 14.4903C30.3856 14.567 30.8664 14.6054 31.2676 14.7471C32.1954 15.0748 32.9252 15.8046 33.253 16.7325C33.3947 17.1336 33.433 17.6144 33.5098 18.5761C33.5403 18.9588 33.5555 19.1502 33.592 19.3345C33.6753 19.757 33.8417 20.1588 34.0816 20.5165C34.1861 20.6725 34.3106 20.8187 34.5597 21.1109C35.1854 21.8451 35.4984 22.2124 35.6818 22.5961C36.1061 23.4839 36.1061 24.516 35.6818 25.4039C35.4984 25.7877 35.1854 26.1548 34.5597 26.8891C34.3106 27.1813 34.1861 27.3274 34.0816 27.4836C33.8417 27.8413 33.6753 28.243 33.592 28.6656C33.5555 28.8498 33.5403 29.0412 33.5098 29.4239C33.433 30.3856 33.3947 30.8664 33.253 31.2676C32.9252 32.1954 32.1954 32.9252 31.2676 33.253C30.8664 33.3947 30.3856 33.433 29.424 33.5098C29.0411 33.5403 28.8498 33.5556 28.6654 33.5919C28.243 33.6754 27.8413 33.8417 27.4836 34.0816C27.3275 34.1861 27.1813 34.3106 26.8891 34.5597C26.1548 35.1854 25.7878 35.4983 25.4039 35.6818C24.516 36.1061 23.4839 36.1061 22.5961 35.6818C22.2122 35.4983 21.8452 35.1854 21.1109 34.5597C20.8187 34.3106 20.6725 34.1861 20.5165 34.0816C20.1588 33.8417 19.757 33.6754 19.3345 33.5919C19.1502 33.5556 18.9589 33.5403 18.5761 33.5098C17.6144 33.433 17.1336 33.3947 16.7325 33.253C15.8046 32.9252 15.0748 32.1954 14.7471 31.2676C14.6054 30.8664 14.567 30.3856 14.4903 29.4239C14.4597 29.0412 14.4445 28.8498 14.4081 28.6656C14.3247 28.243 14.1583 27.8413 13.9185 27.4836C13.8139 27.3274 13.6894 27.1813 13.4403 26.8891C12.8146 26.1548 12.5017 25.7877 12.3183 25.4039C11.8939 24.516 11.8939 23.4839 12.3183 22.5961C12.5017 22.2122 12.8146 21.8451 13.4403 21.1109C13.6894 20.8187 13.8139 20.6725 13.9185 20.5165C14.1583 20.1588 14.3247 19.757 14.4081 19.3345C14.4445 19.1502 14.4597 18.9588 14.4903 18.5761C14.567 17.6144 14.6054 17.1336 14.7471 16.7325C15.0748 15.8046 15.8046 15.0748 16.7325 14.7471C17.1336 14.6054 17.6144 14.567 18.5761 14.4903C18.9589 14.4597 19.1502 14.4445 19.3345 14.4081C19.757 14.3247 20.1588 14.1583 20.5165 13.9185C20.6725 13.8139 20.8187 13.6894 21.1109 13.4403Z" stroke="#33B1FF" stroke-width="2.1"/>
<path d="M20.0935 27.9049L27.9066 20.0918" stroke="#33B1FF" stroke-width="2.1" stroke-linecap="round"/>
<path d="M28.5577 27.2553C28.5577 27.9745 27.9747 28.5575 27.2555 28.5575C26.5364 28.5575 25.9534 27.9745 25.9534 27.2553C25.9534 26.5361 26.5364 25.9531 27.2555 25.9531C27.9747 25.9531 28.5577 26.5361 28.5577 27.2553Z" fill="#33B1FF"/>
<path d="M22.0467 20.7436C22.0467 21.4628 21.4638 22.0458 20.7446 22.0458C20.0254 22.0458 19.4424 21.4628 19.4424 20.7436C19.4424 20.0244 20.0254 19.4414 20.7446 19.4414C21.4638 19.4414 22.0467 20.0244 22.0467 20.7436Z" fill="#33B1FF"/>
</svg>
