<svg width="18" height="18" viewBox="0 0 18 18" fill="none" xmlns="http://www.w3.org/2000/svg">
<path d="M1.82056 8.82085C1.82056 6.11324 1.82056 4.75944 2.66168 3.91829C3.50282 3.07715 4.85659 3.07715 7.56415 3.07715H10.4359C13.1435 3.07715 14.4973 3.07715 15.3384 3.91829C16.1795 4.75944 16.1795 6.11324 16.1795 8.82085V10.2568C16.1795 12.9643 16.1795 14.3182 15.3384 15.1593C14.4973 16.0005 13.1435 16.0005 10.4359 16.0005H7.56415C4.85659 16.0005 3.50282 16.0005 2.66168 15.1593C1.82056 14.3182 1.82056 12.9643 1.82056 10.2568V8.82085Z" stroke="#6B6F72" stroke-width="1.25"/>
<path d="M5.41016 3.07694V2" stroke="#6B6F72" stroke-width="1.25" stroke-linecap="round"/>
<path d="M12.5896 3.07694V2" stroke="#6B6F72" stroke-width="1.25" stroke-linecap="round"/>
<path d="M11.1541 12.0516C11.1541 12.3372 11.2675 12.6111 11.4695 12.8131C11.6714 13.015 11.9454 13.1285 12.231 13.1285C12.5166 13.1285 12.7905 13.015 12.9925 12.8131C13.1944 12.6111 13.3079 12.3372 13.3079 12.0516C13.3079 11.7659 13.1944 11.492 12.9925 11.29C12.7905 11.0881 12.5166 10.9746 12.231 10.9746C11.9454 10.9746 11.6714 11.0881 11.4695 11.29C11.2675 11.492 11.1541 11.7659 11.1541 12.0516Z" stroke="#6B6F72" stroke-width="1.25"/>
<path d="M2.17944 6.66602H15.8205" stroke="#6B6F72" stroke-width="1.25" stroke-linecap="round"/>
</svg>
