<svg width="41" height="30" viewBox="0 0 41 30" fill="none" xmlns="http://www.w3.org/2000/svg">
<path d="M13.031 7.53112H32.4999L29.5123 17.9876H16.0186" stroke="#1E3862" stroke-width="1.5" stroke-miterlimit="10" stroke-linecap="round" stroke-linejoin="round"/>
<path d="M20.5 23.9627C20.5 24.7876 19.8312 25.4565 19.0062 25.4565C18.1813 25.4565 17.5125 24.7876 17.5125 23.9627C17.5125 23.1377 18.1813 22.4689 19.0062 22.4689C19.8312 22.4689 20.5 23.1377 20.5 23.9627Z" stroke="#1E3862" stroke-width="1.5" stroke-miterlimit="10" stroke-linecap="round" stroke-linejoin="round"/>
<path d="M28.0186 23.9627C28.0186 24.7876 27.3497 25.4565 26.5248 25.4565C25.6998 25.4565 25.031 24.7876 25.031 23.9627C25.031 23.1377 25.6998 22.4689 26.5248 22.4689C27.3497 22.4689 28.0186 23.1377 28.0186 23.9627Z" stroke="#1E3862" stroke-width="1.5" stroke-miterlimit="10" stroke-linecap="round" stroke-linejoin="round"/>
<path d="M29.5126 20.9751H16.942C15.8316 20.9751 15.1093 19.8065 15.6059 18.8133L16.0188 17.9875" stroke="#1E3862" stroke-width="1.5" stroke-miterlimit="10" stroke-linecap="round" stroke-linejoin="round"/>
<path d="M8.5 4.54357H12.1777C13.4495 8.99547 16.0187 17.9876 16.0187 17.9876" stroke="#1E3862" stroke-width="1.5" stroke-miterlimit="10" stroke-linecap="round" stroke-linejoin="round"/>
</svg>
