<svg width="48" height="32" viewBox="0 0 48 32" fill="none" xmlns="http://www.w3.org/2000/svg">
<path d="M15.918 27.7125V31.2375L47.9992 12.7219V9.1875L15.918 17.3812V27.7125Z" fill="#216321"/>
<path d="M15.9188 17.3813L0 18.5157V22.0501L15.9188 31.2376V17.3813Z" fill="#278227"/>
<path d="M48 9.1875L15.9188 27.7125L0 18.5156L32.0813 0L48 9.1875Z" fill="#32BE32"/>
<path d="M33.9281 3.23438C32.8875 3.83438 31.2094 3.83437 30.1781 3.24375C29.9625 3.12187 29.7937 2.97187 29.6625 2.82187L4.89375 17.1281C5.15625 17.2031 5.40938 17.2969 5.625 17.4281C6.65625 18.0188 6.64687 18.9938 5.60625 19.5938C5.39062 19.725 5.1375 19.8188 4.875 19.8938L13.5469 24.9C13.6781 24.75 13.8469 24.6 14.0719 24.4781C15.1125 23.8781 16.7906 23.8781 17.8125 24.4688C18.0281 24.5906 18.1969 24.7406 18.3281 24.8906L43.1062 10.5844C42.8438 10.5094 42.5906 10.4156 42.375 10.2844C41.3438 9.68438 41.3531 8.71875 42.3844 8.11875C42.6 7.99688 42.8531 7.89375 43.1156 7.81875L34.4437 2.8125C34.3219 2.9625 34.1531 3.1125 33.9281 3.23438Z" fill="#BEFE32"/>
<path d="M18.3191 23.0906C16.8566 22.6219 15.0566 22.6219 13.5848 23.1L7.97852 19.8656C8.80352 19.0125 8.80352 17.9719 7.99727 17.1281L29.6816 4.60313C31.1441 5.07188 32.9441 5.07187 34.416 4.59375L40.0223 7.82812C39.1973 8.68125 39.1879 9.7125 40.0035 10.5656L18.3191 23.0906Z" fill="#96E632"/>
<path d="M25.0615 17.7182C29.2299 16.5582 32.1276 13.8878 31.5337 11.7537C30.9398 9.61966 27.0792 8.83008 22.9108 9.99013C18.7424 11.1502 15.8447 13.8206 16.4386 15.9546C17.0325 18.0887 20.8931 18.8782 25.0615 17.7182Z" fill="#32BE32"/>
<path d="M17.1652 20.3062C16.6402 20.6062 16.0777 20.775 15.5059 20.7937C14.9434 20.8125 14.4184 20.7 13.9402 20.4562L13.8746 20.4187L13.3871 20.7L12.9652 20.4562L13.4527 20.175L13.0496 19.9406L12.5621 20.2218L12.1402 19.9781L12.6371 19.6968L12.5809 19.6593C12.1684 19.3687 11.9809 19.0593 12.0371 18.7218C12.0934 18.3843 12.3934 18.0562 12.9184 17.7468C13.1152 17.6343 13.3684 17.5218 13.659 17.4187L14.2777 17.9156C14.0715 17.9718 13.884 18.0468 13.7246 18.1406C13.4527 18.2999 13.2934 18.4593 13.2746 18.6187C13.2559 18.7687 13.3496 18.9187 13.5559 19.0781L13.6121 19.1249L14.5309 18.5906L14.9527 18.8343L14.034 19.3687L14.4371 19.6031L15.3559 19.0687L15.7777 19.3124L14.8496 19.8468L14.9246 19.8843C15.1777 20.0156 15.4402 20.0812 15.684 20.0718C15.9465 20.0718 16.2371 19.9781 16.5371 19.8C16.7246 19.6968 16.8652 19.5749 16.959 19.4625L17.8215 19.8187C17.634 19.9968 17.409 20.1656 17.1652 20.3062Z" fill="#32BE32"/>
<path d="M36.6461 9.0562C36.1211 9.3562 35.568 9.52495 34.9867 9.5437C34.4242 9.56245 33.8992 9.44995 33.4211 9.2062L33.3555 9.1687L32.868 9.44995L32.4461 9.2062L32.9336 8.92495L32.5305 8.69058L32.043 8.97183L31.6211 8.72808L32.118 8.44683L32.0711 8.40933C31.6586 8.1187 31.4711 7.79995 31.5273 7.47183C31.5836 7.13433 31.8836 6.8062 32.418 6.49683C32.6148 6.38433 32.868 6.27183 33.1586 6.1687L33.7773 6.66558C33.5711 6.72183 33.3836 6.79683 33.2242 6.89058C32.943 7.04995 32.793 7.20933 32.7742 7.3687C32.7555 7.5187 32.8492 7.6687 33.0555 7.82808L33.1117 7.87495L34.0305 7.34058L34.4523 7.58433L33.5336 8.1187L33.9367 8.35308L34.8555 7.8187L35.2773 8.06245L34.3492 8.59683L34.4242 8.63433C34.6773 8.76558 34.9398 8.8312 35.1836 8.82183C35.4461 8.81245 35.7367 8.72808 36.0367 8.54995C36.2242 8.44683 36.3648 8.33433 36.4586 8.21245L37.3211 8.5687C37.1242 8.74683 36.8992 8.91558 36.6461 9.0562Z" fill="#32BE32"/>
<path d="M26.5031 13.5938L25.0406 14.4375C25.4624 14.6625 25.8749 14.775 26.2781 14.7656C26.6812 14.7562 27.1218 14.6156 27.5999 14.3438C27.9093 14.1656 28.1343 13.9781 28.2843 13.7906L29.7468 14.4C29.4281 14.6906 29.0624 14.9625 28.6499 15.1969C27.8062 15.6844 26.9156 15.9469 25.9781 15.9844C25.0406 16.0219 24.1781 15.825 23.3812 15.4031L22.6031 15.8531L21.8624 15.4219L22.6406 14.9719L22.0781 14.6438L21.2999 15.0938L20.5593 14.6625L21.3468 14.2031C20.6343 13.725 20.3249 13.2094 20.4187 12.6562C20.5124 12.1031 20.9812 11.5875 21.8437 11.0906C22.1718 10.9031 22.5843 10.7156 23.0718 10.5469L24.1312 11.3906C23.7937 11.475 23.4843 11.5969 23.2031 11.7563C22.7718 12.0094 22.5374 12.2531 22.5093 12.4969C22.4718 12.7406 22.6406 12.9938 23.0062 13.2469L24.4593 12.4125L25.2093 12.8438L23.7468 13.6875L24.3093 14.0156L25.7718 13.1719L26.5031 13.5938Z" fill="#BEFE32"/>
</svg>
