<svg width="48" height="48" viewBox="0 0 48 48" fill="none" xmlns="http://www.w3.org/2000/svg">
<path d="M14.4546 35.4545V33.5455C14.4546 28.2737 18.7282 24 24 24C29.2718 24 33.5455 28.2737 33.5455 33.5455V35.4545" stroke="#1E3862" stroke-width="2.5" stroke-linecap="round" stroke-linejoin="round"/>
<path d="M3 35.4547V33.5456C3 30.3825 5.5642 27.8184 8.72727 27.8184" stroke="#1E3862" stroke-width="2.5" stroke-linecap="round" stroke-linejoin="round"/>
<path d="M45.0002 35.4547V33.5456C45.0002 30.3825 42.4361 27.8184 39.2729 27.8184" stroke="#1E3862" stroke-width="2.5" stroke-linecap="round" stroke-linejoin="round"/>
<path d="M24.0002 23.9995C27.1634 23.9995 29.7275 21.4354 29.7275 18.2722C29.7275 15.1091 27.1634 12.5449 24.0002 12.5449C20.837 12.5449 18.2729 15.1091 18.2729 18.2722C18.2729 21.4354 20.837 23.9995 24.0002 23.9995Z" stroke="#1E3862" stroke-width="2.5" stroke-linecap="round" stroke-linejoin="round"/>
<path d="M8.72736 27.818C10.8361 27.818 12.5455 26.1086 12.5455 23.9998C12.5455 21.891 10.8361 20.1816 8.72736 20.1816C6.61864 20.1816 4.90918 21.891 4.90918 23.9998C4.90918 26.1086 6.61864 27.818 8.72736 27.818Z" stroke="#1E3862" stroke-width="2.5" stroke-linecap="round" stroke-linejoin="round"/>
<path d="M39.2728 27.818C41.3816 27.818 43.091 26.1086 43.091 23.9998C43.091 21.891 41.3816 20.1816 39.2728 20.1816C37.164 20.1816 35.4546 21.891 35.4546 23.9998C35.4546 26.1086 37.164 27.818 39.2728 27.818Z" stroke="#1E3862" stroke-width="2.5" stroke-linecap="round" stroke-linejoin="round"/>
</svg>
