<svg width="22" height="22" viewBox="0 0 22 22" fill="none" xmlns="http://www.w3.org/2000/svg">
<path d="M2.90039 9.57503C2.90039 6.69716 2.90039 5.25825 3.24016 4.77417C3.57992 4.29009 4.93288 3.82696 7.63881 2.90071L8.15434 2.72425C9.56489 2.24142 10.2701 2 11.0004 2C11.7307 2 12.4359 2.24142 13.8465 2.72425L14.362 2.90071C17.0679 3.82696 18.4209 4.29009 18.7606 4.77417C19.1004 5.25825 19.1004 6.69716 19.1004 9.57503V10.9923C19.1004 16.0665 15.2853 18.5289 12.8917 19.5746C12.2424 19.8582 11.9178 20 11.0004 20C10.083 20 9.75839 19.8582 9.10909 19.5746C6.71545 18.5289 2.90039 16.0665 2.90039 10.9923V9.57503Z" stroke="#1192E8" stroke-width="1.7"/>
<path d="M8.75 11.3592L10.0357 12.7992L13.25 9.19922" stroke="#1192E8" stroke-width="1.7" stroke-linecap="round" stroke-linejoin="round"/>
</svg>
