<svg width="22" height="22" viewBox="0 0 22 22" fill="none" xmlns="http://www.w3.org/2000/svg">
<path d="M7.80078 11H7.80798M10.9936 11H11.0008M14.1936 11H14.2008" stroke="#6C00F0" stroke-width="1.7" stroke-linecap="round" stroke-linejoin="round"/>
<path d="M11 19C15.4182 19 19 15.4182 19 11C19 6.58172 15.4182 3 11 3C6.58172 3 3 6.58172 3 11C3 12.2798 3.3005 13.4893 3.83477 14.562C3.97675 14.847 4.02401 15.1729 3.9417 15.4805L3.46521 17.2614C3.25836 18.0344 3.96561 18.7416 4.73868 18.5348L6.51951 18.0583C6.82714 17.976 7.15297 18.0233 7.43802 18.1652C8.5107 18.6995 9.72024 19 11 19Z" stroke="#6C00F0" stroke-width="1.7"/>
</svg>
