<svg width="22" height="22" viewBox="0 0 22 22" fill="none" xmlns="http://www.w3.org/2000/svg">
<path d="M6.38428 11.0007V7.96609C6.39329 7.36959 6.51992 6.78074 6.75692 6.23325C6.99392 5.68578 7.33663 5.19045 7.76541 4.77563C8.19418 4.36082 8.7006 4.03468 9.25565 3.81591C9.81069 3.59714 10.4035 3.49003 11 3.50073C11.5965 3.49003 12.1892 3.59714 12.7443 3.81591C13.2993 4.03468 13.8057 4.36082 14.2345 4.77563C14.6633 5.19045 15.006 5.68578 15.2431 6.23325C15.48 6.78074 15.6067 7.36959 15.6157 7.96609V11.0007" stroke="#1192E8" stroke-width="1.5" stroke-linecap="round" stroke-linejoin="round"/>
<path d="M4.65343 9.26758H5.80736C5.96038 9.26758 6.10713 9.32836 6.21532 9.43656C6.32353 9.54474 6.38432 9.69149 6.38432 9.8445V13.306C6.38432 13.459 6.32353 13.6058 6.21532 13.714C6.10713 13.8222 5.96038 13.8829 5.80736 13.8829H4.65343C4.34739 13.8829 4.05389 13.7614 3.83749 13.545C3.62109 13.3286 3.49951 13.0351 3.49951 12.7291V10.4214C3.49951 10.1154 3.62109 9.82192 3.83749 9.60553C4.05389 9.38915 4.34739 9.26758 4.65343 9.26758Z" stroke="#1192E8" stroke-width="1.5" stroke-linecap="round" stroke-linejoin="round"/>
<path d="M17.3466 13.8829H16.1927C16.0397 13.8829 15.8929 13.8222 15.7847 13.714C15.6765 13.6058 15.6157 13.459 15.6157 13.306V9.8445C15.6157 9.69149 15.6765 9.54474 15.7847 9.43656C15.8929 9.32836 16.0397 9.26758 16.1927 9.26758H17.3466C17.6526 9.26758 17.9462 9.38915 18.1625 9.60553C18.3789 9.82192 18.5005 10.1154 18.5005 10.4214V12.7291C18.5005 13.0351 18.3789 13.3286 18.1625 13.545C17.9462 13.7614 17.6526 13.8829 17.3466 13.8829Z" stroke="#1192E8" stroke-width="1.5" stroke-linecap="round" stroke-linejoin="round"/>
<path d="M13.3076 17.0591C13.9197 17.0591 14.5067 16.816 14.9395 16.3832C15.3723 15.9504 15.6155 15.3634 15.6155 14.7514V12.1553" stroke="#1192E8" stroke-width="1.5" stroke-linecap="round" stroke-linejoin="round"/>
<path d="M13.3081 17.0585C13.3081 17.441 13.1561 17.8079 12.8856 18.0784C12.6151 18.3489 12.2482 18.5008 11.8657 18.5008H10.1348C9.75224 18.5008 9.38536 18.3489 9.11486 18.0784C8.84435 17.8079 8.69238 17.441 8.69238 17.0585C8.69238 16.676 8.84435 16.3091 9.11486 16.0386C9.38536 15.7682 9.75224 15.6162 10.1348 15.6162H11.8657C12.2482 15.6162 12.6151 15.7682 12.8856 16.0386C13.1561 16.3091 13.3081 16.676 13.3081 17.0585Z" stroke="#1192E8" stroke-width="1.5" stroke-linecap="round" stroke-linejoin="round"/>
</svg>
