<svg width="16" height="16" viewBox="0 0 16 16" fill="none" xmlns="http://www.w3.org/2000/svg">
<path d="M3.91064 5.98446C3.91064 5.43432 4.12917 4.90672 4.51815 4.51771C4.90713 4.1287 5.4347 3.91016 5.98479 3.91016H12.7244C12.9968 3.91016 13.2665 3.96381 13.5182 4.06805C13.7698 4.1723 13.9985 4.32509 14.1911 4.51771C14.3837 4.71032 14.5364 4.93899 14.6407 5.19066C14.7449 5.44233 14.7986 5.71206 14.7986 5.98446V12.7246C14.7986 12.997 14.7449 13.2667 14.6407 13.5184C14.5364 13.7701 14.3837 13.9987 14.1911 14.1914C13.9985 14.384 13.7698 14.5368 13.5182 14.641C13.2665 14.7453 12.9968 14.7989 12.7244 14.7989H5.98479C5.71241 14.7989 5.4427 14.7453 5.19105 14.641C4.9394 14.5368 4.71075 14.384 4.51815 14.1914C4.32555 13.9987 4.17277 13.7701 4.06853 13.5184C3.96429 13.2667 3.91064 12.997 3.91064 12.7246V5.98446Z" stroke="#1192E8" stroke-width="1.6" stroke-linecap="round" stroke-linejoin="round"/>
<path d="M1.58685 11.484C1.34836 11.348 1.14999 11.1515 1.01179 10.9143C0.873592 10.6771 0.800467 10.4076 0.799805 10.133V2.35534C0.799805 1.4998 1.49974 0.799805 2.35522 0.799805H10.1323C10.7156 0.799805 11.0329 1.09925 11.2989 1.57757" stroke="#1192E8" stroke-width="1.6" stroke-linecap="round" stroke-linejoin="round"/>
</svg>
