<svg width="24" height="24" viewBox="0 0 24 24" fill="none" xmlns="http://www.w3.org/2000/svg">
<path d="M17.8326 9.30794C17.7599 9.22523 17.6434 9.19638 17.5404 9.2356C17.4375 9.27482 17.3697 9.3739 17.3704 9.48407C17.3785 10.7096 17.2246 10.8852 16.9917 11.1511C16.8205 11.3463 16.6229 11.5719 16.4305 12.0941C16.1208 10.8629 15.5278 9.7546 14.9888 8.74718C13.9737 6.84987 13.097 5.21128 14.3202 3.41248C14.3838 3.31902 14.3807 3.19547 14.3127 3.10517C14.2447 3.01488 14.1268 2.97789 14.0194 3.01326C13.9503 3.03597 12.3103 3.5842 10.7202 4.86125C9.77972 5.61661 9.05498 6.47057 8.56615 7.39942C8.00852 8.459 7.75926 9.61551 7.82338 10.8422C7.67587 10.7289 7.47225 10.5136 7.24482 10.1619C6.8892 9.61208 6.5911 8.91551 6.42247 8.24221C6.42832 8.18798 6.42198 8.11896 6.37311 8.05205C6.3234 7.98405 6.24336 7.94343 6.15915 7.94343C5.98215 7.94343 5.91713 8.0812 5.85425 8.21449C5.82385 8.27891 5.77267 8.39255 5.70151 8.56796C5.59658 8.82665 5.43471 9.2531 5.25952 9.8154C4.96752 10.7527 4.60297 12.191 4.52437 13.7194C4.42767 15.6001 4.78151 17.155 5.57614 18.3411C6.58427 19.8458 8.28784 20.7318 10.6395 20.9743C10.6437 20.9747 10.6479 20.975 10.652 20.9752C10.9497 20.9917 11.2449 21 11.5295 21C13.456 21 15.0826 20.6239 16.3643 19.8823C17.5036 19.223 18.351 18.2923 18.883 17.1159C20.1194 14.3818 19.3199 10.9989 17.8326 9.30794Z" fill="#F26822"/>
<path d="M14.8624 13.7114C14.7896 13.6287 14.6732 13.5998 14.5702 13.6391C14.4672 13.6783 14.3994 13.7773 14.4002 13.8875C14.4049 14.5943 14.3215 14.6894 14.1952 14.8335C14.1108 14.9298 14.0301 15.0308 13.9535 15.1724C13.7511 14.5226 13.4353 13.9323 13.1449 13.3896C12.518 12.2179 12.0228 11.2924 12.7322 10.2492C12.7958 10.1557 12.7928 10.0321 12.7248 9.94185C12.6568 9.85152 12.5388 9.81456 12.4314 9.84994C12.3887 9.86401 11.3731 10.2035 10.3908 10.9924C9.21126 11.9398 8.59307 13.1299 8.5833 14.4583C8.37077 14.1954 8.09387 13.7125 7.94342 13.1206C7.94583 13.0593 7.92894 13.0036 7.8928 12.9542C7.8431 12.8862 7.7634 12.8458 7.67918 12.8458C7.48521 12.8458 7.42872 12.9851 7.30486 13.2904C7.24025 13.4497 7.14061 13.7122 7.03293 14.0579C6.85344 14.6341 6.6293 15.5185 6.58091 16.4597C6.52087 17.6272 6.74211 18.5948 7.23848 19.3357C7.87006 20.2784 8.93232 20.8329 10.3958 20.9838C10.4 20.9842 10.4042 20.9846 10.4084 20.9848C10.5914 20.9949 10.773 21 10.9481 21C12.1392 21 13.1468 20.7664 13.9429 20.3057C14.6554 19.8934 15.1855 19.3111 15.5184 18.575C16.2882 16.8726 15.7894 14.7653 14.8624 13.7114Z" fill="#F7B219"/>
</svg>
