<svg width="48" height="33" viewBox="0 0 48 33" fill="none" xmlns="http://www.w3.org/2000/svg">
<path d="M44.8875 32.6249H3.11248C1.39684 32.6249 0 31.228 0 29.503V3.12175C0 1.40612 1.39684 0.00927734 3.11248 0.00927734H44.8781C46.6031 0.00927734 47.9999 1.40612 47.9999 3.12175V29.503C48 31.228 46.6032 32.6249 44.8875 32.6249Z" fill="#505278"/>
<path d="M44.8876 0.00927734H24V32.6249H44.8875C46.6125 32.6249 48 31.228 48 29.5124V3.12175C48 1.40612 46.6032 0.00927734 44.8876 0.00927734Z" fill="#424566"/>
<path d="M25.0406 0.00936653C24.7218 9.63748 16.7906 17.3625 7.08749 17.3625C4.57497 17.3625 2.175 16.8468 0 15.9V11.7094C2.09062 12.9187 4.5094 13.6031 7.08749 13.6031C14.7187 13.6031 20.9625 7.55623 21.2812 0H25.0405V0.00936653H25.0406Z" fill="#575982"/>
<path d="M24 0.00927734V5.45615C24.6094 3.74052 24.975 1.9124 25.0406 0.00927734H24Z" fill="#505278"/>
<path d="M47.9995 19.0782V22.8845C45.7495 22.4532 43.5558 22.2657 41.3808 22.4814C37.4527 22.8751 33.8057 24.7126 29.8964 28.2658C29.2682 28.8376 28.6307 29.4283 28.0213 30.0001C27.0839 30.872 26.1463 31.7532 25.1619 32.6158H19.0869C21.3369 31.1157 23.3525 29.2314 25.4619 27.2626C26.09 26.6814 26.7275 26.072 27.3744 25.4907C31.9119 21.3751 36.2432 19.2282 41.0056 18.7501C43.3589 18.5157 45.7401 18.7032 47.9995 19.0782Z" fill="#505278"/>
<path d="M19.0869 32.6249H23.9994V28.6218C22.3963 30.0937 20.8119 31.4719 19.0869 32.6249Z" fill="#575982"/>
<path d="M10.05 15.8812H5.44687C4.74373 15.8812 4.17188 15.3093 4.17188 14.6062V11.5499C4.17188 10.8468 4.74373 10.2749 5.44687 10.2749H10.05C10.7532 10.2749 11.325 10.8468 11.325 11.5499V14.6062C11.3156 15.3187 10.7531 15.8812 10.05 15.8812Z" fill="#424566"/>
<path d="M10.0502 15.8062H5.43769C4.78145 15.8062 4.24707 15.2719 4.24707 14.6156V11.55C4.24707 10.8938 4.78145 10.3594 5.43769 10.3594H10.0502C10.7064 10.3594 11.2408 10.8938 11.2408 11.55V14.6156C11.2408 15.2719 10.7064 15.8062 10.0502 15.8062Z" fill="#FEBD55"/>
<path d="M11.2408 13.1812V12.9937H8.8033V12.1687L9.43143 11.5405H11.2408C11.2408 11.4749 11.2314 11.4093 11.2221 11.353H9.3846C9.3565 11.353 9.33769 11.3624 9.31895 11.3811L8.66272 12.0374H7.83765V10.3687H7.65016V12.0374H6.83453L6.1783 11.3811C6.15956 11.3624 6.13138 11.353 6.11265 11.353H4.2658C4.25644 11.4093 4.24707 11.4749 4.24707 11.5405H6.07518L6.69395 12.1593V12.9937H4.24707V13.1812H6.69395V14.0155L6.07518 14.6343H4.24707C4.24707 14.6999 4.25644 14.7655 4.2658 14.8218H6.11265C6.14075 14.8218 6.15956 14.8124 6.1783 14.7937L6.83453 14.1374H7.65016V15.8062H7.83765V14.1374H8.66264L9.31888 14.7937C9.33761 14.8124 9.35634 14.8218 9.38452 14.8218H11.222C11.2314 14.7655 11.2407 14.6999 11.2407 14.6343H9.43136L8.80322 14.0061V13.1812H11.2408ZM8.61581 13.9499H6.88144V12.2155H8.61581V13.9499Z" fill="#B5613C"/>
<path d="M42.9753 15.75C42.9284 15.75 42.8909 15.7407 42.8535 15.7219C42.7128 15.6563 42.6566 15.4875 42.7316 15.347C43.4535 13.9126 43.4535 12.2719 42.7316 10.8376C42.666 10.6969 42.7223 10.5282 42.8535 10.4626C42.9941 10.3969 43.1628 10.4532 43.2285 10.5844C44.0347 12.1782 44.0347 14.0063 43.2285 15.6C43.1722 15.6938 43.0784 15.75 42.9753 15.75ZM42.0097 15.2157C42.769 13.8656 42.769 12.3094 42.0097 10.9594C41.9347 10.8282 41.7659 10.7719 41.6253 10.8563C41.4941 10.9313 41.4378 11.1001 41.5222 11.2406C42.1878 12.4219 42.1878 13.7719 41.5222 14.9438C41.4472 15.075 41.4941 15.2531 41.6253 15.3281C41.6722 15.3562 41.7191 15.3656 41.766 15.3656C41.8596 15.3563 41.9534 15.3 42.0097 15.2157ZM40.8097 14.8313C41.5503 13.7532 41.5503 12.4125 40.8097 11.325C40.7253 11.1938 40.5472 11.1656 40.416 11.25C40.2848 11.3344 40.2566 11.5125 40.341 11.6437C40.941 12.525 40.941 13.6312 40.341 14.5125C40.2566 14.6437 40.2847 14.8125 40.416 14.9062C40.4629 14.9437 40.5191 14.9531 40.5754 14.9531C40.669 14.9626 40.7534 14.9157 40.8097 14.8313ZM39.5441 14.475C39.9566 14.1001 40.1816 13.6031 40.1816 13.0876C40.1816 12.572 39.9566 12.0751 39.5441 11.7001C39.4316 11.597 39.2534 11.597 39.1503 11.7188C39.0472 11.8313 39.0472 12.0094 39.1691 12.1125C39.4597 12.3844 39.6191 12.7313 39.6191 13.0876C39.6191 13.4438 39.4597 13.7907 39.1691 14.0626C39.0566 14.1657 39.0472 14.3438 39.1503 14.4563C39.2066 14.5126 39.2815 14.5501 39.3566 14.5501C39.4221 14.5501 39.4878 14.522 39.5441 14.475Z" fill="#CAD4FF"/>
<path d="M23.6158 27.8999H4.52831C4.36892 27.8999 4.24707 27.778 4.24707 27.6186C4.24707 27.4593 4.36892 27.3374 4.52831 27.3374H23.6158C23.7752 27.3374 23.897 27.4593 23.897 27.6186C23.897 27.778 23.7658 27.8999 23.6158 27.8999Z" fill="#E6EAFF"/>
<path d="M43.5465 27.8999H39.9277C39.7683 27.8999 39.6465 27.778 39.6465 27.6186C39.6465 27.4593 39.7683 27.3374 39.9277 27.3374H43.5465C43.7059 27.3374 43.8277 27.4593 43.8277 27.6186C43.8277 27.778 43.6965 27.8999 43.5465 27.8999ZM38.3902 27.6186C38.3902 27.4593 38.2684 27.3374 38.109 27.3374H34.4902C34.3308 27.3374 34.209 27.4593 34.209 27.6186C34.209 27.778 34.3308 27.8999 34.4902 27.8999H38.109C38.2684 27.8999 38.3902 27.7687 38.3902 27.6186Z" fill="#CAD4FF"/>
<path d="M4.52831 6.40309C4.36892 6.40309 4.24707 6.28125 4.24707 6.12185V5.01562C4.24707 4.85622 4.36892 4.73438 4.52831 4.73438C4.68771 4.73438 4.80955 4.85622 4.80955 5.01562V6.11249C4.80955 6.27188 4.68771 6.40309 4.52831 6.40309ZM6.33769 6.12185V5.01562C6.33769 4.85622 6.21584 4.73438 6.05645 4.73438C5.89706 4.73438 5.77521 4.85622 5.77521 5.01562V6.11249C5.77521 6.27188 5.89706 6.39373 6.05645 6.39373C6.21577 6.40309 6.33769 6.27188 6.33769 6.12185ZM7.8752 6.12185V5.01562C7.8752 4.85622 7.75335 4.73438 7.59395 4.73438C7.43456 4.73438 7.31271 4.85622 7.31271 5.01562V6.11249C7.31271 6.27188 7.43456 6.39373 7.59395 6.39373C7.7439 6.40309 7.8752 6.27188 7.8752 6.12185ZM9.40333 6.12185V5.01562C9.40333 4.85622 9.28149 4.73438 9.12209 4.73438C8.9627 4.73438 8.84085 4.85622 8.84085 5.01562V6.11249C8.84085 6.27188 8.9627 6.39373 9.12209 6.39373C9.28141 6.40309 9.40333 6.27188 9.40333 6.12185Z" fill="#E6EAFF"/>
<path d="M5.10899 23.128H5.06208C4.59334 23.128 4.20898 22.7437 4.20898 22.2749V20.9437C4.20898 20.4749 4.59334 20.0906 5.06208 20.0906H5.10899C5.57773 20.0906 5.96208 20.4749 5.96208 20.9437V22.2749C5.96216 22.7436 5.58717 23.128 5.10899 23.128ZM5.06216 20.653C4.90276 20.653 4.77155 20.7842 4.77155 20.9436V22.2749C4.77155 22.4343 4.90276 22.5655 5.06216 22.5655H5.10907C5.26846 22.5655 5.39968 22.4343 5.39968 22.2749V20.9436C5.39968 20.7842 5.26846 20.653 5.10907 20.653H5.06216Z" fill="#E6EAFF"/>
<path d="M7.38731 23.128H7.3404C6.87166 23.128 6.4873 22.7437 6.4873 22.2749V20.9437C6.4873 20.4749 6.87166 20.0906 7.3404 20.0906H7.38731C7.85605 20.0906 8.2404 20.4749 8.2404 20.9437V22.2749C8.24048 22.7436 7.86549 23.128 7.38731 23.128ZM7.34048 20.653C7.18108 20.653 7.04987 20.7842 7.04987 20.9436V22.2749C7.04987 22.4343 7.18108 22.5655 7.34048 22.5655H7.38739C7.54678 22.5655 7.678 22.4343 7.678 22.2749V20.9436C7.678 20.7842 7.54678 20.653 7.38739 20.653H7.34048Z" fill="#E6EAFF"/>
<path d="M9.66563 23.128H9.61872C9.14998 23.128 8.76562 22.7437 8.76562 22.2749V20.9437C8.76562 20.4749 9.14998 20.0906 9.61872 20.0906H9.66563C10.1344 20.0906 10.5187 20.4749 10.5187 20.9437V22.2749C10.5187 22.7436 10.1344 23.128 9.66563 23.128ZM9.61872 20.653C9.45932 20.653 9.32811 20.7842 9.32811 20.9436V22.2749C9.32811 22.4343 9.45932 22.5655 9.61872 22.5655H9.66563C9.82503 22.5655 9.95624 22.4343 9.95624 22.2749V20.9436C9.95624 20.7842 9.82503 20.653 9.66563 20.653H9.61872Z" fill="#E6EAFF"/>
<path d="M11.943 23.128H11.8961C11.4273 23.128 11.043 22.7437 11.043 22.2749V20.9437C11.043 20.4749 11.4273 20.0906 11.8961 20.0906H11.943C12.4117 20.0906 12.7961 20.4749 12.7961 20.9437V22.2749C12.7961 22.7436 12.4117 23.128 11.943 23.128ZM11.8961 20.653C11.7367 20.653 11.6055 20.7842 11.6055 20.9436V22.2749C11.6055 22.4343 11.7367 22.5655 11.8961 22.5655H11.943C12.1024 22.5655 12.2336 22.4343 12.2336 22.2749V20.9436C12.2336 20.7842 12.1024 20.653 11.943 20.653H11.8961Z" fill="#E6EAFF"/>
<path d="M15.44 23.128H15.3931C14.9244 23.128 14.54 22.7437 14.54 22.2749V20.9437C14.54 20.4749 14.9244 20.0906 15.3931 20.0906H15.44C15.9088 20.0906 16.2931 20.4749 16.2931 20.9437V22.2749C16.2932 22.7436 15.9088 23.128 15.44 23.128ZM15.3932 20.653C15.2338 20.653 15.1026 20.7842 15.1026 20.9436V22.2749C15.1026 22.4343 15.2338 22.5655 15.3932 22.5655H15.4401C15.5995 22.5655 15.7307 22.4343 15.7307 22.2749V20.9436C15.7307 20.7842 15.5995 20.653 15.4401 20.653H15.3932Z" fill="#E6EAFF"/>
<path d="M17.7184 23.128H17.6715C17.2027 23.128 16.8184 22.7437 16.8184 22.2749V20.9437C16.8184 20.4749 17.2027 20.0906 17.6715 20.0906H17.7184C18.1871 20.0906 18.5715 20.4749 18.5715 20.9437V22.2749C18.5715 22.7436 18.1871 23.128 17.7184 23.128ZM17.6715 20.653C17.5121 20.653 17.3809 20.7842 17.3809 20.9436V22.2749C17.3809 22.4343 17.5121 22.5655 17.6715 22.5655H17.7184C17.8778 22.5655 18.0091 22.4343 18.0091 22.2749V20.9436C18.0091 20.7842 17.8778 20.653 17.7184 20.653H17.6715Z" fill="#E6EAFF"/>
<path d="M19.9967 23.128H19.9498C19.481 23.128 19.0967 22.7437 19.0967 22.2749V20.9437C19.0967 20.4749 19.481 20.0906 19.9498 20.0906H19.9967C20.4654 20.0906 20.8498 20.4749 20.8498 20.9437V22.2749C20.8499 22.7436 20.4655 23.128 19.9967 23.128ZM19.9499 20.653C19.7905 20.653 19.6592 20.7842 19.6592 20.9436V22.2749C19.6592 22.4343 19.7905 22.5655 19.9499 22.5655H19.9968C20.1562 22.5655 20.2874 22.4343 20.2874 22.2749V20.9436C20.2874 20.7842 20.1562 20.653 19.9968 20.653H19.9499Z" fill="#E6EAFF"/>
<path d="M22.274 23.128H22.2271C21.7584 23.128 21.374 22.7437 21.374 22.2749V20.9437C21.374 20.4749 21.7584 20.0906 22.2271 20.0906H22.274C22.7428 20.0906 23.1271 20.4749 23.1271 20.9437V22.2749C23.1272 22.7436 22.7428 23.128 22.274 23.128ZM22.2272 20.653C22.0678 20.653 21.9366 20.7842 21.9366 20.9436V22.2749C21.9366 22.4343 22.0678 22.5655 22.2272 22.5655H22.2741C22.4335 22.5655 22.5647 22.4343 22.5647 22.2749V20.9436C22.5647 20.7842 22.4335 20.653 22.2741 20.653H22.2272Z" fill="#E6EAFF"/>
<path d="M25.7711 23.128H25.7242C25.2555 23.128 24.8711 22.7437 24.8711 22.2749V20.9437C24.8711 20.4749 25.2555 20.0906 25.7242 20.0906H25.7711C26.2398 20.0906 26.6242 20.4749 26.6242 20.9437V22.2749C26.6242 22.7436 26.2398 23.128 25.7711 23.128ZM25.7242 20.653C25.5648 20.653 25.4336 20.7842 25.4336 20.9436V22.2749C25.4336 22.4343 25.5648 22.5655 25.7242 22.5655H25.7711C25.9305 22.5655 26.0617 22.4343 26.0617 22.2749V20.9436C26.0617 20.7842 25.9305 20.653 25.7711 20.653H25.7242Z" fill="#CAD4FF"/>
<path d="M28.0493 23.128H28.0025C27.5338 23.128 27.1494 22.7437 27.1494 22.2749V20.9437C27.1494 20.4749 27.5338 20.0906 28.0025 20.0906H28.0493C28.5181 20.0906 28.9024 20.4749 28.9024 20.9437V22.2749C28.9024 22.7436 28.5181 23.128 28.0493 23.128ZM28.0025 20.653C27.8431 20.653 27.7119 20.7842 27.7119 20.9436V22.2749C27.7119 22.4343 27.8431 22.5655 28.0025 22.5655H28.0493C28.2087 22.5655 28.34 22.4343 28.34 22.2749V20.9436C28.34 20.7842 28.2087 20.653 28.0493 20.653H28.0025Z" fill="#CAD4FF"/>
<path d="M30.3277 23.128H30.2808C29.8121 23.128 29.4277 22.7437 29.4277 22.2749V20.9437C29.4277 20.4749 29.8121 20.0906 30.2808 20.0906H30.3277C30.7965 20.0906 31.1808 20.4749 31.1808 20.9437V22.2749C31.1809 22.7436 30.7965 23.128 30.3277 23.128ZM30.2809 20.653C30.1215 20.653 29.9903 20.7842 29.9903 20.9436V22.2749C29.9903 22.4343 30.1215 22.5655 30.2809 22.5655H30.3278C30.4872 22.5655 30.6184 22.4343 30.6184 22.2749V20.9436C30.6184 20.7842 30.4872 20.653 30.3278 20.653H30.2809Z" fill="#CAD4FF"/>
<path d="M32.6051 23.128H32.5582C32.0894 23.128 31.7051 22.7437 31.7051 22.2749V20.9437C31.7051 20.4749 32.0894 20.0906 32.5582 20.0906H32.6051C33.0738 20.0906 33.4582 20.4749 33.4582 20.9437V22.2749C33.4583 22.7436 33.0738 23.128 32.6051 23.128ZM32.5582 20.653C32.3989 20.653 32.2676 20.7842 32.2676 20.9436V22.2749C32.2676 22.4343 32.3989 22.5655 32.5582 22.5655H32.6052C32.7646 22.5655 32.8958 22.4343 32.8958 22.2749V20.9436C32.8958 20.7842 32.7646 20.653 32.6052 20.653H32.5582Z" fill="#CAD4FF"/>
<path d="M36.1031 23.128H36.0562C35.5875 23.128 35.2031 22.7437 35.2031 22.2749V20.9437C35.2031 20.4749 35.5875 20.0906 36.0562 20.0906H36.1031C36.5719 20.0906 36.9562 20.4749 36.9562 20.9437V22.2749C36.9562 22.7436 36.5719 23.128 36.1031 23.128ZM36.0562 20.653C35.8968 20.653 35.7656 20.7842 35.7656 20.9436V22.2749C35.7656 22.4343 35.8968 22.5655 36.0562 22.5655H36.1031C36.2625 22.5655 36.3937 22.4343 36.3937 22.2749V20.9436C36.3937 20.7842 36.2625 20.653 36.1031 20.653H36.0562Z" fill="#CAD4FF"/>
<path d="M38.3814 23.128H38.3345C37.8658 23.128 37.4814 22.7437 37.4814 22.2749V20.9437C37.4814 20.4749 37.8658 20.0906 38.3345 20.0906H38.3814C38.8501 20.0906 39.2345 20.4749 39.2345 20.9437V22.2749C39.2345 22.7436 38.8501 23.128 38.3814 23.128ZM38.3345 20.653C38.1751 20.653 38.0439 20.7842 38.0439 20.9436V22.2749C38.0439 22.4343 38.1751 22.5655 38.3345 22.5655H38.3813C38.5407 22.5655 38.6719 22.4343 38.6719 22.2749V20.9436C38.6719 20.7842 38.5407 20.653 38.3813 20.653H38.3345Z" fill="#CAD4FF"/>
<path d="M40.6598 23.128H40.6129C40.1441 23.128 39.7598 22.7437 39.7598 22.2749V20.9437C39.7598 20.4749 40.1441 20.0906 40.6129 20.0906H40.6598C41.1285 20.0906 41.5129 20.4749 41.5129 20.9437V22.2749C41.5129 22.7436 41.1285 23.128 40.6598 23.128ZM40.6129 20.653C40.4535 20.653 40.3223 20.7842 40.3223 20.9436V22.2749C40.3223 22.4343 40.4535 22.5655 40.6129 22.5655H40.6599C40.8192 22.5655 40.9505 22.4343 40.9505 22.2749V20.9436C40.9505 20.7842 40.8192 20.653 40.6599 20.653H40.6129Z" fill="#CAD4FF"/>
<path d="M42.9371 23.128H42.8902C42.4215 23.128 42.0371 22.7437 42.0371 22.2749V20.9437C42.0371 20.4749 42.4215 20.0906 42.8902 20.0906H42.9371C43.4058 20.0906 43.7902 20.4749 43.7902 20.9437V22.2749C43.7903 22.7436 43.4058 23.128 42.9371 23.128ZM42.8903 20.653C42.7309 20.653 42.5997 20.7842 42.5997 20.9436V22.2749C42.5997 22.4343 42.7309 22.5655 42.8903 22.5655H42.9372C43.0966 22.5655 43.2278 22.4343 43.2278 22.2749V20.9436C43.2278 20.7842 43.0966 20.653 42.9372 20.653H42.8903Z" fill="#CAD4FF"/>
</svg>
