<svg width="60" height="60" viewBox="0 0 60 60" fill="none" xmlns="http://www.w3.org/2000/svg">
<path d="M19.8812 48.4585H18.2925L18.4554 49.9168C18.5461 50.5243 18.8622 51.0753 19.3408 51.4602C19.8193 51.8452 20.4253 52.0359 21.038 51.9943H38.9616C39.569 52.0274 40.1669 51.8329 40.6384 51.4487C41.11 51.0645 41.4213 50.5183 41.5117 49.9168L41.6746 48.4585H19.8812Z" fill="#D62828"/>
<path d="M27.1647 40.0751V38.959L23.2622 42.8696C23.6972 43.1252 24.1857 43.2764 24.6891 43.3111C25.1925 43.3458 25.6971 43.2632 26.1631 43.0697C26.6291 42.8761 27.0438 42.5771 27.3746 42.196C27.7053 41.8149 27.943 41.3622 28.069 40.8735H27.9468C27.7392 40.8653 27.5426 40.778 27.3972 40.6296C27.2518 40.4812 27.1687 40.2828 27.1647 40.0751Z" fill="#D62828"/>
<path d="M28.9653 42.682H29.78V40.8652H29.6741C29.5718 41.5149 29.33 42.1347 28.9653 42.682Z" fill="#D62828"/>
<path d="M22.6677 37.7859C22.1616 38.3004 21.8407 38.9684 21.7551 39.6849C21.6696 40.4015 21.8244 41.1262 22.1952 41.7454L26.5946 37.3297C25.9805 36.9649 25.2636 36.8119 24.5541 36.8943C23.8446 36.9768 23.1818 37.29 22.6677 37.7859Z" fill="#D62828"/>
<path d="M37.5198 24.498C37.3659 24.4364 37.2013 24.4061 37.0355 24.4089C36.8698 24.4117 36.7063 24.4475 36.5545 24.5143C36.4028 24.581 36.2659 24.6774 36.1519 24.7977C36.0378 24.918 35.9489 25.0598 35.8904 25.2149L34.7253 28.3678L37.031 29.2396L38.2367 26.0622C38.3433 25.7594 38.3281 25.4271 38.1943 25.1352C38.0606 24.8434 37.8187 24.6149 37.5198 24.498Z" fill="#D62828"/>
<path d="M31.6294 28.7832H29.5193C29.3032 28.7832 29.096 28.869 28.9432 29.0218C28.7904 29.1746 28.7046 29.3818 28.7046 29.5979V31.2681H30C30.1726 31.315 30.3249 31.4174 30.4336 31.5594C30.5422 31.7015 30.601 31.8754 30.601 32.0543C30.601 32.2331 30.5422 32.407 30.4336 32.5491C30.3249 32.6912 30.1726 32.7936 30 32.8405H28.7372V34.7387H30C30.1692 34.7881 30.3179 34.891 30.4236 35.032C30.5294 35.173 30.5866 35.3446 30.5866 35.5208C30.5866 35.6971 30.5294 35.8686 30.4236 36.0097C30.3179 36.1507 30.1692 36.2536 30 36.303H28.7372V39.3255H32.4441V29.5653C32.4357 29.3549 32.3461 29.156 32.1943 29.0102C32.0424 28.8644 31.8399 28.783 31.6294 28.7832Z" fill="#D62828"/>
<path d="M16.8261 20.962H15.2456L18.1215 46.886H41.8784L44.7544 20.962H16.8261ZM39.7032 26.665C38.9536 28.6203 37.4872 32.539 36.7376 34.4943C36.5306 35.0411 36.1577 35.5095 35.6712 35.8338C35.1847 36.1581 34.609 36.3222 34.0246 36.303V40.0995C34.0246 40.3156 33.9388 40.5228 33.786 40.6756C33.6332 40.8284 33.426 40.9142 33.2099 40.9142H31.3768V42.731H33.2588C33.3796 42.6982 33.5064 42.6936 33.6293 42.7177C33.7522 42.7418 33.8678 42.7939 33.9673 42.87C34.0668 42.946 34.1474 43.044 34.2028 43.1562C34.2583 43.2685 34.2872 43.392 34.2872 43.5172C34.2872 43.6424 34.2583 43.766 34.2028 43.8782C34.1474 43.9904 34.0668 44.0884 33.9673 44.1644C33.8678 44.2405 33.7522 44.2926 33.6293 44.3167C33.5064 44.3408 33.3796 44.3362 33.2588 44.3034H27.9469C27.7944 44.3039 27.6448 44.2616 27.5151 44.1812C26.7864 44.6443 25.9466 44.903 25.0836 44.9301C24.2206 44.9572 23.3663 44.7517 22.6099 44.3353C21.8536 43.9188 21.2232 43.3066 20.7847 42.5628C20.3462 41.8191 20.1158 40.9711 20.1176 40.1077C19.9872 36.58 24.1911 34.1277 27.1648 35.8467C27.3685 35.9852 27.1241 35.6919 27.1648 35.5208V29.5653C27.1648 28.9409 27.4129 28.342 27.8544 27.9004C28.296 27.4589 28.8948 27.2108 29.5193 27.2108H29.8044V21.9478C29.7716 21.827 29.7671 21.7002 29.7912 21.5773C29.8153 21.4545 29.8674 21.3388 29.9434 21.2393C30.0195 21.1399 30.1174 21.0593 30.2297 21.0038C30.3419 20.9483 30.4654 20.9194 30.5906 20.9194C30.7159 20.9194 30.8394 20.9483 30.9516 21.0038C31.0639 21.0593 31.1618 21.1399 31.2379 21.2393C31.3139 21.3388 31.366 21.4545 31.3901 21.5773C31.4142 21.7002 31.4097 21.827 31.3768 21.9478V27.2108C31.7151 27.1781 32.0564 27.2163 32.379 27.3229C32.7017 27.4295 32.9985 27.6022 33.2507 27.83L34.4483 24.6608C34.7343 23.9969 35.265 23.4687 35.9303 23.1859C36.5956 22.9032 37.3442 22.8876 38.0207 23.1425C38.6971 23.3973 39.2494 23.903 39.5627 24.5544C39.876 25.2059 39.9263 25.953 39.7032 26.6405V26.665Z" fill="#D62828"/>
<path d="M45.398 12.937H14.602C13.1217 12.937 11.9216 14.1371 11.9216 15.6174V17.4994C11.9216 18.9797 13.1217 20.1798 14.602 20.1798H45.398C46.8784 20.1798 48.0784 18.9797 48.0784 17.4994V15.6174C48.0784 14.1371 46.8784 12.937 45.398 12.937Z" fill="#D62828"/>
<path d="M35.483 12.1469H37.2101L35.9881 9.48277C35.7829 9.03983 35.4552 8.66486 35.0438 8.40213C34.6323 8.13939 34.1543 7.99986 33.6662 8H26.3338C25.8456 7.99986 25.3676 8.13939 24.9562 8.40213C24.5447 8.66486 24.2171 9.03983 24.0119 9.48277L22.7898 12.1469H35.483Z" fill="#D62828"/>
<path d="M34.0247 29.8013V34.6895C34.2932 34.71 34.5609 34.6413 34.7863 34.494C35.0117 34.3466 35.1822 34.129 35.2712 33.8748L36.5177 30.73L34.212 29.8583L34.0247 29.8013Z" fill="#D62828"/>
</svg>
