<svg width="23" height="23" viewBox="0 0 23 23" fill="none" xmlns="http://www.w3.org/2000/svg">
<path d="M11.15 7.02499C8.87577 7.02499 7.02502 8.87574 7.02502 11.15C7.02502 13.4242 8.87577 15.275 11.15 15.275C13.4243 15.275 15.275 13.4242 15.275 11.15C15.275 8.87574 13.4243 7.02499 11.15 7.02499ZM11.15 13.9C9.6334 13.9 8.40002 12.6666 8.40002 11.15C8.40002 9.63337 9.6334 8.39999 11.15 8.39999C12.6666 8.39999 13.9 9.63337 13.9 11.15C13.9 12.6666 12.6666 13.9 11.15 13.9Z" fill="#1192E8" stroke="#1192E8" stroke-width="0.3"/>
<path d="M21.4625 10.4625H19.3657C19.0329 6.46124 15.8388 3.26712 11.8375 2.93437V0.837494C11.8375 0.457994 11.5295 0.149994 11.15 0.149994C10.7705 0.149994 10.4625 0.457994 10.4625 0.837494V2.93437C6.46127 3.26712 3.26715 6.46262 2.9344 10.4625H0.837524C0.458024 10.4625 0.150024 10.7705 0.150024 11.15C0.150024 11.5295 0.458024 11.8375 0.837524 11.8375H2.9344C3.26715 15.8387 6.46127 19.0329 10.4625 19.3656V21.4625C10.4625 21.842 10.7705 22.15 11.15 22.15C11.5295 22.15 11.8375 21.842 11.8375 21.4625V19.3656C15.8388 19.0329 19.0329 15.8387 19.3657 11.8375H21.4625C21.842 11.8375 22.15 11.5309 22.15 11.15C22.15 10.7719 21.842 10.4625 21.4625 10.4625ZM11.15 18.025C7.35915 18.025 4.27502 14.9409 4.27502 11.15C4.27502 7.35912 7.35915 4.27499 11.15 4.27499C14.9409 4.27499 18.025 7.35912 18.025 11.15C18.025 14.9409 14.9409 18.025 11.15 18.025Z" fill="#1192E8" stroke="#1192E8" stroke-width="0.3"/>
</svg>
