<svg width="16" height="16" viewBox="0 0 16 16" fill="none" xmlns="http://www.w3.org/2000/svg">
<path d="M10.5 9.625L14.875 5.25M14.875 5.25L10.5 0.875M14.875 5.25H5.6875C5.05551 5.25 4.42972 5.37448 3.84584 5.61633C3.26196 5.85818 2.73143 6.21267 2.28455 6.65955C1.83767 7.10643 1.48318 7.63696 1.24133 8.22084C0.999479 8.80472 0.875 9.43051 0.875 10.0625C0.875 10.6945 0.999479 11.3203 1.24133 11.9042C1.48318 12.488 1.83767 13.0186 2.28455 13.4655C2.73143 13.9123 3.26196 14.2668 3.84584 14.5087C4.42972 14.7505 5.05551 14.875 5.6875 14.875H14.4375" stroke="#1192E8" stroke-width="1.75" stroke-linecap="round" stroke-linejoin="round"/>
</svg>
