<svg width="24" height="24" viewBox="0 0 24 24" fill="none" xmlns="http://www.w3.org/2000/svg">
<path d="M20.5566 19.4284C20.5566 20.8751 19.3798 22.0518 17.9331 22.0518H6.93555V20.7648H17.9331C18.6702 20.7648 19.2696 20.1654 19.2696 19.4284C19.2696 18.6912 18.6702 18.0915 17.9331 18.0915H13.8737C13.8346 18.0915 13.796 18.0906 13.7574 18.0889C12.2889 18.028 11.1133 16.8143 11.1133 15.3315C11.1133 13.8489 12.2889 12.6352 13.7574 12.5743C13.796 12.5726 13.8346 12.5718 13.8737 12.5718H18.46V13.8588H13.8737C13.8346 13.8588 13.796 13.8605 13.7574 13.8635C12.9994 13.9226 12.4005 14.5584 12.4005 15.3315C12.4005 16.1046 12.9994 16.7405 13.7574 16.7997C13.796 16.8027 13.8346 16.8044 13.8737 16.8044H17.9331C19.3798 16.8044 20.5566 17.9817 20.5566 19.4284Z" fill="#1E3862"/>
<path d="M13.8741 13.8588C13.835 13.8588 13.7964 13.8605 13.7578 13.8635V12.5743C13.7964 12.5726 13.835 12.5718 13.8741 12.5718H18.4604V13.8588H13.8741Z" fill="#1E3862"/>
<path d="M20.557 19.4285C20.557 20.8752 19.3802 22.0519 17.9335 22.0519H13.7578V20.7649H17.9335C18.6706 20.7649 19.27 20.1655 19.27 19.4285C19.27 18.6913 18.6706 18.0916 17.9335 18.0916H13.8741C13.835 18.0916 13.7964 18.0907 13.7578 18.089V16.7998C13.7964 16.8028 13.835 16.8045 13.8741 16.8045H17.9335C19.3802 16.8045 20.557 17.9818 20.557 19.4285Z" fill="#1E3862"/>
<path d="M10.0644 13.4394C10.0644 14.4984 9.69065 15.5275 9.01237 16.3388L5.54076 20.7096L2.06915 16.3388C1.39087 15.5275 1.01758 14.4984 1.01758 13.4394C1.01758 10.9455 3.04687 8.91626 5.54076 8.91626C8.03516 8.91626 10.0644 10.9455 10.0644 13.4394Z" fill="#FC1C5C"/>
<path d="M7.92129 13.4393C7.92129 14.7517 6.85394 15.8192 5.54153 15.8192C4.22963 15.8192 3.16211 14.7517 3.16211 13.4393C3.16211 12.1274 4.22963 11.0601 5.54153 11.0601C6.85394 11.0601 7.92129 12.1274 7.92129 13.4393Z" fill="white"/>
<path d="M7.70627 20.8351C7.70627 22.0291 6.73527 23 5.54136 23C4.34779 23 3.37695 22.0291 3.37695 20.8351C3.37695 19.6417 4.34779 18.6707 5.54136 18.6707C6.73527 18.6707 7.70627 19.6417 7.70627 20.8351Z" fill="#008B38"/>
<path d="M22.9834 5.52317C22.9834 6.58195 22.6096 7.6112 21.9313 8.42241L18.4597 12.7933L14.9881 8.42241C14.3098 7.6112 13.9365 6.58195 13.9365 5.52317C13.9365 3.02928 15.9658 1 18.4597 1C20.9541 1 22.9834 3.02928 22.9834 5.52317Z" fill="#FC1C5C"/>
<path d="M20.8402 5.52297C20.8402 6.83537 19.7729 7.90272 18.4605 7.90272C17.1486 7.90272 16.0811 6.83537 16.0811 5.52297C16.0811 4.21107 17.1486 3.14355 18.4605 3.14355C19.7729 3.14355 20.8402 4.21107 20.8402 5.52297Z" fill="white"/>
<path d="M20.6252 12.919C20.6252 14.1129 19.6542 15.0839 18.4603 15.0839C17.2667 15.0839 16.2959 14.1129 16.2959 12.919C16.2959 11.7255 17.2667 10.7546 18.4603 10.7546C19.6542 10.7546 20.6252 11.7255 20.6252 12.919Z" fill="#008B38"/>
</svg>
