<svg width="18" height="18" viewBox="0 0 18 18" fill="none" xmlns="http://www.w3.org/2000/svg">
<path d="M4.8995 4.8995C6.83249 2.9665 7.79901 2 9 2C10.201 2 11.1675 2.9665 13.1005 4.8995C15.0335 6.83249 16 7.79901 16 9C16 10.201 15.0335 11.1675 13.1005 13.1005C11.1675 15.0335 10.201 16 9 16C7.79901 16 6.83249 15.0335 4.8995 13.1005C2.9665 11.1675 2 10.201 2 9C2 7.79901 2.9665 6.83249 4.8995 4.8995Z" stroke="#1192E8" stroke-width="1.3"/>
<path d="M11.8 8.65039L9.93326 6.90039M11.8 8.65039L9.93326 10.4004M11.8 8.65039H8.06664C7.4444 8.65039 6.19995 9.00039 6.19995 10.4004" stroke="#1192E8" stroke-width="1.3" stroke-linecap="round" stroke-linejoin="round"/>
</svg>
