<svg width="48" height="48" viewBox="0 0 48 48" fill="none" xmlns="http://www.w3.org/2000/svg">
<path d="M21.1256 45.0144C22.0301 46.3482 23.6477 46.9999 25.6178 46.9999C27.9635 46.9999 30.8153 46.0569 33.5136 44.2248C38.4735 40.8518 40.7962 35.9226 38.8032 32.9943L35.8978 28.7167C33.9046 25.7883 28.4696 26.141 23.5097 29.5063C21.2099 31.0701 19.3854 33.0479 18.3659 35.087C17.7985 36.2293 17.5073 37.3255 17.5073 38.3221C17.5073 39.1807 17.722 39.9625 18.1589 40.6371C18.1743 40.6678 18.1972 40.7062 18.2202 40.7368V40.7445L21.1256 45.0144ZM19.738 35.777C20.6426 33.9679 22.2832 32.1894 24.3683 30.7788C26.783 29.1383 29.3971 28.272 31.4439 28.272C32.8775 28.272 34.0274 28.7014 34.6329 29.5829C35.0316 30.1655 35.1619 30.9168 35.0162 31.8137C34.6635 34.0522 32.5938 36.7506 29.7497 38.69C26.9057 40.6218 23.6324 41.5494 21.4169 41.0511C20.5353 40.8595 19.8837 40.4608 19.4851 39.8782C18.8182 38.8893 18.9101 37.4328 19.738 35.777Z" fill="#1192E8"/>
<path d="M22.2892 35.9149C22.3117 35.9149 22.3341 35.9141 22.3566 35.9119L31.8985 35.0787C32.32 35.042 32.6322 34.6699 32.5955 34.2485C32.5588 33.827 32.1815 33.5133 31.7653 33.5515L22.2233 34.3847C21.8019 34.4214 21.4897 34.7935 21.5264 35.2149C21.5608 35.6139 21.8962 35.9149 22.2892 35.9149Z" fill="#1192E8"/>
<path d="M18.8643 23.9336L21.3557 17.5939C21.946 16.1067 21.9153 14.4738 21.279 13.0097C20.6351 11.5378 19.4623 10.4032 17.9751 9.82067L17.5458 9.65199C16.0509 9.06171 14.4181 9.0924 12.954 9.72868C11.482 10.3726 10.3474 11.5455 9.76482 13.0327L7.27341 19.3723L4.77432 25.7121C4.1917 27.2069 4.2224 28.8398 4.85873 30.3039C5.50263 31.7758 6.67554 32.9027 8.16277 33.493L8.59201 33.6616C9.30498 33.9452 10.0486 34.0832 10.7921 34.0832C11.6048 34.0832 12.4173 33.9146 13.1839 33.5773C14.6558 32.941 15.7826 31.7681 16.3729 30.2733L18.8643 23.9336ZM11.1908 13.5999C11.6277 12.4884 12.4709 11.6145 13.5672 11.1392C14.1344 10.8862 14.74 10.7636 15.3456 10.7636C15.8975 10.7636 16.4496 10.8709 16.9786 11.0778L17.4078 11.2465C18.5193 11.6835 19.3932 12.5267 19.8685 13.6152C20.3438 14.7115 20.3668 15.9227 19.9298 17.0343L17.7144 22.661L8.98289 19.2267L11.1908 13.5999Z" fill="#1192E8"/>
<path d="M41.1491 22.9214C42.4447 21.9862 43.3032 20.5987 43.5639 19.0119C43.8169 17.4327 43.4489 15.8458 42.506 14.5503L38.535 9.03085C38.535 9.02318 38.5274 9.02318 38.5274 9.0155C38.5222 9.01042 38.5171 9.00532 38.512 9.0002L34.5488 3.48842C32.617 0.805358 28.8608 0.199722 26.1777 2.12387L25.802 2.39983C23.1189 4.33165 22.5057 8.08796 24.4375 10.771L28.4007 16.2751C28.4084 16.2828 28.4084 16.2905 28.4161 16.2981L28.4314 16.3135L32.4023 21.8252C33.3375 23.1284 34.7251 23.987 36.3043 24.24C36.6262 24.2937 36.9559 24.3243 37.2779 24.3243C38.5274 24.3243 39.7386 23.9334 40.7735 23.1898L41.1491 22.9214ZM26.6989 3.64175L27.0746 3.37341C27.8411 2.82149 28.7457 2.53018 29.6733 2.53018C29.9109 2.53018 30.1563 2.54548 30.4015 2.59148C31.5744 2.78313 32.6093 3.41941 33.3069 4.38532L36.8409 9.29151L29.2134 14.7803L25.6793 9.87408C24.2459 7.87329 24.6981 5.08289 26.6989 3.64175Z" fill="#1192E8"/>
</svg>
