<svg width="48" height="48" viewBox="0 0 48 48" fill="none" xmlns="http://www.w3.org/2000/svg">
<path d="M43.2714 12.1516V11.926H43.2526C43.1398 9.14336 41.2597 6.37955 37.584 4.26439C30.0446 -0.0881317 17.8237 -0.0881317 10.3314 4.26439C6.58049 6.44536 4.71915 9.30317 4.72855 12.161V18.0552V18.1586V23.9495V24.0529V29.8437V29.9471V35.8414C4.74735 38.6992 6.6463 41.557 10.416 43.7285C14.1951 45.9095 19.1304 47 24.0564 47C28.9918 47 33.9083 45.9095 37.6686 43.7285C41.4195 41.5476 43.2808 38.6898 43.2714 35.8414V29.9471V29.6181V24.0529V23.7051V18.1398V17.8108V12.1516ZM14.2515 8.61692L15.2949 8.01528C15.5582 7.86486 15.9718 7.86486 16.2444 8.01528L17.5323 8.75793C17.8143 8.58872 18.1058 8.42891 18.3878 8.25969L17.0999 7.51704C16.8367 7.36663 16.8367 7.12221 17.0999 6.9718L18.1434 6.37015C18.4066 6.21974 18.8296 6.21974 19.0928 6.37015L20.738 7.31962L20.9542 7.25382C22.7967 6.68978 24.7521 6.43596 26.839 6.58637C28.4747 6.70858 29.9412 7.09401 31.2855 7.65805C31.812 7.87426 32.3008 8.11868 32.7427 8.3725C33.9083 9.04935 34.8014 9.83901 35.4971 10.7321L35.6381 10.9765C35.7979 11.3055 35.6099 11.5311 35.0552 11.6627C34.4724 11.8132 33.8801 11.9448 33.2879 12.0764C32.8743 12.161 32.5828 12.1422 32.329 11.9918C32.2632 11.9542 32.2068 11.9072 32.141 11.8602C31.7462 11.4935 31.389 11.0987 30.9659 10.7415C30.5899 10.4125 30.1763 10.1022 29.7062 9.82961C29.0858 9.47239 28.3713 9.17156 27.5159 8.96475C26.2374 8.64512 24.9871 8.72033 23.7274 9.01175L23.6804 9.02115L26.8672 10.8637C27.1304 11.0141 27.1304 11.2585 26.8672 11.4089L25.8237 12.0106C25.5605 12.161 25.1375 12.161 24.8743 12.0106L21.2174 9.90482C20.9448 10.0646 20.6533 10.2338 20.3619 10.4031L24.0188 12.5088C24.282 12.6592 24.282 12.9036 24.0188 13.0541L22.9753 13.6557C22.7121 13.8061 22.2985 13.8061 22.0258 13.6557L18.6886 11.7286C17.9459 12.631 17.7109 13.5241 18.5476 14.4548C18.9048 14.8496 19.3654 15.1974 19.9013 15.5076C20.3713 15.7803 20.8884 16.0153 21.443 16.2315C22.0635 16.4571 22.7215 16.6639 23.3607 16.8989C23.4642 16.9365 23.5488 16.9741 23.624 17.0212C23.8778 17.1716 23.9154 17.3408 23.765 17.5758C23.5488 17.933 23.3043 18.2808 23.0411 18.6193C22.8249 18.9295 22.4207 19.0423 21.8378 18.9295C21.255 18.7979 20.6815 18.6381 20.1175 18.4595C19.0834 18.121 18.1528 17.7262 17.3443 17.2562C16.4982 16.7673 15.7838 16.2033 15.2103 15.564C13.866 14.0411 13.8942 12.49 14.9941 10.9295C15.2103 10.6193 15.5112 10.3467 15.7744 10.0552L14.2139 9.15276C13.9882 9.01175 13.9882 8.76733 14.2515 8.61692ZM10.416 20.0482C17.9647 24.4101 30.1669 24.4101 37.6686 20.0482C38.8343 19.3713 39.8026 18.6193 40.6016 17.8296V18.1586C40.611 20.114 39.0505 22.1539 36.3243 23.7333C33.0905 25.6134 28.738 26.6475 24.0564 26.6475C19.3748 26.6475 14.9941 25.6134 11.7415 23.7333C8.98707 22.1445 7.39835 20.0952 7.37955 18.1492V17.7638C8.21621 18.5723 9.21269 19.3525 10.416 20.0482ZM36.3337 35.5123C33.0999 37.3925 28.7474 38.4266 24.0658 38.4266C19.3843 38.4266 15.0035 37.3925 11.7509 35.5123C8.99647 33.9236 7.40775 31.8743 7.38895 29.9283V29.6463C8.21621 30.4642 9.20329 31.235 10.416 31.9307C14.1951 34.1116 19.1304 35.2021 24.0564 35.2021C28.9918 35.2021 33.9083 34.1116 37.6686 31.9307C38.8343 31.2538 39.8026 30.5018 40.6016 29.7121V29.9471C40.6204 31.9025 39.0599 33.933 36.3337 35.5123ZM36.3337 29.6275C33.0999 31.5076 28.7474 32.5417 24.0658 32.5417C19.3843 32.5417 15.0035 31.5076 11.7509 29.6275C8.99647 28.0388 7.40775 25.9894 7.38895 24.0435V23.7615C8.21621 24.5793 9.20329 25.3502 10.416 26.0458C14.1951 28.2268 19.1304 29.3173 24.0564 29.3173C28.9918 29.3173 33.9083 28.2268 37.6686 26.0458C38.8343 25.369 39.8026 24.6169 40.6016 23.8273V24.0623C40.6204 26.0082 39.0599 28.0388 36.3337 29.6275ZM36.3337 41.4066C33.0999 43.2867 28.7474 44.3208 24.0658 44.3208C19.3843 44.3208 15.0035 43.2867 11.7509 41.4066C8.99647 39.8179 7.40775 37.7685 7.38895 35.8226V35.5405C8.21621 36.3584 9.20329 37.1293 10.416 37.8249C14.1951 40.0059 19.1304 41.0964 24.0564 41.0964C28.9918 41.0964 33.9083 40.0059 37.6686 37.8249C38.8343 37.1481 39.8026 36.396 40.6016 35.6063V35.8414C40.6204 37.7873 39.0599 39.8273 36.3337 41.4066Z" fill="#1192E8"/>
</svg>
