<svg width="48" height="48" viewBox="0 0 48 48" fill="none" xmlns="http://www.w3.org/2000/svg">
<path d="M42.654 23.2023C42.2253 23.2657 41.9237 23.6785 42.0031 24.1071C42.1777 25.1073 42.2571 26.1392 42.2571 27.1553C42.2571 32.7435 39.7328 37.7603 35.7481 41.126C35.0336 36.5855 31.7949 32.9499 27.5243 31.6481C29.2389 30.5051 30.3503 28.5683 30.3503 26.3615C30.3503 22.853 27.5085 20.0112 24 20.0112C20.4914 20.0112 17.6497 22.853 17.6497 26.3615C17.6497 28.5683 18.761 30.5051 20.4756 31.6481C16.205 32.9499 12.9663 36.5855 12.2519 41.126C8.26714 37.7603 5.74285 32.7435 5.74285 27.1553C5.74285 26.1392 5.82221 25.1073 5.99682 24.1071C6.07627 23.6785 5.77463 23.2657 5.34596 23.2023C4.90139 23.1228 4.50449 23.4087 4.42513 23.8531C4.25052 24.9327 4.15527 26.044 4.15527 27.1553C4.15527 38.0937 13.0615 47 24 47C34.9384 47 43.8447 38.0937 43.8447 27.1553C43.8447 26.044 43.7494 24.9327 43.5748 23.8531C43.4954 23.4087 43.0985 23.1228 42.654 23.2023ZM19.2372 26.3615C19.2372 23.742 21.3804 21.5988 24 21.5988C26.6195 21.5988 28.7627 23.742 28.7627 26.3615C28.7627 28.981 26.6195 31.1243 24 31.1243C21.3804 31.1243 19.2372 28.981 19.2372 26.3615Z" fill="#1192E8"/>
<path d="M28.8262 11.6606L29.6835 16.7249C29.747 17.0107 29.62 17.3123 29.366 17.5028C29.239 17.5981 29.0644 17.6458 28.9056 17.6458C28.7786 17.6458 28.6516 17.614 28.5404 17.5505L24 15.1691L19.4596 17.5505C19.1896 17.6933 18.8722 17.6774 18.634 17.5028C18.38 17.3123 18.253 17.0107 18.3164 16.7249L19.1738 11.6606L15.5065 8.08852C15.2842 7.88213 15.2207 7.56459 15.3001 7.27884C15.3954 6.99309 15.6493 6.7867 15.951 6.73912L21.0153 5.99291L23.2856 1.40479C23.5554 0.86507 24.4446 0.86507 24.7144 1.40479L26.9846 5.99291L32.049 6.73912C32.3507 6.7867 32.6046 6.99309 32.6999 7.27884C32.7793 7.56459 32.7158 7.88213 32.4935 8.08852L28.8262 11.6606Z" fill="#1192E8"/>
<path d="M16.824 12.47C16.9035 12.7558 16.8399 13.0733 16.6177 13.2797L13.7441 16.0897L14.411 20.0427C14.4745 20.3443 14.3474 20.646 14.1094 20.8207C13.9664 20.9317 13.8077 20.9794 13.633 20.9794C13.5061 20.9794 13.379 20.9476 13.2679 20.8842L9.71174 19.0108L6.15558 20.8842C5.88572 21.0271 5.56819 20.9953 5.31412 20.8207C5.07604 20.646 4.94901 20.3444 5.01248 20.0427L5.67933 16.0897L2.80582 13.2797C2.58354 13.0733 2.51997 12.7558 2.59943 12.47C2.69468 12.1843 2.94865 11.9779 3.25029 11.9302L7.21923 11.3587L8.99731 7.75489C9.26717 7.21517 10.1563 7.21517 10.4262 7.75489L12.2042 11.3587L16.1732 11.9302C16.4748 11.9779 16.7288 12.1843 16.824 12.47Z" fill="#1192E8"/>
<path d="M45.1941 13.2797L42.3206 16.0897L42.9874 20.0427C43.0509 20.3443 42.9238 20.646 42.6858 20.8207C42.5428 20.9317 42.3841 20.9794 42.2094 20.9794C42.0825 20.9794 41.9554 20.9476 41.8443 20.8842L38.2882 19.0108L34.732 20.8842C34.4621 21.0271 34.1446 20.9953 33.8905 20.8207C33.6525 20.646 33.5254 20.3444 33.5889 20.0427L34.2557 16.0897L31.3822 13.2797C31.16 13.0733 31.0964 12.7558 31.1758 12.47C31.2711 12.1843 31.5251 11.9779 31.8267 11.9302L35.7956 11.3587L37.5737 7.75489C37.8436 7.21517 38.7327 7.21517 39.0026 7.75489L40.7807 11.3587L44.7496 11.9302C45.0512 11.9779 45.3052 12.1843 45.4005 12.47C45.4799 12.7558 45.4164 13.0733 45.1941 13.2797Z" fill="#1192E8"/>
</svg>
