<svg width="48" height="48" viewBox="0 0 48 48" fill="none" xmlns="http://www.w3.org/2000/svg">
<g clip-path="url(#clip0_838_32885)">
<path d="M0.800781 13.5999C0.800781 12.7512 1.13792 11.9373 1.73804 11.3372C2.33816 10.737 3.15209 10.3999 4.00078 10.3999H43.2008C43.8373 10.3999 44.4478 10.6528 44.8978 11.1028C45.3479 11.5529 45.6008 12.1634 45.6008 12.7999V19.1999H0.800781V13.5999Z" fill="#2751AF"/>
<path d="M36 12.8C36.0001 14.4518 35.6597 16.0858 35 17.6H13C12.2872 15.9651 11.9478 14.1919 12.0065 12.4093C12.0652 10.6268 12.5205 8.87973 13.3393 7.29525C14.158 5.71078 15.3197 4.32874 16.7398 3.24967C18.1598 2.17061 19.8026 1.42165 21.5485 1.05728C23.2944 0.692921 25.0996 0.722314 26.8327 1.14333C28.5658 1.56434 30.1833 2.36638 31.5675 3.49111C32.9516 4.61584 34.0677 6.03496 34.8345 7.64526C35.6012 9.25555 35.9994 11.0165 36 12.8Z" fill="#E5A30E"/>
<path d="M27.4688 12.4271C27.7094 12.0961 27.8737 11.716 27.9502 11.314C28.0267 10.912 28.0133 10.4981 27.9111 10.1019C27.8089 9.70563 27.6204 9.3369 27.359 9.02207C27.0976 8.70723 26.7699 8.45407 26.3992 8.2807V7.1999C26.3992 6.98773 26.3149 6.78425 26.1649 6.63422C26.0149 6.48419 25.8114 6.3999 25.5992 6.3999C25.387 6.3999 25.1836 6.48419 25.0335 6.63422C24.8835 6.78425 24.7992 6.98773 24.7992 7.1999V7.9999H23.1992V7.1999C23.1992 6.98773 23.1149 6.78425 22.9649 6.63422C22.8149 6.48419 22.6114 6.3999 22.3992 6.3999C22.187 6.3999 21.9836 6.48419 21.8335 6.63422C21.6835 6.78425 21.5992 6.98773 21.5992 7.1999V7.9999H19.9992C19.787 7.9999 19.5836 8.08419 19.4335 8.23422C19.2835 8.38425 19.1992 8.58773 19.1992 8.7999C19.1992 9.01208 19.2835 9.21556 19.4335 9.36559C19.5836 9.51562 19.787 9.5999 19.9992 9.5999H21.5992V15.9999H19.9992C19.787 15.9999 19.5836 16.0842 19.4335 16.2342C19.2835 16.3842 19.1992 16.5877 19.1992 16.7999C19.1992 17.0121 19.2835 17.2156 19.4335 17.3656C19.5836 17.5156 19.787 17.5999 19.9992 17.5999L26.3992 17.5591C26.9676 17.48 27.4977 17.2272 27.9168 16.8353C28.336 16.4434 28.6239 15.9315 28.741 15.3697C28.858 14.8079 28.7987 14.2237 28.5709 13.6969C28.3432 13.1702 27.9583 12.7267 27.4688 12.4271ZM23.1992 9.5999H25.1992C25.5175 9.5999 25.8227 9.72633 26.0477 9.95137C26.2728 10.1764 26.3992 10.4816 26.3992 10.7999C26.3992 11.1182 26.2728 11.4234 26.0477 11.6484C25.8227 11.8735 25.5175 11.9999 25.1992 11.9999H23.1992V9.5999ZM25.9992 15.9999H23.1992V13.5999H25.9992C26.3175 13.5999 26.6227 13.7263 26.8477 13.9514C27.0728 14.1764 27.1992 14.4816 27.1992 14.7999C27.1992 15.1182 27.0728 15.4234 26.8477 15.6484C26.6227 15.8735 26.3175 15.9999 25.9992 15.9999Z" fill="#F7D33C"/>
<path d="M23.2721 4.83285C23.757 4.79045 24.2447 4.79045 24.7297 4.83285H24.8017C25.0138 4.84218 25.221 4.76685 25.3777 4.62342C25.5343 4.47999 25.6275 4.28022 25.6369 4.06805C25.6462 3.85587 25.5709 3.64868 25.4274 3.49205C25.284 3.33542 25.0842 3.24218 24.8721 3.23285C24.2924 3.18085 23.7093 3.18085 23.1297 3.23285C23.0244 3.24141 22.9219 3.27072 22.828 3.31909C22.7342 3.36747 22.6508 3.43394 22.5828 3.51469C22.5147 3.59543 22.4634 3.68885 22.4316 3.78955C22.3998 3.89025 22.3883 3.99624 22.3977 4.10141C22.4071 4.20659 22.4372 4.30886 22.4863 4.40233C22.5355 4.49581 22.6026 4.57863 22.6839 4.64603C22.7652 4.71343 22.859 4.76408 22.9599 4.79504C23.0609 4.82601 23.167 4.83668 23.2721 4.82645V4.83285Z" fill="#CE8D0D"/>
<path d="M17.8561 5.42313C17.6353 5.60793 17.4193 5.80393 17.2161 6.01193C17.0129 6.21993 16.8161 6.43513 16.6273 6.65593C16.5509 6.73493 16.4916 6.82883 16.4531 6.93177C16.4145 7.03471 16.3977 7.14448 16.4035 7.25424C16.4092 7.36399 16.4376 7.47137 16.4867 7.56969C16.5359 7.668 16.6047 7.75514 16.689 7.82566C16.7733 7.89618 16.8712 7.94858 16.9767 7.97958C17.0821 8.01058 17.1928 8.01953 17.3019 8.00585C17.4109 7.99218 17.516 7.95618 17.6105 7.90011C17.705 7.84403 17.787 7.76908 17.8513 7.67993C18.0065 7.49433 18.1713 7.31513 18.3433 7.14153C18.5153 6.96793 18.6961 6.80473 18.8817 6.64953C18.967 6.58376 19.0382 6.50144 19.091 6.40748C19.1437 6.31353 19.1769 6.20989 19.1887 6.10278C19.2004 5.99567 19.1903 5.8873 19.1591 5.78417C19.1279 5.68103 19.0762 5.58527 19.0071 5.50261C18.938 5.41996 18.8529 5.35211 18.7569 5.30316C18.6609 5.2542 18.556 5.22514 18.4485 5.21772C18.341 5.2103 18.2331 5.22467 18.1313 5.25996C18.0295 5.29526 17.9359 5.35076 17.8561 5.42313Z" fill="#CE8D0D"/>
<path d="M15.3076 11.2C15.0963 11.1811 14.8861 11.2469 14.7233 11.383C14.5605 11.5191 14.4585 11.7142 14.4396 11.9256C14.414 12.216 14.4004 12.5064 14.4004 12.8C14.4004 13.0936 14.414 13.384 14.4396 13.6712C14.4574 13.8708 14.5495 14.0564 14.6977 14.1913C14.8458 14.3263 15.0392 14.4007 15.2396 14.4H15.3116C15.5229 14.3811 15.7181 14.279 15.8542 14.1162C15.9902 13.9534 16.0561 13.7433 16.0372 13.532C16.0164 13.292 16.0044 13.052 16.0044 12.8032C16.0044 12.5544 16.0164 12.3144 16.0372 12.0744C16.0474 11.9689 16.0366 11.8625 16.0053 11.7612C15.9741 11.66 15.9231 11.566 15.8552 11.4846C15.7873 11.4033 15.7039 11.3362 15.6099 11.2874C15.5159 11.2385 15.4132 11.2088 15.3076 11.2Z" fill="#CE8D0D"/>
<path d="M33.5603 11.9287C33.5517 11.8235 33.5224 11.721 33.474 11.6271C33.4256 11.5333 33.3592 11.4499 33.2784 11.3819C33.1977 11.3138 33.1043 11.2624 33.0036 11.2307C32.9029 11.1989 32.7969 11.1874 32.6917 11.1968C32.5865 11.2062 32.4842 11.2363 32.3908 11.2854C32.2973 11.3345 32.2145 11.4017 32.1471 11.483C32.0797 11.5642 32.029 11.6581 31.9981 11.759C31.9671 11.86 31.9564 11.966 31.9667 12.0711C31.9875 12.3111 31.9995 12.5511 31.9995 12.7999C31.9995 13.0487 31.9875 13.2887 31.9667 13.5287C31.9569 13.6336 31.9679 13.7394 31.9991 13.84C32.0303 13.9406 32.0811 14.0341 32.1485 14.1151C32.2159 14.196 32.2986 14.2628 32.392 14.3117C32.4853 14.3606 32.5873 14.3906 32.6923 14.3999H32.7643C32.964 14.3997 33.1564 14.3248 33.3037 14.19C33.451 14.0551 33.5425 13.87 33.5603 13.6711C33.5859 13.3839 33.5995 13.0935 33.5995 12.7999C33.5995 12.5063 33.5859 12.2159 33.5603 11.9287Z" fill="#CE8D0D"/>
<path d="M30.7887 6.01212C30.5815 5.80412 30.3655 5.61212 30.1487 5.42332C30.0681 5.35582 29.975 5.30486 29.8746 5.27336C29.7743 5.24185 29.6688 5.23041 29.564 5.2397C29.4593 5.24899 29.3574 5.27881 29.2642 5.32748C29.1709 5.37614 29.0882 5.44269 29.0207 5.52332C28.9532 5.60395 28.9023 5.69709 28.8708 5.79741C28.8393 5.89774 28.8278 6.00328 28.8371 6.10803C28.8464 6.21277 28.8762 6.31466 28.9249 6.40788C28.9736 6.5011 29.0401 6.58382 29.1207 6.65132C29.3063 6.80652 29.4855 6.97132 29.6591 7.14332C29.8327 7.31532 29.9959 7.49612 30.1511 7.68172C30.2169 7.76707 30.2992 7.83826 30.3932 7.89101C30.4871 7.94376 30.5908 7.97699 30.6979 7.9887C30.805 8.00041 30.9134 7.99037 31.0165 7.95917C31.1196 7.92796 31.2154 7.87625 31.298 7.80713C31.3807 7.73801 31.4485 7.6529 31.4975 7.55692C31.5465 7.46093 31.5755 7.35605 31.5829 7.24855C31.5904 7.14106 31.576 7.03317 31.5407 6.93137C31.5054 6.82957 31.4499 6.73594 31.3775 6.65612C31.1927 6.43532 30.9967 6.21932 30.7887 6.01212Z" fill="#CE8D0D"/>
<path d="M36.7992 12.8001C36.7995 14.4455 36.4817 16.0754 35.8632 17.6001H34.1192C34.9287 15.893 35.2931 14.0088 35.1786 12.123C35.0642 10.2372 34.4745 8.41092 33.4645 6.81424C32.4545 5.21756 31.057 3.90233 29.4021 2.99093C27.7471 2.07953 25.8885 1.6016 23.9992 1.6016C22.1099 1.6016 20.2513 2.07953 18.5964 2.99093C16.9414 3.90233 15.5439 5.21756 14.5339 6.81424C13.5239 8.41092 12.9343 10.2372 12.8198 12.123C12.7053 14.0088 13.0698 15.893 13.8792 17.6001H12.1352C11.4263 15.8496 11.1135 13.9639 11.2193 12.0783C11.3251 10.1927 11.8469 8.35384 12.7472 6.69364C13.6474 5.03344 14.904 3.59303 16.4266 2.47572C17.9492 1.3584 19.7002 0.591868 21.554 0.231088C23.4078 -0.129693 25.3185 -0.0757793 27.149 0.388962C28.9795 0.853702 30.6845 1.71775 32.1417 2.91915C33.5989 4.12055 34.7722 5.62951 35.5775 7.33784C36.3827 9.04616 36.7999 10.9115 36.7992 12.8001Z" fill="#F7D33C"/>
<path d="M45.6008 19.2001V44.8001C45.6008 45.4366 45.3479 46.0471 44.8978 46.4972C44.4478 46.9472 43.8373 47.2001 43.2008 47.2001H4.00078C3.15209 47.2001 2.33816 46.863 1.73804 46.2628C1.13793 45.6627 0.800784 44.8488 0.800784 44.0001V13.6001C0.800257 14.0205 0.882668 14.4368 1.0433 14.8253C1.20393 15.2138 1.43962 15.5668 1.73687 15.864C2.03412 16.1613 2.38709 16.397 2.77557 16.5576C3.16405 16.7182 3.58041 16.8006 4.00078 16.8001H43.2008C43.8373 16.8001 44.4478 17.053 44.8978 17.503C45.3479 17.9531 45.6008 18.5636 45.6008 19.2001Z" fill="#3560D8"/>
<path d="M37.6004 28H45.6004C46.0247 28 46.4317 28.1686 46.7318 28.4686C47.0318 28.7687 47.2004 29.1757 47.2004 29.6V36C47.2004 36.4243 47.0318 36.8313 46.7318 37.1314C46.4317 37.4314 46.0247 37.6 45.6004 37.6H37.6004C36.7517 37.6 35.9378 37.2629 35.3376 36.6627C34.7375 36.0626 34.4004 35.2487 34.4004 34.4V31.2C34.4004 30.3513 34.7375 29.5374 35.3376 28.9373C35.9378 28.3371 36.7517 28 37.6004 28Z" fill="#2751AF"/>
<path d="M39.1996 34.4C40.0833 34.4 40.7996 33.6836 40.7996 32.8C40.7996 31.9163 40.0833 31.2 39.1996 31.2C38.316 31.2 37.5996 31.9163 37.5996 32.8C37.5996 33.6836 38.316 34.4 39.1996 34.4Z" fill="#F7D33C"/>
</g>
<defs>
<clipPath id="clip0_838_32885">
<rect width="48" height="48" fill="white"/>
</clipPath>
</defs>
</svg>
