<svg width="36" height="36" viewBox="0 0 36 36" fill="none" xmlns="http://www.w3.org/2000/svg">
<path d="M16.3637 13.9095V15.5459H14.7273V18.0004H16.3637V25.364H19.6364V18.0004H21.8128L22.0909 15.5459H19.6364V14.114C19.6364 13.4513 19.7018 13.0995 20.7245 13.0995H22.0909V10.6367H19.8982C17.2801 10.6368 16.3637 11.864 16.3637 13.9095Z" fill="#1192E8"/>
<path d="M18 0C8.05887 0 0 8.05887 0 18C0 27.9411 8.05887 36 18 36C27.9411 36 36 27.9411 36 18C36 8.05887 27.9411 0 18 0ZM18 34.3636C8.96259 34.3636 1.63638 27.0374 1.63638 18C1.63638 8.96259 8.96259 1.63638 18 1.63638C27.0374 1.63638 34.3636 8.96259 34.3636 18C34.3636 27.0374 27.0374 34.3636 18 34.3636Z" fill="#1192E8"/>
</svg>
