<svg width="48" height="48" viewBox="0 0 48 48" fill="none" xmlns="http://www.w3.org/2000/svg">
<path d="M21.8999 43.5919H7.19999C4.88029 43.5919 3 41.7116 3 39.3919V29.8578C3 28.3889 3.76709 27.0269 5.02311 26.266L12.3731 21.8113C13.711 21.0004 15.3888 21.0004 16.7268 21.8113L24.0767 26.266C25.3328 27.0269 26.0999 28.3889 26.0999 29.8578V39.3919C26.0999 41.7116 24.2196 43.5919 21.8999 43.5919Z" stroke="#1E3862" stroke-width="2.5" stroke-linecap="round" stroke-linejoin="round"/>
<path d="M12.4512 20.4949V13.0607C12.4512 11.592 13.2183 10.23 14.4743 9.46891L21.8242 5.01439C23.1622 4.20354 24.84 4.20354 26.178 5.01439L33.5279 9.46891C34.7839 10.23 35.551 11.592 35.551 13.0607V20.4949" stroke="#1E3862" stroke-width="2.5" stroke-linecap="round" stroke-linejoin="round"/>
<path d="M32.4 43.5926H40.8C43.1197 43.5926 45 41.7123 45 39.3926V29.8586C45 28.3897 44.2329 27.0277 42.9769 26.2667L35.616 21.8055C34.2838 20.9979 32.6141 20.9944 31.2782 21.7957L29.9502 22.5927" stroke="#1E3862" stroke-width="2.5" stroke-linecap="round" stroke-linejoin="round"/>
<path d="M17.6998 43.5914V36.4515C17.6998 35.7554 17.1358 35.1914 16.4399 35.1914H12.6598C11.9639 35.1914 11.3999 35.7556 11.3999 36.4515V43.5914" stroke="#1E3862" stroke-width="2.5" stroke-linecap="round" stroke-linejoin="round"/>
<path d="M36.6009 43.5914V36.4515C36.6009 35.7554 36.0369 35.1914 35.3408 35.1914H32.4009" stroke="#1E3862" stroke-width="2.5" stroke-linecap="round" stroke-linejoin="round"/>
</svg>
