<svg width="84" height="68" viewBox="0 0 84 68" fill="none" xmlns="http://www.w3.org/2000/svg">
<path d="M77.1376 45.2257C77.9575 42.5663 72.4899 40.5132 70.0522 39.0132C63.1357 34.7157 57.3361 31.3505 50.2339 27.2998C51.0597 19.905 55.3014 17.0009 57.5245 12.4985C60.7931 5.87202 55.7823 0.557939 50.41 0.286189C50.3586 0.286189 50.3 0.278839 50.2486 0.286189C45.1572 -1.08429 39.8464 2.66735 39.1732 7.27616C38.2145 13.7925 45.6966 17.9357 47.1975 25.5761C42.9093 23.1363 41.394 21.8763 39.5034 23.185C29.5437 30.0558 19.4404 36.0786 9.76133 41.8665C6.53231 43.757 6.95419 44.6118 6.87885 44.7049C6.66312 45.2798 6.81653 48.1891 7.16481 48.6949C7.41338 49.0412 7.78356 49.0953 9.45314 50.0005C12.387 51.5774 15.1816 53.3892 18.0642 55.0467C39.6744 67.4523 40.0199 68.4406 43.3247 67.8823C47.3735 67.1929 51.4516 63.9878 55.0455 62.0075C69.6722 53.9786 76.6851 51.2109 77.0788 48.5556C77.2914 47.1787 77.1376 45.6783 77.1376 45.2257ZM7.99372 44.0594C8.58034 43.4067 9.70256 42.754 10.1354 42.5045C11.6038 41.6275 14.0358 40.1863 18.5115 37.4876C18.966 37.7929 21.4422 39.4569 21.284 39.3506H21.2914C25.7657 42.3559 26.0766 42.5845 26.8805 42.9374V42.9445C26.0249 45.7966 28.6117 48.554 31.1491 50.2939C29.4988 52.069 27.8192 53.8292 26.1542 55.5383C26.1323 55.5603 26.1176 55.5823 26.1176 55.6043C7.2819 44.5503 6.8519 45.2556 7.99372 44.0594ZM36.1294 26.3536C36.1294 27.6872 37.1717 33.7555 37.2369 33.8422C31.9263 37.295 28.2857 39.3942 27.1151 42.2404C26.4634 41.9333 26.3417 41.8915 19.2009 37.0696C24.9366 33.5646 30.4868 30.1262 36.1294 26.3536ZM47.3588 26.5076C47.4247 26.9184 47.4761 27.3292 47.5128 27.7473C44.4413 29.3675 40.8983 31.4771 37.919 33.395C37.919 33.3499 37.8596 33.3044 37.8237 33.2775C36.9454 27.5752 36.7912 26.9401 36.8849 25.8549C41.8525 22.507 40.1636 22.438 47.3588 26.5076ZM39.8995 7.37891C40.3909 4.01222 43.6107 1.16631 47.2342 0.770182C53.1694 0.180528 58.473 5.83389 55.2362 12.4251C53.5465 15.8229 48.6741 20.7137 48.0776 26.0748C48.0629 26.0676 48.0482 26.0602 48.0335 26.0529C46.6536 17.5917 38.9671 13.7359 39.8995 7.37891ZM64.7272 36.6074C57.5395 41.317 50.4089 45.9691 43.1267 51.2329C40.6842 49.9199 38.2125 48.409 36.8261 46.4654C33.374 41.591 39.2952 38.6174 43.7794 35.5073C46.7351 33.4983 49.8867 31.5275 53.0211 29.7421C56.8857 31.9429 60.7895 34.2265 64.7272 36.6074ZM69.6634 39.6367C71.6926 40.8892 77.0516 43.0682 76.4406 45.0203C76.4333 45.0203 76.4333 45.0276 76.4333 45.0276C75.9961 46.6452 70.0799 49.663 61.5439 54.1592C59.2996 55.3402 56.9673 56.565 54.7081 57.8047C54.5124 57.4277 54.3824 57.6538 47.124 53.4039C46.3392 52.9491 45.4737 52.4871 44.5642 52.0102C44.3295 51.8856 44.0876 51.7608 43.8454 51.6215C50.2255 47.0196 59.2256 41.036 65.4166 37.0329C66.7663 37.8471 68.1745 38.7126 69.6634 39.6367ZM49.8013 60.7533C42.5176 65.1328 40.5313 64.1598 36.4155 61.5747C35.9167 61.2593 35.4106 60.9438 34.9045 60.6505L26.763 55.971C28.428 54.2547 30.115 52.4795 31.7653 50.7046C32.1492 50.9527 49.173 60.5314 49.8013 60.7533ZM41.8798 35.8813C37.1436 38.9124 32.8948 42.2015 36.2322 46.8833C38.1795 49.6372 40.2706 50.432 53.7546 58.0027C50.7118 59.5235 50.7106 59.9535 50.1972 60.1003C49.9328 60.1003 41.7914 55.5458 39.1732 54.0125C40.243 53.2387 41.3043 52.7918 40.7723 52.3476C40.3721 52.0067 39.9253 51.5478 39.6427 51.937C39.3831 52.273 39.806 52.5089 39.9214 52.6117C38.7235 53.4348 38.5258 53.542 38.4765 53.6166C34.8678 51.5262 26.6032 48.1255 27.5479 43.3112C28.1558 40.1567 32.7765 37.7406 35.4694 35.9033C39.6283 33.0567 44.5084 30.1593 47.5862 28.5393C47.6554 29.414 47.6632 29.8442 47.6668 29.9183C47.2488 30.1235 46.8381 30.3291 46.4273 30.5416C46.2513 30.637 46.1778 30.8569 46.2733 31.0403C46.3724 31.2281 46.5981 31.2891 46.7647 31.1945C47.1461 30.9964 47.5275 30.7984 47.9162 30.6077C48.0552 30.6774 48.2872 30.631 48.3929 30.4317C48.3929 30.4317 48.3929 30.4317 48.3929 30.4243C48.4296 30.4096 48.459 30.3949 48.4883 30.3803H48.4957C50.0029 29.7621 49.9097 30.8248 50.1533 28.0993C50.8648 28.5026 51.5689 28.906 52.2803 29.3168C46.7605 32.5237 44.7067 34.036 41.8798 35.8813Z" fill="#1192E8"/>
<path d="M48.1142 12.8359C48.4222 12.8359 48.7375 12.7918 49.0457 12.7184C50.7297 12.305 51.9008 10.6831 51.5908 8.75776C51.5175 8.68441 51.1824 6.00563 48.3781 5.75048C48.2168 5.73581 48.0555 5.72864 47.8868 5.74331C47.7988 5.74331 47.7107 5.75048 47.63 5.76515C47.6226 5.76515 47.608 5.76515 47.6008 5.7725C47.3587 5.80187 47.124 5.85326 46.8965 5.93384C46.8453 5.94851 46.8013 5.97056 46.7499 5.98523C43.1165 7.45062 44.0253 12.89 48.1142 12.8359Z" fill="#1E3862"/>
<path d="M36.1734 56.4917C36.1734 56.4844 36.1734 56.4844 36.1661 56.4844C36.1 56.3963 36.0267 56.3157 35.9387 56.2276C36.164 56.0185 36.9536 55.7477 36.6354 55.3107C36.3069 54.8384 35.772 55.531 35.3078 55.7729C34.4638 55.3094 33.5687 55.2546 33.1221 55.4134C32.6738 55.4134 32.0396 56.087 32.6674 56.9317C33.8066 58.6405 37.5935 58.3068 36.1734 56.4917Z" fill="#1192E8"/>
<path d="M63.209 46.2451C64.5816 47.8921 67.9954 47.5148 66.6636 45.739C66.6564 45.739 66.6564 45.7319 66.6564 45.7319C65.0882 43.7201 61.6738 44.7099 63.209 46.2451Z" fill="#1192E8"/>
<path d="M20.7559 45.1525C21.566 44.9903 21.8554 44.3469 21.2913 43.6341C21.2913 43.6341 21.2913 43.6341 21.2913 43.6268C19.8927 41.8629 16.4836 42.2788 17.7853 44.0816C18.7701 45.0584 19.8561 45.3255 20.7559 45.1525Z" fill="#1192E8"/>
<path d="M32.572 45.1525C32.4547 44.7929 32.3815 44.4337 32.3448 44.0888C32.3301 43.8836 32.1467 43.7441 31.9487 43.7588C31.7433 43.7734 31.5966 43.9568 31.6186 44.1549C31.6552 44.5583 31.7433 44.9616 31.8679 45.3724C32.7493 48.1223 33.5987 47.0662 33.2983 46.6341C32.9755 46.1572 32.7262 45.6585 32.572 45.1525Z" fill="#1192E8"/>
<path d="M34.2151 38.7931C33.6359 39.3101 31.6919 41.2047 32.4106 41.6244C32.462 41.6537 32.5281 41.6684 32.5866 41.6684C33.095 41.6684 32.7257 41.1219 34.7065 39.3359C35.068 39.0088 34.5785 38.4644 34.2151 38.7931Z" fill="#1192E8"/>
<path d="M34.8019 49.2303C35.5138 49.7839 37.2724 50.932 37.4718 50.932C37.8561 50.932 37.9712 50.4299 37.6625 50.25C36.8881 49.7773 35.9626 49.2119 35.2567 48.6511C35.0954 48.5262 34.427 48.9269 34.8019 49.2303Z" fill="#1192E8"/>
<path d="M36.5474 36.9448C36.1694 37.2245 36.5567 37.8214 36.9802 37.539C37.0552 37.4838 37.7969 36.9326 37.9703 36.7982C39.2502 35.8122 39.6982 35.6791 39.4152 35.2725C39.1993 34.9931 39.0906 34.8744 36.5474 36.9448Z" fill="#1192E8"/>
<path d="M41.337 33.5196C40.9175 33.8113 41.3659 34.4112 41.7331 34.1358C44.2032 32.5328 44.6198 32.5637 44.3514 32.1041C44.2488 31.9281 43.7565 31.9425 41.337 33.5196Z" fill="#1192E8"/>
<path d="M53.2335 21.8499C53.0337 21.8839 52.8997 22.0734 52.9334 22.2732C52.9642 22.4519 53.1197 22.578 53.2944 22.578C53.3152 22.578 53.3359 22.5762 53.3567 22.5726C54.6983 22.343 57.4889 21.8657 58.4344 20.3873C58.7195 19.94 58.7424 19.3845 58.4924 18.9715C58.0024 18.1671 55.84 17.8836 54.9017 17.7732C54.7055 17.7489 54.5185 17.8932 54.4949 18.0945C54.4705 18.2957 54.6145 18.478 54.8158 18.5017C55.5922 18.593 56.3687 18.7445 57.1229 18.9511C57.7648 19.1279 58.1758 19.4286 57.8163 19.9923C57.0455 21.1974 54.3738 21.6547 53.2335 21.8499Z" fill="#1192E8"/>
<path d="M43.0962 22.2646C43.5426 22.2646 43.5971 21.6114 43.1571 21.5365C42.0167 21.3413 39.345 20.884 38.5751 19.6792C38.4425 19.4722 38.4225 19.2089 38.5256 19.0392C38.6517 18.8311 38.9568 18.7233 39.267 18.6381C40.0219 18.4311 40.7984 18.2796 41.5748 18.1883C41.7761 18.1646 41.9201 17.9823 41.8957 17.781C41.8728 17.5798 41.6859 17.4315 41.4889 17.4598C40.6759 17.5554 39.8636 17.7137 39.0729 17.9307C38.6166 18.0561 38.1582 18.2312 37.8982 18.6585C37.6482 19.0711 37.6711 19.6265 37.9569 20.0742C38.8645 21.4941 42.2534 22.2646 43.0962 22.2646Z" fill="#1192E8"/>
<path d="M64.6502 31.8888C64.8156 31.8888 64.9653 31.7767 65.0062 31.6094C65.3199 30.3323 65.5004 29.0172 65.542 27.7011C65.5484 27.4987 65.3894 27.3293 65.1867 27.3232C64.9969 27.3082 64.8157 27.4758 64.8085 27.6781C64.7684 28.9431 64.5958 30.2069 64.2942 31.4346C64.237 31.6655 64.4122 31.8888 64.6502 31.8888Z" fill="#1192E8"/>
<path d="M66.8386 31.7974C66.8937 31.8268 66.9532 31.8408 67.0119 31.8408C67.1423 31.8408 67.2691 31.7706 67.335 31.647C68.0627 30.2882 68.8263 28.9334 69.6049 27.6198C69.7087 27.4457 69.6507 27.2208 69.4766 27.1173C69.3033 27.0149 69.0777 27.0711 68.9745 27.2459C68.1902 28.5685 67.4209 29.9326 66.6889 31.3011C66.5929 31.4794 66.6602 31.7018 66.8386 31.7974Z" fill="#1192E8"/>
<path d="M69.0269 33.9502C69.812 32.6527 70.7152 31.416 71.7129 30.2743C71.8462 30.1217 71.8304 29.89 71.6778 29.7568C71.5267 29.6239 71.2946 29.639 71.16 29.7915C70.135 30.9655 69.206 32.2369 68.3995 33.5706C68.1462 33.9903 68.7785 34.3616 69.0269 33.9502Z" fill="#1192E8"/>
</svg>
