<svg width="60" height="60" viewBox="0 0 60 60" fill="none" xmlns="http://www.w3.org/2000/svg">
<path fill-rule="evenodd" clip-rule="evenodd" d="M40.5732 36.9134C39.5475 38.1462 38.3293 38.9805 37.0303 40.1424C35.498 41.5567 34.073 43.0832 32.7672 44.7094C32.8065 45.5403 32.7776 46.373 32.6808 47.1992C32.6266 47.6335 32.5504 48.0648 32.4526 48.4914C34.6404 48.6136 36.8249 48.1991 38.8163 47.2837C40.4224 46.4775 41.8258 45.3183 42.9216 43.8927C44.0719 42.3167 44.9423 39.693 45.8449 37.8307C46.333 36.812 46.9372 35.8532 47.6455 34.9736C48.154 34.2489 48.7757 33.6109 49.4868 33.0841C50.1853 32.6171 50.9658 32.3857 51.4311 32.0817C51.6694 31.9596 51.8517 31.7506 51.9406 31.4978C52.0295 31.2451 52.0182 30.9678 51.909 30.7231C51.8407 30.5661 51.398 30.3915 50.9452 30.2164C49.3265 29.5865 47.6304 29.1781 45.9027 29.0022C43.7931 28.8191 41.6682 29.0586 39.652 29.7066C37.8298 30.3185 36.4177 31.3908 34.9894 32.5381C33.3475 33.8638 31.9905 35.5086 31.0003 37.3733C31.9082 39.103 32.4661 40.9951 32.6421 42.9412C34.802 40.3629 37.5123 38.303 40.5732 36.9134ZM27.1829 8.5H32.83C33.2227 8.50067 33.5992 8.65717 33.8769 8.93522C34.1545 9.21327 34.3108 9.5902 34.3115 9.98342V14.9047H39.2279C39.621 14.9051 39.998 15.0617 40.2759 15.3401C40.5539 15.6185 40.7101 15.9959 40.7104 16.3896V22.0445C40.7097 22.4377 40.5534 22.8146 40.2757 23.0927C39.998 23.3707 39.6216 23.5272 39.2289 23.5279H34.3115V28.4507C34.3108 28.8439 34.1545 29.2208 33.8769 29.4989C33.5992 29.7769 33.2227 29.9334 32.83 29.9341H27.1829C26.7902 29.9334 26.4137 29.7769 26.1359 29.4989C25.8582 29.2209 25.7017 28.8439 25.7009 28.4507V23.5279H20.7851C20.3921 23.5275 20.0154 23.3711 19.7374 23.0931C19.4594 22.815 19.3029 22.4379 19.3021 22.0445V16.3896C19.3025 15.9959 19.4588 15.6184 19.7369 15.34C20.0149 15.0616 20.3919 14.9051 20.7851 14.9047H25.7009V9.98342C25.7017 9.59015 25.8582 9.21322 26.1359 8.93519C26.4137 8.65715 26.7902 8.50066 27.1829 8.5ZM17.4512 36.1244C18.5674 37.9242 19.8933 39.5846 21.4012 41.0708C23.9973 43.4756 26.4372 45.7369 29.3439 51.5C27.6709 51.185 25.9266 50.8041 24.3421 50.3452C21.4484 49.5132 18.6755 48.3069 16.0933 46.7569C14.2006 45.6754 12.5432 44.2256 11.2187 42.4928C9.01791 39.51 7.88697 35.8708 8.00892 32.1642C8.02879 29.7097 8.48836 27.2787 9.36579 24.9867C9.83366 23.7317 10.892 21.3878 11.4468 20.7679C11.5022 20.6998 11.5776 20.651 11.6624 20.6285C12.0253 20.5173 12.4168 20.5483 12.7578 20.7153C13.0987 20.8822 13.3635 21.1726 13.4987 21.5277C13.8153 22.1733 13.9902 23.2039 14.4601 24.1363C15.0077 25.1003 15.7061 25.9703 16.5285 26.7131C18.5533 28.7325 19.7644 29.4233 22.3962 30.943C24.0476 31.8965 25.7633 32.8582 27.0392 34.0527C28.1237 35.125 29.0441 36.3518 29.7705 37.6933C30.9203 39.8286 31.5258 42.2151 31.5335 44.641C31.6558 46.7719 31.2663 48.9011 30.3977 50.8504C27.4141 44.9635 24.9054 42.6392 22.2369 40.165C20.8715 38.902 19.5031 37.7261 17.4512 36.1244Z" fill="#33B1FF"/>
</svg>
