<svg width="48" height="48" viewBox="0 0 48 48" fill="none" xmlns="http://www.w3.org/2000/svg">
<rect width="48" height="48" rx="8" fill="#EDB43F" fill-opacity="0.05"/>
<path d="M20.4004 20.4008C20.4004 21.3556 20.7797 22.2712 21.4548 22.9464C22.1299 23.6215 23.0456 24.0008 24.0004 24.0008C24.9552 24.0008 25.8708 23.6215 26.546 22.9464C27.2211 22.2712 27.6004 21.3556 27.6004 20.4008C27.6004 19.446 27.2211 18.5303 26.546 17.8552C25.8708 17.1801 24.9552 16.8008 24.0004 16.8008C23.0456 16.8008 22.1299 17.1801 21.4548 17.8552C20.7797 18.5303 20.4004 19.446 20.4004 20.4008Z" stroke="#F7B219" stroke-width="2.2"/>
<path d="M12 24C12 27.1826 13.2643 30.2348 15.5147 32.4853C17.7652 34.7357 20.8174 36 24 36C27.1826 36 30.2348 34.7357 32.4853 32.4853C34.7357 30.2348 36 27.1826 36 24C36 20.8174 34.7357 17.7652 32.4853 15.5147C30.2348 13.2643 27.1826 12 24 12C20.8174 12 17.7652 13.2643 15.5147 15.5147C13.2643 17.7652 12 20.8174 12 24Z" stroke="#F7B219" stroke-width="2.2"/>
<path d="M31.1639 33.5996C30.973 30.1298 29.9107 27.5996 24.0009 27.5996C18.0912 27.5996 17.0289 30.1298 16.8379 33.5996" stroke="#F7B219" stroke-width="2.2" stroke-linecap="round"/>
</svg>
