<svg width="34" height="34" viewBox="0 0 34 34" fill="none" xmlns="http://www.w3.org/2000/svg">
<path d="M26.3512 7.64944C26.3512 7.64944 25.6591 11.241 21.6495 15.2512C17.64 19.2616 14.0497 19.9532 14.0497 19.9532M30.4518 24.0544C27.0549 27.452 21.5473 27.452 18.1502 24.0544L9.94913 15.8519C6.55211 12.4544 6.55211 6.94578 9.94913 3.5482C13.3461 0.1506 18.8537 0.1506 22.2507 3.5482L30.4518 11.7507C33.8488 15.1483 33.8488 20.6569 30.4518 24.0544Z" stroke="#1192E8" stroke-width="2"/>
<path d="M21.0004 8.20298L18.6006 5.80273" stroke="#1192E8" stroke-width="2" stroke-linecap="round"/>
<path d="M8.56782 14.0137C4.24196 14.9459 1 18.794 1 23.3993C1 28.7017 5.29776 33.0003 10.5993 33.0003C15.2248 33.0003 19.0861 29.7283 19.9958 25.3723" stroke="#1192E8" stroke-width="2"/>
</svg>
