<svg width="34" height="34" viewBox="0 0 34 34" fill="none" xmlns="http://www.w3.org/2000/svg">
<path d="M13.1479 2.92043C14.1269 2.08612 14.6163 1.66897 15.1282 1.42435C16.3119 0.858549 17.6881 0.858549 18.8718 1.42435C19.3837 1.66897 19.8731 2.08612 20.8522 2.92043C21.2418 3.25249 21.4366 3.41853 21.6448 3.55798C22.1217 3.87767 22.6574 4.09955 23.2206 4.21075C23.4664 4.25928 23.7215 4.27965 24.232 4.32036C25.5142 4.42268 26.1552 4.47384 26.6901 4.66276C27.9272 5.09974 28.9004 6.07281 29.3374 7.30993C29.5263 7.84482 29.5773 8.48592 29.6797 9.76813C29.7204 10.2785 29.7407 10.5336 29.7893 10.7794C29.9004 11.3427 30.1223 11.8783 30.4421 12.3553C30.5815 12.5634 30.7475 12.7582 31.0797 13.1479C31.9139 14.1268 32.3312 14.6165 32.5758 15.1281C33.1415 16.3119 33.1415 17.688 32.5758 18.8718C32.3312 19.3837 31.9139 19.8731 31.0797 20.8522C30.7475 21.2418 30.5815 21.4366 30.4421 21.6448C30.1223 22.1217 29.9004 22.6573 29.7893 23.2207C29.7407 23.4664 29.7204 23.7216 29.6797 24.2319C29.5773 25.5141 29.5263 26.1551 29.3374 26.6901C28.9004 27.9272 27.9272 28.9003 26.6901 29.3373C26.1552 29.5262 25.5142 29.5773 24.232 29.6797C23.7215 29.7203 23.4664 29.7408 23.2206 29.7893C22.6574 29.9006 22.1217 30.1223 21.6448 30.4421C21.4366 30.5815 21.2418 30.7475 20.8522 31.0796C19.8731 31.9139 19.3837 32.3311 18.8718 32.5757C17.6881 33.1414 16.3119 33.1414 15.1282 32.5757C14.6163 32.3311 14.1269 31.9139 13.1479 31.0796C12.7582 30.7475 12.5634 30.5815 12.3553 30.4421C11.8783 30.1223 11.3427 29.9006 10.7794 29.7893C10.5336 29.7408 10.2785 29.7203 9.76814 29.6797C8.48593 29.5773 7.84481 29.5262 7.30994 29.3373C6.07282 28.9003 5.09973 27.9272 4.66277 26.6901C4.47385 26.1551 4.42268 25.5141 4.32037 24.2319C4.27964 23.7216 4.25929 23.4664 4.21076 23.2207C4.09955 22.6573 3.87768 22.1217 3.55799 21.6448C3.41853 21.4366 3.25249 21.2418 2.92044 20.8522C2.08613 19.8731 1.66898 19.3837 1.42434 18.8718C0.858553 17.688 0.858553 16.3119 1.42434 15.1281C1.66898 14.6163 2.08613 14.1268 2.92044 13.1479C3.25249 12.7582 3.41853 12.5634 3.55799 12.3553C3.87768 11.8783 4.09955 11.3427 4.21076 10.7794C4.25929 10.5336 4.27964 10.2785 4.32037 9.76813C4.42268 8.48592 4.47385 7.84482 4.66277 7.30993C5.09973 6.07281 6.07282 5.09974 7.30994 4.66276C7.84481 4.47384 8.48593 4.42268 9.76814 4.32036C10.2785 4.27965 10.5336 4.25928 10.7794 4.21075C11.3427 4.09955 11.8783 3.87767 12.3553 3.55798C12.5634 3.41853 12.7582 3.25249 13.1479 2.92043Z" stroke="#FFB703" stroke-width="2"/>
<path d="M11.792 22.2065L22.2094 11.7891" stroke="#FFB703" stroke-width="2" stroke-linecap="round"/>
<path d="M23.077 21.3398C23.077 22.2987 22.2997 23.076 21.3407 23.076C20.3818 23.076 19.6045 22.2987 19.6045 21.3398C19.6045 20.3808 20.3818 19.6035 21.3407 19.6035C22.2997 19.6035 23.077 20.3808 23.077 21.3398Z" fill="#FFB703"/>
<path d="M14.3953 12.6581C14.3953 13.617 13.618 14.3943 12.6591 14.3943C11.7002 14.3943 10.9229 13.617 10.9229 12.6581C10.9229 11.6992 11.7002 10.9219 12.6591 10.9219C13.618 10.9219 14.3953 11.6992 14.3953 12.6581Z" fill="#FFB703"/>
</svg>
