<svg width="31" height="34" viewBox="0 0 31 34" fill="none" xmlns="http://www.w3.org/2000/svg">
<path d="M1 14.4667C1 9.35051 1 6.79245 1.60403 5.93186C2.20805 5.07126 4.61331 4.24794 9.42386 2.60126L10.3404 2.28755C12.848 1.42918 14.1018 1 15.4 1C16.6982 1 17.952 1.42918 20.4597 2.28755L21.3762 2.60126C26.1867 4.24794 28.592 5.07126 29.196 5.93186C29.8 6.79245 29.8 9.35051 29.8 14.4667V16.9862C29.8 26.007 23.0176 30.3848 18.7622 32.2437C17.608 32.7478 17.0309 33 15.4 33C13.7691 33 13.192 32.7478 12.0377 32.2437C7.78233 30.3848 1 26.007 1 16.9862V14.4667Z" stroke="#008B38" stroke-width="2"/>
<path d="M11.4004 17.6408L13.6862 20.2008L19.4004 13.8008" stroke="#008B38" stroke-width="2" stroke-linecap="round" stroke-linejoin="round"/>
</svg>
