<svg width="34" height="28" viewBox="0 0 34 28" fill="none" xmlns="http://www.w3.org/2000/svg">
<path d="M1 13.8C1 7.76602 1 4.74904 2.87451 2.87451C4.74904 1 7.76602 1 13.8 1H20.2C26.2339 1 29.251 1 31.1254 2.87451C33 4.74904 33 7.76602 33 13.8C33 19.8339 33 22.851 31.1254 24.7254C29.251 26.6 26.2339 26.6 20.2 26.6H13.8C7.76602 26.6 4.74904 26.6 2.87451 24.7254C1 22.851 1 19.8339 1 13.8Z" stroke="#6C00F0" stroke-width="2"/>
<path d="M13.8004 20.1992H7.40039" stroke="#6C00F0" stroke-width="2" stroke-linecap="round"/>
<path d="M20.1998 20.1992H17.7998" stroke="#6C00F0" stroke-width="2" stroke-linecap="round"/>
<path d="M1 10.5996H33" stroke="#6C00F0" stroke-width="2" stroke-linecap="round"/>
</svg>
