<svg width="34" height="34" viewBox="0 0 34 34" fill="none" xmlns="http://www.w3.org/2000/svg">
<path d="M1 17C1 9.45752 1 5.68629 3.34315 3.34315C5.68629 1 9.45752 1 17 1C24.5424 1 28.3138 1 30.6568 3.34315C33 5.68629 33 9.45752 33 17C33 24.5424 33 28.3138 30.6568 30.6568C28.3138 33 24.5424 33 17 33C9.45752 33 5.68629 33 3.34315 30.6568C1 28.3138 1 24.5424 1 17Z" stroke="#1E3862" stroke-width="2"/>
<path d="M25 1V11.8922C25 13.452 25 14.232 24.7934 14.6971C24.3226 15.7573 23.161 16.3288 22.0338 16.0552C21.539 15.935 20.9211 15.4592 19.6851 14.5075C18.9874 13.9702 18.6384 13.7016 18.2752 13.5438C17.4618 13.1904 16.5382 13.1904 15.7248 13.5438C15.3616 13.7016 15.0126 13.9702 14.3149 14.5075C13.0789 15.4592 12.4609 15.935 11.9663 16.0552C10.8391 16.3288 9.67747 15.7573 9.20662 14.6971C9 14.232 9 13.452 9 11.8922V1" stroke="#1E3862" stroke-width="2"/>
</svg>
