<svg width="36" height="36" viewBox="0 0 36 36" fill="none" xmlns="http://www.w3.org/2000/svg">
<path d="M18 2.10938C21.6665 2.11085 25.2197 3.37982 28.0576 5.70128C30.8955 8.02273 32.8436 11.2539 33.5718 14.8473C34.3 18.4407 33.7635 22.1754 32.0532 25.4185C30.343 28.6617 27.5641 31.2138 24.1875 32.6426C20.304 34.2836 15.9278 34.3147 12.0214 32.7291C8.11496 31.1435 4.99845 28.071 3.35742 24.1875C1.7164 20.304 1.68528 15.9278 3.27091 12.0214C4.85655 8.11496 7.92905 4.99845 11.8125 3.35742C13.7699 2.52907 15.8745 2.10457 18 2.10938ZM18 0C8.05922 0 0 8.05922 0 18C0 27.9408 8.05922 36 18 36C27.9408 36 36 27.9408 36 18C36 8.05922 27.9408 0 18 0Z" fill="#1192E8"/>
<path d="M22.0499 9.8999H13.9499C11.7143 9.8999 9.8999 11.7143 9.8999 13.9499V22.0499C9.8999 24.2855 11.7143 26.0999 13.9499 26.0999H22.0499C24.2855 26.0999 26.0999 24.2855 26.0999 22.0499V13.9499C26.0999 11.7143 24.2855 9.8999 22.0499 9.8999ZM17.9999 22.0499C15.7643 22.0499 13.9499 20.2355 13.9499 17.9999C13.9499 15.7643 15.7643 13.9499 17.9999 13.9499C20.2355 13.9499 22.0499 15.7643 22.0499 17.9999C22.0499 20.2355 20.2355 22.0499 17.9999 22.0499ZM22.3334 14.4521C21.8879 14.4521 21.5234 14.0876 21.5234 13.6421C21.5234 13.1966 21.8879 12.8321 22.3334 12.8321C22.7789 12.8321 23.1434 13.1966 23.1434 13.6421C23.1434 14.0876 22.7789 14.4521 22.3334 14.4521Z" fill="#1192E8"/>
<path d="M17.9998 20.4298C19.3419 20.4298 20.4298 19.3419 20.4298 17.9998C20.4298 16.6578 19.3419 15.5698 17.9998 15.5698C16.6578 15.5698 15.5698 16.6578 15.5698 17.9998C15.5698 19.3419 16.6578 20.4298 17.9998 20.4298Z" fill="#1192E8"/>
</svg>
