<svg width="41" height="30" viewBox="0 0 41 30" fill="none" xmlns="http://www.w3.org/2000/svg">
<path d="M17.6739 15.5653C17.6354 15.3726 16.3097 8.74402 16.2677 8.53397C16.202 8.20533 15.9134 7.96875 15.5782 7.96875H14.172C13.8368 7.96875 13.5482 8.20533 13.4825 8.53397C13.4398 8.74758 12.1128 15.3829 12.0763 15.5652C12.0001 15.946 12.2471 16.3164 12.6279 16.3926C13.0086 16.4687 13.3791 16.2218 13.4552 15.841L13.9047 13.5938H15.8456L16.295 15.841C16.3712 16.222 16.7418 16.4688 17.1223 16.3926C17.5031 16.3164 17.7501 15.946 17.6739 15.5653ZM14.1859 12.1875L14.7484 9.375H15.0018L15.5643 12.1875H14.1859Z" fill="#1E3862"/>
<path d="M28.9375 13.5938H26.8281V12.8906C26.8281 12.5023 26.5133 12.1875 26.125 12.1875C25.7367 12.1875 25.4219 12.5023 25.4219 12.8906V13.5938H23.3125C22.9242 13.5938 22.6094 13.9086 22.6094 14.2969C22.6094 14.6852 22.9242 15 23.3125 15H23.4827C23.8833 16.2943 24.4865 17.2878 25.1502 18.0839C24.61 18.5781 24.0633 18.9833 23.5764 19.3728C23.2732 19.6154 23.224 20.0579 23.4666 20.3611C23.7093 20.6645 24.1518 20.7134 24.4549 20.4709C24.9445 20.0791 25.5315 19.6438 26.125 19.0991C26.719 19.6442 27.307 20.0803 27.7951 20.4709C28.0983 20.7135 28.5408 20.6643 28.7834 20.3611C29.026 20.0579 28.9768 19.6154 28.6736 19.3728C28.1879 18.9842 27.6406 18.5785 27.0998 18.0839C27.7635 17.2878 28.3667 16.2943 28.7673 15H28.9375C29.3258 15 29.6406 14.6852 29.6406 14.2969C29.6406 13.9086 29.3258 13.5938 28.9375 13.5938ZM26.125 17.0505C25.6762 16.4871 25.2724 15.8146 24.968 14.9953H27.282C26.9776 15.8146 26.5738 16.4871 26.125 17.0505Z" fill="#1E3862"/>
<path d="M30.3906 7.26562H20.2468L19.9454 4.84772C19.8138 3.79434 18.9139 3 17.8524 3H10.6094C9.44627 3 8.5 3.94627 8.5 5.10938V20.625C8.5 21.7881 9.44627 22.7344 10.6094 22.7344H16.5383L16.8358 25.1523C16.9673 26.2035 17.8671 27 18.9289 27H30.3906C31.5537 27 32.5 26.0537 32.5 24.8906V9.375C32.5 8.21189 31.5537 7.26562 30.3906 7.26562ZM10.6094 21.3281C10.2217 21.3281 9.90625 21.0127 9.90625 20.625V5.10938C9.90625 4.72167 10.2217 4.40625 10.6094 4.40625H17.8524C18.2062 4.40625 18.5062 4.671 18.55 5.02191C18.6519 5.83922 20.4816 20.5174 20.5827 21.3281H10.6094ZM18.1902 24.6445L17.9551 22.7344H19.8415L18.1902 24.6445ZM31.0938 24.8906C31.0938 25.2783 30.7783 25.5938 30.3906 25.5938H19.2285L21.9052 22.4975C22.0422 22.343 22.1036 22.1378 22.0753 21.9339L20.4221 8.67188H30.3906C30.7783 8.67188 31.0938 8.9873 31.0938 9.375V24.8906Z" fill="#1E3862"/>
</svg>
