<svg width="36" height="36" viewBox="0 0 36 36" fill="none" xmlns="http://www.w3.org/2000/svg">
<path d="M13.091 14.7269C13.9947 14.7269 14.7274 13.9942 14.7274 13.0905C14.7274 12.1867 13.9947 11.4541 13.091 11.4541C12.1872 11.4541 11.4546 12.1867 11.4546 13.0905C11.4546 13.9942 12.1872 14.7269 13.091 14.7269Z" fill="#1192E8"/>
<path d="M14.7273 15.5459H11.4546V24.5459H14.7273V15.5459Z" fill="#1192E8"/>
<path d="M18 0C8.05887 0 0 8.05887 0 18C0 27.9411 8.05887 36 18 36C27.9411 36 36 27.9411 36 18C36 8.05887 27.9411 0 18 0ZM18 34.3636C8.96259 34.3636 1.63638 27.0374 1.63638 18C1.63638 8.96259 8.96259 1.63638 18 1.63638C27.0374 1.63638 34.3636 8.96259 34.3636 18C34.3636 27.0374 27.0374 34.3636 18 34.3636Z" fill="#1192E8"/>
<path d="M22.3855 15.5459C19.931 15.5459 19.6365 17.0023 19.6365 17.0023V15.5459H16.3638V24.5459H19.6365V19.6368C19.6365 19.6368 19.6365 18.0004 21.0274 18.0004C21.8455 18.0004 22.091 18.7286 22.091 19.6368V24.5459H25.3637V19.6368C25.3637 17.0759 24.251 15.5459 22.3855 15.5459Z" fill="#1192E8"/>
</svg>
