<svg width="52" height="52" viewBox="0 0 52 52" fill="none" xmlns="http://www.w3.org/2000/svg">
<rect width="52" height="52" rx="8" fill="#82ED3F" fill-opacity="0.07"/>
<path d="M33.6155 22.6147C33.6155 26.423 29.3296 30.7075 27.1884 32.6105C26.5045 33.2182 25.4958 33.2182 24.8119 32.6105C22.6707 30.7075 18.3848 26.423 18.3848 22.6147C18.3848 18.4672 21.8523 15 26.0001 15C30.148 15 33.6155 18.4672 33.6155 22.6147Z" stroke="#82ED3F" stroke-width="2" stroke-linecap="round" stroke-linejoin="round"/>
<path d="M26.0004 25.1546C27.4023 25.1546 28.5388 24.0182 28.5388 22.6164C28.5388 21.2145 27.4023 20.0781 26.0004 20.0781C24.5984 20.0781 23.4619 21.2145 23.4619 22.6164C23.4619 24.0182 24.5984 25.1546 26.0004 25.1546Z" stroke="#82ED3F" stroke-width="2" stroke-linecap="round" stroke-linejoin="round"/>
<path d="M32.9 31.0781H33.8022C34.2022 31.0781 34.5637 31.3165 34.7213 31.6842L36.4025 35.6067C36.6854 36.2666 36.2013 37.0007 35.4834 37.0007H16.5166C15.7987 37.0007 15.3146 36.2666 15.5975 35.6067L17.2787 31.6842C17.4363 31.3165 17.7978 31.0781 18.1978 31.0781H19.1" stroke="#82ED3F" stroke-width="2" stroke-linecap="round" stroke-linejoin="round"/>
</svg>
