<svg width="20" height="20" viewBox="0 0 20 20" fill="none" xmlns="http://www.w3.org/2000/svg">
<path d="M16.0807 7.08062C16.0807 11.2344 9.84991 16.0804 9.84991 16.0804C9.84991 16.0804 3.61914 11.2344 3.61914 7.08062C3.61914 3.68701 6.45622 0.850006 9.84991 0.850006C13.2436 0.850006 16.0807 3.68701 16.0807 7.08062Z" stroke="#1E3862" stroke-width="1.7" stroke-linecap="round" stroke-linejoin="round"/>
<path d="M9.84938 9.15814C10.9964 9.15814 11.9263 8.22829 11.9263 7.08127C11.9263 5.93424 10.9964 5.00439 9.84938 5.00439C8.70233 5.00439 7.77246 5.93424 7.77246 7.08127C7.77246 8.22829 8.70233 9.15814 9.84938 9.15814Z" stroke="#1E3862" stroke-width="1.7" stroke-linecap="round" stroke-linejoin="round"/>
<path d="M15.4951 14.0042H16.7727L18.8496 18.8502H0.849609L2.92653 14.0042H4.20412" stroke="#1E3862" stroke-width="1.7" stroke-linecap="round" stroke-linejoin="round"/>
</svg>
