<svg width="41" height="30" viewBox="0 0 41 30" fill="none" xmlns="http://www.w3.org/2000/svg">
<path d="M20.5 3.75C23.3995 3.75001 25.75 6.10052 25.75 9C25.75 11.8995 23.3995 14.25 20.5 14.25C17.6005 14.25 15.25 11.8995 15.25 9C15.25 6.10051 17.6005 3.75 20.5 3.75Z" stroke="#1E3862" stroke-width="1.5"/>
<path d="M16.8999 16.95H24.1001C25.884 16.95 27.5852 17.7693 28.5591 18.9559C29.0494 19.5534 29.3682 20.2616 29.396 21.0174C29.4239 21.781 29.1525 22.5496 28.5396 23.2508C26.9503 25.0688 24.3593 26.2498 20.4995 26.2498C16.64 26.2497 14.0497 25.0688 12.4604 23.2508C11.8475 22.5495 11.576 21.7809 11.604 21.0174C11.6318 20.2616 11.9506 19.5534 12.4409 18.9559C13.4148 17.7692 15.116 16.95 16.8999 16.95Z" stroke="#1E3862" stroke-width="1.5"/>
</svg>
