<svg width="48" height="48" viewBox="0 0 48 48" fill="none" xmlns="http://www.w3.org/2000/svg">
<path d="M19.6663 8.16049C20.7677 7.22189 21.3184 6.75259 21.8942 6.4774C23.2259 5.84087 24.7741 5.84087 26.1058 6.4774C26.6816 6.75259 27.2323 7.22189 28.3337 8.16049C28.772 8.53405 28.9912 8.72084 29.2254 8.87773C29.7619 9.23738 30.3645 9.48699 30.9982 9.6121C31.2747 9.66669 31.5617 9.6896 32.1359 9.73541C33.5784 9.85051 34.2996 9.90808 34.9014 10.1206C36.2931 10.6122 37.3879 11.7069 37.8795 13.0987C38.092 13.7004 38.1494 14.4217 38.2647 15.8641C38.3104 16.4383 38.3333 16.7253 38.3879 17.0018C38.513 17.6355 38.7626 18.2381 39.1224 18.7747C39.2792 19.0088 39.466 19.228 39.8396 19.6663C40.7782 20.7677 41.2475 21.3185 41.5227 21.8942C42.1591 23.2259 42.1591 24.774 41.5227 26.1058C41.2475 26.6816 40.7782 27.2322 39.8396 28.3337C39.466 28.772 39.2792 28.9911 39.1224 29.2253C38.7626 29.7619 38.513 30.3645 38.3879 30.9983C38.3333 31.2747 38.3104 31.5618 38.2647 32.1359C38.1494 33.5784 38.092 34.2995 37.8795 34.9013C37.3879 36.293 36.2931 37.3879 34.9014 37.8795C34.2996 38.092 33.5784 38.1494 32.1359 38.2647C31.5617 38.3104 31.2747 38.3334 30.9982 38.3879C30.3645 38.5131 29.7619 38.7626 29.2254 39.1223C28.9912 39.2792 28.772 39.4659 28.3337 39.8396C27.2323 40.7781 26.6816 41.2475 26.1058 41.5227C24.7741 42.1591 23.2259 42.1591 21.8942 41.5227C21.3184 41.2475 20.7677 40.7781 19.6663 39.8396C19.228 39.4659 19.0088 39.2792 18.7747 39.1223C18.2381 38.7626 17.6355 38.5131 17.0018 38.3879C16.7253 38.3334 16.4383 38.3104 15.8642 38.2647C14.4217 38.1494 13.7004 38.092 13.0987 37.8795C11.7069 37.3879 10.6122 36.293 10.1206 34.9013C9.90808 34.2995 9.85052 33.5784 9.73541 32.1359C9.68959 31.5618 9.6667 31.2747 9.6121 30.9983C9.487 30.3645 9.23739 29.7619 8.87773 29.2253C8.72085 28.9911 8.53405 28.772 8.16049 28.3337C7.22189 27.2322 6.7526 26.6816 6.47738 26.1058C5.84087 24.774 5.84087 23.2259 6.47738 21.8942C6.7526 21.3183 7.22189 20.7677 8.16049 19.6663C8.53405 19.228 8.72085 19.0088 8.87773 18.7747C9.23739 18.2381 9.487 17.6355 9.6121 17.0018C9.6667 16.7253 9.68959 16.4383 9.73541 15.8641C9.85052 14.4217 9.90808 13.7004 10.1206 13.0987C10.6122 11.7069 11.7069 10.6122 13.0987 10.1206C13.7004 9.90808 14.4217 9.85051 15.8642 9.73541C16.4383 9.6896 16.7253 9.66669 17.0018 9.6121C17.6355 9.48699 18.2381 9.23738 18.7747 8.87773C19.0088 8.72084 19.228 8.53405 19.6663 8.16049Z" stroke="#1E3862" stroke-width="2.5"/>
<path d="M18.1401 29.8583L29.8597 18.1387" stroke="#1E3862" stroke-width="2.5" stroke-linecap="round"/>
<path d="M30.8365 28.883C30.8365 29.9617 29.962 30.8362 28.8832 30.8362C27.8044 30.8362 26.9299 29.9617 26.9299 28.883C26.9299 27.8042 27.8044 26.9297 28.8832 26.9297C29.962 26.9297 30.8365 27.8042 30.8365 28.883Z" fill="#1E3862"/>
<path d="M21.0701 19.1154C21.0701 20.1942 20.1956 21.0686 19.1168 21.0686C18.0381 21.0686 17.1636 20.1942 17.1636 19.1154C17.1636 18.0366 18.0381 17.1621 19.1168 17.1621C20.1956 17.1621 21.0701 18.0366 21.0701 19.1154Z" fill="#1E3862"/>
</svg>
