<svg width="22" height="22" viewBox="0 0 22 22" fill="none" xmlns="http://www.w3.org/2000/svg">
<path d="M12.1589 11H19.8863" stroke="#1E3862" stroke-width="1.45" stroke-miterlimit="10" stroke-linecap="round" stroke-linejoin="round"/>
<path d="M16.7954 7.90918L19.8863 11.0001L16.7954 14.091" stroke="#1E3862" stroke-width="1.45" stroke-miterlimit="10" stroke-linecap="round" stroke-linejoin="round"/>
<path d="M7.71438 10.4207C7.39439 10.1004 6.87539 10.1004 6.55529 10.4205C6.23526 10.7405 6.23526 11.2593 6.55529 11.5794C6.87539 11.8995 7.39439 11.8994 7.71438 11.5792C8.03415 11.2592 8.03415 10.7406 7.71438 10.4207Z" stroke="#1E3862" stroke-width="1.45" stroke-miterlimit="10" stroke-linecap="round" stroke-linejoin="round"/>
<path d="M14.4788 13.3174V14.9537C14.4788 16.6106 13.1357 17.9537 11.4788 17.9537H9.84241" stroke="#1E3862" stroke-width="1.45" stroke-miterlimit="10" stroke-linecap="round" stroke-linejoin="round"/>
<path d="M9.84241 4.0459H11.4788C13.1357 4.0459 14.4788 5.38904 14.4788 7.0459V8.68226" stroke="#1E3862" stroke-width="1.45" stroke-miterlimit="10" stroke-linecap="round" stroke-linejoin="round"/>
<path d="M9.84099 15.8406C9.84099 17.7337 8.10902 19.1536 6.25265 18.7823L4.5253 18.4369C3.12303 18.1564 2.11365 16.9252 2.11365 15.4951V6.50487C2.11365 5.07483 3.12303 3.84358 4.5253 3.56313L6.25265 3.21766C8.10902 2.84639 9.84099 4.26627 9.84099 6.15941V15.8406Z" stroke="#1E3862" stroke-width="1.45" stroke-miterlimit="10" stroke-linecap="round" stroke-linejoin="round"/>
</svg>
