<svg width="48" height="48" viewBox="0 0 48 48" fill="none" xmlns="http://www.w3.org/2000/svg">
<path d="M6 24C6 15.5147 6 11.2721 8.63605 8.63605C11.2721 6 15.5147 6 24 6C32.4852 6 36.728 6 39.3639 8.63605C42 11.2721 42 15.5147 42 24C42 32.4852 42 36.728 39.3639 39.3639C36.728 42 32.4852 42 24 42C15.5147 42 11.2721 42 8.63605 39.3639C6 36.728 6 32.4852 6 24Z" stroke="#1E3862" stroke-width="2.5"/>
<path d="M33 6V18.2537C33 20.0086 33 20.886 32.7676 21.4093C32.2379 22.6019 30.9311 23.2449 29.663 22.9371C29.1064 22.8019 28.4113 22.2666 27.0208 21.196C26.2358 20.5915 25.8432 20.2893 25.4346 20.1117C24.5195 19.7142 23.4805 19.7142 22.5654 20.1117C22.1568 20.2893 21.7642 20.5915 20.9792 21.196C19.5887 22.2666 18.8935 22.8019 18.337 22.9371C17.069 23.2449 15.7622 22.6019 15.2325 21.4093C15 20.886 15 20.0086 15 18.2537V6" stroke="#1E3862" stroke-width="2.5"/>
</svg>
