<svg width="48" height="48" viewBox="0 0 48 48" fill="none" xmlns="http://www.w3.org/2000/svg">
<path d="M8.2948 29.9319C6.76493 27.9443 6 26.9505 6 23.9996C6 21.0487 6.76493 20.055 8.2948 18.0674C11.3495 14.0988 16.4726 9.59961 24 9.59961C31.5274 9.59961 36.6504 14.0988 39.7052 18.0674C41.235 20.055 42 21.0487 42 23.9996C42 26.9505 41.235 27.9443 39.7052 29.9319C36.6504 33.9003 31.5274 38.3996 24 38.3996C16.4726 38.3996 11.3495 33.9003 8.2948 29.9319Z" stroke="#1E3862" stroke-width="2.5"/>
<path d="M29.4001 23.9996C29.4001 26.982 26.9825 29.3996 24.0001 29.3996C21.0177 29.3996 18.6001 26.982 18.6001 23.9996C18.6001 21.0172 21.0177 18.5996 24.0001 18.5996C26.9825 18.5996 29.4001 21.0172 29.4001 23.9996Z" stroke="#1E3862" stroke-width="2.5"/>
</svg>
