<svg width="32" height="20" viewBox="0 0 32 20" fill="none" xmlns="http://www.w3.org/2000/svg">
<path fill-rule="evenodd" clip-rule="evenodd" d="M2.48586 0H29.0396C30.4068 0 31.5255 1.11859 31.5255 2.48588V17.5141C31.5255 18.8814 30.4068 20 29.0396 20H2.48586C1.11862 20 0 18.8814 0 17.5141V2.48588C0 1.11859 1.11862 0 2.48586 0Z" fill="#011D38"/>
<path fill-rule="evenodd" clip-rule="evenodd" d="M2.48597 0.491699C1.3906 0.491699 0.492676 1.38965 0.492676 2.48502V17.5133C0.492676 18.6086 1.3906 19.5066 2.48597 19.5066H29.0397C30.1351 19.5066 31.033 18.6087 31.033 17.5133V2.48502C31.033 1.3896 30.1351 0.491699 29.0397 0.491699H2.48597Z" fill="#013668"/>
<path d="M20.7234 17.3735C24.7973 17.3735 28.0999 14.071 28.0999 9.99708C28.0999 5.92316 24.7973 2.62061 20.7234 2.62061C16.6495 2.62061 13.3469 5.92316 13.3469 9.99708C13.3469 14.071 16.6495 17.3735 20.7234 17.3735Z" fill="#FAC23C"/>
<path fill-rule="evenodd" clip-rule="evenodd" d="M15.7629 4.53516C15.8996 4.6593 16.0315 4.78853 16.1586 4.92246H15.3667C15.4937 4.78853 15.6262 4.6593 15.7629 4.53516Z" fill="#FAC23C"/>
<path d="M10.804 17.3735C14.8779 17.3735 18.1804 14.071 18.1804 9.99708C18.1804 5.92316 14.8779 2.62061 10.804 2.62061C6.73005 2.62061 3.42749 5.92316 3.42749 9.99708C3.42749 14.071 6.73005 17.3735 10.804 17.3735Z" fill="#DD2C00"/>
<path fill-rule="evenodd" clip-rule="evenodd" d="M16.5308 5.34668C16.6331 5.47242 16.7314 5.60158 16.8254 5.73398H14.7004C14.7944 5.60158 14.8927 5.47242 14.995 5.34668H16.5308Z" fill="#FAC23C"/>
<path fill-rule="evenodd" clip-rule="evenodd" d="M17.1044 6.15771C17.1819 6.28438 17.2556 6.41349 17.3255 6.54502H14.2004C14.2703 6.41349 14.344 6.28438 14.4214 6.15771H17.1044Z" fill="#FAC23C"/>
<path fill-rule="evenodd" clip-rule="evenodd" d="M17.5332 6.96875C17.5906 7.09597 17.6444 7.22513 17.6947 7.35605H13.8313C13.8816 7.22513 13.9354 7.09597 13.9928 6.96875H17.5332Z" fill="#FAC23C"/>
<path fill-rule="evenodd" clip-rule="evenodd" d="M17.8425 7.7793C17.8828 7.90693 17.9196 8.03609 17.953 8.1666H13.5728C13.6061 8.03609 13.643 7.90693 13.6832 7.7793H17.8425Z" fill="#FAC23C"/>
<path fill-rule="evenodd" clip-rule="evenodd" d="M18.048 8.58887C18.0727 8.71684 18.0942 8.84595 18.1123 8.97617H13.4133C13.4314 8.84595 13.4529 8.71684 13.4777 8.58887H18.048Z" fill="#FAC23C"/>
<path fill-rule="evenodd" clip-rule="evenodd" d="M18.1589 9.3999C18.1692 9.52812 18.1762 9.65725 18.1799 9.78721H13.3459C13.3496 9.65725 13.3566 9.52812 13.3669 9.3999H18.1589Z" fill="#FAC23C"/>
<path fill-rule="evenodd" clip-rule="evenodd" d="M18.1798 10.2109C18.1762 10.3409 18.1692 10.4701 18.1589 10.5982H13.3666C13.3563 10.4701 13.3494 10.3409 13.3457 10.2109H18.1798Z" fill="#FAC23C"/>
<path fill-rule="evenodd" clip-rule="evenodd" d="M18.1126 11.0215C18.0946 11.1517 18.0732 11.2808 18.0484 11.4088H13.477C13.4523 11.2808 13.4309 11.1517 13.4128 11.0215H18.1126Z" fill="#FAC23C"/>
<path fill-rule="evenodd" clip-rule="evenodd" d="M17.9537 11.8325C17.9203 11.963 17.8836 12.0922 17.8434 12.2198H13.6823C13.6421 12.0922 13.6054 11.963 13.572 11.8325H17.9537Z" fill="#FAC23C"/>
<path fill-rule="evenodd" clip-rule="evenodd" d="M17.6956 12.6431C17.6454 12.774 17.5916 12.9032 17.5343 13.0304H13.9914C13.934 12.9032 13.8803 12.774 13.8301 12.6431H17.6956Z" fill="#FAC23C"/>
<path fill-rule="evenodd" clip-rule="evenodd" d="M17.3267 13.4536C17.257 13.5851 17.1833 13.7143 17.106 13.8409H14.4195C14.3422 13.7143 14.2685 13.5851 14.1987 13.4536H17.3267Z" fill="#FAC23C"/>
<path fill-rule="evenodd" clip-rule="evenodd" d="M16.8274 14.2642C16.7335 14.3965 16.6354 14.5257 16.5332 14.6515H14.9927C14.8905 14.5257 14.7924 14.3965 14.6985 14.2642H16.8274Z" fill="#FAC23C"/>
<path fill-rule="evenodd" clip-rule="evenodd" d="M26.6555 11.2538V8.74805H25.9521V9.61366C25.8839 9.54072 25.8057 9.48649 25.717 9.44972C25.629 9.41357 25.531 9.39551 25.4225 9.39551C25.2003 9.39551 25.0177 9.47541 24.8737 9.63524C24.7295 9.79506 24.6572 10.0254 24.6572 10.327C24.6572 10.5959 24.7226 10.8251 24.8526 11.0135C24.9833 11.2019 25.1723 11.2958 25.419 11.2958C25.5421 11.2958 25.6541 11.2695 25.7538 11.2171C25.8291 11.1768 25.9124 11.0993 26.0035 10.9849V11.2538L26.6555 11.2538ZM25.8669 10.019C25.927 10.089 25.9574 10.1957 25.9574 10.3387C25.9574 10.4967 25.9276 10.6105 25.8687 10.6805C25.8092 10.7499 25.7357 10.7849 25.6471 10.7849C25.5642 10.7849 25.4942 10.7504 25.4382 10.681C25.3817 10.6116 25.3537 10.5031 25.3537 10.3544C25.3537 10.1952 25.3811 10.082 25.4353 10.0149C25.4902 9.94727 25.5578 9.91343 25.6383 9.91343C25.7305 9.91343 25.8069 9.94841 25.8669 10.019Z" fill="#FFFFFE"/>
<path fill-rule="evenodd" clip-rule="evenodd" d="M23.7629 9.73282V9.43652H23.1108V11.2528H23.8108V10.6427C23.8108 10.3517 23.8469 10.1528 23.9187 10.0466C23.9688 9.97136 24.04 9.93344 24.131 9.93344C24.1788 9.93344 24.2442 9.95036 24.3264 9.98476L24.5422 9.49077C24.4203 9.4266 24.3077 9.39453 24.2044 9.39453C24.1065 9.39453 24.0242 9.41841 23.9572 9.46684C23.8907 9.51523 23.8259 9.60388 23.7629 9.73282Z" fill="#FFFFFE"/>
<path fill-rule="evenodd" clip-rule="evenodd" d="M22.6874 10.0635C22.6874 9.97778 22.6705 9.88797 22.636 9.79408C22.6022 9.70012 22.5556 9.62725 22.496 9.57591C22.412 9.50182 22.3065 9.45286 22.1805 9.42951C22.0539 9.40617 21.8871 9.39453 21.6789 9.39453C21.5488 9.39453 21.428 9.40442 21.3166 9.42367C21.2052 9.44292 21.1177 9.47031 21.0542 9.50592C20.9649 9.55491 20.8972 9.61268 20.85 9.67973C20.8028 9.74623 20.7666 9.83779 20.7415 9.95446L21.4065 10.0244C21.4339 9.9451 21.4695 9.89146 21.5138 9.86229C21.571 9.82557 21.6561 9.80748 21.7699 9.80748C21.8585 9.80748 21.9203 9.82438 21.9553 9.8588C21.9909 9.8932 22.0084 9.95269 22.0084 10.0385C21.9221 10.0729 21.8398 10.1003 21.7623 10.1213C21.6847 10.1429 21.5155 10.1796 21.2548 10.2321C21.0373 10.2752 20.8879 10.3418 20.8069 10.431C20.7258 10.5202 20.6855 10.634 20.6855 10.7722C20.6855 10.9192 20.7415 11.0435 20.8541 11.1437C20.9661 11.2447 21.1306 11.2948 21.347 11.2948C21.5097 11.2948 21.6526 11.2698 21.7757 11.2196C21.8661 11.1823 21.9565 11.1198 22.0475 11.0324C22.0556 11.0843 22.0638 11.1222 22.0714 11.1467C22.0796 11.1712 22.0965 11.2062 22.1227 11.2528H22.7743C22.7381 11.1776 22.7142 11.1158 22.7037 11.0674C22.6926 11.019 22.6874 10.9518 22.6874 10.8661L22.6874 10.0635ZM21.7086 10.48C21.813 10.4532 21.9127 10.4228 22.0084 10.3884V10.5004C22.0084 10.5879 21.9944 10.6591 21.9664 10.7139C21.9384 10.7687 21.8912 10.8148 21.8247 10.8527C21.7576 10.8906 21.6853 10.9099 21.6077 10.9099C21.5336 10.9099 21.4776 10.8924 21.4391 10.8574C21.4012 10.8224 21.382 10.7769 21.382 10.7215C21.382 10.6731 21.4012 10.6299 21.4403 10.592C21.4776 10.5552 21.5674 10.5179 21.7086 10.48Z" fill="#FFFFFE"/>
<path fill-rule="evenodd" clip-rule="evenodd" d="M20.4167 9.48444C20.3292 9.21962 20.1945 9.02363 20.0143 8.89588C19.8335 8.76817 19.585 8.70459 19.2694 8.70459C18.8658 8.70459 18.5537 8.81598 18.3327 9.0382C18.1122 9.26103 18.002 9.57949 18.002 9.99363C18.002 10.3039 18.0649 10.5594 18.1903 10.7583C18.3157 10.9572 18.4645 11.0966 18.6371 11.176C18.8104 11.2547 19.0326 11.2943 19.3056 11.2943C19.5302 11.2943 19.715 11.2617 19.8603 11.1969C20.0061 11.1322 20.1274 11.0359 20.2254 10.9082C20.324 10.7811 20.3957 10.6218 20.4412 10.4317L19.7623 10.2269C19.7279 10.385 19.6731 10.5057 19.5972 10.5886C19.5214 10.672 19.4094 10.7134 19.2612 10.7134C19.1084 10.7134 18.99 10.6621 18.9055 10.5594C18.8209 10.4562 18.7789 10.2666 18.7789 9.98895C18.7789 9.76554 18.8145 9.60106 18.885 9.49668C18.9783 9.35612 19.1131 9.28553 19.2892 9.28553C19.3668 9.28553 19.4368 9.30127 19.4998 9.33334C19.5622 9.36485 19.6153 9.41035 19.659 9.46924C19.6853 9.50426 19.7104 9.55966 19.7343 9.63548L20.4167 9.48444Z" fill="#FFFFFE"/>
<path fill-rule="evenodd" clip-rule="evenodd" d="M17.7168 9.98476L17.9326 9.49077C17.8107 9.4266 17.6981 9.39453 17.5949 9.39453C17.4969 9.39453 17.4146 9.41841 17.3476 9.46684C17.2811 9.51523 17.2163 9.60388 17.1533 9.73282V9.43652H16.5012V11.2528H17.2011V10.6427C17.2011 10.3517 17.2373 10.1528 17.309 10.0466C17.3592 9.97136 17.4304 9.93344 17.5214 9.93344C17.5692 9.93344 17.6345 9.95036 17.7168 9.98476Z" fill="#FFFFFE"/>
<path fill-rule="evenodd" clip-rule="evenodd" d="M16.1758 10.4392C16.1758 10.1994 16.1367 10.0046 16.058 9.85531C15.9792 9.70538 15.8643 9.59166 15.7139 9.5129C15.5634 9.43419 15.3586 9.39453 15.0985 9.39453C14.7783 9.39453 14.5269 9.48258 14.3455 9.65816C14.1635 9.83374 14.0725 10.0641 14.0725 10.3482C14.0725 10.5477 14.118 10.7215 14.2084 10.8696C14.2994 11.0172 14.4137 11.1251 14.5514 11.1928C14.6896 11.261 14.8786 11.2948 15.1195 11.2948C15.3966 11.2948 15.6094 11.2552 15.7576 11.1758C15.9057 11.0971 16.0323 10.9659 16.1373 10.7839L15.4514 10.7209C15.4082 10.7751 15.3674 10.813 15.3295 10.8346C15.2682 10.8685 15.2029 10.8854 15.1341 10.8854C15.0256 10.8854 14.9375 10.8463 14.8704 10.7676C14.822 10.7127 14.7923 10.6293 14.7794 10.5179H16.1758L16.1758 10.4392ZM15.3598 9.89497C15.4187 9.9533 15.4555 10.0501 15.4689 10.1854H14.7812C14.7929 10.0763 14.8197 9.9947 14.8617 9.93987C14.9282 9.8518 15.0168 9.80748 15.1277 9.80748C15.2239 9.80748 15.3009 9.83662 15.3598 9.89497Z" fill="#FFFFFE"/>
<path fill-rule="evenodd" clip-rule="evenodd" d="M13.828 9.94841V9.4375H13.4466V8.74805L12.7501 9.10445V9.4375H12.4946V9.94841H12.7501V10.5871C12.7501 10.7895 12.77 10.9365 12.809 11.0269C12.8487 11.1173 12.9094 11.185 12.991 11.2293C13.0733 11.2737 13.201 11.2958 13.3743 11.2958C13.5236 11.2958 13.684 11.2772 13.856 11.2392L13.8047 10.758C13.7119 10.7878 13.6402 10.8024 13.5889 10.8024C13.5317 10.8024 13.4915 10.7831 13.4687 10.7446C13.4542 10.7195 13.4466 10.6682 13.4466 10.5912V9.94841H13.828Z" fill="#FFFFFE"/>
<path fill-rule="evenodd" clip-rule="evenodd" d="M7.68709 11.2538V8.74805H6.6704L6.28021 10.2727L5.89119 8.74805H4.86987V11.2538H5.50328V9.34358L5.99087 11.2538H6.56486L7.05363 9.34358V11.2538H7.68709Z" fill="#FFFFFE"/>
<path fill-rule="evenodd" clip-rule="evenodd" d="M8.10676 9.95446L8.77172 10.0244C8.79914 9.9451 8.83472 9.89145 8.87904 9.86229C8.93622 9.82557 9.02136 9.80748 9.1351 9.80748C9.22378 9.80748 9.28559 9.82438 9.3206 9.8588C9.35616 9.8932 9.37368 9.95269 9.37368 10.0385C9.28734 10.0729 9.20511 10.1003 9.12754 10.1213C9.04994 10.1429 8.88078 10.1796 8.62007 10.2321C8.4025 10.2752 8.25317 10.3418 8.17211 10.431C8.09105 10.5202 8.05078 10.634 8.05078 10.7722C8.05078 10.9192 8.10676 11.0435 8.21936 11.1437C8.33135 11.2447 8.49583 11.2948 8.71223 11.2948C8.87497 11.2948 9.01787 11.2698 9.14097 11.2196C9.23136 11.1823 9.32176 11.1198 9.41276 11.0324C9.42091 11.0843 9.42908 11.1222 9.43669 11.1467C9.44483 11.1712 9.46173 11.2062 9.48801 11.2528H10.1395C10.1034 11.1776 10.0794 11.1158 10.069 11.0674C10.0579 11.0189 10.0526 10.9518 10.0526 10.8661V10.0635C10.0526 9.97778 10.0357 9.88797 10.0013 9.79408C9.96745 9.70012 9.92079 9.62725 9.86128 9.57591C9.77728 9.50182 9.67173 9.45286 9.54573 9.42951C9.41916 9.40617 9.25233 9.39453 9.04412 9.39453C8.91402 9.39453 8.7933 9.40442 8.68188 9.42367C8.57047 9.44292 8.48301 9.47031 8.41942 9.50592C8.33016 9.55491 8.26251 9.61268 8.21526 9.67973C8.16801 9.74623 8.13187 9.83778 8.10676 9.95446ZM9.07384 10.48C9.17827 10.4532 9.278 10.4228 9.37369 10.3884V10.5004C9.37369 10.5879 9.35967 10.6591 9.33165 10.7139C9.30368 10.7687 9.25643 10.8148 9.18994 10.8527C9.12286 10.8906 9.05055 10.9099 8.97298 10.9099C8.89887 10.9099 8.84287 10.8924 8.80438 10.8574C8.76649 10.8224 8.74724 10.7769 8.74724 10.7215C8.74724 10.6731 8.76649 10.6299 8.80556 10.592C8.84287 10.5552 8.93268 10.5179 9.07384 10.48Z" fill="#FFFFFE"/>
<path fill-rule="evenodd" clip-rule="evenodd" d="M10.5273 9.65292C10.4578 9.73922 10.4234 9.84246 10.4234 9.96205C10.4234 10.0717 10.4555 10.1691 10.5196 10.2549C10.5844 10.34 10.6632 10.4013 10.757 10.4368C10.8516 10.473 11.019 10.5121 11.2604 10.5541C11.422 10.5827 11.5217 10.6066 11.5591 10.6258C11.6116 10.6532 11.6378 10.6923 11.6378 10.7425C11.6378 10.7868 11.618 10.8241 11.5777 10.8533C11.5264 10.8935 11.4541 10.9134 11.3607 10.9134C11.275 10.9134 11.2068 10.8959 11.1554 10.8609C11.1041 10.8259 11.0644 10.7676 11.0359 10.6859L10.3464 10.7489C10.3861 10.9233 10.4765 11.058 10.6171 11.1525C10.7576 11.2476 10.9939 11.2948 11.3251 11.2948C11.5596 11.2948 11.7451 11.2657 11.881 11.2068C12.0169 11.1479 12.1167 11.0691 12.1797 10.9699C12.2433 10.8708 12.2748 10.7687 12.2748 10.6637C12.2748 10.5599 12.245 10.4648 12.1849 10.3779C12.1254 10.291 12.0391 10.2245 11.9265 10.1778C11.8134 10.1312 11.6419 10.0944 11.4103 10.0682C11.2581 10.0501 11.1589 10.0297 11.114 10.0064C11.0691 9.98362 11.0464 9.95036 11.0464 9.90547C11.0464 9.86581 11.0644 9.83197 11.1 9.80395C11.1356 9.77597 11.1928 9.76198 11.2709 9.76198C11.3485 9.76198 11.4144 9.78002 11.4686 9.81621C11.5083 9.8436 11.5369 9.8862 11.5538 9.94396L12.2117 9.88096C12.1663 9.76198 12.1091 9.66805 12.0403 9.59806C11.9715 9.52864 11.8857 9.47734 11.7824 9.44406C11.6798 9.41085 11.52 9.39453 11.3042 9.39453C11.0994 9.39453 10.9361 9.41608 10.8142 9.45867C10.6923 9.50124 10.5966 9.56599 10.5273 9.65292Z" fill="#FFFFFE"/>
</svg>
