<svg width="84" height="68" viewBox="0 0 84 68" fill="none" xmlns="http://www.w3.org/2000/svg">
<path d="M16.3721 31.3821C15.4702 32.0898 14.3185 32.4783 13.5554 33.3386C12.6535 34.3653 12.5009 35.85 12.4315 37.2098C12.2927 39.9987 12.2788 42.7876 12.265 45.5905C12.2511 49.7392 12.2372 53.9018 12.82 58.0088C13.0004 59.2576 13.2917 60.6174 14.2769 61.4083C15.1927 62.1576 16.4692 62.2131 17.6486 62.2408L25.6546 62.4073C27.6665 62.4489 29.9559 62.3796 31.2602 60.8394C32.2731 59.66 32.3564 57.9533 32.3841 56.3993L32.8004 36.072C32.8281 34.407 32.7587 32.4922 31.4822 31.4238C30.511 30.6051 28.9014 30.2999 28.6517 29.065C28.5684 28.6626 28.6655 28.2047 28.4297 27.8717C28.2077 27.5664 27.7775 27.4971 27.4029 27.4416C25.9737 27.2889 24.5446 27.1641 23.1016 27.1086C21.7279 27.0392 20.16 26.8449 18.8002 27.1086C17.8428 27.3028 17.6486 27.7468 17.5792 28.6487C17.496 29.731 17.2739 30.6884 16.3721 31.3821Z" fill="white"/>
<path d="M26.3483 62.5323C26.1263 62.5323 25.8904 62.5323 25.6684 62.5184L17.6624 62.3519C16.6218 62.3241 15.2065 62.2964 14.2213 61.5055C13.2362 60.7146 12.9171 59.3548 12.7228 58.0367C12.1401 53.9157 12.1539 49.6837 12.1678 45.6044C12.1817 42.8571 12.1817 40.0127 12.3343 37.2237C12.4037 35.8084 12.5563 34.3377 13.4721 33.2831C13.9438 32.742 14.5682 32.3951 15.1649 32.0482C15.5534 31.8262 15.9419 31.5904 16.2888 31.3267C17.1352 30.6607 17.3849 29.7866 17.4682 28.6627C17.5514 27.733 17.7734 27.2335 18.7724 27.0254C19.8547 26.8173 21.0341 26.9005 22.1719 26.9699C22.491 26.9976 22.7963 27.0115 23.1015 27.0254C24.5307 27.0948 25.9876 27.2058 27.4029 27.3723C27.8052 27.4139 28.2492 27.4971 28.5129 27.844C28.6933 28.0938 28.7071 28.3852 28.721 28.6765C28.721 28.8153 28.7349 28.9402 28.7626 29.0789C28.9153 29.8559 29.6368 30.2445 30.4138 30.6607C30.8162 30.855 31.2047 31.1047 31.5516 31.3822C32.8697 32.4784 32.9391 34.407 32.9113 36.1137L32.4951 56.441C32.4673 58.1477 32.3425 59.7711 31.3434 60.9366C30.1779 62.3103 28.2215 62.5323 26.3483 62.5323ZM16.4275 31.4655C16.0529 31.743 15.6783 31.9789 15.2759 32.2009C14.6654 32.5616 14.0826 32.8946 13.6386 33.3941C12.7644 34.3932 12.6118 35.8223 12.5424 37.2098C12.4037 39.9988 12.3898 42.8432 12.3759 45.5767C12.3621 49.656 12.3482 53.8741 12.9309 57.9812C13.1113 59.2716 13.4166 60.562 14.3601 61.3251C15.2204 62.0189 16.4136 62.1021 17.6763 62.1299L25.6823 62.2964C27.6942 62.338 29.942 62.2548 31.2186 60.7701C32.1759 59.6462 32.2869 58.0644 32.3147 56.3994L32.731 36.0721C32.7587 34.407 32.7032 32.5477 31.4544 31.5071C31.1076 31.2435 30.7329 31.0076 30.3444 30.8133C29.5674 30.3971 28.7626 29.9531 28.5961 29.0789C28.5684 28.9402 28.5545 28.7875 28.5545 28.6488C28.5406 28.3852 28.5268 28.1215 28.388 27.9273C28.1937 27.6498 27.7914 27.5943 27.4306 27.5526C26.0153 27.4 24.5723 27.2751 23.1431 27.2196C22.8379 27.2058 22.5326 27.1919 22.2135 27.1641C21.0757 27.0809 19.9102 27.0115 18.8557 27.2196C17.9677 27.4 17.7873 27.7885 17.7179 28.6627C17.6069 29.6756 17.3988 30.7162 16.4275 31.4655Z" fill="#1E3862"/>
<path d="M17.3709 23.0015C16.8852 23.1264 16.3857 23.2791 15.9834 23.5982C15.1231 24.3058 15.0537 25.5685 15.0537 26.6785C15.0537 27.511 15.1231 28.4823 15.8169 28.954C16.2054 29.2038 16.691 29.2316 17.1628 29.2454C21.0201 29.3426 24.8635 29.3287 28.7209 29.2038C29.1371 29.1899 29.5672 29.1761 29.928 28.9679C30.6495 28.5517 30.8021 27.5804 30.816 26.7479C30.816 25.0273 30.8993 22.8767 28.8457 22.5714C26.4731 22.2245 23.92 22.2107 21.5335 22.3633C20.1182 22.4465 18.7307 22.6547 17.3709 23.0015Z" fill="#1E3862"/>
<path d="M22.4631 25.0827C20.3263 25.0827 18.2034 24.8607 16.1082 24.4306C15.9972 24.4029 15.9278 24.2919 15.9417 24.1808C15.9695 24.0698 16.0805 24.0005 16.1915 24.0143C20.5067 24.9024 24.9745 24.8607 29.2758 23.9033C29.3868 23.8756 29.4978 23.9311 29.5395 24.0421C29.5672 24.1531 29.5117 24.2641 29.4007 24.3057C29.3868 24.3057 29.3868 24.3057 29.373 24.3057C27.0974 24.8191 24.7802 25.0827 22.4631 25.0827Z" fill="white"/>
<path d="M16.9271 28.4962C16.8022 28.4962 16.719 28.3991 16.719 28.2742L16.83 24.9996C16.83 24.8886 16.9271 24.7915 17.052 24.8054C17.163 24.8054 17.2601 24.9025 17.2463 25.0274L17.1353 28.3019C17.1353 28.4129 17.0381 28.4962 16.9271 28.4962Z" fill="white"/>
<path d="M22.5604 28.732C22.4494 28.732 22.3661 28.6487 22.3523 28.5516C22.2551 27.6497 22.2551 26.7478 22.3384 25.8459C22.3523 25.7349 22.4494 25.6517 22.5743 25.6655C22.6853 25.6794 22.7685 25.7765 22.7547 25.8875C22.6714 26.7617 22.6714 27.6358 22.7685 28.4961C22.7824 28.6071 22.6991 28.7181 22.5881 28.732H22.5604Z" fill="white"/>
<path d="M28.8458 28.1076C28.7486 28.1076 28.6515 28.0382 28.6376 27.9272C28.485 26.956 28.4711 25.9708 28.596 24.9857C28.6099 24.8747 28.707 24.7914 28.8319 24.8053C28.9429 24.8192 29.0261 24.9302 29.0123 25.0412C28.8874 25.9847 28.9013 26.9282 29.0539 27.8717C29.0678 27.9827 28.9984 28.0937 28.8874 28.1076H28.8458Z" fill="white"/>
<path d="M14.5266 53.1664C14.5266 53.6521 14.5543 54.1654 14.8596 54.5401C15.2342 54.998 15.8863 55.0812 16.4691 55.109C20.7843 55.3726 25.0995 55.3032 29.4009 54.9008C29.6784 54.8731 29.9836 54.8453 30.2056 54.6788C30.6219 54.3875 30.6496 53.7908 30.6496 53.2774C30.6635 48.0881 30.6774 42.8987 30.6912 37.7093C30.6912 37.2931 30.6774 36.8352 30.3721 36.5438C30.0669 36.2524 29.6367 36.2524 29.2482 36.2524C24.9469 36.3079 20.6456 36.2941 16.3581 36.4189C15.8447 36.4328 15.1648 36.4051 14.8318 36.863C14.4017 37.4457 14.6098 38.7222 14.5959 39.416C14.5543 41.5667 14.5266 43.7174 14.5127 45.8819C14.4849 48.2962 14.4988 50.7383 14.5266 53.1664Z" fill="#1192E8"/>
<path d="M17.1211 39.305C16.7881 39.3605 16.358 39.5964 16.4967 39.9017C16.58 40.0821 16.8158 40.1098 17.0101 40.1237C20.4789 40.3457 23.9755 40.2763 27.4304 39.9155C28.2907 39.8323 28.5959 39.0553 27.6386 38.9027C26.584 38.7361 25.3908 38.7778 24.3224 38.75C21.9081 38.7223 19.5076 38.9027 17.1211 39.305Z" fill="white"/>
<path d="M20.9925 40.3594C19.6605 40.3594 18.3285 40.3178 17.0103 40.2345C16.7883 40.2207 16.5247 40.179 16.4137 39.957C16.3582 39.846 16.3582 39.7212 16.4137 39.624C16.5247 39.402 16.8577 39.2633 17.1075 39.2216C19.494 38.8193 21.9083 38.625 24.3226 38.6666C24.5585 38.6666 24.7944 38.6666 25.0302 38.6666C25.9044 38.6528 26.7785 38.6944 27.6527 38.8054C28.2909 38.9025 28.3326 39.2494 28.3326 39.3604C28.3187 39.6934 27.944 39.9709 27.4445 40.0264C25.2939 40.2484 23.1432 40.3594 20.9925 40.3594ZM17.1491 39.4159C16.941 39.4436 16.6912 39.5685 16.608 39.7212C16.5802 39.7628 16.5802 39.8322 16.608 39.8738C16.6635 39.9987 16.8577 40.0264 17.0242 40.0403C20.493 40.2623 23.9757 40.1929 27.4307 39.8322C27.8608 39.7905 28.1383 39.5546 28.1383 39.3604C28.1383 39.1939 27.9579 39.069 27.6388 39.0135C26.7785 38.9025 25.9183 38.8609 25.0441 38.8748C24.8082 38.8748 24.5585 38.8748 24.3226 38.8748C21.9222 38.8331 19.5079 39.0135 17.1491 39.4159Z" fill="#1E3862"/>
<path d="M17.1211 41.6221C16.7881 41.6776 16.358 41.9135 16.4967 42.2188C16.58 42.3992 16.8158 42.4269 17.0101 42.4408C20.4789 42.6628 23.9755 42.5934 27.4304 42.2327C28.2907 42.1494 28.5959 41.3724 27.6386 41.2198C26.584 41.0533 25.3908 41.0949 24.3224 41.0671C21.9081 41.0394 19.5076 41.2198 17.1211 41.6221Z" fill="white"/>
<path d="M20.9925 42.6768C19.6605 42.6768 18.3285 42.6352 17.0103 42.552C16.7883 42.5381 16.5247 42.4964 16.4137 42.2744C16.3582 42.1634 16.3582 42.0386 16.4137 41.9414C16.5247 41.7194 16.8577 41.5807 17.1075 41.5391C19.494 41.1367 21.9083 40.9424 24.3226 40.984C24.5585 40.984 24.7944 40.984 25.0302 40.984C25.9044 40.9702 26.7785 41.0118 27.6527 41.1228C28.2909 41.2199 28.3326 41.5668 28.3326 41.6778C28.3187 42.0108 27.944 42.2883 27.4445 42.3438C25.2939 42.5658 23.1432 42.6768 20.9925 42.6768ZM17.1491 41.7333C16.941 41.7611 16.6912 41.8859 16.608 42.0386C16.5802 42.0802 16.5802 42.1496 16.608 42.1912C16.6635 42.3161 16.8577 42.3438 17.0242 42.3577C20.493 42.5797 23.9757 42.5103 27.4307 42.1496C27.8608 42.1079 28.1383 41.8721 28.1383 41.6778C28.1383 41.5113 27.9579 41.3864 27.6388 41.3309C26.7785 41.2199 25.9183 41.1783 25.0441 41.1922C24.8082 41.1922 24.5585 41.1922 24.3226 41.1922C21.9222 41.1505 19.5079 41.3309 17.1491 41.7333Z" fill="#1E3862"/>
<path d="M24.073 51.9871C23.8788 52.1258 23.7955 52.3617 23.8371 52.5837C23.8649 52.7641 23.9481 52.7919 24.0314 52.8057C25.3357 53.0277 26.6677 52.9584 27.9442 52.5976C28.2772 52.5144 28.3743 51.7373 28.0275 51.5847C27.6251 51.4182 27.1811 51.4598 26.7787 51.4321C25.8352 51.4043 24.9194 51.5986 24.073 51.9871Z" fill="white"/>
<path d="M25.5155 53.0416C25.016 53.0416 24.5026 53 24.0031 52.9168C23.8505 52.889 23.7256 52.7641 23.7256 52.6115C23.6563 52.334 23.7811 52.0565 24.017 51.9039C24.8773 51.5015 25.8208 51.3072 26.7643 51.3489C26.8476 51.3489 26.9447 51.3489 27.0279 51.3489C27.3748 51.335 27.7217 51.3766 28.0408 51.5015C28.2351 51.5847 28.3461 51.8206 28.3183 52.0981C28.3045 52.3617 28.1796 52.6531 27.9437 52.7086C27.1667 52.9306 26.3481 53.0416 25.5155 53.0416ZM26.5284 51.5431C25.6959 51.5431 24.8773 51.7374 24.1141 52.0842C23.9615 52.1952 23.906 52.3895 23.9476 52.5699C23.9754 52.6948 24.017 52.7086 24.0586 52.7086C25.349 52.9306 26.6672 52.8613 27.916 52.5005C28.027 52.4728 28.1241 52.2785 28.138 52.0704C28.1518 51.9177 28.1102 51.7235 27.9853 51.668C27.6801 51.557 27.361 51.5154 27.0418 51.5292C26.9447 51.5292 26.8614 51.5292 26.7643 51.5292C26.6672 51.5292 26.6117 51.5431 26.5284 51.5431Z" fill="#1E3862"/>
<path d="M58.5111 34.3098C56.1246 32.062 53.6548 29.9113 51.0879 27.8717C50.408 27.3305 49.6171 26.7617 48.7568 26.8588C47.9937 26.942 47.3832 27.5109 46.842 28.0521C45.621 29.2731 44.4277 30.508 43.2483 31.7706C41.1393 34.0184 39.0996 36.3217 37.1294 38.6944C36.2136 39.7906 35.2701 40.859 34.4098 41.9967C33.716 42.8986 33.6328 44.1196 34.1739 45.1187C34.6734 46.0899 35.5614 46.7837 36.4217 47.4636L41.8192 51.7233C42.6795 52.4032 43.6785 53.1386 44.7746 53.0276C45.8708 52.9166 46.6894 52.0424 47.4109 51.2238C51.2683 46.867 55.1117 42.5101 58.969 38.1533C59.3298 37.7509 59.7044 37.3069 59.8015 36.7657C59.968 35.8083 59.2188 34.9758 58.5111 34.3098ZM49.4506 37.4318C49.409 37.6815 49.3118 37.9313 49.1592 38.1394C48.8123 38.6667 48.4377 39.1662 48.0214 39.6379C47.2028 40.5953 46.398 41.5666 45.51 42.4685C45.2325 42.7599 44.844 43.0651 44.4555 42.9541C44.1502 42.857 43.9699 42.5101 43.9837 42.191C44.0392 41.2336 45.066 40.7202 45.621 40.0681C46.4258 39.1384 47.2167 38.2088 48.0214 37.293C48.1602 37.1126 48.3128 36.9739 48.5071 36.849C48.7013 36.7241 48.9372 36.7102 49.1315 36.7935C49.3673 36.9322 49.4783 37.182 49.4506 37.4318Z" fill="white"/>
<path d="M44.5667 53.1249C43.54 53.1249 42.6242 52.4728 41.7639 51.7929L36.3664 47.5331C35.5478 46.8949 34.6182 46.1595 34.0909 45.1605C33.522 44.1337 33.6191 42.8572 34.3407 41.9275C34.9789 41.0811 35.6866 40.2486 36.3664 39.4438C36.6023 39.1663 36.8382 38.8888 37.0602 38.6113C39.0305 36.2525 41.084 33.9215 43.1931 31.6876C44.3725 30.4388 45.5796 29.19 46.7868 27.969C47.3834 27.3723 47.98 26.8312 48.7709 26.748C49.6728 26.6508 50.4915 27.2336 51.1852 27.7886C53.7383 29.8283 56.2358 31.9928 58.6085 34.2267C59.3578 34.9344 60.107 35.7946 59.9266 36.7798C59.8295 37.3626 59.4133 37.8343 59.0803 38.2089L47.5222 51.2795C46.759 52.1536 45.9126 53.0139 44.8165 53.111C44.7055 53.1249 44.6361 53.1249 44.5667 53.1249ZM48.9513 26.9422C48.8958 26.9422 48.8403 26.9422 48.7709 26.9561C48.0633 27.0255 47.4944 27.5527 46.9116 28.1216C45.7045 29.3288 44.4973 30.5775 43.318 31.8263C41.2228 34.0602 39.1692 36.3913 37.199 38.7362C36.9631 39.0137 36.7411 39.2912 36.5052 39.5687C35.8253 40.3735 35.1315 41.206 34.4933 42.0385C33.8273 42.9127 33.744 44.0921 34.2713 45.0495C34.7708 46.0069 35.6866 46.7284 36.4913 47.3666L41.8888 51.6264C42.7768 52.334 43.7342 53.0139 44.7749 52.9029C45.8155 52.7919 46.6064 51.9732 47.3557 51.1407L58.9138 38.0702C59.2329 37.7094 59.6214 37.2654 59.7185 36.7382C59.8711 35.8501 59.1635 35.0454 58.4559 34.3794C56.0693 32.1454 53.5718 29.9809 51.0326 27.9551C50.3805 27.4417 49.7006 26.9422 48.9513 26.9422ZM44.6361 43.0792C44.5667 43.0792 44.4973 43.0653 44.428 43.0514C44.0533 42.9404 43.8591 42.5242 43.8868 42.1773C43.9285 41.4558 44.4557 40.984 44.983 40.5261C45.1772 40.3596 45.3715 40.1792 45.5519 39.985C46.093 39.3606 46.6203 38.7501 47.1475 38.1257L47.9384 37.2099C48.0772 37.0295 48.2575 36.863 48.4379 36.7382C48.7432 36.5023 49.1733 36.5717 49.4092 36.8769C49.5341 37.0434 49.5757 37.2377 49.5341 37.4319C49.4924 37.7094 49.3953 37.9592 49.2288 38.1812C48.8819 38.7085 48.4934 39.208 48.0772 39.6797C47.2724 40.6232 46.4538 41.6084 45.5657 42.5103C45.3576 42.7739 45.0107 43.0792 44.6361 43.0792ZM48.8958 36.8353C48.7709 36.8353 48.6599 36.8769 48.5628 36.9324C48.3824 37.0434 48.2298 37.1961 48.1049 37.3626L47.314 38.2783C46.7868 38.9027 46.2456 39.5132 45.7184 40.1376C45.538 40.3319 45.3437 40.5261 45.1356 40.6926C44.65 41.1228 44.1366 41.5529 44.1088 42.1912C44.095 42.4548 44.2337 42.7739 44.5112 42.8572C44.8581 42.9682 45.2189 42.649 45.4547 42.3993C46.3289 41.4974 47.1614 40.5261 47.9523 39.5687C48.3685 39.097 48.7432 38.6113 49.0901 38.0979C49.2288 37.9037 49.3259 37.6817 49.3676 37.4319C49.3953 37.2099 49.2982 37.0018 49.1039 36.8769C49.0346 36.8353 48.9652 36.8214 48.8958 36.8353Z" fill="#1E3862"/>
<path d="M43.7341 48.6709C43.4982 48.9345 43.3456 49.2536 43.2484 49.6005C43.1791 49.9474 43.2901 50.3498 43.5953 50.5302C43.8728 50.6689 44.1919 50.6689 44.4695 50.5163C44.7331 50.3637 44.969 50.1694 45.1632 49.9335C45.7737 49.3369 46.3287 48.6847 46.856 48.0049C47.2445 47.4637 47.6608 46.2566 46.6617 46.0484C45.9541 45.8958 45.2603 46.881 44.858 47.3111C44.4695 47.769 44.0948 48.213 43.7341 48.6709Z" fill="#1E3862"/>
<path d="M46.6755 46.0761C45.9678 45.9235 45.2741 46.9086 44.8717 47.3387C44.7468 47.4775 44.6219 47.6162 44.4971 47.755C44.7191 47.9493 44.955 48.2268 45.0937 48.3655L45.954 49.1425C46.2731 48.7956 46.5784 48.4349 46.8559 48.0464C47.2444 47.4914 47.6606 46.2842 46.6755 46.0761Z" fill="white"/>
<path d="M45.9542 49.2258C45.9264 49.2258 45.8987 49.2119 45.8848 49.1981L45.0245 48.421C44.9552 48.3655 44.8858 48.2823 44.8025 48.1852C44.6915 48.0603 44.5667 47.9354 44.4279 47.8244C44.414 47.8105 44.4001 47.7828 44.4001 47.755C44.4001 47.7273 44.4001 47.6995 44.4279 47.6857C44.5528 47.5469 44.6777 47.4082 44.8025 47.2694C44.8719 47.2 44.9274 47.1168 45.0107 47.0335C45.4547 46.5201 46.0513 45.8264 46.7034 45.9651C46.9948 46.0067 47.2307 46.201 47.3417 46.4646C47.5498 46.9919 47.2168 47.7273 46.9532 48.088C46.6757 48.4766 46.3704 48.8373 46.0374 49.1842C46.0097 49.2119 45.9819 49.2258 45.9542 49.2258ZM44.6499 47.7412C44.7609 47.8383 44.858 47.9493 44.9552 48.0603C45.0523 48.1713 45.1078 48.2268 45.1772 48.2823L45.9542 48.9899C46.2456 48.6708 46.5231 48.3378 46.7867 47.977C47.0087 47.6579 47.314 46.9919 47.1475 46.5479C47.0642 46.3398 46.8838 46.201 46.6618 46.1733C46.1207 46.0623 45.5518 46.7283 45.1633 47.1723C45.0939 47.2555 45.0107 47.3388 44.9552 47.4082C44.8442 47.5192 44.747 47.6302 44.6499 47.7412Z" fill="#1E3862"/>
<path d="M48.7709 43.0652C48.5351 43.3427 48.3824 43.648 48.2853 43.9948C48.2159 44.3417 48.3269 44.7441 48.6322 44.9384C48.9097 45.0771 49.2288 45.0771 49.5063 44.9245C49.77 44.7719 50.0058 44.5776 50.2001 44.3417C50.8106 43.7451 51.3656 43.093 51.8929 42.4131C52.2814 41.8719 52.6976 40.6648 51.7125 40.4566C51.0049 40.304 50.3111 41.2892 49.9087 41.7193C49.4924 42.1494 49.1178 42.5934 48.7709 43.0652Z" fill="#1E3862"/>
<path d="M51.6984 40.4566C50.9908 40.304 50.297 41.2892 49.8947 41.7193C49.7698 41.858 49.6449 41.9968 49.52 42.1356C49.742 42.3298 49.9779 42.6073 50.1167 42.7461L50.9769 43.5231C51.2961 43.1762 51.6013 42.8154 51.8788 42.4269C52.2812 41.8858 52.6975 40.6786 51.6984 40.4566Z" fill="white"/>
<path d="M50.9772 43.6204C50.9494 43.6204 50.9217 43.6065 50.9078 43.5926L50.0475 42.8156C49.9781 42.7601 49.9088 42.6769 49.8255 42.5797C49.7145 42.4549 49.5896 42.33 49.4648 42.219C49.437 42.2051 49.437 42.1773 49.437 42.1496C49.437 42.1218 49.437 42.0941 49.4648 42.0802C49.5896 41.9415 49.7145 41.8027 49.8394 41.664C49.9088 41.5946 49.9643 41.5113 50.0475 41.4281C50.4915 40.9147 51.0882 40.2209 51.7403 40.3597C52.0317 40.4013 52.2676 40.5956 52.3786 40.8592C52.5867 41.3865 52.2537 42.1218 51.9901 42.4826C51.7126 42.8711 51.4073 43.2319 51.0743 43.5788C51.0465 43.6065 51.0188 43.6204 50.9772 43.6204ZM49.6729 42.1357C49.7839 42.2328 49.881 42.3438 49.9781 42.4549C50.0753 42.5659 50.1308 42.6214 50.2002 42.6769L50.9772 43.3845C51.2685 43.0654 51.546 42.7324 51.8097 42.3716C52.0317 42.0525 52.3369 41.3865 52.1704 40.9424C52.0872 40.7343 51.9068 40.5956 51.6848 40.5678C51.1437 40.4568 50.5748 41.1228 50.1863 41.5668C50.1169 41.6501 50.0336 41.7333 49.9781 41.8027C49.8671 41.9137 49.77 42.0247 49.6729 42.1357Z" fill="#1E3862"/>
<path d="M53.9462 36.8629C53.7103 37.1266 53.5577 37.4457 53.4606 37.7926C53.3912 38.1395 53.5022 38.5419 53.8075 38.7222C54.085 38.861 54.4041 38.861 54.6816 38.7084C54.9452 38.5557 55.1811 38.3615 55.3754 38.1256C55.9859 37.529 56.5409 36.8768 57.0682 36.1969C57.4567 35.6558 57.8729 34.4486 56.8878 34.2405C56.1801 34.0879 55.4864 35.073 55.084 35.5032C54.6816 35.9472 54.307 36.3912 53.9462 36.8629Z" fill="#1E3862"/>
<path d="M56.8879 34.2544C56.1802 34.1018 55.4865 35.0869 55.0841 35.5171C54.9592 35.6558 54.8344 35.7946 54.7095 35.9333C54.9315 36.1276 55.1674 36.4051 55.3061 36.5438L56.1664 37.3208C56.4855 36.974 56.7908 36.6132 57.0683 36.2247C57.4568 35.6836 57.873 34.4625 56.8879 34.2544Z" fill="white"/>
<path d="M56.1663 37.404C56.1386 37.404 56.1108 37.3902 56.097 37.3763L55.2367 36.5993C55.1673 36.5438 55.0979 36.4605 55.0147 36.3634C54.9037 36.2385 54.7788 36.0998 54.6539 36.0026C54.6262 35.9888 54.6262 35.961 54.6123 35.9333C54.6123 35.9055 54.6262 35.8778 54.6401 35.8639C54.7649 35.7251 54.8898 35.5864 55.0147 35.4476C55.0841 35.3782 55.1534 35.295 55.2228 35.2117C55.6529 34.6984 56.2635 34.0046 56.9156 34.1433C57.207 34.185 57.4429 34.3792 57.5539 34.6429C57.7481 35.1701 57.429 35.9055 57.1654 36.2663C56.8878 36.6548 56.5826 37.0155 56.2496 37.3624C56.2218 37.3902 56.1941 37.404 56.1663 37.404ZM54.8482 35.9194C54.9592 36.0165 55.0563 36.1275 55.1534 36.2385C55.2506 36.3495 55.3061 36.405 55.3754 36.4605L56.1525 37.1682C56.4438 36.849 56.7213 36.516 56.985 36.1553C57.207 35.8361 57.5122 35.1701 57.3457 34.7261C57.2625 34.518 57.0821 34.3792 56.8601 34.3515C56.319 34.2405 55.7501 34.9065 55.3616 35.3505C55.2922 35.4338 55.2089 35.517 55.1534 35.5864C55.0563 35.6974 54.9592 35.8084 54.8482 35.9194Z" fill="#1E3862"/>
<path d="M36.3107 42.8434C36.0748 43.107 35.9222 43.4261 35.8251 43.773C35.7557 44.1199 35.8667 44.5223 36.172 44.7026C36.4495 44.8414 36.7686 44.8414 37.0461 44.6888C37.3097 44.5361 37.5456 44.3419 37.7399 44.106C38.3504 43.5094 38.9054 42.8572 39.4327 42.1773C39.8212 41.6362 40.2374 40.4291 39.2523 40.2209C38.5446 40.0683 37.8509 41.0534 37.4485 41.4836C37.0322 41.9276 36.6576 42.3855 36.3107 42.8434Z" fill="#1E3862"/>
<path d="M39.2387 40.2348C38.5311 40.0821 37.8373 41.0673 37.4349 41.4974C37.3101 41.6362 37.1852 41.7749 37.0603 41.9137C37.2823 42.1079 37.5182 42.3854 37.6569 42.5242L38.5172 43.3012C38.8363 42.9543 39.1416 42.5936 39.4191 42.205C39.8076 41.6639 40.2377 40.4568 39.2387 40.2348Z" fill="white"/>
<path d="M38.5171 43.3983C38.4894 43.3983 38.4616 43.3844 38.4477 43.3705L37.5875 42.5935C37.5181 42.538 37.4487 42.4548 37.3655 42.3576C37.2545 42.2328 37.1157 42.094 36.9908 41.983C36.977 41.9691 36.9631 41.9414 36.9492 41.9136C36.9492 41.8859 36.9631 41.8581 36.977 41.8443C37.1018 41.7055 37.2267 41.5668 37.3516 41.428C37.4071 41.3586 37.4765 41.2754 37.5597 41.1921C37.9899 40.6787 38.6004 39.985 39.2525 40.1237C39.5439 40.1653 39.7798 40.3596 39.8908 40.6232C40.085 41.1505 39.7659 41.8859 39.5023 42.2466C39.2248 42.6352 38.9195 42.9959 38.5865 43.3428C38.5726 43.3844 38.5449 43.3983 38.5171 43.3983ZM37.2129 41.9136C37.3239 42.0108 37.421 42.1218 37.5181 42.2328C37.6152 42.3438 37.6707 42.3993 37.7401 42.4548L38.5171 43.1624C38.8085 42.8433 39.086 42.5103 39.3496 42.1495C39.5716 41.8304 39.8769 41.1644 39.7104 40.7204C39.6271 40.5122 39.4468 40.3735 39.2248 40.3457C38.6836 40.2347 38.1147 40.9007 37.7262 41.3447C37.643 41.428 37.5736 41.5113 37.5181 41.5806C37.4071 41.6916 37.31 41.8026 37.2129 41.9136Z" fill="#1E3862"/>
<path d="M41.3337 37.2377C41.0978 37.5014 40.9452 37.8205 40.848 38.1674C40.7787 38.5143 40.8897 38.9166 41.1949 39.097C41.4724 39.2358 41.7916 39.2358 42.0691 39.0831C42.3327 38.9305 42.5686 38.7363 42.7628 38.5004C43.3733 37.9037 43.9422 37.2516 44.4556 36.5717C44.8441 36.0306 45.2604 34.8234 44.2752 34.6153C43.5676 34.4627 42.8738 35.4478 42.4714 35.878C42.0552 36.322 41.6806 36.766 41.3337 37.2377Z" fill="#1E3862"/>
<path d="M44.2614 34.6291C43.5538 34.4765 42.86 35.4616 42.4576 35.8918C42.3328 36.0305 42.2079 36.1693 42.083 36.308C42.305 36.5023 42.5409 36.7798 42.6796 36.9186L43.5399 37.6956C43.859 37.3487 44.1643 36.9879 44.4418 36.5994C44.8442 36.0583 45.2604 34.8373 44.2614 34.6291Z" fill="white"/>
<path d="M43.5535 37.7788C43.5258 37.7788 43.498 37.7649 43.4842 37.7511L42.6239 36.974C42.5545 36.9185 42.4851 36.8353 42.4019 36.7382C42.2909 36.6133 42.166 36.4884 42.0411 36.3635C42.0273 36.3497 42.0134 36.3219 41.9995 36.2942C41.9995 36.2664 42.0134 36.2387 42.0273 36.2248C42.1521 36.086 42.277 35.9473 42.4019 35.8085C42.4574 35.7391 42.5268 35.6559 42.61 35.5726C43.0402 35.0593 43.6507 34.3655 44.3028 34.5042C44.5942 34.5459 44.8301 34.7401 44.9411 35.0038C45.1353 35.531 44.8162 36.2664 44.5526 36.6272C44.2751 37.0157 43.9698 37.3764 43.6368 37.7233C43.609 37.7649 43.5813 37.7788 43.5535 37.7788ZM42.2354 36.2942C42.3464 36.3913 42.4435 36.5023 42.5406 36.6133C42.6378 36.7243 42.6933 36.7798 42.7627 36.8353L43.5397 37.5429C43.831 37.2238 44.1086 36.8908 44.3722 36.53C44.6081 36.2109 44.8994 35.5449 44.7329 35.1009C44.6497 34.8928 44.4693 34.754 44.2473 34.7263C43.7062 34.6153 43.1373 35.2813 42.7488 35.7253C42.6655 35.8085 42.5961 35.8918 42.5406 35.9612C42.4435 36.0722 42.3325 36.1832 42.2354 36.2942Z" fill="#1E3862"/>
<path d="M46.509 31.0216C46.2731 31.2991 46.1205 31.6044 46.0233 31.9513C45.954 32.2982 46.065 32.7006 46.3702 32.8809C46.6477 33.0197 46.9668 33.0197 47.2444 32.8671C47.508 32.7144 47.7439 32.5202 47.9381 32.2843C48.5486 31.6877 49.1036 31.0355 49.6309 30.3556C50.0194 29.8145 50.4357 28.6073 49.4505 28.3992C48.7429 28.2466 48.0491 29.2317 47.6467 29.6619C47.2444 30.1059 46.8697 30.5638 46.509 31.0216Z" fill="#1E3862"/>
<path d="M49.4506 28.413C48.743 28.2604 48.0492 29.2455 47.6468 29.6757C47.522 29.8144 47.3971 29.9532 47.2722 30.0919C47.4942 30.2862 47.7301 30.5637 47.8689 30.7024L48.7291 31.4794C49.0483 31.1326 49.3535 30.7718 49.631 30.3833C50.0195 29.8422 50.4358 28.635 49.4506 28.413Z" fill="white"/>
<path d="M48.7291 31.5766C48.7013 31.5766 48.6736 31.5628 48.6597 31.5489L47.7994 30.7719C47.7301 30.7164 47.6607 30.6331 47.5774 30.536C47.4664 30.4111 47.3416 30.2862 47.2028 30.1613C47.1889 30.1475 47.175 30.1197 47.175 30.092C47.175 30.0642 47.1751 30.0365 47.2028 30.0087C47.3277 29.87 47.4526 29.7312 47.5774 29.5925C47.6468 29.5231 47.7023 29.4398 47.7856 29.3566C48.2296 28.8432 48.8262 28.1494 49.4783 28.2882C49.7697 28.3298 50.0056 28.5241 50.1166 28.7877C50.3247 29.315 49.9917 30.0503 49.7281 30.4111C49.4506 30.7996 49.1453 31.1604 48.8123 31.5073C48.7846 31.5628 48.7568 31.5766 48.7291 31.5766ZM47.4248 30.092C47.5358 30.1891 47.6329 30.3001 47.7301 30.4111C47.8272 30.5221 47.8827 30.5776 47.9521 30.6331L48.7291 31.3407C49.0205 31.0216 49.298 30.6886 49.5616 30.3279C49.7836 30.0087 50.0889 29.3427 49.9224 28.8987C49.8391 28.6906 49.6587 28.5518 49.4367 28.5241C48.8956 28.4131 48.3267 29.0791 47.9382 29.5231C47.8688 29.6063 47.7856 29.6896 47.7301 29.759C47.6191 29.87 47.5219 29.981 47.4248 30.092Z" fill="#1E3862"/>
<path d="M39.8769 45.8542C39.641 46.1179 39.4884 46.437 39.3913 46.7839C39.3219 47.1307 39.4329 47.5331 39.7381 47.7135C40.0156 47.8523 40.3348 47.8523 40.6123 47.6996C40.8759 47.547 41.1118 47.3528 41.306 47.1169C41.9166 46.5202 42.4716 45.8681 42.9988 45.1882C43.3873 44.6471 43.8036 43.4399 42.8184 43.2318C42.1108 43.0792 41.417 44.0643 41.0147 44.4944C40.6123 44.9385 40.2376 45.3825 39.8769 45.8542Z" fill="#1E3862"/>
<path d="M42.8183 43.2456C42.1107 43.0929 41.4169 44.0781 41.0145 44.5082C40.8896 44.647 40.7648 44.7857 40.6399 44.9245C40.8619 45.1187 41.0978 45.3962 41.2365 45.535L42.0968 46.312C42.4159 45.9651 42.7212 45.6044 42.9987 45.2158C43.3872 44.6747 43.8035 43.4676 42.8183 43.2456Z" fill="white"/>
<path d="M42.0968 46.4092C42.069 46.4092 42.0413 46.3953 42.0274 46.3814L41.1671 45.6044C41.0977 45.5489 41.0284 45.4657 40.9451 45.3685C40.8341 45.2437 40.7092 45.1049 40.5705 44.9939C40.5566 44.98 40.5427 44.9523 40.5427 44.9245C40.5427 44.8968 40.5566 44.869 40.5705 44.8552C40.6954 44.7164 40.8202 44.5776 40.9451 44.4389C41.0006 44.3695 41.07 44.2863 41.1532 44.203C41.5972 43.6896 42.1939 42.9959 42.846 43.1346C43.1374 43.1762 43.3733 43.3705 43.4843 43.6341C43.6924 44.1614 43.3594 44.8968 43.0958 45.2575C42.8183 45.646 42.513 46.0207 42.18 46.3676C42.1523 46.3953 42.1245 46.4092 42.0968 46.4092ZM40.7786 44.9245C40.8896 45.0217 40.9867 45.1327 41.0839 45.2437C41.181 45.3547 41.2365 45.4102 41.3059 45.4657L42.0829 46.1733C42.3743 45.8542 42.6518 45.5212 42.9154 45.1604C43.1374 44.8413 43.4427 44.1753 43.2761 43.7313C43.1929 43.5231 43.0125 43.3844 42.7905 43.3566C42.2494 43.2456 41.6805 43.9116 41.292 44.3556C41.2087 44.4389 41.1394 44.5221 41.0839 44.5915C40.9867 44.7025 40.8896 44.7997 40.7786 44.9245Z" fill="#1E3862"/>
<path d="M50.089 34.0324C49.8532 34.2961 49.7005 34.6152 49.6034 34.9621C49.534 35.3089 49.645 35.7113 49.9503 35.8917C50.2278 36.0305 50.5469 36.0305 50.8244 35.8778C51.0881 35.7252 51.3239 35.531 51.5182 35.2951C52.1287 34.6984 52.6976 34.0602 53.211 33.3803C53.5995 32.8391 54.0157 31.632 53.0306 31.4239C52.323 31.2712 51.6292 32.2564 51.2268 32.6865C50.8244 33.1305 50.4359 33.5745 50.089 34.0324Z" fill="#1E3862"/>
<path d="M53.0166 31.4239C52.3089 31.2712 51.6152 32.2564 51.2128 32.6865C51.0879 32.8253 50.963 32.964 50.8381 33.1028C51.0601 33.297 51.296 33.5745 51.4348 33.7133L52.295 34.4903C52.6142 34.1434 52.9194 33.7827 53.1969 33.3942C53.5993 32.853 54.0156 31.6459 53.0166 31.4239Z" fill="white"/>
<path d="M52.3092 34.5874C52.2814 34.5874 52.2537 34.5735 52.2398 34.5596L51.3795 33.7826C51.3101 33.7271 51.2408 33.6439 51.1575 33.5467C51.0465 33.4219 50.9216 33.2831 50.7968 33.186C50.769 33.1721 50.769 33.1443 50.7551 33.1166C50.7551 33.0888 50.769 33.0611 50.7829 33.0333C50.9078 32.8946 51.0326 32.7558 51.1575 32.6171C51.2269 32.5477 51.2963 32.4645 51.3656 32.3812C51.7958 31.8678 52.4063 31.1741 53.0584 31.3128C53.3498 31.3544 53.5857 31.5487 53.6967 31.8123C53.8909 32.3396 53.5718 33.075 53.3082 33.4357C53.0307 33.8242 52.7254 34.185 52.3924 34.5319C52.3647 34.5735 52.3369 34.5874 52.3092 34.5874ZM50.991 33.1027C51.102 33.1998 51.1991 33.3109 51.2963 33.4219C51.3934 33.5329 51.4489 33.5884 51.5044 33.6439L52.2814 34.3515C52.5728 34.0324 52.8503 33.6994 53.1139 33.3386C53.3359 33.0195 53.6412 32.3535 53.4747 31.9094C53.3914 31.7013 53.211 31.5626 52.989 31.5348C52.4479 31.4238 51.879 32.0898 51.4905 32.5338C51.4073 32.6171 51.3379 32.7003 51.2824 32.7697C51.1991 32.8807 51.0881 32.9917 50.991 33.1027Z" fill="#1E3862"/>
<path d="M62.6178 52.9581C61.0915 49.4338 59.4126 45.9649 57.5949 42.5794C57.1093 41.6775 56.5265 40.7062 55.5553 40.4009C54.695 40.1373 53.7654 40.4703 52.9328 40.8033C51.0597 41.5526 49.1865 42.3296 47.3411 43.1482C44.0249 44.5913 40.7504 46.1314 37.5313 47.7687C36.0466 48.518 34.5204 49.2534 33.0635 50.072C31.8979 50.7242 31.2319 52.0007 31.3707 53.3327C31.4678 54.6092 32.0922 55.7748 32.7027 56.8987L36.5462 63.9889C37.1705 65.1267 37.8921 66.3616 39.127 66.764C40.3619 67.1664 41.6523 66.5975 42.8178 66.0564L61.3413 57.3149C61.924 57.0374 62.5207 56.746 62.8675 56.2049C63.4919 55.2475 63.0757 53.9987 62.6178 52.9581ZM51.4066 52.1256C51.2401 52.3892 51.0319 52.5973 50.7683 52.75C50.1578 53.1523 49.5057 53.5131 48.8396 53.8184C47.5215 54.4844 46.1895 55.1365 44.8297 55.7054C44.3857 55.8858 43.8446 56.0523 43.4699 55.747C43.1785 55.4973 43.1508 55.0394 43.3173 54.7064C43.8168 53.6935 45.1766 53.6102 46.0646 53.1801C47.355 52.5557 48.6454 51.9174 49.9358 51.2931C50.1578 51.1682 50.4076 51.0849 50.6573 51.0294C50.9209 50.9878 51.1846 51.071 51.3649 51.2653C51.5453 51.5289 51.5592 51.8619 51.4066 52.1256Z" fill="white"/>
<path d="M40.0014 67C39.6961 67 39.3909 66.9584 39.0995 66.8613C37.8507 66.4589 37.1153 65.2378 36.4493 64.0307L32.6059 56.9404C32.0231 55.872 31.3571 54.651 31.26 53.3328C31.1212 51.9592 31.815 50.641 33.0083 49.975C34.0905 49.3506 35.2283 48.7817 36.3383 48.2406C36.713 48.0602 37.1015 47.866 37.4761 47.6717C40.6952 46.0483 43.9975 44.4804 47.2998 43.0374C49.1452 42.2326 51.0322 41.4417 52.9054 40.6924C53.8212 40.3317 54.7231 40.0126 55.5972 40.2901C56.6101 40.6092 57.2067 41.6082 57.7062 42.524C59.51 45.8957 61.2028 49.3923 62.7291 52.9166C63.2147 54.0266 63.6171 55.2893 62.9788 56.2605C62.6042 56.8294 61.9382 57.1485 61.3971 57.3983L42.8736 66.1397C41.9301 66.5837 40.9588 67 40.0014 67ZM54.8896 40.4011C54.279 40.4011 53.6408 40.6231 52.9748 40.8867C51.1155 41.636 49.2284 42.413 47.383 43.2316C44.0807 44.6747 40.7784 46.2287 37.5732 47.8521L36.4354 48.421C35.3254 48.976 34.1877 49.5449 33.1193 50.1554C31.9954 50.7937 31.3432 52.0286 31.4681 53.319C31.5652 54.5955 32.2174 55.7888 32.7863 56.8572L36.6297 63.9474C37.268 65.1268 37.9895 66.3062 39.155 66.6809C40.3205 67.0555 41.5693 66.5421 42.7626 65.9732L61.2861 57.2318C61.7994 56.9959 62.4377 56.6907 62.7846 56.1634C63.3673 55.2754 62.9788 54.0682 62.521 53.0137C60.9947 49.5033 59.3158 46.0067 57.512 42.635C57.0263 41.7192 56.4575 40.8034 55.5278 40.4982C55.3197 40.4288 55.1116 40.4011 54.8896 40.4011ZM43.9836 56.0385C43.7755 56.0524 43.5673 55.9691 43.4008 55.8443C43.054 55.5529 43.054 55.0256 43.2205 54.6787C43.5951 53.9156 44.386 53.6658 45.163 53.4161C45.4544 53.3328 45.7458 53.2218 46.0233 53.097C46.8835 52.6807 47.7438 52.2644 48.6041 51.8343L49.8945 51.2099C50.1303 51.085 50.3801 50.9879 50.6576 50.9463C50.949 50.8908 51.2542 51.0018 51.4624 51.2099C51.6982 51.4874 51.6566 51.9037 51.504 52.1812C51.3375 52.4587 51.1016 52.6807 50.838 52.8472C50.2136 53.2496 49.5753 53.6103 48.8954 53.9295C47.5912 54.5816 46.2453 55.2476 44.8716 55.8304C44.5802 55.9553 44.2889 56.0247 43.9836 56.0385ZM50.7825 51.1405C50.7409 51.1405 50.7131 51.1405 50.6715 51.1405C50.4217 51.1822 50.1997 51.2654 49.9777 51.3903L48.6873 52.0147C47.827 52.4309 46.9668 52.8611 46.0926 53.2773C45.8013 53.4022 45.5099 53.5132 45.2046 53.6103C44.4831 53.8462 43.72 54.0821 43.387 54.762C43.2482 55.0395 43.2482 55.4558 43.5118 55.6778C43.8448 55.9553 44.386 55.7888 44.7606 55.6223C46.1204 55.0534 47.4663 54.3874 48.7706 53.7352C49.4366 53.43 50.0748 53.0692 50.6854 52.6668C50.9351 52.5142 51.1432 52.3199 51.2959 52.0702C51.4069 51.8621 51.4485 51.5429 51.2681 51.3348C51.1571 51.196 50.9629 51.1267 50.7825 51.1405Z" fill="#1E3862"/>
<path d="M40.029 61.6025C39.6682 61.8106 39.3075 62.0465 39.0716 62.3795C38.8357 62.7125 38.7663 63.212 39.0022 63.545C39.2103 63.8364 39.5988 63.9613 39.9457 63.9335C40.3065 63.8919 40.6534 63.7948 40.9725 63.6283C41.9021 63.2536 42.804 62.8235 43.6782 62.3379C44.3442 61.9355 45.3571 60.8255 44.3858 60.1317C43.692 59.6461 42.4849 60.3815 41.8605 60.659C41.2361 60.9642 40.6256 61.2695 40.029 61.6025Z" fill="#1E3862"/>
<path d="M44.3998 60.1594C43.706 59.6737 42.4989 60.4091 41.8745 60.6866C41.6803 60.7699 41.486 60.867 41.2917 60.9641C41.4444 61.2833 41.5554 61.6856 41.6525 61.8938C41.8329 62.31 42.0271 62.7124 42.2214 63.1287C42.7348 62.9067 43.2204 62.6569 43.706 62.3655C44.3582 61.9631 45.3711 60.8392 44.3998 60.1594Z" fill="white"/>
<path d="M42.2073 63.2258C42.1657 63.2258 42.1241 63.1981 42.1102 63.1703L41.5413 61.9354C41.4997 61.8383 41.4581 61.7273 41.4026 61.5747C41.3332 61.3804 41.2638 61.1862 41.1806 61.0058C41.1667 60.978 41.1667 60.9503 41.1806 60.9225C41.1944 60.8948 41.2083 60.8809 41.2361 60.867C41.4303 60.7699 41.6246 60.6866 41.8327 60.5895C41.9298 60.5479 42.0408 60.4924 42.1657 60.4369C42.8734 60.09 43.8307 59.6182 44.469 60.0761C44.7465 60.2565 44.9269 60.5618 44.913 60.8948C44.8853 61.5469 44.2054 62.1852 43.7475 62.4488C43.2619 62.7263 42.7624 62.9899 42.249 63.2119C42.2351 63.2258 42.2212 63.2258 42.2073 63.2258ZM41.4165 61.0058C41.4858 61.1723 41.5552 61.3388 41.6107 61.5053C41.6523 61.644 41.7078 61.7689 41.7356 61.8522L42.2628 62.9899C42.7346 62.7818 43.1925 62.5459 43.6365 62.2823C44.0389 62.0464 44.6771 61.4637 44.691 60.8948C44.691 60.6311 44.5661 60.3814 44.3303 60.2565C43.7891 59.8819 42.8595 60.3398 42.2351 60.6311C42.1102 60.6866 41.9992 60.7421 41.9021 60.7976C41.7356 60.8531 41.583 60.9364 41.4165 61.0058Z" fill="#1E3862"/>
<path d="M48.049 57.8839C47.6882 58.092 47.3275 58.3279 47.0916 58.6609C46.8557 58.9939 46.7863 59.4934 47.0222 59.8264C47.2303 60.1178 47.6189 60.2427 47.9657 60.2149C48.3265 60.1733 48.6734 60.0762 48.9925 59.9097C49.9221 59.5489 50.824 59.1049 51.6982 58.6193C52.3642 58.2169 53.3771 57.1069 52.4058 56.4131C51.7121 55.9136 50.5049 56.6629 49.8805 56.9404C49.2561 57.2317 48.6456 57.537 48.049 57.8839Z" fill="#1E3862"/>
<path d="M52.4195 56.427C51.7258 55.9274 50.5186 56.6767 49.8942 56.9542C49.7 57.0513 49.5057 57.1346 49.2976 57.2317C49.4502 57.5508 49.5612 57.9532 49.6584 58.1614C49.8387 58.5776 50.033 58.98 50.2272 59.3963C50.7406 59.1743 51.2263 58.9106 51.7119 58.6331C52.3779 58.2307 53.3908 57.1207 52.4195 56.427Z" fill="white"/>
<path d="M50.2274 59.4934C50.1857 59.4934 50.1441 59.4656 50.1302 59.4379L49.5613 58.203C49.5197 58.1058 49.4781 57.9948 49.4226 57.8422C49.3532 57.648 49.2838 57.4537 49.2006 57.2733C49.1867 57.2456 49.1867 57.2178 49.2006 57.1901C49.2145 57.1623 49.2283 57.1484 49.2561 57.1346C49.4503 57.0374 49.6585 56.9542 49.8527 56.8571C49.9499 56.8154 50.0609 56.7599 50.1857 56.7044C50.8934 56.3576 51.8508 55.8858 52.489 56.3437C52.7665 56.5102 52.9469 56.8293 52.933 57.1623C52.9053 57.8145 52.2254 58.4527 51.7675 58.7164C51.2819 58.9939 50.7824 59.2575 50.269 59.4795C50.269 59.4934 50.2412 59.4934 50.2274 59.4934ZM49.4365 57.2872C49.5058 57.4537 49.5752 57.6202 49.6307 57.7867C49.6724 57.9255 49.7279 58.0365 49.7556 58.1336L50.2829 59.2714C50.7546 59.0632 51.2125 58.8274 51.6565 58.5637C52.0589 58.3278 52.6972 57.7451 52.711 57.1762C52.711 56.9126 52.5862 56.6628 52.3503 56.5379C51.8091 56.1633 50.8795 56.6212 50.2551 56.9126C50.1302 56.9681 50.0192 57.0236 49.9221 57.0791C49.7695 57.1346 49.603 57.2039 49.4365 57.2872Z" fill="#1E3862"/>
<path d="M56.5129 53.5826C56.1521 53.7907 55.7913 54.0266 55.5555 54.3596C55.3196 54.6926 55.2502 55.1922 55.4861 55.5252C55.6942 55.8165 56.0827 55.9414 56.4296 55.9137C56.7904 55.872 57.1234 55.7749 57.4564 55.6084C58.386 55.2477 59.2879 54.8036 60.1621 54.318C60.8281 53.9156 61.841 52.8056 60.8697 52.1118C60.1759 51.6262 58.9688 52.3616 58.3444 52.6391C57.7339 52.9444 57.1095 53.2496 56.5129 53.5826Z" fill="#1E3862"/>
<path d="M60.8834 52.1395C60.1896 51.64 58.9825 52.3893 58.3581 52.6668C58.1639 52.7639 57.9696 52.8472 57.7615 52.9443C57.9141 53.2634 58.0251 53.6658 58.1222 53.874C58.3026 54.2902 58.4969 54.6926 58.6911 55.1089C59.2045 54.8868 59.6901 54.6371 60.1758 54.3457C60.8418 53.9433 61.8547 52.8194 60.8834 52.1395Z" fill="white"/>
<path d="M58.7049 55.206C58.6633 55.206 58.6216 55.1783 58.6078 55.1505L58.0389 53.9156C57.9973 53.8185 57.9556 53.7075 57.9001 53.5549C57.8308 53.3606 57.7614 53.1663 57.6781 52.986C57.6643 52.9582 57.6643 52.9305 57.6781 52.9027C57.692 52.875 57.7059 52.8611 57.7336 52.8472C57.9279 52.7501 58.1221 52.6668 58.3303 52.5697C58.4274 52.5281 58.5384 52.4726 58.6633 52.4171C59.3709 52.0702 60.3283 51.5984 60.9666 52.0563C61.2441 52.2367 61.4245 52.542 61.4106 52.875C61.3828 53.5271 60.7029 54.1654 60.2451 54.429C59.7594 54.7065 59.2599 54.9701 58.7465 55.1921C58.7326 55.1921 58.7188 55.206 58.7049 55.206ZM57.914 52.986C57.9834 53.1525 58.0528 53.319 58.1083 53.4855C58.1499 53.6242 58.2054 53.7352 58.2331 53.8324L58.7604 54.9701C59.2322 54.762 59.69 54.5261 60.1341 54.2625C60.5364 54.0266 61.1747 53.4439 61.1886 52.875C61.1886 52.6113 61.0498 52.3755 60.8278 52.2367C60.2867 51.8621 59.357 52.32 58.7327 52.6113C58.6078 52.6668 58.4968 52.7223 58.3996 52.7778C58.2331 52.8333 58.0666 52.9166 57.914 52.986Z" fill="#1E3862"/>
<path d="M34.7145 51.8619C34.3538 52.07 33.993 52.3059 33.7571 52.6389C33.5212 52.9719 33.4519 53.4715 33.6877 53.8045C33.8959 54.0958 34.2844 54.2207 34.6313 54.193C34.992 54.1513 35.3389 54.0542 35.658 53.8877C36.5877 53.5131 37.4896 53.0829 38.3637 52.5973C39.0297 52.1949 40.0426 51.0849 39.0713 50.3911C38.3776 49.9055 37.1704 50.6409 36.546 50.9184C35.9217 51.2237 35.3111 51.5289 34.7145 51.8619Z" fill="#1E3862"/>
<path d="M39.0853 50.419C38.3916 49.9334 37.1844 50.6688 36.56 50.9463C36.3658 51.0295 36.1715 51.1267 35.9634 51.2238C36.116 51.5429 36.227 51.9453 36.3241 52.1534C36.5045 52.5697 36.6988 52.9721 36.893 53.3883C37.4064 53.1663 37.892 52.9166 38.3777 52.6252C39.0437 52.2228 40.0566 51.0989 39.0853 50.419Z" fill="white"/>
<path d="M36.8929 53.4855C36.8513 53.4855 36.8096 53.4577 36.7958 53.43L36.2269 52.1951C36.1853 52.098 36.1436 51.987 36.0881 51.8343C36.0187 51.654 35.9494 51.4458 35.8661 51.2654C35.8522 51.2377 35.8522 51.2099 35.8661 51.1822C35.88 51.1544 35.8939 51.1406 35.9216 51.1267C36.1159 51.0296 36.3101 50.9463 36.5183 50.8492C36.6154 50.8076 36.7264 50.7521 36.8513 50.6966C37.5589 50.3497 38.5163 49.8779 39.1546 50.3358C39.4321 50.5162 39.6124 50.8214 39.5986 51.1544C39.5708 51.8066 38.8909 52.4449 38.433 52.7085C37.9474 52.986 37.4479 53.2496 36.9345 53.4716C36.9206 53.4716 36.9068 53.4855 36.8929 53.4855ZM36.102 51.2654C36.1714 51.432 36.2408 51.5985 36.2963 51.765C36.3379 51.9037 36.3934 52.0147 36.4211 52.098L36.9484 53.2357C37.4201 53.0276 37.878 52.7917 38.322 52.5281C38.7244 52.2922 39.3627 51.7095 39.3766 51.1406C39.3766 50.8769 39.2517 50.6272 39.0158 50.5023C38.4747 50.1277 37.545 50.5856 36.9206 50.8908C36.7958 50.9463 36.6848 51.0018 36.5876 51.0434C36.4211 51.1128 36.2546 51.1961 36.102 51.2654Z" fill="#1E3862"/>
<path d="M42.7345 48.1435C42.3738 48.3517 42.013 48.5876 41.7771 48.9206C41.5413 49.2536 41.4719 49.7531 41.7078 50.0861C41.9159 50.3775 42.3044 50.5024 42.6513 50.4746C43.012 50.433 43.3589 50.3358 43.6781 50.1693C44.6077 49.8086 45.5096 49.3646 46.3837 48.8789C47.0497 48.4766 48.0626 47.3665 47.0914 46.6728C46.3976 46.1733 45.1905 46.9225 44.5661 47.2C43.9417 47.4914 43.3312 47.8105 42.7345 48.1435Z" fill="#1E3862"/>
<path d="M47.1053 46.6866C46.4116 46.1871 45.2044 46.9364 44.58 47.2139C44.3858 47.311 44.1777 47.3942 43.9834 47.4914C44.136 47.8105 44.247 48.2129 44.3442 48.421C44.5245 48.8373 44.7188 49.2397 44.913 49.6559C45.4264 49.4339 45.9121 49.1703 46.3977 48.8928C47.0637 48.4904 48.0766 47.3804 47.1053 46.6866Z" fill="white"/>
<path d="M44.9132 49.753C44.8715 49.753 44.8299 49.7253 44.816 49.6975L44.2471 48.4626C44.2055 48.3655 44.1639 48.2545 44.1084 48.1019C44.039 47.9076 43.9696 47.7134 43.8864 47.533C43.8725 47.5052 43.8725 47.4775 43.8864 47.4497C43.9003 47.422 43.9141 47.4081 43.9419 47.3942C44.1361 47.2971 44.3304 47.2139 44.5385 47.1167C44.6356 47.0751 44.7466 47.0196 44.8715 46.9641C45.5792 46.6172 46.5366 46.1455 47.1748 46.6034C47.4523 46.7837 47.6327 47.089 47.6188 47.422C47.5911 48.0741 46.9112 48.7124 46.4533 48.976C45.9677 49.2535 45.4682 49.5172 44.9548 49.7392C44.9548 49.753 44.927 49.753 44.9132 49.753ZM44.1223 47.5469C44.1916 47.7134 44.261 47.8799 44.3165 48.0464C44.3581 48.1851 44.4136 48.2961 44.4414 48.3933L44.9687 49.531C45.4404 49.3229 45.8983 49.087 46.3423 48.8234C46.7447 48.5875 47.3829 48.0048 47.3968 47.4359C47.3968 47.1722 47.2719 46.9225 47.0361 46.7976C46.4949 46.423 45.5653 46.8809 44.9409 47.1722C44.816 47.2277 44.705 47.2832 44.6079 47.3387C44.4553 47.3942 44.2888 47.4636 44.1223 47.5469Z" fill="#1E3862"/>
<path d="M51.1984 43.842C50.8376 44.0502 50.4769 44.2861 50.241 44.6191C50.0051 44.9521 49.9357 45.4516 50.1716 45.7846C50.4075 46.0621 50.7544 46.2147 51.1151 46.1731C51.4759 46.1315 51.8089 46.0343 52.1419 45.8678C53.0716 45.5071 53.9735 45.0631 54.8476 44.5774C55.5136 44.1751 56.5265 43.065 55.5552 42.3713C54.8615 41.8856 53.6543 42.621 53.0299 42.8985C52.4055 43.2038 51.795 43.509 51.1984 43.842Z" fill="#1E3862"/>
<path d="M55.5692 42.3989C54.8754 41.9133 53.6683 42.6487 53.0439 42.9262C52.8497 43.0233 52.6415 43.1066 52.4473 43.2037C52.5999 43.5228 52.7109 43.9252 52.808 44.1334C52.9884 44.5496 53.1827 44.952 53.3769 45.3683C53.8903 45.1463 54.3759 44.8826 54.8616 44.6051C55.5276 44.2027 56.5405 43.0927 55.5692 42.3989Z" fill="white"/>
<path d="M53.377 45.4654C53.3354 45.4654 53.2938 45.4377 53.2799 45.4099L52.711 44.175C52.6694 44.0779 52.6278 43.9669 52.5723 43.8143C52.5029 43.62 52.4335 43.4257 52.3503 43.2454C52.3364 43.2176 52.3364 43.1899 52.3503 43.1621C52.3641 43.1344 52.378 43.1205 52.4058 43.1066C52.6 43.0095 52.7943 42.9262 53.0024 42.8291C53.0995 42.7875 53.2105 42.732 53.3354 42.6765C54.043 42.3296 55.0004 41.8578 55.6387 42.3157C55.9162 42.4961 56.0966 42.8014 56.0827 43.1344C56.0549 43.7865 55.3751 44.4248 54.9172 44.6884C54.4315 44.9659 53.932 45.2295 53.4325 45.4515C53.4186 45.4654 53.4048 45.4654 53.377 45.4654ZM52.5861 43.2454C52.6555 43.4119 52.7249 43.5784 52.7804 43.7449C52.822 43.8836 52.8775 43.9946 52.9053 44.0918L53.4325 45.2295C53.9043 45.0214 54.3622 44.7855 54.8062 44.5219C55.2086 44.286 55.8468 43.7033 55.8607 43.1344C55.8607 42.8707 55.7219 42.6349 55.4999 42.4961C54.9588 42.1215 54.0292 42.5794 53.4048 42.8707C53.2799 42.9262 53.1689 42.9817 53.0718 43.0372C52.9191 43.0927 52.7526 43.176 52.5861 43.2454Z" fill="#1E3862"/>
<path d="M37.1705 56.7739C36.8097 56.982 36.449 57.2179 36.2131 57.5509C35.9772 57.8839 35.9078 58.3834 36.1576 58.7164C36.3657 59.0078 36.7403 59.1327 37.1011 59.1049C37.4619 59.0633 37.7949 58.9662 38.1279 58.7997C39.0575 58.4389 39.9733 57.9949 40.8335 57.5093C41.4996 57.1069 42.5125 55.9968 41.5412 55.3031C40.8474 54.8036 39.6403 55.5528 39.0159 55.8303C38.3776 56.1217 37.7671 56.427 37.1705 56.7739Z" fill="#1E3862"/>
<path d="M41.5414 55.3169C40.8476 54.8174 39.6405 55.5666 39.0161 55.8441C38.8218 55.9413 38.6137 56.0245 38.4194 56.1216C38.5721 56.4408 38.6831 56.8432 38.7802 57.0513C38.9744 57.4675 39.1548 57.8699 39.3491 58.2862C39.8625 58.0642 40.3481 57.8006 40.8337 57.523C41.4997 57.1207 42.5126 56.0106 41.5414 55.3169Z" fill="white"/>
<path d="M39.3489 58.3834C39.3073 58.3834 39.2657 58.3556 39.2518 58.3279L38.6829 57.093C38.6413 56.9958 38.5997 56.8848 38.5442 56.7322C38.4748 56.5518 38.4054 56.3437 38.3222 56.1633C38.3083 56.1356 38.3083 56.1078 38.3222 56.0801C38.336 56.0523 38.3499 56.0384 38.3777 56.0246C38.5719 55.9274 38.7662 55.8442 38.9743 55.747C39.0714 55.7054 39.1824 55.6499 39.3073 55.5944C40.015 55.2475 40.9724 54.7758 41.6106 55.2337C41.8881 55.414 42.0685 55.7193 42.0546 56.0523C42.0269 56.7044 41.347 57.3427 40.8891 57.6063C40.4035 57.8838 39.904 58.1475 39.3906 58.3695C39.3767 58.3834 39.3628 58.3834 39.3489 58.3834ZM38.5581 56.1633C38.6274 56.3298 38.6968 56.4963 38.7523 56.6628C38.7939 56.8016 38.8494 56.9126 38.8772 57.0097L39.4044 58.1475C39.8762 57.9393 40.3341 57.7035 40.7781 57.4398C41.1805 57.204 41.8187 56.6212 41.8326 56.0523C41.8326 55.7887 41.6939 55.5528 41.4719 55.414C40.9307 55.0394 40.0011 55.4973 39.3767 55.7887C39.2518 55.8442 39.1408 55.8997 39.0437 55.9552C38.8911 56.0107 38.7246 56.0939 38.5581 56.1633Z" fill="#1E3862"/>
<path d="M53.6545 48.754C53.2937 48.9621 52.9329 49.1841 52.6971 49.531C52.4612 49.8779 52.3918 50.3635 52.6277 50.6965C52.8358 50.9879 53.2243 51.1128 53.5712 51.085C53.932 51.0434 54.2788 50.9463 54.598 50.7798C55.5276 50.4051 56.4295 49.975 57.3036 49.4894C57.9697 49.087 58.9826 47.977 58.0113 47.2832C57.3175 46.7976 56.1104 47.5329 55.486 47.8105C54.8755 48.1018 54.2511 48.4071 53.6545 48.754Z" fill="#1E3862"/>
<path d="M58.0251 47.297C57.3313 46.8114 56.1241 47.5468 55.4998 47.8243C55.3055 47.9075 55.1112 48.0047 54.917 48.1018C55.0696 48.4209 55.1806 48.8233 55.2777 49.0314C55.4581 49.4477 55.6524 49.8501 55.8466 50.2663C56.36 50.0443 56.8457 49.7807 57.3313 49.5032C57.9973 49.1008 58.9963 47.9908 58.0251 47.297Z" fill="white"/>
<path d="M55.8467 50.3635C55.8051 50.3635 55.7635 50.3357 55.7496 50.308L55.1807 49.0731C55.1391 48.976 55.0975 48.865 55.042 48.7123C54.9726 48.5319 54.9032 48.3238 54.82 48.1434C54.8061 48.1157 54.8061 48.0879 54.82 48.0602C54.8339 48.0324 54.8477 48.0186 54.8755 48.0047C55.0697 47.9076 55.264 47.8243 55.4721 47.7272C55.5692 47.6856 55.6802 47.6301 55.8051 47.5746C56.5128 47.2277 57.4702 46.7559 58.1084 47.2138C58.3859 47.3942 58.5663 47.6994 58.5524 48.0324C58.5247 48.6846 57.8448 49.3228 57.3869 49.5865C56.9013 49.864 56.4018 50.1276 55.8884 50.3496C55.8745 50.3635 55.8606 50.3635 55.8467 50.3635ZM55.042 48.1573C55.1114 48.3238 55.1807 48.4903 55.2362 48.6568C55.2779 48.7817 55.3334 48.9066 55.3611 48.9898L55.8884 50.1276C56.3601 49.9195 56.818 49.6836 57.262 49.42C57.6644 49.1841 58.3027 48.6013 58.3165 48.0324C58.3165 47.7688 58.1917 47.5329 57.9558 47.3942C57.4147 47.0195 56.485 47.4636 55.8606 47.7688C55.7357 47.8243 55.6247 47.8798 55.5276 47.9353C55.375 48.0047 55.2085 48.0741 55.042 48.1573Z" fill="#1E3862"/>
<path d="M44.4136 5.78235C44.7327 6.823 45.6485 7.68327 46.7169 7.84977C47.4245 7.9469 48.1322 7.79427 48.7427 7.43351C49.5197 7.00338 50.1163 6.30961 50.4216 5.4771C51.046 3.71493 49.7417 0.814997 47.5771 1.00925C45.4126 1.20351 43.8031 3.78431 44.4136 5.78235Z" fill="#1192E8"/>
<path d="M45.1075 5.79618C44.9965 5.79618 44.8994 5.69906 44.8994 5.58805C44.8994 5.51868 44.941 5.4493 44.9965 5.40768C46.4673 4.53353 47.9936 3.75652 49.5615 3.07663C49.6725 3.035 49.7835 3.0905 49.8251 3.2015C49.8668 3.29863 49.8251 3.40963 49.728 3.46513C48.174 4.13115 46.6616 4.90816 45.2047 5.78231C45.1769 5.79618 45.1492 5.79618 45.1075 5.79618Z" fill="#1E3862"/>
<path d="M45.3157 13.8299C44.6913 14.2323 44.3444 14.9538 44.4138 15.6892C44.4832 16.161 44.7052 16.5911 45.052 16.9102C45.4683 17.3265 46.0233 17.5763 46.62 17.6318C47.8687 17.715 49.4783 16.3414 48.9649 14.9816C48.4515 13.6218 46.4812 13.0668 45.3157 13.8299Z" fill="#1192E8"/>
<path d="M47.8826 16.9242C47.8132 16.9242 47.7577 16.8964 47.7161 16.8409C47.0084 15.9668 46.2314 15.1481 45.4128 14.3711C45.3295 14.2879 45.3295 14.163 45.4128 14.0797C45.496 13.9965 45.6209 13.9965 45.7042 14.0659C46.5367 14.8567 47.3276 15.6893 48.0491 16.5773C48.1185 16.6605 48.1046 16.7993 48.0213 16.8687C47.9797 16.9103 47.9381 16.938 47.8826 16.9242Z" fill="#1E3862"/>
<path d="M63.173 13.7884C62.9371 14.732 63.2285 15.8004 63.9777 16.4248C64.4772 16.8133 65.0877 17.0353 65.7121 17.0491C66.503 17.0769 67.28 16.8271 67.8905 16.3276C69.1809 15.2731 69.5278 12.4564 67.7795 11.61C66.0313 10.7636 63.6308 11.9847 63.173 13.7884Z" fill="#1192E8"/>
<path d="M68.3208 14.4961H68.293C66.7945 14.288 65.296 14.177 63.7836 14.177C63.6726 14.177 63.5754 14.0798 63.5754 13.9688C63.5754 13.8578 63.6726 13.7607 63.7836 13.7607C65.3098 13.7746 66.8361 13.8856 68.3485 14.0937C68.4595 14.1076 68.5567 14.2047 68.5428 14.3157C68.5289 14.4267 68.4318 14.51 68.3208 14.4961Z" fill="#1E3862"/>
<path d="M59.4823 6.08771C59.1216 6.29584 58.7608 6.53172 58.5249 6.86472C58.2891 7.19773 58.2197 7.69724 58.4556 8.03025C58.6637 8.32163 59.0522 8.44651 59.3991 8.41876C59.7598 8.37713 60.1067 8.28 60.4258 8.1135C61.3555 7.73887 62.2574 7.30873 63.1315 6.8231C63.7975 6.42071 64.8104 5.31069 63.8392 4.61692C63.1454 4.11741 61.9383 4.86668 61.3139 5.14419C60.6895 5.43557 60.079 5.7547 59.4823 6.08771Z" fill="#1E3862"/>
<path d="M63.8529 4.63075C63.1591 4.13124 61.952 4.8805 61.3276 5.15801C61.1333 5.24126 60.9252 5.33839 60.731 5.43552C60.8836 5.75465 60.9946 6.15703 61.0917 6.36516C61.2721 6.78142 61.4663 7.1838 61.6606 7.60006C62.1601 7.37806 62.6596 7.11443 63.1314 6.83692C63.8113 6.43454 64.8242 5.32451 63.8529 4.63075Z" fill="white"/>
<path d="M61.6746 7.6972C61.633 7.6972 61.5914 7.66945 61.5775 7.6417L61.0086 6.40679C60.967 6.30967 60.9254 6.19867 60.8699 6.04604C60.8005 5.85178 60.7311 5.65753 60.6479 5.47715C60.634 5.4494 60.634 5.42165 60.6479 5.3939C60.6617 5.36615 60.6756 5.35227 60.7034 5.3384C60.8976 5.24127 61.1057 5.15802 61.3 5.06089C61.3971 5.01926 61.5081 4.96376 61.633 4.90826C62.3406 4.56138 63.298 4.08962 63.9363 4.5475C64.2138 4.72788 64.3942 5.03314 64.3803 5.36615C64.3526 6.01829 63.6727 6.65655 63.2148 6.92018C62.7291 7.19769 62.2296 7.46132 61.7163 7.68332C61.7024 7.6972 61.6885 7.6972 61.6746 7.6972ZM60.8699 5.49103C60.9392 5.65753 61.0086 5.82403 61.0641 5.99054C61.1057 6.12929 61.1612 6.24029 61.189 6.32354L61.7163 7.46132C62.188 7.25319 62.6459 7.01731 63.0899 6.75368C63.4923 6.5178 64.1306 5.93503 64.1444 5.36615C64.1444 5.10252 64.0057 4.86664 63.7837 4.72788C63.2425 4.35325 62.3129 4.81114 61.6885 5.10252C61.5636 5.15802 61.4526 5.21352 61.3555 5.26902C61.2029 5.3384 61.0364 5.40777 60.8699 5.49103Z" fill="#1E3862"/>
<path d="M36.5325 10.4305C36.366 10.0558 36.1717 9.66732 35.8665 9.38981C35.5612 9.11231 35.0756 9.00131 34.7148 9.19556C34.3957 9.36206 34.2431 9.7367 34.2153 10.0975C34.2153 10.4582 34.2847 10.8051 34.3957 11.152C34.6593 12.1232 34.9785 13.0668 35.367 13.9964C35.6861 14.7041 36.6851 15.8418 37.476 14.9538C38.0449 14.3155 37.4483 13.039 37.2401 12.373C37.032 11.707 36.7961 11.0687 36.5325 10.4305Z" fill="#1E3862"/>
<path d="M37.4762 14.94C38.0451 14.3018 37.4485 13.0252 37.2403 12.3592C37.171 12.1511 37.1016 11.943 37.0322 11.7487C36.6992 11.8597 36.283 11.9291 36.0748 12.0123L34.7844 12.4425C34.9509 12.9697 35.1452 13.497 35.3672 13.9965C35.6863 14.7042 36.6853 15.8281 37.4762 14.94Z" fill="white"/>
<path d="M36.8378 15.3701C36.7962 15.3701 36.7407 15.3701 36.6991 15.3563C36.0608 15.2591 35.5058 14.5099 35.2838 14.0242C35.0618 13.5108 34.8537 12.9836 34.6872 12.4563C34.6594 12.4008 34.6872 12.3453 34.7427 12.3176L36.0331 11.8874C36.1302 11.8597 36.2551 11.8319 36.4077 11.7903C36.6019 11.7487 36.8101 11.6932 37.0043 11.6238C37.0598 11.5961 37.1153 11.6238 37.1431 11.6793V11.6932C37.2125 11.9013 37.2818 12.1094 37.3512 12.3176C37.379 12.4147 37.4206 12.5396 37.4761 12.6644C37.7397 13.3998 38.1005 14.4127 37.5732 14.9955C37.379 15.2314 37.1153 15.3701 36.8378 15.3701ZM34.9092 12.4979C35.0618 12.9975 35.256 13.4692 35.4642 13.941C35.6584 14.3572 36.1579 15.0649 36.7268 15.1481C36.9905 15.1759 37.2402 15.0788 37.4067 14.8706C37.8368 14.385 37.49 13.3998 37.268 12.7477C37.2263 12.6228 37.1847 12.4979 37.1431 12.3869C37.0876 12.2204 37.0321 12.0401 36.9766 11.8736C36.8101 11.9291 36.6297 11.9707 36.4632 12.0123C36.3244 12.0401 36.1996 12.0678 36.1163 12.1094L34.9092 12.4979Z" fill="#1E3862"/>
<path d="M56.5131 15.8143C56.2217 15.5229 55.8887 15.2454 55.5002 15.1205C55.1117 14.9956 54.6122 15.065 54.3625 15.3841C54.1405 15.6616 54.1266 16.064 54.2515 16.397C54.3902 16.73 54.5845 17.0353 54.8203 17.2989C55.4309 18.0898 56.0969 18.8391 56.8184 19.5467C57.3873 20.074 58.7332 20.74 59.1355 19.6161C59.4131 18.8113 58.3585 17.8678 57.9145 17.3405C57.4705 16.7994 57.0126 16.286 56.5131 15.8143Z" fill="#1E3862"/>
<path d="M59.1214 19.6021C59.3989 18.7974 58.3444 17.8538 57.9004 17.3266C57.7616 17.1601 57.6229 16.9936 57.4702 16.8409C57.2066 17.0768 56.8459 17.2988 56.6794 17.4515L55.6526 18.3395C56.0133 18.7696 56.388 19.172 56.7904 19.5466C57.387 20.0739 58.7329 20.726 59.1214 19.6021Z" fill="white"/>
<path d="M58.3028 20.3237C57.7201 20.3237 57.0818 19.9213 56.7488 19.6161C56.3464 19.2276 55.9579 18.8252 55.5972 18.395C55.5555 18.3534 55.5694 18.284 55.611 18.2563L56.6378 17.3683C56.7072 17.2989 56.8182 17.2295 56.9431 17.1324C57.0957 17.0214 57.2761 16.8826 57.4287 16.7578C57.4564 16.7439 57.4703 16.73 57.4981 16.73C57.5258 16.73 57.5536 16.7439 57.5674 16.7578C57.7062 16.9243 57.8588 17.0908 57.9976 17.2573C58.067 17.3405 58.1502 17.4238 58.2473 17.5348C58.7746 18.1175 59.4961 18.9084 59.2325 19.6438C59.1492 19.963 58.8995 20.2127 58.5665 20.296C58.4832 20.3098 58.3861 20.3237 58.3028 20.3237ZM55.8192 18.3395C56.1522 18.7281 56.5129 19.1027 56.8876 19.4634C57.2206 19.7826 57.9698 20.2266 58.511 20.0878C58.7607 20.0185 58.955 19.8242 59.0243 19.5606C59.2463 18.9362 58.5387 18.173 58.0808 17.6597C57.9837 17.5625 57.9005 17.4654 57.8311 17.3822C57.7201 17.2434 57.5952 17.1046 57.4703 16.9659C57.3316 17.0769 57.1789 17.1879 57.0541 17.285C56.9292 17.3821 56.8321 17.4515 56.7627 17.507L55.8192 18.3395Z" fill="#1E3862"/>
<path d="M60.9532 44.203C61.1059 44.7025 61.2862 45.2436 61.6747 45.5905C62.2436 46.1039 63.09 46.1316 63.8532 46.09C66.0871 45.9651 68.2932 45.5211 70.4023 44.7718C70.8185 44.6192 71.2487 44.4527 71.5123 44.1058C71.8592 43.6479 71.8592 43.0236 71.8176 42.4408C71.4846 37.6399 70.3745 32.9362 69.2645 28.2602C69.1535 27.7746 69.0009 27.2473 68.5708 26.9837C68.2239 26.7756 67.8076 26.8172 67.4052 26.845C65.6431 27.0253 63.8948 27.2335 62.1465 27.4832C61.2724 27.6081 60.3982 27.7469 59.5241 27.8856C58.9552 27.9827 57.9145 27.9272 57.637 28.5516C57.3734 29.1205 57.748 30.1889 57.8452 30.7717C57.9839 31.6458 58.1366 32.52 58.2892 33.3802C58.6083 35.073 58.9691 36.7658 59.3714 38.4308C59.8432 40.3734 60.3705 42.2882 60.9532 44.203Z" fill="#1192E8"/>
<path d="M62.5629 31.0494C61.9662 31.2159 61.3418 31.424 60.9395 31.8957C60.4954 32.4369 60.4399 33.2 60.4399 33.9077C60.4399 35.9196 60.6342 37.9176 61.0088 39.9018C61.1892 40.8176 61.4945 41.8582 62.3686 42.219C62.8542 42.4271 63.3954 42.3577 63.9088 42.2745C65.4489 42.0386 66.9891 41.7056 68.4876 41.2616C69.112 41.0812 69.778 40.8453 70.111 40.3042C70.4995 39.6798 70.333 38.8612 70.1388 38.1396C69.5421 35.9057 69.0704 33.2555 67.9742 31.202C66.9752 29.3566 64.0891 30.6331 62.5629 31.0494Z" fill="white"/>
<path d="M63.1039 42.4547C62.8403 42.4547 62.5628 42.4131 62.313 42.316C61.3834 41.9274 61.0642 40.8313 60.8977 39.9294C60.5231 37.9452 60.3289 35.9333 60.3289 33.9214C60.3289 33.2138 60.3705 32.4229 60.8422 31.854C61.2585 31.3545 61.8968 31.1463 62.5211 30.966C62.7432 30.9105 62.9929 30.8272 63.2427 30.744C64.8938 30.2167 67.1555 29.5091 68.0435 31.1741C68.8899 32.7559 69.3478 34.6568 69.8057 36.5022C69.9444 37.0711 70.0832 37.6122 70.2219 38.1256C70.4162 38.861 70.5966 39.7074 70.1803 40.3734C69.8195 40.9562 69.1258 41.1921 68.5014 41.3724C66.989 41.8026 65.4627 42.1495 63.9087 42.3853C63.6589 42.427 63.3814 42.4547 63.1039 42.4547ZM62.5905 31.1602C62.0078 31.3267 61.3973 31.521 61.0226 31.9789C60.5925 32.5061 60.5509 33.2554 60.5509 33.9214C60.5509 35.9194 60.7451 37.9175 61.1059 39.8878C61.2724 40.748 61.5638 41.7748 62.3963 42.1217C62.8403 42.316 63.3537 42.2605 63.8809 42.1772C65.4211 41.9413 66.9335 41.6083 68.432 41.1782C69.0148 41.0117 69.6808 40.7758 69.9999 40.2624C70.3745 39.6658 70.208 38.8749 70.0138 38.1811C69.875 37.6539 69.7363 37.1127 69.5975 36.5438C69.1535 34.7123 68.6956 32.8253 67.8631 31.2712C67.0584 29.7588 64.8799 30.4387 63.2982 30.9521C63.0484 31.0076 62.7987 31.0908 62.5905 31.1602Z" fill="#1E3862"/>
<path d="M57.1377 24.9859C56.7215 25.1524 56.2913 25.3328 56.0138 25.6797C55.5559 26.2347 55.5976 27.0394 55.6669 27.761C55.7224 28.3298 55.7918 28.9404 56.1803 29.3427C56.6937 29.8839 57.5401 29.8839 58.2755 29.8284C61.7582 29.5925 65.2686 29.204 68.5571 28.0385C69.1121 27.8442 69.6671 27.6083 70.0556 27.1643C71.2211 25.7768 70.3331 22.8907 68.4599 22.8352C66.0318 22.752 63.4926 23.1544 61.1338 23.7232C59.774 24.0563 58.4281 24.4725 57.1377 24.9859Z" fill="white"/>
<path d="M57.7343 29.9531C57.096 29.9531 56.4994 29.8421 56.097 29.412C55.6946 28.9818 55.6114 28.3852 55.5559 27.7608C55.4865 26.9838 55.4449 26.179 55.9305 25.5963C56.2219 25.2355 56.652 25.0551 57.096 24.8747C58.4003 24.3614 59.7462 23.9312 61.106 23.5982C63.8949 22.9183 66.2953 22.6269 68.4599 22.6963C69.2646 22.7241 69.9862 23.2791 70.3885 24.181C70.8603 25.2494 70.7632 26.4704 70.1388 27.2058C69.7364 27.6776 69.1398 27.9273 68.5986 28.1216C65.2547 29.3148 61.661 29.6895 58.2893 29.9254C58.095 29.9531 57.9147 29.9531 57.7343 29.9531ZM57.1654 25.0829C56.7491 25.2494 56.3468 25.4298 56.0831 25.7489C55.653 26.2623 55.6946 27.0254 55.764 27.7608C55.8195 28.3574 55.9028 28.9125 56.2496 29.2871C56.7353 29.8005 57.54 29.7866 58.2615 29.7311C61.6332 29.5091 65.1992 29.1206 68.5154 27.9412C69.0288 27.7608 69.5976 27.5249 69.9584 27.0948C70.5273 26.4149 70.6244 25.2633 70.1804 24.2781C69.8197 23.4595 69.1675 22.9461 68.4321 22.9183C66.2953 22.8351 63.9088 23.1265 61.1337 23.8063C59.7878 24.1532 58.4558 24.5695 57.1654 25.0829Z" fill="#1E3862"/>
<path d="M59.76 26.4565C58.8443 26.4565 57.9285 26.401 57.0127 26.2761C56.9711 26.2761 56.9433 26.2345 56.9572 26.1928C56.9572 26.1512 56.9988 26.1235 57.0266 26.1373C61.2169 26.6785 65.4766 25.9708 69.2646 24.0838C69.2923 24.0699 69.334 24.0699 69.3617 24.1116C69.3756 24.1393 69.3756 24.1809 69.334 24.2087C69.334 24.2087 69.334 24.2087 69.3201 24.2087C66.3508 25.6795 63.0762 26.4565 59.76 26.4565Z" fill="#1E3862"/>
</svg>
