<svg width="52" height="52" viewBox="0 0 52 52" fill="none" xmlns="http://www.w3.org/2000/svg">
<rect width="52" height="52" rx="8" fill="#FFC100" fill-opacity="0.1"/>
<path d="M15.4963 32.2246C15.6016 33.0457 15.9805 33.8073 16.572 34.3866C17.1634 34.9659 17.9327 35.3289 18.7558 35.4172C21.0949 35.6636 23.5166 35.9206 26 35.9206C28.4816 35.9206 30.9051 35.6618 33.2442 35.4172C34.0675 35.3296 34.8372 34.9667 35.4287 34.3873C36.0202 33.8079 36.399 33.0459 36.5037 32.2246C36.7536 30.2111 37 28.1308 37 25.9994C37 23.8698 36.7536 21.7878 36.5037 19.7743C36.3988 18.9529 36.02 18.1908 35.4285 17.6112C34.8371 17.0316 34.0675 16.6682 33.2442 16.5799C30.9051 16.337 28.4816 16.0801 26 16.0801C23.5184 16.0801 21.0949 16.3388 18.7558 16.5834C17.9325 16.6711 17.1628 17.0339 16.5713 17.6133C15.9798 18.1927 15.601 18.9547 15.4963 19.7761C15.2464 21.7878 15 23.8698 15 25.9994C15 28.129 15.2464 30.2111 15.4963 32.2246Z" stroke="#F7B219" stroke-width="2" stroke-linecap="round" stroke-linejoin="round"/>
<path d="M15.5469 19.3184L23.8224 25.8444C24.4433 26.3338 25.2108 26.5999 26.0013 26.5999C26.7918 26.5999 27.5593 26.3338 28.1802 25.8444L36.4557 19.3184" stroke="#F7B219" stroke-width="2" stroke-linecap="round" stroke-linejoin="round"/>
</svg>
