<svg width="22" height="22" viewBox="0 0 22 22" fill="none" xmlns="http://www.w3.org/2000/svg">
<path d="M16.9992 8.96438V8.33806C16.9992 4.89913 14.3132 2.11133 11 2.11133C7.68672 2.11133 5.00077 4.89913 5.00077 8.33806V8.96438C5.00077 9.71606 4.78642 10.4508 4.38471 11.0763L3.40032 12.6088C2.50117 14.0087 3.1876 15.9114 4.75143 16.3541C8.84243 17.5122 13.1576 17.5122 17.2485 16.3541C18.8124 15.9114 19.4988 14.0087 18.5996 12.6088L17.6153 11.0763C17.2136 10.4508 16.9992 9.71606 16.9992 8.96438Z" stroke="#1E3862" stroke-width="1.3"/>
<path d="M6.99988 17.2227C7.58213 18.7763 9.15318 19.8894 10.9999 19.8894C12.8465 19.8894 14.4177 18.7763 14.9999 17.2227" stroke="#1E3862" stroke-width="1.3" stroke-linecap="round"/>
</svg>
