<svg width="41" height="48" viewBox="0 0 41 48" fill="none" xmlns="http://www.w3.org/2000/svg">
<path d="M15.6261 7.02075C15.6261 5.21766 17.093 3.75084 18.896 3.75084H23.6274V0.961781C23.6274 0.430594 23.1969 0 22.6657 0H3.49498C2.9638 0 2.5332 0.430594 2.5332 0.961781V29.5255H15.6261V7.02075Z" fill="#0ED2B3"/>
<path d="M22.6645 0H18.707C19.2382 0 19.6688 0.430594 19.6688 0.961688V3.75075H23.6263V0.961688C23.6262 0.430594 23.1957 0 22.6645 0Z" fill="#0AB69F"/>
<path d="M15.6261 22.2202H9.9707C9.58239 22.2202 9.26758 22.5349 9.26758 22.9233C9.26758 23.3117 9.58239 23.6265 9.9707 23.6265H15.6261V22.2202Z" fill="white"/>
<path d="M15.6255 7.02075C15.6255 6.50316 15.7469 6.01359 15.9619 5.57812H6.44373C6.17814 5.57812 5.96289 5.79337 5.96289 6.05897V19.3311C5.96289 19.5967 6.17814 19.8119 6.44373 19.8119H15.6255V7.02075Z" fill="white"/>
<path d="M7.66202 23.6265H5.96289C5.57458 23.6265 5.25977 23.3117 5.25977 22.9233C5.25977 22.5349 5.57458 22.2202 5.96289 22.2202H7.66202C8.05033 22.2202 8.36514 22.5349 8.36514 22.9233C8.36514 23.3117 8.05033 23.6265 7.66202 23.6265Z" fill="white"/>
<path d="M10.4746 10.4651H7.94336C7.73627 10.4651 7.56836 10.2972 7.56836 10.0901V7.55884C7.56836 7.35174 7.73627 7.18384 7.94336 7.18384H10.4746C10.6817 7.18384 10.8496 7.35174 10.8496 7.55884V10.0901C10.8496 10.2972 10.6818 10.4651 10.4746 10.4651Z" fill="#766E6E"/>
<path d="M10.4746 18.2063H7.94336C7.73627 18.2063 7.56836 18.0384 7.56836 17.8313V15.3C7.56836 15.093 7.73627 14.925 7.94336 14.925H10.4746C10.6817 14.925 10.8496 15.093 10.8496 15.3V17.8313C10.8496 18.0384 10.6818 18.2063 10.4746 18.2063Z" fill="#766E6E"/>
<path d="M13.0799 13.3982H10.4082C10.0199 13.3982 9.70508 13.0835 9.70508 12.6951C9.70508 12.3067 10.0199 11.992 10.4082 11.992H12.3768V7.45117C12.3768 7.06277 12.6916 6.74805 13.0799 6.74805C13.4682 6.74805 13.783 7.06277 13.783 7.45117V12.6952C13.783 13.0835 13.4682 13.3982 13.0799 13.3982Z" fill="#766E6E"/>
<path d="M8.52266 13.3982H7.83594C7.44762 13.3982 7.13281 13.0835 7.13281 12.6951C7.13281 12.3067 7.44762 11.9919 7.83594 11.9919H8.52266C8.91097 11.9919 9.22578 12.3067 9.22578 12.6951C9.22578 13.0835 8.91097 13.3982 8.52266 13.3982Z" fill="#766E6E"/>
<path d="M15.6259 14.4963C15.5944 14.492 15.5624 14.489 15.5297 14.489H13.0801C12.6918 14.489 12.377 14.8037 12.377 15.1921V17.939C12.377 18.3274 12.6918 18.6421 13.0801 18.6421C13.4684 18.6421 13.7832 18.3274 13.7832 17.939V15.8953H15.5297C15.5624 15.8953 15.5944 15.8923 15.6259 15.888V14.4963Z" fill="#766E6E"/>
<path d="M15.6256 24.9338H5.96289C5.57458 24.9338 5.25977 25.2486 5.25977 25.637C5.25977 26.0254 5.57458 26.3401 5.96289 26.3401H15.6256V24.9338Z" fill="white"/>
<path d="M15.6255 29.4294H1.44263C0.645844 29.4294 0 30.0753 0 30.8721V32.8917C0 33.1573 0.21525 33.3726 0.480844 33.3726H15.6255V29.4294Z" fill="#FFD15B"/>
<path d="M39.7841 41.8467V7.02063C39.7841 5.16157 38.2771 3.65454 36.418 3.65454H18.8954C17.0363 3.65454 15.5293 5.16157 15.5293 7.02063V41.8467H39.7841Z" fill="#DFF6FD"/>
<path d="M36.4185 3.65454H32.502C34.361 3.65454 35.868 5.16157 35.868 7.02063V41.8467H39.7846V7.02063C39.7846 5.16157 38.2776 3.65454 36.4185 3.65454Z" fill="#C8EFFE"/>
<path d="M15.5293 43.9306C15.5293 45.7897 17.0363 47.2967 18.8954 47.2967H36.418C38.2771 47.2967 39.7841 45.7897 39.7841 43.9306V41.7505H15.5293V43.9306Z" fill="#8379C1"/>
<path d="M35.868 41.7505V43.9306C35.868 45.7897 34.361 47.2967 32.502 47.2967H36.4185C38.2776 47.2967 39.7846 45.7897 39.7846 43.9306V41.7505H35.868Z" fill="#6E61B6"/>
<path d="M33.4105 37.6061H21.9016C21.1048 37.6061 20.459 36.9603 20.459 36.1635V33.7634C20.459 32.9666 21.1048 32.3208 21.9016 32.3208H33.4105C34.2072 32.3208 34.8531 32.9666 34.8531 33.7634V36.1635C34.8531 36.9603 34.2072 37.6061 33.4105 37.6061Z" fill="#0ED2B3"/>
<path d="M33.4115 32.3208H29.418C30.2147 32.3208 30.8606 32.9666 30.8606 33.7634V36.1635C30.8606 36.9603 30.2147 37.6061 29.418 37.6061H33.4115C34.2083 37.6061 34.8542 36.9603 34.8542 36.1635V33.7634C34.8542 32.9666 34.2083 32.3208 33.4115 32.3208Z" fill="#0AB69F"/>
<path d="M31.7925 35.6665H23.5215C23.1332 35.6665 22.8184 35.3518 22.8184 34.9634C22.8184 34.575 23.1332 34.2603 23.5215 34.2603H31.7925C32.1808 34.2603 32.4956 34.575 32.4956 34.9634C32.4956 35.3518 32.1808 35.6665 31.7925 35.6665Z" fill="white"/>
<path d="M20.8385 7.07764H18.8535C18.4652 7.07764 18.1504 6.76292 18.1504 6.37451C18.1504 5.98611 18.4652 5.67139 18.8535 5.67139H20.8385C21.2268 5.67139 21.5416 5.98611 21.5416 6.37451C21.5416 6.76292 21.2268 7.07764 20.8385 7.07764Z" fill="#8379C1"/>
<path d="M30.2539 45.0667H25.0605C24.6722 45.0667 24.3574 44.7519 24.3574 44.3635C24.3574 43.9751 24.6722 43.6604 25.0605 43.6604H30.2539C30.6422 43.6604 30.957 43.9751 30.957 44.3635C30.957 44.7519 30.6422 45.0667 30.2539 45.0667Z" fill="#54469C"/>
<path d="M35.031 28.4546H20.2805C20.0177 28.4546 19.8047 28.2416 19.8047 27.9788V13.2282C19.8047 12.9654 20.0177 12.7524 20.2805 12.7524H35.031C35.2938 12.7524 35.5068 12.9654 35.5068 13.2282V27.9788C35.5069 28.2415 35.2939 28.4546 35.031 28.4546Z" fill="white"/>
<path d="M35.0317 12.7524H32.168C32.4308 12.7524 32.6437 12.9654 32.6437 13.2282V27.9788C32.6437 28.2415 32.4308 28.4545 32.168 28.4545H35.0317C35.2944 28.4545 35.5074 28.2415 35.5074 27.9788V13.2282C35.5075 12.9654 35.2945 12.7524 35.0317 12.7524Z" fill="#F9F3F1"/>
<path d="M35.0311 29.1577H20.2805C19.6304 29.1577 19.1016 28.6287 19.1016 27.9788V13.2282C19.1016 12.5782 19.6304 12.0493 20.2805 12.0493H35.031C35.6811 12.0493 36.2099 12.5783 36.2099 13.2282V27.9788C36.21 28.6287 35.6812 29.1577 35.0311 29.1577ZM20.5078 27.7514H34.8037V13.4555H20.5078V27.7514Z" fill="#99E6FC"/>
<path d="M24.9902 18.3123H21.9902C21.7831 18.3123 21.6152 18.1443 21.6152 17.9373V14.9373C21.6152 14.7302 21.7831 14.5623 21.9902 14.5623H24.9902C25.1973 14.5623 25.3652 14.7302 25.3652 14.9373V17.9373C25.3652 18.1443 25.1973 18.3123 24.9902 18.3123Z" fill="#766E6E"/>
<path d="M33.3223 18.3123H30.3223C30.1152 18.3123 29.9473 18.1443 29.9473 17.9373V14.9373C29.9473 14.7302 30.1152 14.5623 30.3223 14.5623H33.3223C33.5294 14.5623 33.6973 14.7302 33.6973 14.9373V17.9373C33.6973 18.1443 33.5294 18.3123 33.3223 18.3123Z" fill="#766E6E"/>
<path d="M24.9902 26.6448H21.9902C21.7831 26.6448 21.6152 26.4769 21.6152 26.2698V23.2698C21.6152 23.0627 21.7831 22.8948 21.9902 22.8948H24.9902C25.1973 22.8948 25.3652 23.0627 25.3652 23.2698V26.2698C25.3652 26.4769 25.1973 26.6448 24.9902 26.6448Z" fill="#766E6E"/>
<path d="M33.3004 26.9511H30.3438C29.9554 26.9511 29.6406 26.6364 29.6406 26.2479C29.6406 25.8595 29.9554 25.5448 30.3438 25.5448H32.5973V23.2913C32.5973 22.9029 32.9121 22.5881 33.3004 22.5881C33.6888 22.5881 34.0036 22.9029 34.0036 23.2913V26.2479C34.0036 26.6364 33.6888 26.9511 33.3004 26.9511Z" fill="#766E6E"/>
<path d="M27.6551 21.3065H24.7793C24.391 21.3065 24.0762 20.9917 24.0762 20.6033C24.0762 20.2149 24.391 19.9002 24.7793 19.9002H26.952V14.9587C26.952 14.5703 27.2668 14.2556 27.6551 14.2556C28.0434 14.2556 28.3582 14.5703 28.3582 14.9587V20.6033C28.3582 20.9917 28.0434 21.3065 27.6551 21.3065Z" fill="#766E6E"/>
<path d="M22.7509 21.3064H22.0117C21.6234 21.3064 21.3086 20.9917 21.3086 20.6033C21.3086 20.2149 21.6234 19.9001 22.0117 19.9001H22.7509C23.1392 19.9001 23.4541 20.2149 23.4541 20.6033C23.4541 20.9917 23.1393 21.3064 22.7509 21.3064Z" fill="#766E6E"/>
<path d="M31.2355 21.3064H30.3438C29.9554 21.3064 29.6406 20.9917 29.6406 20.6033C29.6406 20.2149 29.9554 19.9001 30.3438 19.9001H31.2355C31.6238 19.9001 31.9386 20.2149 31.9386 20.6033C31.9386 20.9917 31.6238 21.3064 31.2355 21.3064Z" fill="#766E6E"/>
<path d="M33.2999 21.3064H33.1152C32.7269 21.3064 32.4121 20.9917 32.4121 20.6033C32.4121 20.2149 32.7269 19.9001 33.1152 19.9001H33.2999C33.6882 19.9001 34.003 20.2149 34.003 20.6033C34.003 20.9917 33.6882 21.3064 33.2999 21.3064Z" fill="#766E6E"/>
<path d="M27.6562 26.9511C27.2679 26.9511 26.9531 26.6364 26.9531 26.2479V23.2913C26.9531 22.9029 27.2679 22.5881 27.6562 22.5881H31.236C31.6243 22.5881 31.9391 22.9029 31.9391 23.2913C31.9391 23.6797 31.6243 23.9944 31.236 23.9944H28.3594V26.2479C28.3594 26.6364 28.0446 26.9511 27.6562 26.9511Z" fill="#766E6E"/>
<path d="M36.418 47.9999H18.8954C16.6516 47.9999 14.8262 46.1744 14.8262 43.9307V7.02063C14.8262 4.77682 16.6517 2.95142 18.8954 2.95142H36.418C38.6618 2.95142 40.4872 4.77692 40.4872 7.02063V43.9307C40.4872 46.1744 38.6617 47.9999 36.418 47.9999ZM18.8954 4.35757C17.427 4.35757 16.2324 5.55213 16.2324 7.02054V43.9306C16.2324 45.399 17.4271 46.5935 18.8954 46.5935H36.418C37.8864 46.5935 39.081 45.399 39.081 43.9306V7.02063C39.081 5.55223 37.8863 4.35767 36.418 4.35767H18.8954V4.35757Z" fill="#54469C"/>
<path d="M34.0488 7.07788C34.4372 7.07788 34.752 6.76308 34.752 6.37476C34.752 5.98643 34.4372 5.67163 34.0488 5.67163C33.6605 5.67163 33.3457 5.98643 33.3457 6.37476C33.3457 6.76308 33.6605 7.07788 34.0488 7.07788Z" fill="#8379C1"/>
<path d="M36.4609 7.07788C36.8493 7.07788 37.1641 6.76308 37.1641 6.37476C37.1641 5.98643 36.8493 5.67163 36.4609 5.67163C36.0726 5.67163 35.7578 5.98643 35.7578 6.37476C35.7578 6.76308 36.0726 7.07788 36.4609 7.07788Z" fill="#8379C1"/>
</svg>
