<svg width="22" height="22" viewBox="0 0 22 22" fill="none" xmlns="http://www.w3.org/2000/svg">
<path d="M3 11C3 7.22876 3 5.34314 4.17158 4.17158C5.34314 3 7.22876 3 11 3C14.7712 3 16.6569 3 17.8284 4.17158C19 5.34314 19 7.22876 19 11C19 14.7712 19 16.6569 17.8284 17.8284C16.6569 19 14.7712 19 11 19C7.22876 19 5.34314 19 4.17158 17.8284C3 16.6569 3 14.7712 3 11Z" stroke="#1E3862" stroke-width="1.5"/>
<path d="M15 3V8.44608C15 9.22602 15 9.616 14.8967 9.84856C14.6613 10.3786 14.0805 10.6644 13.5169 10.5276C13.2695 10.4675 12.9606 10.2296 12.3426 9.75376C11.9937 9.48512 11.8192 9.3508 11.6376 9.27188C11.2309 9.09519 10.7691 9.09519 10.3624 9.27188C10.1808 9.3508 10.0063 9.48512 9.65744 9.75376C9.03944 10.2296 8.73046 10.4675 8.48313 10.5276C7.91954 10.6644 7.33874 10.3786 7.10331 9.84856C7 9.616 7 9.22602 7 8.44608V3" stroke="#1E3862" stroke-width="1.5"/>
</svg>
