<svg width="20" height="16" viewBox="0 0 20 16" fill="none" xmlns="http://www.w3.org/2000/svg">
<path d="M0.649902 7.85039C0.649902 4.45627 0.649902 2.75923 1.70432 1.7048C2.75874 0.650391 4.45579 0.650391 7.8499 0.650391H11.4499C14.844 0.650391 16.5411 0.650391 17.5955 1.7048C18.6499 2.75923 18.6499 4.45627 18.6499 7.85039C18.6499 11.2445 18.6499 12.9416 17.5955 13.9959C16.5411 15.0504 14.844 15.0504 11.4499 15.0504H7.8499C4.45579 15.0504 2.75874 15.0504 1.70432 13.9959C0.649902 12.9416 0.649902 11.2445 0.649902 7.85039Z" stroke="black" stroke-width="1.3"/>
<path d="M9.65001 6.05078V9.65078M8.09085 6.95078L11.2085 8.75078M11.2083 6.95078L8.09058 8.75078" stroke="black" stroke-width="1.3" stroke-linecap="round"/>
<path d="M4.90899 6.05078V9.65078M3.34982 6.95078L6.46751 8.75078M6.4673 6.95078L3.34961 8.75078" stroke="black" stroke-width="1.3" stroke-linecap="round"/>
<path d="M14.3911 6.05078V9.65078M12.832 6.95078L15.9497 8.75078M15.9495 6.95078L12.8318 8.75078" stroke="black" stroke-width="1.3" stroke-linecap="round"/>
</svg>
