<svg width="48" height="48" viewBox="0 0 48 48" fill="none" xmlns="http://www.w3.org/2000/svg">
<path d="M45.0006 19.7969H36.6003" stroke="#1E3862" stroke-width="2.5" stroke-linecap="round"/>
<path d="M44.9999 26.0957H38.6997" stroke="#1E3862" stroke-width="2.5" stroke-linecap="round"/>
<path d="M32.3994 42.9004V45.0004" stroke="#1E3862" stroke-width="2.5" stroke-linecap="round"/>
<path d="M2.99902 44.9981V15.5981C2.99902 9.65835 2.99902 6.68851 4.8443 4.84328C6.68958 2.99805 9.6595 2.99805 15.5994 2.99805H23.7713L23.8642 2.99822C25.3067 3.00861 26.7022 3.51379 27.8171 4.42932L27.8883 4.48852C27.9742 4.56007 28.017 4.59586 28.0546 4.62622C29.3214 5.64928 30.8767 6.10679 32.3998 6.01325M32.3998 6.01325C33.8556 5.92385 35.282 5.33111 36.3992 4.24772C36.4338 4.21407 36.4735 4.17455 36.5525 4.09553L37.65 2.99805M32.3998 6.01325V2.99805M32.3998 6.01325V11.3981" stroke="#1E3862" stroke-width="2.5" stroke-linecap="round"/>
<path d="M45.0003 33.4649V19.8004C45.0003 15.8406 45.0003 13.8607 43.77 12.6306C42.5398 11.4004 40.5599 11.4004 36.6 11.4004H28.1998C24.2399 11.4004 22.26 11.4004 21.0298 12.6306C19.7996 13.8607 19.7996 15.8406 19.7996 19.8004V33.4649C19.7996 34.8446 20.3813 36.1607 21.4017 37.0895C27.6359 42.7639 37.1639 42.7639 43.3981 37.0895C44.4185 36.1607 45.0003 34.8446 45.0003 33.4649Z" stroke="#1E3862" stroke-width="2.5" stroke-linecap="round"/>
</svg>
