<svg width="120" height="120" viewBox="0 0 120 120" fill="none" xmlns="http://www.w3.org/2000/svg">
<path d="M60 0C26.8594 0 0 26.8594 0 60C0 93.1406 26.8594 120 60 120C93.1406 120 120 93.1406 120 60C120 26.8594 93.1406 0 60 0ZM82.3828 71.2734C85.4531 74.3438 85.4531 79.3125 82.3828 82.3828C79.3125 85.4531 74.3438 85.4531 71.2734 82.3828L60 71.1094L48.7266 82.3828C45.6562 85.4531 40.6875 85.4531 37.6172 82.3828C34.5469 79.3125 34.5469 74.3438 37.6172 71.2734L48.8906 60L37.6172 48.7266C34.5469 45.6562 34.5469 40.6875 37.6172 37.6172C40.6875 34.5469 45.6562 34.5469 48.7266 37.6172L60 48.8906L71.2734 37.6172C74.3438 34.5469 79.3125 34.5469 82.3828 37.6172C85.4531 40.6875 85.4531 45.6562 82.3828 48.7266L71.1094 60L82.3828 71.2734Z" fill="url(#paint0_linear_1749_56277)"/>
<defs>
<linearGradient id="paint0_linear_1749_56277" x1="-0.478361" y1="-0.477889" x2="115.875" y2="115.875" gradientUnits="userSpaceOnUse">
<stop stop-color="#FF4144"/>
<stop offset="1" stop-color="#D62828"/>
</linearGradient>
</defs>
</svg>
