<svg width="118" height="113" viewBox="0 0 118 113" fill="none" xmlns="http://www.w3.org/2000/svg">
<path d="M112.14 66.2105L112.105 66.2279C107.991 69.3823 106.249 74.7502 107.713 79.7176L107.73 79.7525C110.065 87.6476 104.279 95.6122 96.0528 95.8215H96.0182C90.8244 95.9609 86.2581 99.2722 84.5326 104.17V104.187C81.7787 111.96 72.4025 115.01 65.6228 110.322C61.4129 107.447 55.8477 107.297 51.4185 110.322H51.4011C44.6216 114.992 35.245 111.96 32.5086 104.169C30.7677 99.2597 26.2082 95.9604 21.0233 95.8212H20.9884C12.7623 95.6119 6.97582 87.6474 9.31137 79.7522L9.32871 79.7173C10.7924 74.75 9.04957 69.3821 4.93676 66.2276L4.90184 66.2103C-1.63395 61.1907 -1.63395 51.3612 4.90184 46.3419L4.93676 46.3245C9.04957 43.1701 10.7924 37.8019 9.31137 32.8348V32.7999C6.95824 24.905 12.7621 16.94 20.9884 16.7309H21.0233C26.1995 16.5915 30.7832 13.28 32.5086 8.38271V8.36537C35.2447 0.592319 44.6216 -2.4576 51.4011 2.23084H51.4185C55.6883 5.17623 61.3351 5.17623 65.6228 2.23084C72.4707 -2.49815 81.7949 0.63896 84.5326 8.36537V8.38271C86.2581 13.2626 90.8242 16.5917 96.0182 16.7309H96.0528C104.279 16.94 110.065 24.905 107.73 32.7999L107.713 32.8348C106.249 37.8019 107.991 43.1701 112.105 46.3245L112.14 46.3419C118.675 51.3612 118.675 61.1909 112.14 66.2105Z" fill="url(#paint0_linear_1749_56223)"/>
<path d="M58.5216 88.737C76.4514 88.737 90.9865 74.202 90.9865 56.2721C90.9865 38.3422 76.4514 23.8072 58.5216 23.8072C40.5917 23.8072 26.0566 38.3422 26.0566 56.2721C26.0566 74.202 40.5917 88.737 58.5216 88.737Z" fill="url(#paint1_linear_1749_56223)"/>
<path d="M50.7977 68.9813L43.6185 61.3435C41.7384 59.3429 41.8354 56.1973 43.8353 54.3172C45.8353 52.4347 48.9822 52.5357 50.8607 54.5349L54.2878 58.1794L68.8549 41.5299C70.6605 39.4636 73.8011 39.2541 75.869 41.0623C77.9353 42.8705 78.1438 46.0102 76.3366 48.0765L58.1596 68.8503C56.2232 71.0611 52.8058 71.119 50.7977 68.9813Z" fill="#008B44"/>
<defs>
<linearGradient id="paint0_linear_1749_56223" x1="58.521" y1="112.544" x2="58.521" y2="-0.000181121" gradientUnits="userSpaceOnUse">
<stop stop-color="#008B44"/>
<stop offset="0.3103" stop-color="#008B44"/>
<stop offset="0.9631" stop-color="#75E461"/>
<stop offset="1" stop-color="#79E55E"/>
</linearGradient>
<linearGradient id="paint1_linear_1749_56223" x1="58.5216" y1="88.7368" x2="58.5216" y2="23.8072" gradientUnits="userSpaceOnUse">
<stop offset="0.0168" stop-color="#E5E5E5"/>
<stop offset="1" stop-color="white"/>
</linearGradient>
</defs>
</svg>
