<svg width="71" height="18" viewBox="0 0 71 18" fill="none" xmlns="http://www.w3.org/2000/svg">
<path d="M54.4469 4.69531H50.6457C50.4221 4.69531 50.1985 4.91891 50.0867 5.14251L48.5215 14.9808C48.5215 15.2044 48.6333 15.3162 48.8569 15.3162H50.8693C51.0929 15.3162 51.2047 15.2044 51.2047 14.9808L51.6519 12.1858C51.6519 11.9622 51.8755 11.7386 52.2109 11.7386H53.4407C56.0121 11.7386 57.4655 10.5088 57.8009 8.04927C58.0245 7.04309 57.8009 6.1487 57.3537 5.5897C56.6829 5.03071 55.6767 4.69531 54.4469 4.69531ZM54.8941 8.38467C54.6705 9.72626 53.6643 9.72626 52.6581 9.72626H51.9873L52.4345 7.15489C52.4345 7.04309 52.5463 6.93129 52.7699 6.93129H52.9935C53.6643 6.93129 54.3351 6.93129 54.6705 7.37848C54.8941 7.49028 54.8941 7.82568 54.8941 8.38467Z" fill="#139AD6"/>
<path d="M27.0558 4.69531H23.2546C23.031 4.69531 22.8074 4.91891 22.6956 5.14251L21.1304 14.9808C21.1304 15.2044 21.2422 15.3162 21.4658 15.3162H23.2546C23.4782 15.3162 23.7018 15.0926 23.8136 14.869L24.2608 12.1858C24.2608 11.9622 24.4844 11.7386 24.8198 11.7386H26.0496C28.621 11.7386 30.0744 10.5088 30.4098 8.04927C30.6334 7.04309 30.4098 6.1487 29.9626 5.5897C29.2918 5.03071 28.3974 4.69531 27.0558 4.69531ZM27.503 8.38467C27.2794 9.72626 26.2732 9.72626 25.267 9.72626H24.708L25.1552 7.15489C25.1552 7.04309 25.267 6.93129 25.4906 6.93129H25.7142C26.385 6.93129 27.0558 6.93129 27.3912 7.37848C27.503 7.49028 27.6148 7.82568 27.503 8.38467Z" fill="#263B80"/>
<path d="M38.5713 8.2734H36.7824C36.6706 8.2734 36.447 8.3852 36.447 8.497L36.3352 9.05599L36.2234 8.8324C35.7762 8.2734 34.9936 8.0498 34.0992 8.0498C32.0868 8.0498 30.298 9.61499 29.9626 11.7392C29.739 12.8572 30.0744 13.8633 30.6334 14.5341C31.1924 15.2049 31.975 15.4285 32.9812 15.4285C34.6582 15.4285 35.5526 14.4223 35.5526 14.4223L35.4408 14.9813C35.4408 15.2049 35.5526 15.3167 35.7762 15.3167H37.4532C37.6769 15.3167 37.9005 15.0931 38.0123 14.8695L39.0185 8.6088C38.9067 8.497 38.6831 8.2734 38.5713 8.2734ZM35.9998 11.851C35.7762 12.8572 34.9936 13.6397 33.8756 13.6397C33.3166 13.6397 32.8694 13.4161 32.6458 13.1925C32.4222 12.8572 32.3104 12.41 32.3104 11.851C32.4222 10.8448 33.3166 10.0622 34.3228 10.0622C34.8818 10.0622 35.2172 10.2858 35.5526 10.5094C35.888 10.8448 35.9998 11.4038 35.9998 11.851Z" fill="#263B80"/>
<path d="M65.8506 8.2734H64.0617C63.9499 8.2734 63.7263 8.3852 63.7263 8.497L63.6145 9.05599L63.5027 8.8324C63.0555 8.2734 62.2729 8.0498 61.3785 8.0498C59.3661 8.0498 57.5773 9.61499 57.2419 11.7392C57.0183 12.8572 57.3537 13.8633 57.9127 14.5341C58.4717 15.2049 59.2543 15.4285 60.2605 15.4285C61.9375 15.4285 62.8319 14.4223 62.8319 14.4223L62.7201 14.9813C62.7201 15.2049 62.8319 15.3167 63.0555 15.3167H64.7325C64.9561 15.3167 65.1797 15.0931 65.2915 14.8695L66.2978 8.6088C66.186 8.497 66.0742 8.2734 65.8506 8.2734ZM63.2791 11.851C63.0555 12.8572 62.2729 13.6397 61.1549 13.6397C60.5959 13.6397 60.1487 13.4161 59.9251 13.1925C59.7015 12.8572 59.5897 12.41 59.5897 11.851C59.7015 10.8448 60.5959 10.0622 61.6021 10.0622C62.1611 10.0622 62.4965 10.2858 62.8319 10.5094C63.2791 10.8448 63.3909 11.4038 63.2791 11.851Z" fill="#139AD6"/>
<path d="M48.2978 8.27344H46.3972C46.1736 8.27344 46.0618 8.38523 45.95 8.49703L43.4904 12.2982L42.3724 8.72063C42.2606 8.49703 42.1488 8.38524 41.8134 8.38524H40.0246C39.801 8.38524 39.6892 8.60883 39.6892 8.83243L41.7016 14.7578L39.801 17.4409C39.6892 17.6645 39.801 17.9999 40.0246 17.9999H41.8134C42.037 17.9999 42.1488 17.8881 42.2606 17.7763L48.4096 8.94423C48.745 8.60883 48.5214 8.27344 48.2978 8.27344Z" fill="#263B80"/>
<path d="M67.9746 5.03064L66.4094 15.0925C66.4094 15.3161 66.5212 15.4279 66.7448 15.4279H68.31C68.5336 15.4279 68.7572 15.2043 68.869 14.9807L70.4342 5.14244C70.4342 4.91884 70.3224 4.80704 70.0988 4.80704H68.31C68.1982 4.69524 68.0864 4.80704 67.9746 5.03064Z" fill="#139AD6"/>
<path d="M12.8571 1.34158C12.0745 0.447194 10.621 0 8.60864 0H3.01861C2.68321 0 2.34781 0.335395 2.23601 0.670791L0 15.3164C0 15.6518 0.223601 15.8754 0.447202 15.8754H3.91302L4.80742 10.3973V10.6209C4.91922 10.2855 5.25462 9.95009 5.59002 9.95009H7.26703C10.5092 9.95009 12.9689 8.6085 13.7515 4.91914C13.7515 4.80735 13.7515 4.69555 13.7515 4.58375C13.6397 4.58375 13.6397 4.58375 13.7515 4.58375C13.8633 3.13036 13.6397 2.23597 12.8571 1.34158Z" fill="#263B80"/>
<path d="M13.6397 4.58398C13.6397 4.69578 13.6397 4.80758 13.6397 4.91938C12.8571 8.72054 10.3975 9.95032 7.15525 9.95032H5.47824C5.14284 9.95032 4.80744 10.2857 4.69564 10.6211L3.57764 17.4408C3.57764 17.6644 3.68944 17.888 4.02484 17.888H6.93165C7.26705 17.888 7.60245 17.6644 7.60245 17.329V17.2172L8.16146 13.7515V13.5279C8.16146 13.1925 8.49686 12.9689 8.83226 12.9689H9.27946C12.0745 12.9689 14.3105 11.8509 14.8695 8.49694C15.0931 7.15536 14.9813 5.92557 14.3105 5.14298C14.1987 4.91938 13.9751 4.69578 13.6397 4.58398Z" fill="#139AD6"/>
<path d="M12.857 4.24848C12.7452 4.24848 12.6334 4.13668 12.5216 4.13668C12.4098 4.13668 12.298 4.13668 12.1862 4.02488C11.739 3.91308 11.2918 3.91309 10.7328 3.91309H6.37258C6.26078 3.91309 6.14898 3.91308 6.03718 4.02488C5.81358 4.13668 5.70178 4.36028 5.70178 4.58388L4.80737 10.3974V10.621C4.91917 10.2856 5.25457 9.95022 5.58998 9.95022H7.26698C10.5092 9.95022 12.9688 8.60863 13.7514 4.91927C13.7514 4.80748 13.7514 4.69568 13.8632 4.58388C13.6396 4.47208 13.5278 4.36028 13.3042 4.36028C12.9688 4.24848 12.9688 4.24848 12.857 4.24848Z" fill="#232C65"/>
</svg>
