<svg width="48" height="48" viewBox="0 0 48 48" fill="none" xmlns="http://www.w3.org/2000/svg">
<path d="M45 14.6667V33.3333C45 39.7766 39.7766 45 33.3333 45H14.6667C8.2234 45 3 39.7766 3 33.3333V14.6667C3 8.2234 8.2234 3 14.6667 3H33.3333C39.7766 3 45 8.2234 45 14.6667Z" stroke="#1E3862" stroke-width="2.5" stroke-linecap="round" stroke-linejoin="round"/>
<path d="M28.4338 37.9999H19.5671C18.7939 37.9999 18.1671 37.3733 18.1671 36.5999V31.2333C18.1671 30.4601 17.5403 29.8333 16.7671 29.8333H11.4005C10.6273 29.8333 10.0005 29.2065 10.0005 28.4333V19.5666C10.0005 18.7934 10.6273 18.1666 11.4005 18.1666H16.7671C17.5403 18.1666 18.1671 17.5398 18.1671 16.7666V11.4C18.1671 10.6268 18.7939 10 19.5671 10H28.4338C29.207 10 29.8338 10.6268 29.8338 11.4V16.7666C29.8338 17.5398 30.4604 18.1666 31.2338 18.1666H36.6003C37.3736 18.1666 38.0004 18.7934 38.0004 19.5666V28.4333C38.0004 29.2065 37.3736 29.8333 36.6003 29.8333H31.2338C30.4604 29.8333 29.8338 30.4599 29.8338 31.2333V36.5999C29.8338 37.3731 29.207 37.9999 28.4338 37.9999Z" stroke="#1E3862" stroke-width="2.5"/>
</svg>
