<svg width="24" height="24" viewBox="0 0 24 24" fill="none" xmlns="http://www.w3.org/2000/svg">
<path d="M17.8441 6.15546C17.8441 6.15546 17.4115 8.39998 14.9055 10.9061C12.3996 13.4123 10.1557 13.8445 10.1557 13.8445M20.4069 16.4075C18.2838 18.5308 14.8416 18.5308 12.7185 16.4075L7.59283 11.2815C5.46971 9.15823 5.46971 5.71572 7.59283 3.59246C9.71593 1.46918 13.1581 1.46918 15.2813 3.59246L20.4069 8.71848C22.53 10.8418 22.53 14.2843 20.4069 16.4075Z" stroke="#FFCC4C" stroke-width="1.5"/>
<path d="M14.4996 6.5L12.9998 5" stroke="#FFCC4C" stroke-width="1.5" stroke-linecap="round"/>
<path d="M6.73059 10.1328C4.02695 10.7154 2.00073 13.1202 2.00073 15.9982C2.00073 19.3119 4.68682 21.9982 8.00027 21.9982C10.8912 21.9982 13.3045 19.9534 13.873 17.2312" stroke="#FFCC4C" stroke-width="1.5"/>
</svg>
