<svg width="24" height="24" viewBox="0 0 24 24" fill="none" xmlns="http://www.w3.org/2000/svg">
<path d="M15.6124 2.39334L12.6638 7.69724H15.9983L7.99544 15.8168L9.99615 9.0505H7.32854L9.61913 2C7.29892 2.57706 5.25897 3.9778 3.8685 5.94869C2.47803 7.91957 1.82891 10.3304 2.03862 12.7448C2.24834 15.1592 3.30302 17.4176 5.01181 19.1114C6.72058 20.8052 8.97054 21.8224 11.3545 21.9788C13.7384 22.1353 16.0988 21.4207 18.0084 19.9645C19.918 18.5082 21.2507 16.4064 21.7653 14.0395C22.2798 11.6726 21.9422 9.19705 20.8136 7.06083C19.685 4.92462 17.8399 3.2689 15.6124 2.39334Z" stroke="#FFCC4C" stroke-width="1.5" stroke-linecap="round" stroke-linejoin="round"/>
</svg>
