<svg width="32" height="32" viewBox="0 0 32 32" fill="none" xmlns="http://www.w3.org/2000/svg">
<path d="M23.0133 8.98652C23.0133 8.98652 22.4942 11.6799 19.4868 14.6872C16.4795 17.6946 13.7866 18.2133 13.7866 18.2133M26.0889 21.2889C23.5411 23.8368 19.4101 23.8368 16.8622 21.2889L10.711 15.1377C8.16307 12.5898 8.16307 8.45884 10.711 5.91094C13.2589 3.36302 17.3898 3.36302 19.9378 5.91094L26.0889 12.0621C28.6368 14.6101 28.6368 18.741 26.0889 21.2889Z" stroke="#1E3862" stroke-width="2.1"/>
<path d="M18.9999 9.39959L17.2 7.59961" stroke="#1E3862" stroke-width="2.1" stroke-linecap="round"/>
<path d="M9.67622 13.7617C6.43162 14.4608 4 17.3466 4 20.8001C4 24.7765 7.22352 28.0001 11.1999 28.0001C14.6692 28.0001 17.5654 25.5463 18.2477 22.2797" stroke="#1E3862" stroke-width="2.1"/>
</svg>
