<svg width="23" height="23" viewBox="0 0 23 23" fill="none" xmlns="http://www.w3.org/2000/svg">
<path fill-rule="evenodd" clip-rule="evenodd" d="M14.7241 18.6775C13.7041 18.64 10.8134 18.2405 7.78601 15.2138C4.7593 12.1864 4.3605 9.29638 4.32225 8.27567C4.26559 6.72017 5.457 5.20929 6.8333 4.61925C6.99903 4.54769 7.18052 4.52044 7.35996 4.54018C7.53941 4.55993 7.71063 4.62599 7.85684 4.73188C8.99017 5.55779 9.77217 6.80729 10.4437 7.78975C10.5914 8.0056 10.6546 8.26826 10.6211 8.52769C10.5877 8.78712 10.46 9.02517 10.2623 9.1965L8.88038 10.2229C8.81361 10.2711 8.76662 10.3419 8.74812 10.4221C8.72962 10.5024 8.74087 10.5866 8.7798 10.6592C9.09288 11.228 9.64963 12.0752 10.2871 12.7127C10.9253 13.3502 11.8122 13.9438 12.4206 14.2923C12.4969 14.3351 12.5867 14.347 12.6716 14.3257C12.7564 14.3044 12.8298 14.2513 12.8768 14.1775L13.7764 12.8083C13.9418 12.5886 14.1857 12.4414 14.4572 12.3976C14.7287 12.3538 15.0066 12.4167 15.2327 12.5731C16.2293 13.263 17.3924 14.0316 18.2438 15.1217C18.3583 15.269 18.4311 15.4443 18.4547 15.6293C18.4783 15.8144 18.4517 16.0023 18.3777 16.1736C17.7848 17.557 16.2846 18.7349 14.7241 18.6775Z" fill="#1E3862"/>
</svg>
