<svg width="84" height="68" viewBox="0 0 84 68" fill="none" xmlns="http://www.w3.org/2000/svg">
<path d="M71.729 31.1445V61.2831C71.729 62.1705 71.0122 62.8873 70.1248 62.8873H29.2858L26.9136 66.5053C26.6235 66.9319 26.0603 67.0343 25.6337 66.7613C25.5313 66.693 25.463 66.6247 25.3948 66.5223L22.9031 62.9043H13.8752C12.9878 62.9043 12.271 62.1876 12.271 61.3001V31.1445C12.271 30.2571 12.9878 29.5403 13.8752 29.5403H70.1248C71.0122 29.5403 71.729 30.2571 71.729 31.1445Z" fill="white"/>
<path d="M26.1458 67C25.8215 67 25.4972 66.8294 25.3095 66.5563L22.852 62.9724H13.8753C12.9367 62.9724 12.1687 62.2045 12.1687 61.2658V31.1443C12.1687 30.2057 12.9367 29.4377 13.8753 29.4377H70.1249C71.0635 29.4377 71.8315 30.2057 71.8315 31.1443V61.2829C71.8315 62.2215 71.0635 62.9895 70.1249 62.9895H29.3371L26.982 66.5563C26.7943 66.8294 26.4871 67 26.1458 67ZM13.8753 29.6254C13.0391 29.6254 12.3564 30.3081 12.3564 31.1443V61.2829C12.3564 62.1191 13.0391 62.8018 13.8753 62.8018H22.9032C22.9373 62.8018 22.9544 62.8188 22.9715 62.8359L25.4631 66.4539C25.6167 66.6758 25.8727 66.8123 26.1458 66.8123C26.4188 66.8123 26.6748 66.6758 26.8284 66.4368L29.2006 62.8188C29.2176 62.8018 29.2518 62.7847 29.2859 62.7847H70.1249C70.9611 62.7847 71.6437 62.1021 71.6437 61.2658V31.1443C71.6437 30.3081 70.9611 29.6254 70.1249 29.6254H13.8753Z" fill="#1E3862"/>
<path d="M30.6515 36.9297H23.9104V40.872H30.6515V36.9297Z" fill="#1E3862"/>
<path d="M30.6682 40.9572H23.91C23.8588 40.9572 23.8247 40.9231 23.8247 40.8719V36.9297C23.8247 36.8785 23.8588 36.8443 23.91 36.8443H30.6682C30.7194 36.8443 30.7535 36.8785 30.7535 36.9297V40.8719C30.7535 40.9231 30.7194 40.9572 30.6682 40.9572ZM24.0124 40.7695H30.5658V37.015H23.9954L24.0124 40.7695Z" fill="#1E3862"/>
<path d="M28.313 39.6263H22.5618V42.5275H28.313V39.6263Z" fill="#1192E8"/>
<path d="M28.3129 42.6129H22.5787C22.5275 42.6129 22.4934 42.5787 22.4934 42.5275V39.6263C22.4934 39.5751 22.5275 39.541 22.5787 39.541H28.3129C28.3641 39.541 28.3982 39.5751 28.3982 39.6263V42.5275C28.4153 42.5787 28.3641 42.6129 28.3129 42.6129ZM22.6641 42.4422H28.2276V39.7287H22.6641V42.4422Z" fill="#1E3862"/>
<path d="M32.4942 38.5851H25.7532V42.5273H32.4942V38.5851Z" fill="white"/>
<path d="M32.4941 42.6126H25.7531C25.7019 42.6126 25.6677 42.5785 25.6677 42.5273V38.5851C25.6677 38.5339 25.7019 38.4997 25.7531 38.4997H32.4941C32.5453 38.4997 32.5795 38.5339 32.5795 38.5851V42.5273C32.5965 42.5785 32.5453 42.6126 32.4941 42.6126ZM25.8555 42.442H32.4088V38.6875H25.8555V42.442Z" fill="#1E3862"/>
<path d="M33.723 41.5717H21.0088L22.7154 48.3981H31.0607C31.3508 48.3981 31.6068 48.2104 31.6921 47.9373L33.723 41.5717Z" fill="white"/>
<path d="M31.0779 48.4835H22.7326C22.6985 48.4835 22.6473 48.4493 22.6473 48.4152L20.9407 41.5888C20.9407 41.5547 20.9407 41.5376 20.9577 41.5035C20.9748 41.4864 21.0089 41.4693 21.026 41.4693H33.7402C33.7743 41.4693 33.7914 41.4864 33.8084 41.5035C33.8255 41.5205 33.8255 41.5547 33.8255 41.5888L31.8117 47.9544C31.6752 48.2616 31.4021 48.4835 31.0779 48.4835ZM22.8009 48.2957H31.0779C31.3339 48.2957 31.5557 48.1421 31.624 47.9032L33.6036 41.6571H21.1455L22.8009 48.2957Z" fill="#1E3862"/>
<path d="M33.0575 43.7903H21.5551C21.5039 43.7903 21.4697 43.7562 21.4697 43.705C21.4697 43.6538 21.5039 43.6197 21.5551 43.6197H33.0575C33.1087 43.6197 33.1429 43.6538 33.1429 43.705C33.1429 43.7562 33.1087 43.7903 33.0575 43.7903Z" fill="#1E3862"/>
<path d="M32.2553 46.299H22.1864C22.1352 46.299 22.1011 46.2649 22.1011 46.2137C22.1011 46.1625 22.1352 46.1284 22.1864 46.1284H32.2553C32.3065 46.1284 32.3407 46.1625 32.3407 46.2137C32.3407 46.2649 32.2895 46.299 32.2553 46.299Z" fill="#1E3862"/>
<path d="M31.2314 50.668H24.2344C23.6541 50.668 23.1422 50.2755 22.9886 49.7294L22.6131 48.4153L20.5481 40.343C20.4799 40.0529 20.2921 39.814 20.0361 39.6604L18.3637 38.6706C18.3125 38.6535 18.3125 38.5852 18.3295 38.5511C18.3637 38.4999 18.4149 38.4999 18.449 38.517L20.1215 39.5068C20.4287 39.6775 20.6335 39.9676 20.7188 40.3089L22.7838 48.3811L23.1592 49.6952C23.2958 50.1731 23.7224 50.4973 24.2173 50.4973H31.2144C31.2656 50.4973 31.2997 50.5315 31.2997 50.5827C31.2997 50.6339 31.2826 50.6851 31.2314 50.668Z" fill="#1E3862"/>
<path d="M25.0194 53.6372C25.6509 53.6372 26.1628 53.1253 26.1628 52.4938C26.1628 51.8623 25.6509 51.3504 25.0194 51.3504C24.3879 51.3504 23.876 51.8623 23.876 52.4938C23.876 53.1253 24.3879 53.6372 25.0194 53.6372Z" fill="#1E3862"/>
<path d="M30.088 53.6372C30.7195 53.6372 31.2314 53.1253 31.2314 52.4938C31.2314 51.8623 30.7195 51.3504 30.088 51.3504C29.4565 51.3504 28.9446 51.8623 28.9446 52.4938C28.9446 53.1253 29.4565 53.6372 30.088 53.6372Z" fill="#1E3862"/>
<path d="M33.0405 43.688C34.2092 43.688 35.1567 42.7405 35.1567 41.5718C35.1567 40.4031 34.2092 39.4556 33.0405 39.4556C31.8718 39.4556 30.9243 40.4031 30.9243 41.5718C30.9243 42.7405 31.8718 43.688 33.0405 43.688Z" fill="white"/>
<path d="M33.0576 43.7902C31.8289 43.7902 30.8391 42.8004 30.822 41.5887C30.8049 40.377 31.8118 39.3701 33.0235 39.3531C34.2352 39.336 35.2421 40.3429 35.2592 41.5546V41.5716C35.2421 42.8004 34.2693 43.7732 33.0576 43.7902ZM33.0576 39.5408C31.9313 39.5408 31.0268 40.4453 31.0097 41.5546C31.0097 42.6809 31.9142 43.5854 33.0235 43.6025C34.1499 43.6025 35.0544 42.698 35.0714 41.5887C35.0714 40.4624 34.1669 39.5408 33.0576 39.5408Z" fill="#1E3862"/>
<path d="M32.4945 42.6127C32.4604 42.6127 32.4433 42.5957 32.4262 42.5786L31.6241 41.6229C31.59 41.5888 31.59 41.5205 31.6412 41.4864C31.6753 41.4522 31.7436 41.4522 31.7607 41.5034L32.5116 42.3909L34.2864 40.9914C34.3206 40.9573 34.3888 40.9744 34.423 41.0085C34.4571 41.0426 34.44 41.1109 34.4059 41.145L32.5457 42.5956C32.5457 42.6127 32.5116 42.6127 32.4945 42.6127Z" fill="#1E3862"/>
<path d="M56.3012 38.5851H43.9966V39.4384H56.3012V38.5851Z" fill="white"/>
<path d="M56.3013 39.5409H43.9967C43.9455 39.5409 43.9114 39.5068 43.9114 39.4556V38.6023C43.9114 38.5511 43.9455 38.517 43.9967 38.517H56.3013C56.3525 38.517 56.3866 38.5511 56.3866 38.6023V39.4556C56.3866 39.4897 56.3525 39.5409 56.3013 39.5409ZM44.0991 39.3532H56.216V38.6876H44.0991V39.3532Z" fill="#1E3862"/>
<path d="M46.1469 51.3504H59.7656C60.9431 51.3504 61.8988 52.3061 61.8988 53.4836C61.8988 54.6612 60.9431 55.6169 59.7656 55.6169H46.1469C44.9693 55.6169 44.0137 54.6612 44.0137 53.4836C43.9966 52.3061 44.9523 51.3504 46.1469 51.3504Z" fill="#1192E8"/>
<path d="M59.7486 55.7194H46.1299C44.9012 55.7194 43.8943 54.7295 43.8943 53.4837C43.8943 52.255 44.8841 51.2481 46.1299 51.2481H59.7486C60.9774 51.2481 61.9843 52.2379 61.9843 53.4837C61.9843 54.7125 60.9774 55.7194 59.7486 55.7194ZM46.147 51.4358C45.0206 51.4358 44.0991 52.3574 44.0991 53.4837C44.0991 54.6101 45.0206 55.5316 46.147 55.5316H59.7657C60.892 55.5316 61.8136 54.6101 61.8136 53.4837C61.8136 52.3574 60.892 51.4358 59.7657 51.4358H46.147Z" fill="#1E3862"/>
<path d="M62.9398 42.5273H43.9966V43.3806H62.9398V42.5273Z" fill="white"/>
<path d="M62.9402 43.466H44.014C43.9628 43.466 43.9287 43.4319 43.9287 43.3807V42.5274C43.9287 42.4762 43.9628 42.442 44.014 42.442H62.9402C62.9914 42.442 63.0256 42.4762 63.0256 42.5274V43.3807C63.0256 43.4319 62.9914 43.466 62.9402 43.466ZM44.0994 43.2953H62.8549V42.6298H44.0994V43.2953Z" fill="#1E3862"/>
<path d="M62.9398 46.4697H43.9966V47.323H62.9398V46.4697Z" fill="white"/>
<path d="M62.9402 47.4083H44.014C43.9628 47.4083 43.9287 47.3742 43.9287 47.323V46.4697C43.9287 46.4185 43.9628 46.3843 44.014 46.3843H62.9402C62.9914 46.3843 63.0256 46.4185 63.0256 46.4697V47.323C63.0256 47.3742 62.9914 47.4083 62.9402 47.4083ZM44.0994 47.2206H62.8549V46.555H44.0994V47.2206Z" fill="#1E3862"/>
<path d="M41.7099 16.2798C41.7099 16.2798 48.8094 16.8771 51.6423 20.717C54.4582 24.5568 55.448 29.5401 55.448 29.5401H23.3127C23.3127 29.5401 26.7942 21.8604 29.4906 19.7783C32.1871 17.6963 35.6685 15.7507 41.7099 16.2798Z" fill="#1192E8"/>
<path d="M51.7106 29.5232C51.7106 29.5232 50.9597 27.4923 51.3181 27.0998C51.6765 26.7073 52.6663 26.7755 53.1612 27.8678C53.1612 27.8678 53.6732 27.3046 54.2705 27.151C54.8508 26.9974 55.3116 27.4752 55.3116 27.4752C55.3116 27.4752 56.199 27.0998 56.5574 27.6118C56.5574 27.6118 57.3424 27.5094 57.4619 27.9872C57.8203 27.936 58.1616 28.1579 58.2469 28.4992C58.4005 29.1136 58.1616 30.3253 57.8203 30.3765C57.496 30.4447 57.3595 29.8816 57.3595 29.8816C57.3595 29.8816 57.1035 30.4277 56.728 30.3765C56.3526 30.3253 56.3014 29.8645 56.3014 29.8645C56.3014 29.8645 55.9771 30.3594 55.6187 30.4618C55.431 30.5301 55.2262 30.4447 55.1238 30.2741C55.1238 30.2741 54.7825 30.8714 54.3559 30.7349C53.9292 30.6154 53.9633 29.5061 53.9633 29.5061L51.7106 29.5232Z" fill="white"/>
<path d="M54.4751 30.8713C54.4239 30.8713 54.3727 30.8713 54.3215 30.8543C53.9119 30.7348 53.8607 29.9327 53.8607 29.6426H51.6934C51.6592 29.6426 51.6251 29.6255 51.608 29.5743C51.5227 29.3695 50.8401 27.4752 51.2326 27.0485C51.4544 26.8438 51.7616 26.7584 52.0517 26.8096C52.5467 26.912 52.9562 27.2533 53.161 27.7141C53.4512 27.424 53.8266 27.1851 54.2191 27.0656C54.6116 26.9803 55.0212 27.0997 55.2943 27.3728C55.4991 27.3045 56.2158 27.0827 56.5572 27.5264C56.7449 27.5093 57.3251 27.4923 57.4958 27.9018C57.8713 27.8677 58.2126 28.1237 58.2979 28.4992C58.4174 28.9941 58.2979 29.8986 58.0419 30.2911C57.9907 30.3935 57.9054 30.4617 57.803 30.4959C57.5641 30.5471 57.3934 30.3423 57.3081 30.1375C57.1886 30.3082 56.9668 30.53 56.6937 30.5129C56.4889 30.4788 56.3012 30.3252 56.25 30.1204C56.0964 30.3423 55.8916 30.4959 55.6356 30.5983C55.4479 30.6495 55.2602 30.6153 55.1236 30.4788C55.0212 30.6153 54.7823 30.8713 54.4751 30.8713ZM51.7787 29.4378L53.9802 29.4549C53.9973 29.4549 54.0314 29.4719 54.0485 29.489C54.0655 29.506 54.0826 29.5231 54.0826 29.5572C54.0655 29.9498 54.1509 30.6153 54.4069 30.6836C54.7482 30.786 55.0724 30.257 55.0724 30.257C55.0895 30.2228 55.1236 30.2058 55.1578 30.2058C55.1919 30.2058 55.226 30.2228 55.2431 30.257C55.3284 30.3935 55.482 30.4447 55.6356 30.4105C55.9428 30.3252 56.25 29.8644 56.25 29.8644C56.2841 29.8303 56.3353 29.8132 56.3694 29.8474C56.3865 29.8644 56.4036 29.8815 56.4036 29.9156C56.4036 29.9327 56.4548 30.2911 56.7449 30.3423C57.0521 30.3764 57.2739 29.9156 57.2739 29.8986C57.291 29.8474 57.3422 29.8303 57.3934 29.8474C57.4105 29.8644 57.4446 29.8815 57.4446 29.9156C57.4446 29.9156 57.5641 30.3764 57.7859 30.3252C57.8371 30.3082 57.8883 30.257 57.9054 30.2058C58.1614 29.6938 58.2296 29.1135 58.1272 28.5504C58.059 28.2432 57.7518 28.0554 57.4446 28.1066C57.3934 28.1066 57.3593 28.0896 57.3422 28.0384C57.2398 27.6459 56.5401 27.7312 56.5401 27.7312C56.506 27.7312 56.4718 27.7141 56.4548 27.6971C56.1646 27.2533 55.3455 27.5947 55.3284 27.5947C55.2943 27.6117 55.2431 27.5947 55.226 27.5776C55.226 27.5776 54.8164 27.1339 54.2874 27.2704C53.7242 27.424 53.2293 27.953 53.2122 27.9701C53.1952 27.9872 53.161 28.0042 53.1269 28.0042C53.0928 28.0042 53.0757 27.9701 53.0586 27.953C52.8368 27.4411 52.4613 27.0997 52.0347 27.0315C51.7958 26.9803 51.5568 27.0485 51.3862 27.2192C51.1472 27.4069 51.4886 28.6698 51.7787 29.4378Z" fill="#1E3862"/>
<path d="M53.9632 29.6255C53.912 29.6255 53.8779 29.5913 53.8779 29.5401C53.8779 29.4889 53.8096 28.3797 53.9632 27.8165C53.9803 27.7653 54.0315 27.7311 54.0827 27.7482C54.1339 27.7653 54.168 27.8165 54.151 27.8677C54.0144 28.3967 54.0827 29.5231 54.0827 29.5401C54.0656 29.5913 54.0315 29.6255 53.9632 29.6255Z" fill="#1E3862"/>
<path d="M55.1237 30.3934C55.1066 30.3934 55.1066 30.3934 55.0896 30.3934C55.0384 30.3764 55.0213 30.3252 55.0384 30.274C55.3797 29.3865 55.4309 28.4308 55.209 27.5093C55.192 27.4581 55.2261 27.4069 55.2773 27.3898C55.3285 27.3727 55.3797 27.4069 55.3968 27.4581C55.6357 28.4138 55.5674 29.4207 55.209 30.3422C55.192 30.3764 55.1578 30.3934 55.1237 30.3934Z" fill="#1E3862"/>
<path d="M56.3014 29.9838C56.2844 29.9838 56.2844 29.9838 56.2673 29.9838C56.2161 29.9668 56.1991 29.9156 56.2161 29.8644C56.4721 29.1476 56.5574 28.3967 56.438 27.6458C56.438 27.5946 56.4721 27.5434 56.5233 27.5434C56.5745 27.5434 56.6257 27.5775 56.6257 27.6117C56.7452 28.3967 56.6769 29.1817 56.3868 29.9326C56.3868 29.9668 56.3356 29.9838 56.3014 29.9838Z" fill="#1E3862"/>
<path d="M57.3595 30.001C57.2912 30.001 57.2571 29.9498 57.2741 29.8986C57.2741 29.8815 57.4789 28.5674 57.3595 28.0213C57.3424 27.9701 57.3765 27.9189 57.4277 27.9189C57.4789 27.9018 57.5301 27.936 57.5301 27.9872C57.6496 28.5674 57.4448 29.8815 57.4448 29.9327C57.4448 29.9668 57.3936 30.001 57.3595 30.001Z" fill="#1E3862"/>
<path d="M53.4341 29.2842C53.3829 29.2842 53.3488 29.2501 53.3488 29.1989C53.3147 28.7552 53.2123 28.3285 53.0757 27.9019C53.0587 27.8507 53.0757 27.7995 53.1269 27.7824C53.1781 27.7653 53.2293 27.7824 53.2464 27.8336C53.4 28.2773 53.4853 28.721 53.5365 29.1818C53.5365 29.233 53.4853 29.2842 53.4341 29.2842Z" fill="#1E3862"/>
<path d="M53.9463 28.9259H53.9292L53.622 28.8405C53.5708 28.8235 53.5367 28.7723 53.5538 28.7211C53.5708 28.6699 53.622 28.6357 53.6732 28.6528L53.9804 28.7381C54.0316 28.7381 54.0657 28.7893 54.0657 28.8405C54.0657 28.8917 53.9975 28.9259 53.9463 28.9259Z" fill="#1E3862"/>
<path d="M32.921 29.5232C32.921 29.5232 33.6719 27.4923 33.3135 27.0998C32.9551 26.7073 31.9653 26.7755 31.4704 27.8678C31.4704 27.8678 30.9584 27.3046 30.3611 27.151C29.7638 26.9974 29.32 27.4752 29.32 27.4752C29.32 27.4752 28.4326 27.0998 28.0742 27.6118C28.0742 27.6118 27.2892 27.5094 27.1697 27.9872C26.8113 27.936 26.47 28.1579 26.3847 28.4992C26.2311 29.1136 26.47 30.3253 26.8113 30.3765C27.1356 30.4447 27.2721 29.8816 27.2721 29.8816C27.2721 29.8816 27.5281 30.4277 27.9036 30.3765C28.279 30.3253 28.3302 29.8645 28.3302 29.8645C28.3302 29.8645 28.6545 30.3594 29.0129 30.4618C29.2006 30.5301 29.4054 30.4447 29.5078 30.2741C29.5078 30.2741 29.8491 30.8714 30.2757 30.7349C30.7024 30.6154 30.6683 29.5061 30.6683 29.5061L32.921 29.5232Z" fill="white"/>
<path d="M30.1564 30.8712C29.8493 30.8712 29.6103 30.5982 29.5079 30.4446C29.3714 30.5811 29.1666 30.6152 28.9959 30.564C28.757 30.4616 28.5352 30.308 28.3816 30.0862C28.3133 30.291 28.1426 30.4446 27.9379 30.4787C27.6477 30.5128 27.4429 30.291 27.3235 30.1032C27.2382 30.308 27.0675 30.4958 26.8286 30.4616C26.7262 30.4275 26.6408 30.3592 26.5896 30.2568C26.3337 29.8643 26.2142 28.9598 26.3337 28.4649C26.419 28.0894 26.7603 27.8335 27.1358 27.8676C27.3064 27.458 27.8867 27.4751 28.0744 27.4921C28.4157 27.0484 29.1325 27.2703 29.3373 27.3385C29.6274 27.0655 30.0199 26.946 30.4124 27.0314C30.822 27.1679 31.1804 27.3897 31.4705 27.6799C31.6753 27.2191 32.0849 26.8778 32.5798 26.7754C32.8699 26.7071 33.1771 26.8095 33.399 27.0143C33.7915 27.4409 33.1089 29.3182 33.0235 29.5401C33.0065 29.5742 32.9723 29.6083 32.9382 29.6083L30.7708 29.6254C30.7708 29.9155 30.7196 30.7347 30.31 30.8371C30.2418 30.8712 30.1906 30.8712 30.1564 30.8712ZM29.5079 30.2056C29.5421 30.2056 29.5762 30.2227 29.5933 30.2568C29.5933 30.2568 29.9004 30.7859 30.2588 30.6835C30.5148 30.5982 30.6002 29.9496 30.5831 29.5571C30.5831 29.5401 30.5831 29.5059 30.6172 29.4889C30.6343 29.4718 30.6514 29.4547 30.6855 29.4547L32.887 29.4377C33.1601 28.6697 33.5014 27.4239 33.2795 27.1679C33.1089 26.9972 32.8699 26.929 32.631 26.9802C32.2044 27.0484 31.8289 27.3897 31.607 27.9017C31.59 27.9529 31.5217 27.97 31.4876 27.9529C31.4705 27.9529 31.4705 27.9359 31.4535 27.9359C31.4535 27.9359 30.9415 27.3897 30.3783 27.2361C29.8151 27.0826 29.4397 27.5263 29.4397 27.5433C29.4055 27.5775 29.3714 27.5775 29.3373 27.5604C29.3202 27.5604 28.501 27.2191 28.2109 27.6628C28.1938 27.6969 28.1597 27.714 28.1256 27.6969C28.1256 27.6969 27.4259 27.6116 27.3235 28.0041C27.3064 28.0553 27.2723 28.0724 27.2211 28.0724C26.9139 28.0212 26.6238 28.2089 26.5384 28.5161C26.4361 29.0793 26.5214 29.6595 26.7603 30.1715C26.7944 30.2227 26.8286 30.2739 26.8798 30.291C27.1187 30.3422 27.2211 29.8814 27.2211 29.8814C27.2382 29.8472 27.2552 29.8131 27.3064 29.8131C27.3405 29.8131 27.3747 29.8302 27.3917 29.8643C27.3917 29.8643 27.6136 30.3422 27.9208 30.308C28.228 30.2739 28.2621 29.8984 28.2621 29.8814C28.2621 29.8472 28.2962 29.8131 28.3304 29.796C28.3645 29.796 28.4157 29.796 28.4328 29.8302C28.4328 29.8302 28.74 30.308 29.0471 30.3763C29.2007 30.4275 29.3543 30.3592 29.4397 30.2227C29.4397 30.2056 29.4738 30.1886 29.5079 30.2056Z" fill="#1E3862"/>
<path d="M30.668 29.6255C30.6168 29.6255 30.5827 29.5743 30.5827 29.5401C30.5827 29.5231 30.651 28.3967 30.5144 27.8677C30.4974 27.8165 30.5315 27.7653 30.5827 27.7482C30.6339 27.7311 30.6851 27.7653 30.7022 27.8165C30.8387 28.3626 30.7875 29.4889 30.7875 29.5401C30.7534 29.5913 30.7192 29.6255 30.668 29.6255Z" fill="#1E3862"/>
<path d="M29.5077 30.3934C29.4736 30.3934 29.4394 30.3764 29.4224 30.3422C29.064 29.4207 28.9957 28.4138 29.2346 27.4581C29.2517 27.4069 29.3029 27.3727 29.3541 27.3898C29.4053 27.4069 29.4394 27.4581 29.4224 27.5093C29.2005 28.4308 29.2517 29.3865 29.593 30.274C29.6101 30.3252 29.593 30.3764 29.5418 30.3934C29.5248 30.3934 29.5077 30.3934 29.5077 30.3934Z" fill="#1E3862"/>
<path d="M28.3301 29.9839C28.2959 29.9839 28.2618 29.9669 28.2447 29.9327C27.9717 29.1989 27.8864 28.3968 28.0058 27.6118C28.0058 27.5606 28.057 27.5264 28.1082 27.5435C28.1594 27.5435 28.1935 27.5947 28.1765 27.6459C28.057 28.3968 28.1423 29.1648 28.3983 29.8645C28.4154 29.9157 28.3983 29.9669 28.3471 29.9839H28.3301Z" fill="#1E3862"/>
<path d="M27.272 30.0009C27.2208 30.0009 27.1867 29.9668 27.1867 29.9156C27.1867 29.8644 26.9819 28.5503 27.1014 27.97C27.1184 27.9188 27.1696 27.8847 27.2208 27.9018C27.272 27.9188 27.3062 27.953 27.2891 28.0042C27.1867 28.5503 27.3744 29.8644 27.3744 29.8814C27.3744 29.9497 27.3403 29.9838 27.272 30.0009Z" fill="#1E3862"/>
<path d="M31.1971 29.2842C31.1459 29.2842 31.1118 29.233 31.1118 29.1818C31.163 28.721 31.2483 28.2773 31.4019 27.8336C31.419 27.7824 31.4702 27.7653 31.5214 27.7824C31.5726 27.7995 31.5897 27.8507 31.5726 27.9019C31.4361 28.3285 31.3337 28.7552 31.2995 29.1989C31.2825 29.2501 31.2483 29.2842 31.1971 29.2842Z" fill="#1E3862"/>
<path d="M30.6683 28.9259C30.6171 28.9259 30.5659 28.8917 30.5659 28.8405C30.5659 28.7893 30.6 28.7381 30.6512 28.7381L30.9584 28.6528C31.0096 28.6357 31.0608 28.6699 31.0779 28.7211C31.095 28.7723 31.0608 28.8235 31.0096 28.8405L30.7024 28.9259H30.6683Z" fill="#1E3862"/>
<path d="M39.3719 14.3685C39.3207 15.4437 39.1671 16.5018 38.9111 17.5428C38.9111 17.5428 41.1638 18.4473 42.6657 17.8159C42.6657 17.8159 42.5121 15.6997 42.8022 14.5051C43.0923 13.3104 39.3719 14.3685 39.3719 14.3685Z" fill="white"/>
<path d="M41.4027 18.123C40.5323 18.0889 39.679 17.9182 38.8769 17.611C38.8257 17.594 38.8087 17.5428 38.8257 17.5086C39.0817 16.4676 39.2353 15.4095 39.2865 14.3514C39.2865 14.3173 39.3206 14.2832 39.3548 14.2661C39.6449 14.1808 42.2048 13.4811 42.785 14.0613C42.9045 14.1808 42.9386 14.3514 42.8874 14.5221C42.5973 15.6826 42.7509 17.7817 42.7509 17.7988C42.7509 17.8329 42.7339 17.8841 42.6997 17.8841C42.2901 18.0548 41.8464 18.1401 41.4027 18.123ZM39.0135 17.4745C39.406 17.611 41.2662 18.2425 42.5461 17.7476C42.5291 17.3721 42.4267 15.5631 42.6997 14.4709C42.7339 14.3685 42.7168 14.2661 42.6485 14.1808C42.2219 13.7712 40.2593 14.1978 39.4572 14.4197C39.406 15.4607 39.2524 16.4847 39.0135 17.4745Z" fill="#1E3862"/>
<path d="M37.4094 13.737C36.7609 13.6346 36.1124 13.4981 35.481 13.2933L35.0202 13.1567C34.3034 12.9519 33.5013 12.6789 33.1429 12.0645C33.0917 11.9621 33.0405 11.8597 32.9723 11.7744C32.8528 11.6037 32.6992 11.4501 32.5285 11.3136C31.4022 10.2043 31.2998 8.36118 32.2896 7.20069C32.392 7.0983 32.4944 6.97883 32.5456 6.82524C32.5797 6.68871 32.5968 6.55219 32.5797 6.41566C32.5456 5.93781 32.5797 5.40876 32.9381 5.06744C33.0917 4.94798 33.2453 4.82852 33.3989 4.69199C33.5184 4.53839 33.5866 4.36773 33.6378 4.18001C33.8426 3.59976 34.201 3.03659 34.7983 2.76353C35.1908 2.5758 35.6687 2.54167 36.0783 2.38808C36.6926 2.14915 37.1876 1.65424 37.8531 1.63717C38.1774 1.62011 38.5016 1.7225 38.8259 1.68837C39.2013 1.65424 39.5256 1.43238 39.884 1.29585C40.5154 1.07399 41.2151 1.14226 41.7783 1.50064C41.8636 1.56891 41.949 1.60304 42.0514 1.63717C42.1879 1.6713 42.3074 1.6713 42.4439 1.63717C43.0583 1.56891 43.6556 1.7225 44.1676 2.08089C44.3211 2.20035 44.4747 2.31981 44.6454 2.42221C44.8331 2.49047 45.0379 2.55874 45.2427 2.60994C45.5328 2.71233 45.7888 2.86593 46.0107 3.08778C46.1131 3.22431 46.2496 3.34377 46.3861 3.4291C46.5397 3.49737 46.7104 3.5315 46.881 3.54857C47.7514 3.71923 48.4341 4.52133 48.3658 5.32343C48.3487 5.42583 48.3487 5.52822 48.3829 5.61355C48.4341 5.71595 48.5706 5.76715 48.6559 5.85248C48.8948 6.05727 48.8607 6.39859 48.929 6.70578C48.9972 6.9959 49.185 7.28602 49.3044 7.57615C49.458 8.05399 49.5092 8.54891 49.4409 9.04382C49.4068 9.64113 49.3044 10.2214 49.1679 10.8016C48.8607 11.9621 48.1781 12.9861 47.2394 13.7199C46.6763 14.1466 45.9595 14.4879 45.2256 14.4026C45.0891 14.3855 44.9697 14.3684 44.8331 14.3514C44.6966 14.3514 44.5771 14.3514 44.4406 14.3855C43.6044 14.4879 42.7511 14.4879 41.9148 14.3684L37.29 14.01" fill="white"/>
<path d="M37.4095 13.6346C36.8634 13.5493 36.3343 13.4298 35.8053 13.2591C35.3445 13.1226 34.8667 13.0031 34.4059 12.8325C33.9963 12.713 33.6379 12.4741 33.3478 12.184C33.1942 11.9963 33.1259 11.7915 32.9723 11.6037C32.8358 11.416 32.631 11.2795 32.4774 11.0918C31.9484 10.4944 31.6583 9.7094 31.7095 8.9073C31.7265 8.51478 31.8289 8.12227 31.9996 7.78095C32.0849 7.61029 32.2044 7.43962 32.3238 7.28603C32.4945 7.13244 32.614 6.94471 32.6822 6.72285C32.6993 6.50099 32.6993 6.27914 32.6822 6.04021C32.6822 5.83542 32.7163 5.61356 32.8017 5.42584C32.9041 5.22104 33.0747 5.05038 33.2625 4.91385C33.4331 4.79439 33.5696 4.62373 33.655 4.43601C33.7403 4.23121 33.8086 4.00936 33.911 3.80456C33.9963 3.61684 34.1158 3.44618 34.2523 3.29258C34.3888 3.12192 34.5595 2.98539 34.7472 2.883C34.9691 2.7806 35.208 2.69527 35.4469 2.64407C35.6858 2.59288 35.9248 2.52461 36.1466 2.43928C36.3514 2.35395 36.5391 2.26862 36.7269 2.14916C37.1194 1.9273 37.5119 1.68838 37.9727 1.68838C38.2287 1.68838 38.4847 1.75664 38.7236 1.75664C38.9625 1.73958 39.2014 1.68838 39.4062 1.56892C39.611 1.46652 39.8329 1.36412 40.0547 1.29586C40.2766 1.22759 40.5155 1.21053 40.7374 1.2276C40.9763 1.24466 41.1982 1.29586 41.42 1.38119C41.5224 1.41532 41.6248 1.46652 41.7272 1.53478C41.8296 1.60305 41.932 1.65425 42.0344 1.70544C42.2562 1.77371 42.5122 1.68838 42.7341 1.68838C42.973 1.68838 43.1949 1.72251 43.4167 1.77371C43.6557 1.84197 43.8775 1.94437 44.0652 2.0809C44.2359 2.23449 44.4407 2.37102 44.6284 2.47341C44.8503 2.57581 45.0892 2.60994 45.3281 2.71234C45.55 2.79767 45.7548 2.9342 45.9084 3.08779C46.0449 3.25845 46.2156 3.39498 46.4033 3.49738C46.6251 3.58271 46.8641 3.58271 47.0859 3.65097C47.4784 3.7875 47.8198 4.06055 48.0587 4.40187C48.1611 4.57253 48.2293 4.76026 48.2635 4.94799C48.2805 5.03332 48.2805 5.11865 48.2805 5.22104C48.2635 5.34051 48.2635 5.4429 48.2805 5.56236C48.3488 5.76716 48.5707 5.81835 48.6731 5.98901C48.7584 6.19381 48.8096 6.3986 48.8096 6.62046C48.8608 6.84231 48.9461 7.04711 49.0485 7.2519C49.168 7.49082 49.2533 7.72975 49.3045 7.98574C49.3728 8.49772 49.3557 9.02676 49.2704 9.52168C49.185 10.4944 48.8608 11.416 48.3659 12.2522C47.871 13.0373 47.1542 13.7541 46.2838 14.0954C46.062 14.1807 45.823 14.249 45.5671 14.266C45.3111 14.266 45.0551 14.249 44.7991 14.2148C44.526 14.2319 44.253 14.249 43.9799 14.2831C43.7069 14.3002 43.4338 14.3172 43.1437 14.3172C42.6317 14.3172 42.1027 14.249 41.5907 14.2148L40.2937 14.1124L37.4436 13.8906L37.2559 13.8735C37.1364 13.8564 37.1364 14.0442 37.2559 14.0612L39.5939 14.249L41.1811 14.3684C41.4371 14.3855 41.7101 14.4026 41.9661 14.4367C42.5293 14.505 43.1095 14.522 43.6727 14.4879C43.9628 14.4708 44.2359 14.4367 44.526 14.4196C44.7991 14.4196 45.0721 14.4367 45.3281 14.4538C46.3009 14.4879 47.1883 13.8906 47.8368 13.2079C48.4683 12.5424 48.9291 11.7232 49.185 10.8358C49.3386 10.3238 49.424 9.77767 49.4752 9.24862C49.5434 8.73664 49.5264 8.2076 49.424 7.69562C49.3386 7.45669 49.2533 7.23483 49.1338 7.01297C49.0315 6.79112 48.9803 6.55219 48.9461 6.31327C48.9291 6.10848 48.8608 5.92075 48.7243 5.76716C48.6389 5.71596 48.5707 5.64769 48.4853 5.57943C48.4 5.47703 48.4512 5.3405 48.4512 5.20398C48.4683 4.38481 47.8027 3.66804 47.0347 3.44618C46.7958 3.37791 46.5057 3.39498 46.3009 3.22432C46.0961 3.05366 45.9937 2.90006 45.806 2.76354C45.6182 2.62701 45.3964 2.52461 45.1745 2.45635C44.9185 2.40515 44.6967 2.30275 44.4748 2.16623C44.2871 2.01263 44.0823 1.8761 43.8775 1.73958C43.4509 1.51772 42.973 1.43239 42.5122 1.46652C42.3928 1.48358 42.2733 1.50065 42.1539 1.50065C42.0173 1.48359 41.8979 1.41532 41.7784 1.32999C41.3859 1.09107 40.9251 0.971604 40.4643 1.00574C40.2425 1.0228 40.0206 1.05693 39.7987 1.14227C39.5769 1.2276 39.355 1.34706 39.1161 1.43239C38.8601 1.51772 38.6041 1.53478 38.3481 1.48359C38.1092 1.44945 37.8532 1.43239 37.6143 1.46652C37.1706 1.55185 36.7951 1.80784 36.4197 2.01263C36.2149 2.13209 35.993 2.21742 35.7541 2.28569C35.5152 2.35395 35.2592 2.38808 35.0203 2.47341C34.5936 2.60994 34.2352 2.86593 33.9792 3.22432C33.8427 3.39498 33.7403 3.58271 33.655 3.77043C33.5867 3.99229 33.5014 4.21415 33.399 4.41894C33.2795 4.6408 33.0235 4.74319 32.8529 4.91385C32.6993 5.06745 32.5969 5.23811 32.5457 5.4429C32.4945 5.64769 32.4604 5.86955 32.4774 6.07434C32.4774 6.33033 32.5457 6.58632 32.3921 6.80818C32.2726 6.99591 32.102 7.1495 31.9825 7.32016C31.8801 7.49082 31.7777 7.66148 31.7095 7.84921C31.2657 9.0097 31.5388 10.3067 32.4092 11.2112C32.5969 11.3819 32.7846 11.5696 32.9211 11.7744C33.0235 11.9792 33.143 12.1669 33.2966 12.3205C33.6038 12.6106 33.9792 12.8154 34.3888 12.9349C34.8667 13.1055 35.3445 13.2421 35.8394 13.3786C36.3514 13.5322 36.8805 13.6517 37.4095 13.7199C37.5119 13.8564 37.5119 13.6687 37.4095 13.6346Z" fill="#1E3862"/>
<path d="M46.1471 10.3751C46.1471 10.3751 46.8127 9.41938 47.7513 10.0167C48.6899 10.6311 47.683 13.8053 45.7375 12.6107C45.7375 12.6107 44.8501 16.0239 40.7542 15.6314C36.5731 15.2389 35.8734 11.3478 35.8734 11.3478C35.8734 11.3478 34.6105 11.8428 34.1156 11.0918C33.6036 10.3409 33.9961 8.32715 35.8904 9.50471L36.0099 10.0508C36.4536 9.53884 36.7779 8.92446 36.8973 8.24182C36.8973 8.24182 37.4776 7.93463 38.1431 6.82534C38.1431 6.82534 39.3207 7.0984 41.1297 5.51126C41.1297 5.51126 42.1878 7.66158 45.7034 8.56608C45.7034 8.60021 45.874 10.6652 46.1471 10.3751Z" fill="white"/>
<path d="M41.3855 15.7506C41.1807 15.7506 40.9759 15.7336 40.7541 15.7165C36.9483 15.3411 35.9756 12.0985 35.8049 11.4671C35.4807 11.5695 34.4908 11.8255 34.0301 11.1428C33.7229 10.6991 33.7058 9.81168 34.1495 9.33383C34.3714 9.0949 34.9004 8.78771 35.9244 9.40209C35.9415 9.41916 35.9585 9.43622 35.9585 9.45329L36.0438 9.82874C36.4193 9.35089 36.6753 8.80478 36.7948 8.20747C36.7948 8.17334 36.8118 8.15627 36.8459 8.13921C36.8459 8.13921 37.4091 7.83202 38.0576 6.75686C38.0747 6.72273 38.1259 6.70566 38.16 6.72273C38.1771 6.72273 39.3205 6.96165 41.0613 5.44277C41.0783 5.42571 41.1125 5.40864 41.1466 5.42571C41.1807 5.42571 41.1978 5.44278 41.2148 5.47691C41.2319 5.49397 42.3071 7.59309 45.7373 8.48053C45.7715 8.49759 45.8056 8.51466 45.8056 8.56586C45.8739 9.2997 45.9933 10.1189 46.1128 10.2725C46.2323 10.1189 46.9149 9.33383 47.8194 9.91407C48.3996 10.2895 48.2972 11.4329 47.8365 12.1668C47.3415 12.9518 46.5906 13.1395 45.8227 12.7129C45.6008 13.3102 44.5769 15.7506 41.3855 15.7506ZM35.8732 11.2623C35.8903 11.2623 35.9073 11.2623 35.9244 11.2794C35.9415 11.2964 35.9585 11.3135 35.9756 11.3476C35.9756 11.3817 36.7094 15.1704 40.7711 15.5459C44.7304 15.9213 45.6179 12.73 45.6691 12.5934C45.6861 12.5422 45.7373 12.5081 45.7885 12.5252C45.8056 12.5252 45.8056 12.5252 45.8227 12.5422C46.8637 13.1907 47.4781 12.4569 47.6829 12.1156C48.1436 11.3817 48.1607 10.3919 47.7341 10.1018C46.8808 9.55569 46.2835 10.3919 46.2493 10.4261C46.2493 10.4261 46.2493 10.4261 46.2323 10.4431C46.1981 10.4943 46.1299 10.5114 46.0616 10.4943C45.8227 10.409 45.6861 9.35089 45.6349 8.66825C42.5631 7.84908 41.3855 6.12542 41.1125 5.6817C39.5594 7.01285 38.4843 6.97872 38.1942 6.94458C37.631 7.88322 37.1361 8.22454 36.9825 8.32693C36.846 8.99251 36.5388 9.62395 36.078 10.1359C36.0438 10.1701 35.9756 10.1701 35.9415 10.1359C35.9244 10.1189 35.9244 10.1018 35.9244 10.0847L35.8049 9.55568C35.1393 9.16317 34.6103 9.12903 34.286 9.47035C33.9106 9.86287 33.9106 10.6479 34.1837 11.0404C34.6444 11.7231 35.822 11.2623 35.8391 11.2623H35.8732Z" fill="#1E3862"/>
<path d="M44.7816 8.77091C44.4062 8.70265 44.0307 8.63438 43.6382 8.60025C43.4505 8.58319 43.2627 8.58319 43.075 8.58319C42.8873 8.58319 42.6996 8.60025 42.4948 8.60025C42.4606 8.60025 42.4265 8.56612 42.4265 8.53199C42.4265 8.51492 42.4436 8.48079 42.4606 8.48079C42.6484 8.37839 42.8361 8.31013 43.0409 8.276C43.2457 8.24186 43.4505 8.2248 43.6723 8.25893C43.8771 8.276 44.0819 8.3272 44.2867 8.39546C44.4915 8.46372 44.6622 8.54905 44.8328 8.68558C44.867 8.70265 44.867 8.75385 44.8499 8.77091C44.8328 8.77091 44.8158 8.78798 44.7816 8.77091Z" fill="#1E3862"/>
<path d="M38.3819 8.10532C38.5697 8.00293 38.7745 7.95173 38.9793 7.9176C39.184 7.88346 39.3888 7.8664 39.5936 7.88347C39.7984 7.90053 40.0032 7.93466 40.208 8.00293C40.4128 8.07119 40.6005 8.17359 40.7541 8.31012C40.7882 8.32718 40.7882 8.37838 40.7712 8.39545C40.7541 8.41251 40.737 8.42958 40.7029 8.41251C40.4981 8.37838 40.3275 8.32718 40.1397 8.31012C39.952 8.29305 39.7643 8.25892 39.5936 8.24185C39.2182 8.20772 38.8257 8.20772 38.4502 8.22479C38.4161 8.22479 38.3819 8.19065 38.3819 8.15652C38.3649 8.13946 38.3649 8.12239 38.3819 8.10532Z" fill="#1E3862"/>
<path d="M42.5461 12.2693H42.4949C42.0853 12.2522 41.6245 11.945 41.6074 11.4842C41.6074 11.433 41.6416 11.3989 41.6928 11.3818C41.7439 11.3818 41.7781 11.416 41.7781 11.4672C41.7951 11.8085 42.1535 12.0474 42.4949 12.0645C42.7338 12.0986 42.9727 11.9279 43.0068 11.689V11.672C43.0239 11.5696 42.9898 11.4501 42.9215 11.3648C42.6826 11.0917 42.0682 11.0917 42.0682 11.0917C42.017 11.0917 41.9829 11.0576 41.9829 11.0064C41.8975 10.4261 41.8293 9.86296 41.8122 9.28272C41.8122 9.23152 41.8463 9.19739 41.8975 9.19739C41.9487 9.19739 41.9829 9.23152 41.9829 9.28272C41.9999 9.82883 42.0511 10.3749 42.1365 10.904C42.3242 10.9211 42.8191 10.9723 43.058 11.2282C43.1604 11.3477 43.2116 11.5184 43.1775 11.672C43.1775 12.0303 42.8874 12.2863 42.5461 12.2693Z" fill="#1E3862"/>
<path d="M43.2971 10.1532C43.1947 10.4774 43.3141 10.7846 43.5531 10.8529C43.792 10.9211 44.0821 10.7163 44.1845 10.3921C44.2186 10.3067 44.2186 10.2044 44.2186 10.119L43.7237 10.2044L44.065 9.79477C44.0309 9.74357 43.9626 9.7265 43.9114 9.70944C43.6896 9.62411 43.3995 9.8289 43.2971 10.1532Z" fill="#1E3862"/>
<path d="M38.9453 9.67522C38.8429 9.99947 38.9623 10.3067 39.2013 10.3749C39.4402 10.4432 39.7303 10.2384 39.8327 9.91414C39.8668 9.82881 39.8668 9.72641 39.8668 9.64108L39.3719 9.72641L39.7132 9.31683C39.6791 9.26563 39.6108 9.24857 39.5596 9.2315C39.3378 9.14617 39.0477 9.35096 38.9453 9.67522Z" fill="#1E3862"/>
<path d="M41.5222 13.1225H41.5051C40.2423 12.8665 39.8839 12.2521 39.8668 12.218C39.8497 12.1668 39.8668 12.1156 39.9009 12.0986C39.9521 12.0815 40.0033 12.0986 40.0204 12.1327C40.0204 12.1327 40.3617 12.7129 41.5393 12.9519C41.5905 12.9689 41.6246 13.0031 41.6075 13.0542C41.6075 13.0884 41.5734 13.1225 41.5222 13.1225Z" fill="#1E3862"/>
<path d="M35.5491 9.98246C35.0542 9.50462 34.5251 9.67528 34.3374 10.1531L35.5491 9.98246Z" fill="white"/>
<path d="M34.3376 10.2554C34.3205 10.2554 34.3205 10.2554 34.3034 10.2554C34.2522 10.2383 34.2352 10.1871 34.2522 10.1359C34.3376 9.87996 34.5424 9.69223 34.7984 9.64103C35.1055 9.58984 35.4127 9.7093 35.6175 9.93116C35.6517 9.96529 35.6517 10.0336 35.6175 10.0677C35.5834 10.1018 35.5322 10.1018 35.4981 10.0677C35.3445 9.87996 35.0885 9.79463 34.8496 9.82876C34.6618 9.87996 34.5082 10.0336 34.44 10.2213C34.4058 10.2213 34.3717 10.2554 34.3376 10.2554Z" fill="#1E3862"/>
<path d="M34.9518 10.8697C34.4569 10.5625 34.7299 9.74335 34.7299 9.74335L34.9518 10.8697Z" fill="white"/>
<path d="M34.9517 10.9554C34.9346 10.9554 34.9176 10.9554 34.9005 10.9383C34.3544 10.597 34.6275 9.74368 34.6445 9.70954C34.6616 9.65835 34.7299 9.64128 34.764 9.65835C34.7981 9.67541 34.8152 9.72661 34.8152 9.76074C34.8152 9.76074 34.5763 10.5116 35.0029 10.7847C35.0541 10.8018 35.0541 10.87 35.037 10.9042C35.02 10.9383 34.9858 10.9554 34.9517 10.9554Z" fill="#1E3862"/>
<path d="M46.4202 10.887C46.8127 10.2556 47.5977 10.4604 47.7854 10.8358L46.4202 10.887Z" fill="white"/>
<path d="M46.4199 10.9723C46.4028 10.9723 46.3858 10.9723 46.3687 10.9552C46.3346 10.9211 46.3175 10.8699 46.3346 10.8357C46.5052 10.5456 46.8295 10.3749 47.1537 10.392C47.4439 10.392 47.6999 10.5456 47.8534 10.7845C47.8705 10.8357 47.8534 10.8869 47.8193 10.904C47.7681 10.9211 47.7169 10.904 47.6999 10.8699C47.5804 10.6821 47.3756 10.5627 47.1537 10.5627C46.8807 10.5456 46.6247 10.6992 46.4882 10.9381C46.4882 10.9723 46.454 10.9723 46.4199 10.9723Z" fill="#1E3862"/>
<path d="M46.7104 12.218C47.3078 12.1498 47.6149 11.1087 47.3419 10.5114L46.7104 12.218Z" fill="white"/>
<path d="M46.7101 12.3204C46.6589 12.3204 46.6077 12.2863 46.6077 12.2351C46.6077 12.1839 46.6418 12.1327 46.693 12.1327C46.8978 12.0986 47.0684 11.962 47.1538 11.7743C47.3586 11.3989 47.4098 10.9552 47.2562 10.5456C47.2391 10.4944 47.2562 10.4432 47.3074 10.4261C47.3586 10.409 47.4098 10.4261 47.4268 10.4773C47.5975 10.9381 47.5463 11.4501 47.3074 11.8767C47.205 12.0986 46.9831 12.2692 46.7101 12.3204Z" fill="#1E3862"/>
<path d="M50.9596 29.6254C50.9084 29.6254 50.8743 29.5913 50.8743 29.5401C50.8743 29.4889 50.4476 24.864 49.4066 22.7137C49.3895 22.6625 49.4066 22.6113 49.4407 22.5942C49.4919 22.5772 49.5431 22.5942 49.5602 22.6284C50.6183 24.7957 51.0449 29.4548 51.0449 29.506C51.062 29.5742 51.0108 29.6254 50.9596 29.6254Z" fill="#1E3862"/>
<path d="M30.3612 27.2361C30.31 27.2361 30.2759 27.1849 30.2759 27.1337C30.2929 27.0143 30.5319 24.3178 31.5388 22.816C31.5729 22.7819 31.6241 22.7648 31.6582 22.7819C31.6924 22.816 31.7094 22.8672 31.6924 22.9014C30.7196 24.369 30.4636 27.1167 30.4636 27.1337C30.4636 27.202 30.4124 27.2361 30.3612 27.2361Z" fill="#1E3862"/>
</svg>
