<svg width="48" height="48" viewBox="0 0 48 48" fill="none" xmlns="http://www.w3.org/2000/svg">
<rect width="48" height="48" rx="8" fill="#82ED3F" fill-opacity="0.05"/>
<path d="M15.6001 19.8176C15.6001 15.5 19.3609 12 24.0001 12C28.6393 12 32.4001 15.5 32.4001 19.8176C32.4001 24.1013 29.7191 29.0999 25.5362 30.8875C24.5611 31.3042 23.4391 31.3042 22.464 30.8875C18.2811 29.0999 15.6001 24.1013 15.6001 19.8176Z" stroke="#82ED3F" stroke-width="2.2"/>
<path d="M26.4001 20.4C26.4001 21.7255 25.3256 22.8 24.0001 22.8C22.6746 22.8 21.6001 21.7255 21.6001 20.4C21.6001 19.0745 22.6746 18 24.0001 18C25.3256 18 26.4001 19.0745 26.4001 20.4Z" stroke="#82ED3F" stroke-width="2.2"/>
<path d="M34.7526 28.1992C35.5511 28.9222 36 29.7371 36 30.5992C36 33.5816 30.6274 35.9992 24 35.9992C17.3726 35.9992 12 33.5816 12 30.5992C12 29.7371 12.4489 28.9222 13.2474 28.1992" stroke="#82ED3F" stroke-width="2.2" stroke-linecap="round"/>
</svg>
