<svg width="22" height="22" viewBox="0 0 22 22" fill="none" xmlns="http://www.w3.org/2000/svg">
<path d="M17.5625 6.22498C17.8489 6.38786 18.0867 6.62412 18.2515 6.90944C18.4163 7.19476 18.502 7.51883 18.5 7.84831V13.9183C18.5 14.5925 18.1308 15.2141 17.535 15.5416L11.91 19.0999C11.6311 19.2531 11.3181 19.3333 11 19.3333C10.6818 19.3333 10.3689 19.2531 10.09 19.0999L4.465 15.5416C4.17347 15.3823 3.9301 15.1476 3.76034 14.862C3.59058 14.5764 3.50067 14.2505 3.5 13.9183V7.84747C3.5 7.17331 3.86917 6.55247 4.465 6.22498L10.09 2.90832C10.3771 2.75001 10.6996 2.66699 11.0275 2.66699C11.3553 2.66699 11.6779 2.75001 11.965 2.90832L17.59 6.22498H17.5625Z" stroke="#1E3862" stroke-width="1.5" stroke-linecap="round" stroke-linejoin="round"/>
<path d="M8.5 11C8.5 11.663 8.76339 12.2989 9.23223 12.7678C9.70107 13.2366 10.337 13.5 11 13.5C11.663 13.5 12.2989 13.2366 12.7678 12.7678C13.2366 12.2989 13.5 11.663 13.5 11C13.5 10.337 13.2366 9.70107 12.7678 9.23223C12.2989 8.76339 11.663 8.5 11 8.5C10.337 8.5 9.70107 8.76339 9.23223 9.23223C8.76339 9.70107 8.5 10.337 8.5 11Z" stroke="#1E3862" stroke-width="1.5" stroke-linecap="round" stroke-linejoin="round"/>
</svg>
