<svg width="48" height="48" viewBox="0 0 48 48" fill="none" xmlns="http://www.w3.org/2000/svg">
<path d="M13 7C10.4 7 7.94002 8.04 6.02002 9.96C4.10002 11.86 3.02002 14.44 3.02002 17C3.02002 20.44 4.76002 23.6 7.70002 25.46C8.34002 25.86 8.78002 26.5 8.94002 27.2C9.44002 29.42 9.48002 31.64 9.04002 33.82C8.74002 35.28 8.24002 36.7 7.56002 38.04C7.14002 38.86 7.32002 39.82 8.00002 40.44C8.38002 40.78 8.86002 40.96 9.32002 40.96C9.72002 40.96 10.12 40.84 10.46 40.6C12.86 38.94 15 36.94 16.8 34.66C21.72 28.4 22.8 21.6 23.02 18.12C23.24 15.26 22.22 12.4 20.26 10.28C18.36 8.22 15.72 7.04 13.02 7.04L13 7ZM18 18C17.44 18 17 17.56 17 17C17 14.8 15.2 13 13 13C12.44 13 12 12.56 12 12C12 11.44 12.44 11 13 11C16.3 11 19 13.7 19 17C19 17.56 18.56 18 18 18Z" fill="#D6DADD"/>
<path d="M42.24 10.24C40.34 8.18 37.7 7 35 7C32.4 7 29.94 8.04 28.02 9.96C26.1 11.86 25.02 14.44 25.02 17C25.02 20.44 26.76 23.6 29.7 25.46C30.34 25.86 30.78 26.5 30.94 27.2C31.44 29.42 31.48 31.64 31.04 33.82C30.74 35.28 30.24 36.7 29.56 38.04C29.14 38.86 29.32 39.82 30 40.44C30.38 40.78 30.86 40.96 31.32 40.96C31.72 40.96 32.12 40.84 32.46 40.6C34.86 38.94 37 36.94 38.8 34.66C43.72 28.4 44.8 21.6 45.02 18.12C45.24 15.26 44.22 12.4 42.26 10.28L42.24 10.24ZM40 18C39.44 18 39 17.56 39 17C39 14.8 37.2 13 35 13C34.44 13 34 12.56 34 12C34 11.44 34.44 11 35 11C38.3 11 41 13.7 41 17C41 17.56 40.56 18 40 18Z" fill="#D6DADD"/>
</svg>
