<svg width="32" height="32" viewBox="0 0 32 32" fill="none" xmlns="http://www.w3.org/2000/svg">
<path d="M9.07617 11.9615H22.9223" stroke="#D62828" stroke-width="1.2" stroke-linecap="round" stroke-linejoin="round"/>
<path d="M10.8066 11.9615H21.1913V22.3462C21.1913 22.6522 21.0696 22.9457 20.8533 23.162C20.637 23.3784 20.3434 23.5 20.0374 23.5H11.9605C11.6545 23.5 11.361 23.3784 11.1446 23.162C10.9282 22.9457 10.8066 22.6522 10.8066 22.3462V11.9615Z" stroke="#D62828" stroke-width="1.2" stroke-linecap="round" stroke-linejoin="round"/>
<path d="M13.1152 11.9615V11.3846C13.1152 10.6196 13.4191 9.88585 13.9601 9.34488C14.5011 8.80391 15.2348 8.5 15.9999 8.5C16.7649 8.5 17.4986 8.80391 18.0396 9.34488C18.5806 9.88585 18.8845 10.6196 18.8845 11.3846V11.9615" stroke="#D62828" stroke-width="1.2" stroke-linecap="round" stroke-linejoin="round"/>
<path d="M14.2676 15.4247V20.0419" stroke="#D62828" stroke-width="1.2" stroke-linecap="round" stroke-linejoin="round"/>
<path d="M17.7285 15.4247V20.0419" stroke="#D62828" stroke-width="1.2" stroke-linecap="round" stroke-linejoin="round"/>
</svg>
