<svg width="22" height="19" viewBox="0 0 22 19" fill="none" xmlns="http://www.w3.org/2000/svg">
<path fill-rule="evenodd" clip-rule="evenodd" d="M0 3.92857H22V2.31365C22 1.69739 21.7498 1.10578 21.3018 0.669806C20.8615 0.241874 20.2654 0 19.6429 0H2.35714C1.73461 0 1.13847 0.241874 0.698217 0.669806C0.250172 1.10578 0 1.69739 0 2.31365V3.92857Z" fill="#1E3862"/>
<path fill-rule="evenodd" clip-rule="evenodd" d="M6.05943 15.3804C5.66343 14.6299 5.44494 13.7707 5.44494 12.8799V9.64832C5.44494 9.11957 5.64331 8.6152 5.9845 8.24133C6.04007 8.18048 6.34631 7.94539 6.85998 7.71458C7.9723 7.21449 10.5608 6.17458 10.5608 6.17458C10.8444 6.06069 11.1614 6.06144 11.4445 6.17685C11.7276 6.29225 13.9978 7.21675 15.096 7.71685C15.6024 7.94741 15.9049 8.18048 15.9604 8.24133C16.3016 8.6152 16.5 9.11957 16.5 9.64832V12.8636C16.5 13.7612 16.2782 14.6261 15.8767 15.3804H19.6429C20.2654 15.3804 20.8615 15.1385 21.3018 14.7106C21.7498 14.2749 22 13.683 22 13.0667V5.5H0V13.0667C0 13.683 0.250172 14.2749 0.698217 14.7106C1.13847 15.1385 1.73461 15.3804 2.35714 15.3804H6.05943Z" fill="#1E3862"/>
<path fill-rule="evenodd" clip-rule="evenodd" d="M11.0167 6.95625L10.9996 6.956C10.907 6.95574 10.8145 6.97334 10.7273 7.00829C10.7273 7.00829 8.34624 7.96473 7.32318 8.42459C6.92265 8.60461 6.67726 8.77734 6.63401 8.82461C6.37831 9.10496 6.23047 9.48336 6.23047 9.87961V12.8638C6.23047 14.2545 6.8515 15.5559 7.88411 16.3645C8.65248 16.9661 9.55737 17.6746 10.0753 18.0805C10.3345 18.2834 10.6385 18.3857 10.9425 18.3867H10.9568C11.256 18.3844 11.555 18.2844 11.8114 18.0865C12.3364 17.6809 13.2574 16.9696 14.0391 16.366C15.084 15.5591 15.7141 14.2497 15.7141 12.8487V9.87961C15.7141 9.48336 15.5663 9.10496 15.3106 8.82461C15.2673 8.77734 15.0249 8.60612 14.6299 8.4261C13.62 7.96624 11.2714 7.00955 11.2714 7.00955C11.1896 6.97636 11.1034 6.95851 11.0167 6.95625ZM8.86343 13.4202L10.412 14.7407C10.5782 14.8825 10.7962 14.9487 11.0131 14.9233C11.2301 14.8979 11.4267 14.7832 11.5557 14.607L13.4435 12.0296C13.6997 11.6796 13.6235 11.1875 13.2737 10.9313C12.9237 10.6751 12.4317 10.7513 12.1755 11.101L10.7879 12.9961L9.88297 12.2247C9.5531 11.9431 9.05678 11.9826 8.77543 12.3127C8.49408 12.6426 8.53355 13.1389 8.86343 13.4202Z" fill="#1E3862"/>
</svg>
