<svg width="24" height="24" viewBox="0 0 24 24" fill="none" xmlns="http://www.w3.org/2000/svg">
<path d="M10.356 17.5392L13.3716 20.541C13.5567 20.7306 13.788 20.8686 14.0428 20.9414C14.2975 21.0143 14.5669 21.0192 14.8242 20.956C15.0831 20.8957 15.3221 20.77 15.5183 20.5907C15.7146 20.4114 15.8614 20.1847 15.9447 19.9323L20.897 5.08905C21.0004 4.81094 21.0217 4.509 20.9585 4.21911C20.8952 3.92922 20.7501 3.66359 20.5403 3.45379C20.3305 3.24399 20.0648 3.09884 19.775 3.0356C19.4851 2.97236 19.1831 2.99369 18.9051 3.09704L4.06176 8.0494C3.80065 8.13858 3.5681 8.29589 3.38814 8.50504C3.20817 8.71418 3.08732 8.96759 3.03808 9.23908C2.98726 9.48599 2.99857 9.74166 3.07101 9.98313C3.14345 10.2246 3.27474 10.4443 3.45309 10.6224L7.24344 14.4128L7.11894 19.213L10.356 17.5392Z" stroke="white" stroke-width="1.7" stroke-linecap="round" stroke-linejoin="round"/>
<path d="M20.4541 3.39844L7.24316 14.4098" stroke="white" stroke-width="1.7" stroke-linecap="round" stroke-linejoin="round"/>
</svg>
