<svg width="48" height="48" viewBox="0 0 48 48" fill="none" xmlns="http://www.w3.org/2000/svg">
<g clip-path="url(#clip0_1516_507)">
<path d="M2.39023 45.6093C-0.169141 43.0499 -0.169141 38.8874 2.39023 36.3281L32.934 5.7843L42.2152 15.0656L11.6715 45.6093C9.10273 48.1687 4.94961 48.1687 2.39023 45.6093Z" fill="#6ABDFB"/>
<path d="M2.39062 45.6094C1.26562 44.4844 1.26562 42.6656 2.39062 41.55L35.55 8.39062L39.6094 12.45L6.45 45.6094C5.325 46.7344 3.51562 46.7344 2.39062 45.6094Z" fill="#9CD3FC"/>
<path d="M3.87148 44.1281C2.07148 42.3281 2.07148 39.4125 3.87148 37.6125L21.8902 19.5938H34.9215L10.3871 44.1281C8.58711 45.9281 5.67148 45.9281 3.87148 44.1281Z" fill="#B3271E"/>
<path d="M32.4648 19.5938H24.3461L2.55859 41.3812C2.67109 42.3844 3.11172 43.3594 3.88047 44.1188C4.64922 44.8875 5.62422 45.3281 6.61797 45.4406L32.4648 19.5938Z" fill="#DB3429"/>
<path d="M46.7063 6.60933L41.3813 1.28433C40.2844 0.187451 38.5125 0.187451 37.425 1.28433L30.75 7.9687L40.0313 17.25L46.7156 10.5656C47.8031 9.47808 47.8031 7.7062 46.7063 6.60933Z" fill="#DB3429"/>
<path d="M43.3309 3.23435L41.3902 1.29373C40.2934 0.196851 38.5215 0.196851 37.434 1.29373C36.3371 2.3906 36.3371 4.16248 37.434 5.25935L39.3652 7.1906C40.4621 8.28748 42.234 8.28748 43.3309 7.1906C44.4184 6.09373 44.4184 4.32185 43.3309 3.23435Z" fill="#E25D55"/>
<path d="M30.9844 3.83667L44.1545 17.0068L41.9672 19.194L28.7971 6.02395L30.9844 3.83667Z" fill="#DB3429"/>
<path d="M30.9883 3.83569L40.0025 12.8499L37.8152 15.0372L28.801 6.02297L30.9883 3.83569Z" fill="#E25D55"/>
<path d="M39.2246 2.78455L39.8874 3.44736L35.2477 8.08705L34.5849 7.42423L39.2246 2.78455Z" fill="#B3271E"/>
<path d="M41.0059 4.56543L41.6687 5.22824L37.029 9.86793L36.3662 9.20512L41.0059 4.56543Z" fill="#B3271E"/>
<path d="M42.7871 6.34644L43.4499 7.00925L38.8102 11.6489L38.1474 10.9861L42.7871 6.34644Z" fill="#B3271E"/>
<path d="M44.5488 8.14038L45.2116 8.80319L40.5852 13.4296L39.9224 12.7668L44.5488 8.14038Z" fill="#B3271E"/>
<path d="M25 13.7147L29.6397 18.3544L10.332 37.6621L5.69227 33.0225L25 13.7147Z" fill="#F3AB7D"/>
<path d="M25 13.7175L27.6115 16.329L8.30375 35.6367L5.69227 33.0253L25 13.7175Z" fill="#F7C9AB"/>
</g>
<defs>
<clipPath id="clip0_1516_507">
<rect width="48" height="48" fill="white"/>
</clipPath>
</defs>
</svg>
