<svg width="16" height="14" viewBox="0 0 16 14" fill="none" xmlns="http://www.w3.org/2000/svg">
<path d="M0.533333 13.9995C0.492667 13.9995 0.4516 13.9948 0.410933 13.9854C0.170267 13.9275 0 13.7108 0 13.4611C0 8.56822 0.613067 4.49891 8 4.31382V0.538376C8 0.324344 8.12547 0.130907 8.31933 0.0451597C8.51253 -0.0400493 8.73907 -0.00316586 8.89533 0.143022L15.8287 6.60437C15.938 6.70573 16 6.84936 16 6.99972C16 7.15008 15.938 7.29372 15.8287 7.39521L8.89533 13.8566C8.7396 14.0027 8.51307 14.0406 8.31933 13.9544C8.12547 13.8685 8 13.6751 8 13.4611V9.69828C2.9328 9.82077 1.99787 11.708 1.0104 13.7019C0.9188 13.8875 0.731733 13.9995 0.533333 13.9995ZM8.53333 8.61506C8.82813 8.61506 9.06667 8.85588 9.06667 9.15351V12.2311L14.6803 6.99972L9.06667 1.76832V4.84594C9.06667 5.14357 8.82813 5.38439 8.53333 5.38439C2.6416 5.38439 1.37293 7.6849 1.12347 11.3594C2.22813 9.86129 4.11093 8.61506 8.53333 8.61506Z" fill="#6B6F72"/>
</svg>
