<svg width="52" height="52" viewBox="0 0 52 52" fill="none" xmlns="http://www.w3.org/2000/svg">
<path d="M32.0487 41.9187C32.0762 40.9283 32.0945 39.7017 32.0945 38.1893C32.0945 35.4732 32.0358 33.6759 31.9718 32.5201C31.9047 31.3156 31.1985 30.3152 30.0107 30.1027C29.1162 29.9427 27.8241 29.8086 25.9994 29.8086C24.1754 29.8086 22.8833 29.9419 21.9881 30.1027C20.8003 30.3152 20.094 31.3148 20.027 32.5201C19.963 33.6759 19.9043 35.4724 19.9043 38.1893C19.9043 39.7009 19.9226 40.9283 19.95 41.9187" stroke="#008B38" stroke-width="2.2" stroke-linecap="round" stroke-linejoin="round"/>
<path d="M12.3542 12.9835C12.87 11.6091 14.0479 10.6141 15.5077 10.4526C17.4581 10.2369 20.7845 10 25.9996 10C31.2147 10 34.5403 10.2362 36.4915 10.4526C37.9513 10.6148 39.1291 11.6091 39.6442 12.9835C41.9992 19.2668 41.9992 21.2271 41.9992 21.2271C41.9999 21.7531 41.897 22.2741 41.6963 22.7603C41.4957 23.2465 41.2013 23.6884 40.8298 24.0608C40.4584 24.4332 40.0173 24.7288 39.5316 24.9308C39.0459 25.1327 38.5252 25.237 37.9993 25.2377C35.7898 25.2377 33.9994 23.4427 33.9994 21.2279C34.0006 22.29 33.5799 23.3091 32.8298 24.0611C32.0797 24.813 31.0616 25.2363 29.9995 25.2377C27.79 25.2377 25.9996 23.4427 25.9996 21.2279C26.0008 22.29 25.5801 23.3091 24.83 24.0611C24.0799 24.813 23.0618 25.2363 21.9997 25.2377C19.7902 25.2377 17.9998 23.4427 17.9998 21.2279C18.001 22.29 17.5803 23.3091 16.8302 24.0611C16.0801 24.813 15.062 25.2363 13.9999 25.2377C11.7904 25.2377 10 23.4427 10 21.2279C10 21.2279 10 19.266 12.3542 12.9835Z" stroke="#008B38" stroke-width="2.2" stroke-linecap="round" stroke-linejoin="round"/>
<path d="M11.5244 24.377V30.5711C11.5244 33.9584 11.6608 36.4856 11.8124 38.2471C11.9777 40.1792 13.5007 41.6054 15.4359 41.7235C17.6751 41.8607 21.1379 41.9993 26.0002 41.9993C30.8626 41.9993 34.3253 41.8607 36.5645 41.7235C38.4997 41.6054 40.0227 40.1792 40.1881 38.2471C40.3404 36.4856 40.476 33.9584 40.476 30.5711V24.377" stroke="#008B38" stroke-width="2.2" stroke-linecap="round" stroke-linejoin="round"/>
</svg>
