<svg width="24" height="24" viewBox="0 0 24 24" fill="none" xmlns="http://www.w3.org/2000/svg">
<path d="M15.5918 21.4521C15.6081 20.864 15.619 20.1357 15.619 19.2378C15.619 17.6251 15.5841 16.5579 15.5461 15.8717C15.5063 15.1565 15.087 14.5625 14.3817 14.4363C13.8506 14.3413 13.0834 14.2617 11.9999 14.2617C10.9169 14.2617 10.1497 14.3409 9.61812 14.4363C8.91286 14.5625 8.4935 15.1561 8.45369 15.8717C8.41569 16.5579 8.38086 17.6246 8.38086 19.2378C8.38086 20.1353 8.39172 20.864 8.408 21.4521" stroke="#FFB703" stroke-width="1.75" stroke-linecap="round" stroke-linejoin="round"/>
<path d="M3.89786 4.27148C4.20412 3.4554 4.9035 2.86461 5.77026 2.76871C6.92836 2.64069 8.90345 2.5 12 2.5C15.0965 2.5 17.0712 2.64023 18.2297 2.76871C19.0965 2.86506 19.7959 3.4554 20.1017 4.27148C21.5 8.00216 21.5 9.1661 21.5 9.1661C21.5004 9.4784 21.4393 9.78772 21.3202 10.0764C21.2011 10.3651 21.0262 10.6275 20.8057 10.8486C20.5851 11.0697 20.3232 11.2452 20.0348 11.3651C19.7465 11.485 19.4373 11.547 19.125 11.5474C17.8131 11.5474 16.75 10.4816 16.75 9.16656C16.7507 9.79719 16.5009 10.4023 16.0555 10.8488C15.6101 11.2952 15.0056 11.5465 14.375 11.5474C13.0631 11.5474 12 10.4816 12 9.16656C12.0007 9.79719 11.7509 10.4023 11.3055 10.8488C10.8601 11.2952 10.2556 11.5465 9.625 11.5474C8.31309 11.5474 7.25 10.4816 7.25 9.16656C7.25072 9.79719 7.00092 10.4023 6.55553 10.8488C6.11014 11.2952 5.50565 11.5465 4.875 11.5474C3.56309 11.5474 2.5 10.4816 2.5 9.16656C2.5 9.16656 2.5 8.00171 3.89786 4.27148Z" stroke="#FFB703" stroke-width="1.75" stroke-linecap="round" stroke-linejoin="round"/>
<path d="M3.40527 11.0371V14.7149C3.40527 16.7261 3.48625 18.2266 3.57627 19.2725C3.67444 20.4197 4.57875 21.2665 5.7278 21.3366C7.05734 21.4181 9.11342 21.5004 12.0005 21.5004C14.8876 21.5004 16.9437 21.4181 18.2732 21.3366C19.4223 21.2665 20.3266 20.4197 20.4247 19.2725C20.5152 18.2266 20.5957 16.7261 20.5957 14.7149V11.0371" stroke="#FFB703" stroke-width="1.75" stroke-linecap="round" stroke-linejoin="round"/>
</svg>
