<svg width="24" height="24" viewBox="0 0 24 24" fill="none" xmlns="http://www.w3.org/2000/svg">
<path d="M1 11.9999C1 12.6946 1.27593 13.3607 1.7671 13.8519C2.25827 14.3431 2.92443 14.619 3.61905 14.619C4.31366 14.619 4.97982 14.3431 5.47099 13.8519C5.96216 13.3607 6.23809 12.6946 6.23809 11.9999C6.23809 11.3053 5.96216 10.6391 5.47099 10.148C4.97982 9.6568 4.31366 9.38086 3.61905 9.38086C2.92443 9.38086 2.25827 9.6568 1.7671 10.148C1.27593 10.6391 1 11.3053 1 11.9999Z" stroke="#6C00F0" stroke-width="1.75" stroke-linejoin="round"/>
<path d="M17.7617 11.9999C17.7617 12.6946 18.0377 13.3607 18.5288 13.8519C19.02 14.3431 19.6862 14.619 20.3808 14.619C21.0754 14.619 21.7415 14.3431 22.2327 13.8519C22.7239 13.3607 22.9998 12.6946 22.9998 11.9999C22.9998 11.3053 22.7239 10.6391 22.2327 10.148C21.7415 9.6568 21.0754 9.38086 20.3808 9.38086C19.6862 9.38086 19.02 9.6568 18.5288 10.148C18.0377 10.6391 17.7617 11.3053 17.7617 11.9999Z" stroke="#6C00F0" stroke-width="1.75" stroke-linejoin="round"/>
<path d="M9.38086 11.9999C9.38086 12.6946 9.65679 13.3607 10.148 13.8519C10.6391 14.3431 11.3053 14.619 11.9999 14.619C12.6945 14.619 13.3607 14.3431 13.8518 13.8519C14.343 13.3607 14.619 12.6946 14.619 11.9999C14.619 11.3053 14.343 10.6391 13.8518 10.148C13.3607 9.6568 12.6945 9.38086 11.9999 9.38086C11.3053 9.38086 10.6391 9.6568 10.148 10.148C9.65679 10.6391 9.38086 11.3053 9.38086 11.9999Z" stroke="#6C00F0" stroke-width="1.75" stroke-linejoin="round"/>
<path d="M17.762 12H14.6191" stroke="#6C00F0" stroke-width="1.75" stroke-linecap="round" stroke-linejoin="round"/>
<path d="M9.38114 12H6.23828" stroke="#6C00F0" stroke-width="1.75" stroke-linecap="round" stroke-linejoin="round"/>
</svg>
