<svg width="60" height="60" viewBox="0 0 60 60" fill="none" xmlns="http://www.w3.org/2000/svg">
<path d="M50.7297 28.9433L43.4812 36.0216L45.2469 45.9513C45.6545 48.2447 44.1121 50.4319 41.8019 50.8366C40.8787 50.9983 39.9275 50.8523 39.0967 50.4213L30.0825 45.7668L21.1106 50.5052C20.4957 50.8266 19.8118 50.9963 19.1169 51C16.7695 50.999 14.8675 49.1091 14.8685 46.7789C14.8686 46.5465 14.8881 46.3146 14.9266 46.0855L16.5993 36.139L9.30018 29.1278C7.61155 27.5132 7.56117 24.8454 9.18765 23.169C9.83862 22.4981 10.6952 22.0602 11.6234 21.9238L21.6682 20.431L26.1204 11.3651C26.8279 9.92002 28.3035 9.002 29.922 9.00007H29.9389C31.5513 8.99052 33.0276 9.89588 33.7406 11.3315L38.2772 20.3555L48.3389 21.7644C50.6607 22.0845 52.2815 24.2124 51.9591 26.5173C51.8303 27.4385 51.398 28.2915 50.7297 28.9433Z" fill="#FFB703"/>
</svg>
