<svg width="44" height="18" viewBox="0 0 44 18" fill="none" xmlns="http://www.w3.org/2000/svg">
<path fill-rule="evenodd" clip-rule="evenodd" d="M43.2574 9.30056C43.2574 6.22455 41.7675 3.79736 38.9197 3.79736C36.0599 3.79736 34.3296 6.22455 34.3296 9.27657C34.3296 12.8933 36.3723 14.7197 39.3042 14.7197C40.7341 14.7197 41.8156 14.3953 42.6326 13.9387V11.5355C41.8155 11.944 40.8783 12.1964 39.6887 12.1964C38.5231 12.1964 37.4897 11.7878 37.3576 10.3699H43.2334C43.2334 10.2137 43.2574 9.5889 43.2574 9.30056ZM37.3216 8.15903C37.3216 6.80123 38.1507 6.23646 38.9077 6.23646C39.6407 6.23646 40.4217 6.80123 40.4217 8.15903H37.3216Z" fill="#635BFF"/>
<path fill-rule="evenodd" clip-rule="evenodd" d="M29.6915 3.79736C28.514 3.79736 27.7569 4.35005 27.3363 4.73461L27.1801 3.98965H24.5366V18.0001L27.5406 17.3632L27.5526 13.9628C27.9852 14.2752 28.622 14.7198 29.6794 14.7198C31.8303 14.7198 33.7889 12.9895 33.7889 9.18051C33.777 5.69586 31.7943 3.79736 29.6915 3.79736ZM28.9705 12.0762C28.2615 12.0762 27.841 11.8239 27.5526 11.5115L27.5406 7.05358C27.853 6.70508 28.2856 6.46482 28.9705 6.46482C30.064 6.46482 30.821 7.69041 30.821 9.26449C30.8211 10.8746 30.076 12.0762 28.9705 12.0762Z" fill="#635BFF"/>
<path fill-rule="evenodd" clip-rule="evenodd" d="M20.4031 3.08801L23.4191 2.43918V0L20.4031 0.636831V3.08801Z" fill="#635BFF"/>
<path d="M23.4191 4.00098H20.4031V14.5147H23.4191V4.00098Z" fill="#635BFF"/>
<path fill-rule="evenodd" clip-rule="evenodd" d="M17.1708 4.89029L16.9785 4.00111H14.3831V14.5149H17.3871V7.38954C18.096 6.46428 19.2976 6.63257 19.6701 6.7647V4.00111C19.2856 3.85698 17.8797 3.59264 17.1708 4.89029Z" fill="#635BFF"/>
<path fill-rule="evenodd" clip-rule="evenodd" d="M11.1629 1.39404L8.23099 2.01888L8.21899 11.6435C8.21899 13.4218 9.55274 14.7316 11.3311 14.7316C12.3165 14.7316 13.0374 14.5513 13.4339 14.335V11.8958C13.0495 12.052 11.1509 12.6047 11.1509 10.8264V6.56083H13.4339V4.00151H11.1509L11.1629 1.39404Z" fill="#635BFF"/>
<path fill-rule="evenodd" clip-rule="evenodd" d="M3.04007 7.05358C3.04007 6.58495 3.42456 6.40475 4.0614 6.40475C4.97459 6.40475 6.12813 6.68109 7.04141 7.17379V4.35005C6.04407 3.95357 5.05874 3.79736 4.0614 3.79736C1.62218 3.79736 0 5.07102 0 7.19779C0 10.5142 4.56611 9.98546 4.56611 11.4153C4.56611 11.9681 4.08548 12.1483 3.41256 12.1483C2.41523 12.1483 1.14155 11.7397 0.132218 11.1871V14.0468C1.24969 14.5274 2.37924 14.7317 3.41256 14.7317C5.91186 14.7317 7.63018 13.494 7.63018 11.3433C7.61818 7.76255 3.04007 8.39938 3.04007 7.05358Z" fill="#635BFF"/>
</svg>
