<svg width="48" height="48" viewBox="0 0 48 48" fill="none" xmlns="http://www.w3.org/2000/svg">
<path d="M5.1001 20.6751C5.1001 13.96 5.1001 10.6026 5.89289 9.47306C6.68566 8.34353 9.84257 7.26292 16.1564 5.10166L17.3593 4.68991C20.6506 3.5633 22.2962 3 24.0001 3C25.704 3 27.3496 3.5633 30.6409 4.68991L31.8438 5.10166C38.1577 7.26292 41.3146 8.34353 42.1073 9.47306C42.9001 10.6026 42.9001 13.96 42.9001 20.6751V23.9819C42.9001 35.8217 33.9982 41.5675 28.413 44.0073C26.8981 44.669 26.1406 45 24.0001 45C21.8596 45 21.1021 44.669 19.5871 44.0073C14.0019 41.5675 5.1001 35.8217 5.1001 23.9819V20.6751Z" stroke="#1E3862" stroke-width="2.5"/>
<path d="M18.75 24.8408L21.7501 28.2008L29.25 19.8008" stroke="#1E3862" stroke-width="2.5" stroke-linecap="round" stroke-linejoin="round"/>
</svg>
