<svg width="36" height="36" viewBox="0 0 36 36" fill="none" xmlns="http://www.w3.org/2000/svg">
<path d="M18 2.10938C21.6665 2.11085 25.2197 3.37982 28.0576 5.70128C30.8955 8.02273 32.8436 11.2539 33.5718 14.8473C34.3 18.4407 33.7635 22.1754 32.0532 25.4185C30.343 28.6617 27.5641 31.2138 24.1875 32.6426C20.304 34.2836 15.9278 34.3147 12.0214 32.7291C8.11496 31.1435 4.99845 28.071 3.35742 24.1875C1.7164 20.304 1.68528 15.9278 3.27091 12.0214C4.85655 8.11496 7.92905 4.99845 11.8125 3.35742C13.7699 2.52907 15.8745 2.10457 18 2.10938ZM18 0C8.05922 0 0 8.05922 0 18C0 27.9408 8.05922 36 18 36C27.9408 36 36 27.9408 36 18C36 8.05922 27.9408 0 18 0Z" fill="#1192E8"/>
<path d="M19.3338 16.7595L25.2349 9.8999H23.8365L18.7126 15.856L14.6201 9.8999H9.8999L16.0885 18.9066L9.8999 26.0999H11.2984L16.7094 19.8101L21.0314 26.0999H25.7516L19.3335 16.7595H19.3338ZM17.4184 18.9859L16.7914 18.0891L11.8022 10.9526H13.9502L17.9765 16.712L18.6035 17.6088L23.8372 25.095H21.6893L17.4184 18.9863V18.9859Z" fill="#1192E8"/>
</svg>
