<svg width="36" height="36" viewBox="0 0 36 36" fill="none" xmlns="http://www.w3.org/2000/svg">
<path d="M24.4324 12.8143C18.6065 12.8143 13.8649 17.6794 13.8649 23.6571C13.8649 29.6349 18.6065 34.5 24.4324 34.5C30.2584 34.5 35 29.6349 35 23.6571C35 17.6794 30.2584 12.8143 24.4324 12.8143ZM28.8726 22.9481L23.3591 26.7195C23.1257 26.8779 22.8592 26.9571 22.5946 26.9571C22.2381 26.9571 21.8852 26.8157 21.6187 26.5423L19.7809 24.6566C19.2424 24.1041 19.2424 23.2083 19.7809 22.6558C20.3194 22.1033 21.1923 22.1033 21.7308 22.6558L22.7692 23.7213L27.3417 20.5929C27.9739 20.1573 28.8304 20.3345 29.2531 20.9851C29.6758 21.6357 29.5049 22.5125 28.8708 22.9462L28.8726 22.9481ZM12.9459 1.5V6.68571C12.9459 6.94971 13.1481 7.15714 13.4054 7.15714H18.9189C19.1762 7.15714 19.3784 6.94971 19.3784 6.68571V1.5H12.9459ZM26.2703 1.5H22.1351V6.68571C22.1351 8.496 20.6832 9.98571 18.9189 9.98571H13.4054C11.6411 9.98571 10.1892 8.496 10.1892 6.68571V1.5H6.05405C3.26054 1.5 1 3.81943 1 6.68571V29.3143C1 32.1806 3.26054 34.5 6.05405 34.5H16.3459C13.1665 32.0109 11.1081 28.0697 11.1081 23.6571C11.1081 16.1143 17.0811 9.98571 24.4324 9.98571C26.9686 9.98571 29.3211 10.7023 31.3243 11.9846V6.68571C31.3243 3.81943 29.0638 1.5 26.2703 1.5Z" fill="#1192E8"/>
</svg>
