<svg width="36" height="36" viewBox="0 0 36 36" fill="none" xmlns="http://www.w3.org/2000/svg">
<path d="M34.2683 21.6716C34.1161 22.0603 33.8761 22.4085 33.5671 22.6891L33.5258 22.7304C32.9933 23.2295 32.2895 23.5051 31.5596 23.5004H27.6272C27.3934 23.5 27.1759 23.3809 27.0497 23.1841L26.3897 22.1254L23.6123 17.6842C23.5044 17.5273 23.4741 17.3299 23.5298 17.1479C23.572 16.9609 23.6921 16.8008 23.8598 16.7079L30.0472 13.2705C30.3819 13.0945 30.796 13.2162 30.9822 13.5455L34.1721 19.2379C34.5705 19.9928 34.6059 20.8876 34.2683 21.6716Z" fill="#4CAF50"/>
<path d="M19.4599 7.12419L18.8824 7.93545L15.8162 12.2116C15.6874 12.395 15.4765 12.503 15.2525 12.5004C15.1375 12.4992 15.0245 12.4709 14.9225 12.4179L7.36011 8.29297C7.18422 8.19977 7.05847 8.03374 7.01638 7.83922C6.97294 7.64226 7.01819 7.43614 7.14013 7.27546L10.0826 3.35678C10.1999 3.19655 10.3286 3.04496 10.4675 2.90303C11.2959 2.02926 12.44 1.52408 13.6437 1.50056C13.7082 1.4983 13.7728 1.50288 13.8362 1.51429C15.307 1.55863 16.6694 2.29854 17.5074 3.50798L19.4599 6.34046C19.6233 6.57616 19.6233 6.88856 19.4599 7.12419Z" fill="#4CAF50"/>
<path d="M15.0324 20.5716C14.8231 20.7638 14.5171 20.8076 14.2624 20.6816L12.1174 19.6091L10.8662 22.1253L10.3712 23.1153C10.2526 23.3487 10.0143 23.497 9.75245 23.5003H4.44509C3.70782 23.5092 2.99659 23.2276 2.46512 22.7165L2.4376 22.689C2.12095 22.3984 1.8721 22.0417 1.70884 21.6441C1.49783 21.1061 1.45 20.5178 1.57137 19.9528C1.62486 19.7099 1.70794 19.4743 1.81886 19.2516L4.1013 14.7005L1.70884 12.2942C1.50498 12.1045 1.4442 11.8061 1.55757 11.5517C1.66302 11.295 1.91251 11.1268 2.19004 11.1255H11.1274C11.4049 11.1268 11.6544 11.295 11.7599 11.5517L15.1973 19.8016C15.3041 20.068 15.2389 20.3724 15.0324 20.5716Z" fill="#4CAF50"/>
<path d="M15.2525 22.8125V31.0624C15.2525 31.442 14.9447 31.7499 14.565 31.7499H11.2238C9.64585 31.7535 8.16835 30.9762 7.27762 29.6737C7.0851 29.3987 6.92011 29.1512 6.7689 28.9312L6.71392 28.8762C6.72765 28.8762 6.4527 28.4912 6.19141 28.1062C6.06766 27.9412 5.97144 27.7762 5.87514 27.6525C5.51763 27.13 5.32518 26.8687 5.40767 26.9787C5.3389 26.8687 5.2702 26.7862 5.24268 26.7313L5.22895 26.7175C5.17397 26.635 5.15605 26.6075 5.15335 26.6007L5.13272 26.58L5.11899 26.5525C4.15653 25.1638 3.26278 23.8713 2.46531 22.7163L2.43779 22.6888C2.17657 22.3313 1.9428 21.9739 1.70903 21.6439C1.49801 21.1059 1.45019 20.5176 1.57155 19.9526L3.42777 21.7264C3.69957 21.9905 4.0663 22.1343 4.44528 22.1251H14.5651C14.9447 22.1251 15.2525 22.4328 15.2525 22.8125Z" fill="#388E3C"/>
<path d="M30.3223 5.19917L26.8849 13.449C26.7794 13.7057 26.5299 13.8739 26.2524 13.8753C26.2107 13.8775 26.1689 13.8729 26.1287 13.8615L18.5663 12.4866C18.2779 12.4276 18.0546 12.1988 18.0025 11.9091C17.9614 11.6123 18.1171 11.3231 18.3875 11.1941L20.4225 10.1766L18.8825 7.93542L16.38 4.27796C15.7751 3.41856 14.791 2.90597 13.7401 2.903H10.4677C11.1476 2.18327 12.047 1.70935 13.0251 1.55551L13.6438 1.51426H13.8364L22.7187 1.50053C23.872 1.49499 24.9512 2.06816 25.5924 3.02675L27.1736 5.41921L29.3874 4.31921C29.6421 4.19321 29.9481 4.2369 30.1574 4.42923C30.3641 4.62826 30.4294 4.93292 30.3223 5.19917Z" fill="#388E3C"/>
<path d="M34.2685 21.6716L33.6222 22.6066L33.5673 22.6891L33.526 22.7303L28.7411 29.6739C27.8447 30.9772 26.3629 31.7541 24.7812 31.7501H23.5024V33.8126C23.5002 34.0973 23.3265 34.3525 23.0624 34.4589C22.9827 34.4859 22.8991 34.4999 22.8149 34.5001C22.619 34.5015 22.4327 34.4159 22.3062 34.2663L16.8063 28.0789C16.5881 27.8421 16.5708 27.4832 16.7651 27.2264L22.265 19.6641C22.4336 19.422 22.7391 19.3165 23.0212 19.4029C23.3091 19.4934 23.5042 19.7611 23.5024 20.0629V22.1253H31.5598C31.9387 22.1345 32.3054 21.9908 32.5773 21.7266L34.4335 19.9528C34.5602 20.5288 34.5025 21.1302 34.2685 21.6716Z" fill="#388E3C"/>
</svg>
