<svg width="60" height="60" viewBox="0 0 60 60" fill="none" xmlns="http://www.w3.org/2000/svg">
<path d="M51.0237 27.2287L48.0315 23.7536C47.4595 23.0937 46.9974 21.862 46.9974 20.9822V17.2432C46.9974 14.9118 45.0833 12.9982 42.7512 12.9982H39.011C38.1529 12.9982 36.8988 12.5364 36.2388 11.9645L32.7626 8.97326C31.2445 7.67558 28.7583 7.67558 27.2182 8.97326L23.7639 11.9865C23.1039 12.5364 21.8498 12.9982 20.9918 12.9982H17.1856C14.8534 12.9982 12.9393 14.9118 12.9393 17.2432V21.0042C12.9393 21.862 12.4773 23.0937 11.9272 23.7536L8.95706 27.2507C7.68098 28.7683 7.68098 31.2317 8.95706 32.7493L11.9272 36.2464C12.4773 36.9063 12.9393 38.138 12.9393 38.9958V42.7568C12.9393 45.0882 14.8534 47.0018 17.1856 47.0018H20.9918C21.8498 47.0018 23.1039 47.4636 23.7639 48.0355L27.2402 51.0267C28.7583 52.3244 31.2445 52.3244 32.7846 51.0267L36.2608 48.0355C36.9208 47.4636 38.1529 47.0018 39.033 47.0018H42.7732C45.1053 47.0018 47.0194 45.0882 47.0194 42.7568V39.0178C47.0194 38.16 47.4815 36.9063 48.0535 36.2464L51.0457 32.7713C52.3218 31.2537 52.3218 28.7463 51.0237 27.2287ZM39.143 25.8431L28.5163 36.4664C28.2083 36.7743 27.7903 36.9503 27.3503 36.9503C26.9102 36.9503 26.4922 36.7743 26.1842 36.4664L20.8598 31.1437C20.2217 30.5059 20.2217 29.4501 20.8598 28.8123C21.4978 28.1745 22.5539 28.1745 23.1919 28.8123L27.3503 32.9693L36.8108 23.5116C37.4489 22.8738 38.5049 22.8738 39.143 23.5116C39.781 24.1495 39.781 25.2052 39.143 25.8431Z" fill="#008B38"/>
</svg>
