<svg width="36" height="36" viewBox="0 0 36 36" fill="none" xmlns="http://www.w3.org/2000/svg">
<path d="M25.8573 8.55176C26.2858 9.47482 26.6053 10.4447 26.8093 11.4417C28.3589 12.2832 29.6908 13.4746 30.6989 14.9213C31.7071 16.368 32.3638 18.03 32.6168 19.7751C32.8698 21.5202 32.712 23.3002 32.1561 24.9737C31.6003 26.6471 30.6616 28.1677 29.4147 29.4146C28.1678 30.6615 26.6472 31.6002 24.9738 32.1561C23.3004 32.7119 21.5204 32.8697 19.7753 32.6167C18.0302 32.3637 16.3682 31.707 14.9215 30.6988C13.4748 29.6907 12.2834 28.3588 11.4419 26.8092C10.4449 26.6052 9.47506 26.2857 8.552 25.8572C9.30713 28.0341 10.603 29.9834 12.3179 31.5223C14.0329 33.0611 16.1107 34.139 18.3563 34.6548C20.602 35.1705 22.9419 35.1072 25.1564 34.4709C27.3709 33.8345 29.3874 32.6459 31.0167 31.0166C32.646 29.3873 33.8346 27.3708 34.4709 25.1563C35.1073 22.9417 35.1706 20.6018 34.6548 18.3562C34.1391 16.1105 33.0612 14.0327 31.5224 12.3177C29.9836 10.6027 28.0342 9.30689 25.8573 8.55176Z" fill="#1192E8"/>
<path d="M21.4035 7.80379C22.9196 7.80034 24.4255 8.05323 25.8573 8.55177C24.9751 6.64862 23.6466 4.98653 21.9845 3.70672C20.3225 2.4269 18.3761 1.56717 16.3108 1.20057C14.2454 0.833974 12.122 0.971335 10.1211 1.60099C8.12014 2.23064 6.30075 3.33397 4.81748 4.81726C3.3342 6.30054 2.23087 8.11994 1.60123 10.1209C0.971579 12.1218 0.834219 14.2452 1.20082 16.3106C1.56741 18.376 2.42714 20.3224 3.70694 21.9844C4.98675 23.6465 6.64882 24.975 8.55196 25.8572C8.05343 24.4254 7.80054 22.9195 7.80399 21.4034C7.80399 17.7965 9.23679 14.3374 11.7872 11.787C14.3376 9.2366 17.7967 7.80379 21.4035 7.80379Z" fill="#1192E8"/>
<path d="M10.0706 21.4034C10.0702 23.2915 10.5416 25.1497 11.4418 26.8092C13.5511 27.2379 15.7338 27.1375 17.7948 26.517C19.8559 25.8964 21.7311 24.7751 23.2531 23.2531C24.7751 21.7311 25.8965 19.8558 26.517 17.7948C27.1375 15.7337 27.2379 13.551 26.8093 11.4417C25.083 10.5048 23.1429 10.0327 21.1791 10.0716C19.2154 10.1104 17.2955 10.659 15.6077 11.6635C13.9198 12.668 12.522 14.0939 11.5513 15.8013C10.5806 17.5088 10.0704 19.4393 10.0706 21.4034Z" fill="#1192E8"/>
</svg>
