<svg width="36" height="36" viewBox="0 0 36 36" fill="none" xmlns="http://www.w3.org/2000/svg">
<path d="M2.09857 22.2847C2.06055 22.2847 2.024 22.2838 1.98894 22.2822C1.71579 22.2698 1.5 22.0467 1.5 21.7733V21.7709C1.5 21.4937 1.72185 21.2712 1.99893 21.2618C2.47221 21.2457 3.2011 21.0741 3.81985 20.2983C3.85452 20.2549 3.88611 20.2115 3.91492 20.1684C2.86782 19.9435 2.23689 19.5857 1.99145 19.08C1.84598 18.7803 1.77025 18.294 2.23521 17.6797C2.5558 17.256 3.01799 17.0498 3.50351 17.1148C4.11968 17.197 4.70047 17.7043 4.98322 18.4071C5.11142 18.7257 5.17026 19.0541 5.16175 19.3795C5.45547 19.4099 5.75408 19.4291 6.04263 19.4354C6.30901 19.4412 6.53666 19.6502 6.53988 19.9167C6.54324 20.1933 6.31939 20.4143 6.04321 20.4105C6.01762 20.4099 5.54667 20.4 4.93785 20.3312C4.84652 20.5305 4.72773 20.7233 4.582 20.906C3.65852 22.0639 2.6974 22.2847 2.09857 22.2847ZM3.3255 18.0774C3.24222 18.0774 3.13201 18.1097 3.01238 18.2677C2.93691 18.3675 2.81787 18.5503 2.86833 18.6543C2.98209 18.889 3.50629 19.0905 4.18085 19.2305C4.16892 19.0294 4.11807 18.8682 4.07888 18.7708C3.91253 18.3574 3.59865 18.1109 3.37454 18.0809C3.35953 18.0789 3.34309 18.0774 3.3255 18.0774Z" fill="#194183"/>
<path d="M33.5593 19.4996L32.1877 19.0602C31.8595 18.9551 31.6046 18.696 31.5012 18.3672C29.9227 13.348 24.0615 11.043 18.1618 11.043C11.2595 11.043 5.66406 14.1971 5.66406 21.1625C5.66406 25.1769 7.63303 27.9887 10.6751 29.6126C10.7499 29.6525 10.8031 29.7235 10.8192 29.8068L11.5007 33.3467C11.5638 33.6802 11.8553 33.9216 12.1947 33.9216H14.4961C14.8355 33.9216 15.1269 33.6802 15.1901 33.3467L15.5626 31.3786C15.59 31.2334 15.7254 31.1355 15.8722 31.1526C16.6145 31.2388 17.3797 31.282 18.1618 31.282C19.2071 31.282 20.2512 31.2048 21.2706 31.0508C21.4204 31.0282 21.5615 31.1266 21.5898 31.2755L21.9818 33.3467C22.0449 33.6802 22.3364 33.9216 22.6758 33.9216H24.9772C25.3166 33.9216 25.608 33.6802 25.6712 33.3467L26.3791 29.5987C26.395 29.514 26.4494 29.4419 26.5259 29.4022C28.3324 28.4629 29.827 27.1707 30.7801 25.5234C30.9072 25.3039 31.108 25.1365 31.3496 25.0592L33.5595 24.3513C34.1198 24.1719 34.4999 23.651 34.4999 23.0627V20.7882C34.4997 20.2 34.1196 19.6791 33.5593 19.4996Z" fill="#1E3862"/>
<path d="M34.3275 20.1293C34.2679 20.0225 34.1946 19.9238 34.1085 19.8367C34.1067 19.8349 34.1051 19.8328 34.1032 19.831C33.9543 19.6821 33.7695 19.5668 33.5595 19.4995L32.5426 19.1738V20.37C32.5426 21.8561 31.5957 23.177 30.1884 23.6543C29.5485 23.8592 28.9951 24.2648 28.5897 24.8007C28.0932 25.4569 27.5032 26.0467 26.8384 26.57C26.0546 27.187 25.5259 28.0701 25.3747 29.056C25.267 29.7592 25.1835 30.5093 25.1303 31.0409C25.0894 31.4498 24.7456 31.7612 24.3347 31.7612H22.6758C22.3364 31.7612 22.045 31.5198 21.9818 31.1863L21.5898 29.115C21.5616 28.9662 21.4204 28.8677 21.2707 28.8903C20.2513 29.0444 19.2073 29.1216 18.1618 29.1216C17.3797 29.1216 16.6145 29.0783 15.8722 28.9922C15.7254 28.9752 15.5901 29.073 15.5626 29.2182L15.1901 31.1863C15.127 31.5198 14.8355 31.7613 14.4961 31.7613H12.1947C11.8553 31.7613 11.5639 31.5198 11.5007 31.1863L10.8192 27.6464C10.8031 27.5631 10.7499 27.4922 10.6751 27.4522C7.91076 25.9765 6.03293 23.5197 5.71298 20.0713C5.71298 20.0713 5.71298 20.0714 5.71298 20.0715C5.70538 20.1561 5.69867 20.2414 5.69281 20.3272C5.69268 20.3289 5.69261 20.3306 5.69249 20.3323C5.69191 20.3407 5.69139 20.3493 5.69087 20.3578C5.68578 20.4349 5.68134 20.5126 5.67766 20.5907C5.67618 20.6231 5.67515 20.6559 5.67392 20.6885C5.6716 20.7481 5.66928 20.8076 5.6678 20.8678C5.66554 20.9654 5.66406 21.0635 5.66406 21.1626C5.66406 21.6644 5.69481 22.1474 5.75462 22.6117C5.82784 23.1805 5.94508 23.7207 6.10221 24.2332C6.11078 24.2613 6.11974 24.2891 6.12857 24.3169C6.15042 24.3858 6.17311 24.4545 6.19657 24.5229C6.20592 24.5502 6.2152 24.5775 6.2248 24.6046C6.28945 24.7871 6.35938 24.9658 6.43447 25.1407C6.44246 25.1593 6.45039 25.1779 6.45844 25.1964C6.49544 25.281 6.53353 25.3649 6.57298 25.4478C6.57948 25.4615 6.58632 25.4751 6.59289 25.4887C6.62963 25.565 6.66759 25.6406 6.70652 25.7158C6.71322 25.7287 6.71973 25.7418 6.72644 25.7546C6.76885 25.8353 6.81255 25.9151 6.85728 25.994C6.86701 26.0112 6.87687 26.0283 6.88667 26.0453C7.03149 26.2969 7.18811 26.5394 7.35595 26.7728C7.372 26.7951 7.38837 26.8172 7.40461 26.8393C7.44534 26.8948 7.48672 26.9499 7.52875 27.0044C7.54531 27.0259 7.56174 27.0474 7.57844 27.0686C7.63529 27.1409 7.69284 27.2126 7.75188 27.283C7.7524 27.2836 7.75298 27.2842 7.75349 27.2849C7.8126 27.3553 7.87318 27.4246 7.93448 27.4931C7.95304 27.514 7.97199 27.5344 7.99074 27.5551C8.0365 27.6053 8.08291 27.6551 8.12983 27.7043C8.14878 27.7241 8.1676 27.7441 8.18674 27.7638C8.251 27.83 8.31604 27.8955 8.38242 27.9598C8.38255 27.96 8.38274 27.9602 8.38287 27.9603C8.45687 28.032 8.53215 28.1025 8.60872 28.1718C8.76179 28.3105 8.91996 28.4445 9.08296 28.5739C9.24596 28.7032 9.41379 28.828 9.58633 28.948C9.67257 29.0081 9.75997 29.0669 9.84853 29.1246C9.92826 29.1766 10.0091 29.2273 10.0907 29.2774C10.1141 29.2918 10.1378 29.3059 10.1614 29.3202C10.223 29.3574 10.2849 29.3939 10.3472 29.4299C10.3719 29.4442 10.3965 29.4586 10.4213 29.4726C10.5052 29.5202 10.5895 29.5671 10.6751 29.6127C10.6938 29.6227 10.7111 29.6346 10.7269 29.6482C10.7411 29.6605 10.7535 29.6744 10.7649 29.689C10.7683 29.6934 10.7712 29.6979 10.7743 29.7025C10.7821 29.7139 10.7891 29.7257 10.7951 29.7382C10.7976 29.7431 10.8001 29.7479 10.8022 29.753C10.8095 29.7704 10.8155 29.7882 10.8191 29.807L11.5006 33.3469C11.5085 33.3886 11.52 33.4288 11.5347 33.4674C11.542 33.4867 11.5501 33.5055 11.559 33.5238C11.5679 33.5422 11.5776 33.5601 11.588 33.5775C11.5984 33.5949 11.6094 33.6118 11.6212 33.6281C11.633 33.6445 11.6455 33.6604 11.6587 33.6756C11.6736 33.693 11.6894 33.7093 11.7059 33.725C11.7111 33.73 11.7166 33.7346 11.7218 33.7394C11.7337 33.7501 11.7458 33.7605 11.7583 33.7703C11.7646 33.7753 11.771 33.7801 11.7775 33.7849C11.7904 33.7943 11.8036 33.8033 11.817 33.8118C11.8231 33.8156 11.8291 33.8196 11.8353 33.8233C11.8548 33.8349 11.8749 33.8458 11.8955 33.8555C11.8959 33.8556 11.8961 33.8557 11.8965 33.8558C11.9171 33.8655 11.9385 33.8739 11.9601 33.8815C11.967 33.8839 11.974 33.8859 11.9809 33.8881C11.9963 33.893 12.012 33.8975 12.0278 33.9013C12.0358 33.9032 12.0439 33.905 12.0519 33.9067C12.068 33.91 12.0842 33.9126 12.1006 33.9148C12.108 33.9159 12.1153 33.917 12.1227 33.9178C12.1463 33.9202 12.1702 33.9217 12.1943 33.9218C12.1944 33.9218 12.1945 33.9218 12.1947 33.9218H14.4961C14.6022 33.9218 14.7035 33.8982 14.7947 33.8556C14.8312 33.8386 14.866 33.8185 14.8989 33.7956C14.9317 33.7728 14.9626 33.7472 14.9912 33.7192C15.0339 33.6772 15.0715 33.6296 15.1027 33.5774C15.1442 33.5079 15.1742 33.4303 15.19 33.3469L15.5625 31.3787C15.5656 31.3624 15.5705 31.3468 15.5762 31.3317C15.5779 31.3272 15.5799 31.323 15.5818 31.3187C15.5866 31.3078 15.5919 31.2975 15.5978 31.2875C15.6002 31.2835 15.6025 31.2795 15.6051 31.2756C15.6138 31.2627 15.6231 31.2502 15.6337 31.239C15.6626 31.2084 15.6986 31.1858 15.7381 31.1706C15.7419 31.1691 15.7456 31.1677 15.7495 31.1664C15.759 31.1633 15.7684 31.1605 15.7783 31.1583C15.7858 31.1566 15.7934 31.1555 15.8011 31.1544C15.8085 31.1534 15.8157 31.1521 15.8232 31.1517C15.8393 31.1508 15.8556 31.1508 15.8721 31.1528C15.9958 31.1671 16.1204 31.1798 16.2453 31.1918C16.2766 31.1948 16.3079 31.1978 16.3392 31.2006C16.4642 31.2119 16.5895 31.2226 16.7156 31.2315C16.7162 31.2316 16.7168 31.2316 16.7175 31.2317C16.8435 31.2406 16.9704 31.248 17.0975 31.2545C17.1296 31.2562 17.1616 31.2578 17.1937 31.2593C17.3214 31.2653 17.4495 31.2705 17.5783 31.2741C17.7716 31.2795 17.9662 31.2822 18.1616 31.2822C18.423 31.2822 18.6842 31.2774 18.9451 31.2678C19.0786 31.2628 19.212 31.2566 19.3453 31.2491C19.3589 31.2483 19.3724 31.2472 19.386 31.2465C19.507 31.2394 19.628 31.2317 19.7487 31.2225C19.7516 31.2223 19.7543 31.222 19.7572 31.2218C20.0219 31.2016 20.2858 31.1765 20.5485 31.1464C20.5493 31.1464 20.5501 31.1463 20.5508 31.1461C20.671 31.1323 20.7908 31.1176 20.9104 31.1018C20.9682 31.0942 21.0258 31.0855 21.0834 31.0774C21.1468 31.0685 21.2105 31.0601 21.2737 31.0505C21.4019 31.0311 21.5229 31.1032 21.5716 31.2181C21.5723 31.2196 21.5733 31.2209 21.5739 31.2224C21.5807 31.2393 21.586 31.2571 21.5896 31.2757L21.7856 32.3113L21.9816 33.3469C22.0447 33.6804 22.3361 33.9218 22.6755 33.9218H24.9769C24.9771 33.9218 24.9772 33.9218 24.9773 33.9218C25.0015 33.9218 25.0253 33.9203 25.0489 33.9178C25.0564 33.9171 25.0636 33.9158 25.071 33.9149C25.0874 33.9127 25.1037 33.9101 25.1197 33.9068C25.1278 33.9051 25.1358 33.9033 25.1437 33.9013C25.1596 33.8975 25.1753 33.893 25.1907 33.8881C25.1976 33.8859 25.2046 33.8839 25.2114 33.8815C25.2332 33.8738 25.2546 33.8654 25.2754 33.8557C25.2755 33.8557 25.2756 33.8556 25.2757 33.8556C25.2964 33.8459 25.3165 33.8349 25.3362 33.8233C25.3424 33.8196 25.3483 33.8156 25.3544 33.8118C25.368 33.8032 25.3812 33.7943 25.3941 33.7848C25.4005 33.7801 25.4068 33.7753 25.4131 33.7704C25.4257 33.7605 25.4378 33.7501 25.4497 33.7394C25.4551 33.7346 25.4605 33.73 25.4657 33.7251C25.4821 33.7093 25.498 33.693 25.5129 33.6757C25.5187 33.6689 25.5239 33.6616 25.5294 33.6546C25.5489 33.6301 25.5673 33.6047 25.5835 33.5775C25.6043 33.5428 25.6221 33.506 25.6368 33.4675C25.6515 33.4289 25.6629 33.3887 25.6708 33.347L25.826 32.5257L25.9872 31.6721L26.0883 31.1368L26.3787 29.5989L26.4048 29.4609C26.4524 29.4373 26.4717 29.4277 26.5194 29.4042C26.5212 29.4047 26.5223 29.4045 26.5232 29.404C26.5241 29.4035 26.5247 29.4028 26.5256 29.4024C26.5808 29.3737 26.6347 29.3436 26.6893 29.3143C26.7464 29.2836 26.8042 29.2535 26.8606 29.2221C26.9096 29.1949 26.9573 29.1663 27.0058 29.1385C27.0667 29.1036 27.1282 29.0692 27.1883 29.0334C27.2378 29.0039 27.286 28.9732 27.3349 28.9431C27.3926 28.9076 27.451 28.8727 27.5078 28.8365C27.5589 28.804 27.6085 28.7701 27.6588 28.7369C27.7123 28.7018 27.7664 28.6671 27.8191 28.6312C27.8689 28.5973 27.9173 28.562 27.9663 28.5273C28.0181 28.4908 28.0706 28.455 28.1217 28.4177C28.1692 28.383 28.2153 28.3469 28.2622 28.3116C28.3133 28.273 28.3651 28.2351 28.4153 28.1958C28.4608 28.1602 28.5048 28.1234 28.5496 28.0871C28.5996 28.0467 28.6504 28.0069 28.6995 27.9657C28.7447 27.9278 28.7884 27.8885 28.8328 27.8499C28.8799 27.8091 28.9278 27.7689 28.974 27.7272C29.0172 27.6884 29.0587 27.6483 29.1011 27.6088C29.147 27.5661 29.1937 27.5239 29.2387 27.4804C29.2798 27.4407 29.3192 27.3996 29.3595 27.3592C29.4041 27.3146 29.4493 27.2707 29.4929 27.2253C29.5325 27.184 29.5705 27.1414 29.6093 27.0995C29.6517 27.0537 29.695 27.0085 29.7364 26.962C29.7742 26.9195 29.8103 26.8757 29.8472 26.8326C29.8878 26.7852 29.9292 26.7384 29.9689 26.6902C30.0049 26.6465 30.0391 26.6014 30.0743 26.5569C30.1129 26.508 30.1524 26.4598 30.19 26.4102C30.2246 26.3646 30.2572 26.3176 30.2909 26.2714C30.3271 26.2215 30.3642 26.1724 30.3994 26.1218C30.4322 26.0745 30.4632 26.0259 30.4951 25.978C30.529 25.9271 30.5639 25.8769 30.5968 25.8252C30.6376 25.761 30.6749 25.6945 30.7157 25.6304C30.7399 25.5924 30.7625 25.5534 30.7852 25.5144C30.9095 25.3005 31.1056 25.1375 31.3413 25.062L31.3493 25.0595H31.3494L32.4768 24.6983L33.5593 24.3516C34.1195 24.1721 34.4996 23.6512 34.4996 23.063V20.7884C34.4996 20.5875 34.4544 20.3948 34.3736 20.2205C34.3594 20.1893 34.344 20.159 34.3275 20.1293Z" fill="#122C56"/>
<path d="M23.5227 12.2711C23.5927 11.9389 23.8225 11.6626 24.1313 11.5213C25.3175 10.9783 28.3396 9.6718 29.1166 10.0788C30.0895 10.5884 29.5798 16.0901 28.0973 16.9298C26.6653 17.741 22.5101 17.077 23.5227 12.2711Z" fill="#122C56"/>
<path d="M28.0275 21.0364C27.1489 21.0364 26.4341 20.3215 26.4341 19.4429C26.4341 19.1737 26.6523 18.9556 26.9214 18.9556C27.1906 18.9556 27.4087 19.1737 27.4087 19.4429C27.4087 19.7841 27.6863 20.0616 28.0275 20.0616C28.3687 20.0616 28.6463 19.7841 28.6463 19.4429C28.6463 19.1737 28.8645 18.9556 29.1336 18.9556C29.4028 18.9556 29.6209 19.1737 29.6209 19.4429C29.6211 20.3215 28.9062 21.0364 28.0275 21.0364Z" fill="white"/>
<path d="M20.8636 15.0977C20.8123 15.0977 20.7602 15.0896 20.709 15.0725C18.0512 14.1839 15.1237 14.1839 12.4659 15.0725C12.2107 15.1577 11.9345 15.0201 11.8493 14.7648C11.7639 14.5095 11.9017 14.2334 12.1569 14.148C15.0141 13.1928 18.161 13.1928 21.0181 14.148C21.2734 14.2334 21.4111 14.5095 21.3258 14.7648C21.2576 14.9688 21.0674 15.0977 20.8636 15.0977Z" fill="white"/>
<path d="M16.5878 14.4066C19.9923 14.4066 22.7521 11.6468 22.7521 8.24239C22.7521 4.83796 19.9923 2.07812 16.5878 2.07812C13.1834 2.07812 10.4236 4.83796 10.4236 8.24239C10.4236 11.6468 13.1834 14.4066 16.5878 14.4066Z" fill="#FFB125"/>
<path d="M28.7041 10.7163C28.0276 10.7163 26.3894 11.2738 24.4289 12.1713C24.3218 12.2203 24.2445 12.3128 24.2222 12.4186C23.9365 13.7745 24.0893 14.8659 24.6642 15.5745C24.7315 15.6573 24.8052 15.7353 24.8846 15.8083C24.9771 15.8932 25.1262 15.8456 25.1569 15.7239C25.8382 13.0253 29.145 10.7163 28.7041 10.7163Z" fill="#1E3862"/>
<path d="M16.448 11.2294C15.3982 11.2124 14.687 10.6452 14.687 10.2304C14.687 10.0271 14.8648 9.74774 15.0764 9.74774C15.3558 9.74774 15.5844 10.3404 16.448 10.4081V8.41853C15.686 8.14763 14.8394 7.84284 14.8394 6.75913C14.8394 5.69237 15.6437 5.26904 16.448 5.18435V4.93885C16.448 4.83727 16.5496 4.74414 16.6936 4.74414C16.8205 4.74414 16.9476 4.83727 16.9476 4.93885V5.16747C17.5233 5.18442 18.3361 5.36218 18.3361 5.77706C18.3361 5.93793 18.2175 6.25962 17.9635 6.25962C17.7604 6.25962 17.5402 5.98872 16.9476 5.94638V7.66501C17.6841 7.93591 18.4884 8.30844 18.4884 9.45989C18.4884 10.5013 17.862 11.0769 16.9476 11.204V11.4918C16.9476 11.5934 16.8206 11.6865 16.6936 11.6865C16.5496 11.6865 16.448 11.5934 16.448 11.4918V11.2294ZM16.4988 7.5042V5.96333C16.0247 6.02256 15.686 6.23422 15.686 6.6745C15.686 7.15706 16.0501 7.33488 16.4988 7.5042ZM16.8967 8.6048V10.3912C17.3539 10.3065 17.6417 10.0356 17.6417 9.55296C17.6417 9.01968 17.3116 8.78262 16.8967 8.6048Z" fill="#DD7219"/>
</svg>
