<svg width="36" height="36" viewBox="0 0 36 36" fill="none" xmlns="http://www.w3.org/2000/svg">
<path d="M28.8637 6.43018L24.0233 7.80304L19.1828 6.43018C19.1828 6.43018 18.6285 10.9613 16.6239 14.2227C15.2317 16.4914 16.3403 19.4563 18.8927 20.2104C20.2269 20.6036 21.9092 20.8678 24.0233 20.8678C26.1373 20.8678 27.8196 20.6036 29.1538 20.2104C31.7062 19.4563 32.8212 16.4914 31.4226 14.2227C29.418 10.9613 28.8637 6.43018 28.8637 6.43018Z" fill="url(#paint0_linear_505_8031)"/>
<path d="M23.5335 7.66759V20.8678C21.6514 20.8291 20.1238 20.5777 18.8992 20.2168C16.3468 19.4627 15.2318 16.4913 16.6304 14.229C18.635 10.9741 19.1893 6.43652 19.1893 6.43652L23.5335 7.66759Z" fill="url(#paint1_linear_505_8031)"/>
<path d="M28.8636 6.43018L24.0231 7.80304L23.9458 7.78371V20.8678C26.1179 20.8743 27.8324 20.6036 29.1859 20.1975C31.7189 19.4434 32.8018 16.4721 31.416 14.2162C29.4179 10.9613 28.8636 6.43018 28.8636 6.43018Z" fill="url(#paint2_linear_505_8031)"/>
<path d="M28.8636 6.43018L24.0231 7.80304L23.9458 7.78371V20.8678C26.1179 20.8743 27.8324 20.6036 29.1859 20.1975C31.7189 19.4434 32.8018 16.4721 31.416 14.2162C29.4179 10.9613 28.8636 6.43018 28.8636 6.43018Z" fill="url(#paint3_linear_505_8031)"/>
<path d="M28.8636 6.43018L24.0231 7.80304L23.9458 7.78371V20.8678C26.1179 20.8743 27.8324 20.6036 29.1859 20.1975C31.7189 19.4434 32.8018 16.4721 31.416 14.2162C29.4179 10.9613 28.8636 6.43018 28.8636 6.43018Z" fill="url(#paint4_linear_505_8031)"/>
<path d="M33.9427 24.252C33.9427 24.4196 33.9362 25.1286 33.9169 25.2897C33.8782 25.6571 33.5559 25.9407 33.1757 25.9407H14.8708C14.4905 25.9407 14.1682 25.6571 14.1295 25.2897C14.1167 25.1222 14.1038 24.4196 14.1038 24.252C14.1038 20.3332 18.5446 17.1621 24.0232 17.1621C29.5018 17.1621 33.9427 20.3397 33.9427 24.252Z" fill="url(#paint5_linear_505_8031)"/>
<path d="M33.9427 24.252C33.9427 24.4196 33.9362 25.1286 33.9169 25.2897C33.8782 25.6571 33.5559 25.9407 33.1757 25.9407H14.8708C14.4905 25.9407 14.1682 25.6571 14.1295 25.2897C14.1167 25.1222 14.1038 24.4196 14.1038 24.252C14.1038 20.3332 18.5446 17.1621 24.0232 17.1621C29.5018 17.1621 33.9427 20.3397 33.9427 24.252Z" fill="url(#paint6_linear_505_8031)"/>
<path d="M24.0232 25.5152L14.3486 26.0502C13.949 26.0502 13.6074 25.7602 13.5688 25.3799C13.5494 25.2123 13.543 24.5033 13.543 24.3293C13.543 21.5255 15.8182 19.0892 19.1569 17.8774C20.0979 19.0763 22.9403 22.8146 24.0232 25.5152Z" fill="url(#paint7_linear_505_8031)"/>
<path d="M24.0232 25.5152L14.3486 26.0502C13.949 26.0502 13.6074 25.7602 13.5688 25.3799C13.5494 25.2123 13.543 24.5033 13.543 24.3293C13.543 21.5255 15.8182 19.0892 19.1569 17.8774C20.0979 19.0763 22.9403 22.8146 24.0232 25.5152Z" fill="url(#paint8_linear_505_8031)"/>
<path d="M24.0232 25.5153L14.3486 26.0503C13.949 26.0503 13.6074 25.7602 13.5688 25.3799C13.5494 25.2124 13.543 24.5034 13.543 24.3293C13.543 23.1563 13.9426 22.0412 14.6516 21.0615H21.4837C22.4634 22.4988 23.4689 24.1424 24.0232 25.5153Z" fill="url(#paint9_linear_505_8031)"/>
<path d="M19.1633 22.2667C19.1633 22.4987 19.3309 22.6792 19.5436 22.6792H19.8208C20.0335 22.6792 20.201 22.8661 20.201 23.0917V23.5236C20.201 23.6911 20.2913 23.8458 20.4395 23.9103L24.0296 25.5152C23.0757 22.9241 20.7682 19.4501 19.5823 17.7549C19.4534 17.568 19.1633 17.6647 19.1633 17.8838V22.2667Z" fill="url(#paint10_linear_505_8031)"/>
<path d="M24.0232 25.5152L33.6977 26.0502C34.0973 26.0502 34.4389 25.7602 34.4776 25.3799C34.497 25.2123 34.5034 24.5033 34.5034 24.3293C34.5034 21.5255 32.2282 19.0892 28.8895 17.8774C27.9484 19.0763 25.106 22.8146 24.0232 25.5152Z" fill="url(#paint11_linear_505_8031)"/>
<path d="M24.0232 25.5152L33.6977 26.0502C34.0973 26.0502 34.4389 25.7602 34.4776 25.3799C34.497 25.2123 34.5034 24.5033 34.5034 24.3293C34.5034 21.5255 32.2282 19.0892 28.8895 17.8774C27.9484 19.0763 25.106 22.8146 24.0232 25.5152Z" fill="url(#paint12_linear_505_8031)"/>
<path d="M24.0232 25.5152L33.6977 26.0502C34.0973 26.0502 34.4389 25.7602 34.4776 25.3799C34.497 25.2123 34.5034 24.5033 34.5034 24.3293C34.5034 21.5255 32.2282 19.0892 28.8895 17.8774C27.9484 19.0763 25.106 22.8146 24.0232 25.5152Z" fill="url(#paint13_linear_505_8031)"/>
<path d="M34.4971 24.3293C34.4971 24.5034 34.4906 25.2124 34.4713 25.3799C34.4326 25.7602 34.0974 26.0503 33.6914 26.0503L24.0168 25.5153C24.5647 24.1424 25.5702 22.4988 26.5499 21.0615H33.382C34.0974 22.0412 34.4971 23.1563 34.4971 24.3293Z" fill="url(#paint14_linear_505_8031)"/>
<path d="M24.1973 25.5215L27.9678 25.7277V19.0825C26.8012 20.6552 25.0932 23.1044 24.1973 25.1025V25.5215Z" fill="url(#paint15_linear_505_8031)"/>
<path d="M28.8831 22.2667C28.8831 22.4987 28.7155 22.6792 28.5028 22.6792H28.2257C28.013 22.6792 27.8454 22.8661 27.8454 23.0917V23.5236C27.8454 23.6911 27.7552 23.8458 27.6069 23.9103L24.0168 25.5152C24.9708 22.9241 27.2782 19.4501 28.4642 17.7549C28.5931 17.568 28.8831 17.6647 28.8831 17.8838V22.2667Z" fill="url(#paint16_linear_505_8031)"/>
<path d="M24.0232 17.1748H20.9939L22.8051 20.1784C23.3594 21.1 24.6936 21.1 25.2479 20.1784L27.059 17.1748H24.0232Z" fill="url(#paint17_linear_505_8031)"/>
<path d="M24.0232 17.1748H20.9939L22.8051 20.1784C23.3594 21.1 24.6936 21.1 25.2479 20.1784L27.059 17.1748H24.0232Z" fill="url(#paint18_linear_505_8031)"/>
<path d="M24.0232 17.1748H20.9939L22.8051 20.1784C23.3594 21.1 24.6936 21.1 25.2479 20.1784L27.059 17.1748H24.0232Z" fill="url(#paint19_linear_505_8031)"/>
<path d="M31.6868 12.0829C31.6868 13.1851 30.7908 14.081 29.6887 14.081C28.5865 14.081 28.5865 10.0913 29.6887 10.0913C30.7908 10.0913 31.6868 10.9808 31.6868 12.0829Z" fill="url(#paint20_linear_505_8031)"/>
<path d="M16.3596 12.0829C16.3596 13.1851 17.2555 14.081 18.3577 14.081C19.4599 14.081 19.4599 10.0913 18.3577 10.0913C17.2555 10.0913 16.3596 10.9808 16.3596 12.0829Z" fill="url(#paint21_linear_505_8031)"/>
<path d="M24.0232 3.80078C27.3039 3.80078 29.9659 6.46273 29.9659 9.74343V12.7792C29.9659 16.0599 27.3039 18.7219 24.0232 18.7219C20.7425 18.7219 18.0806 16.0599 18.0806 12.7792V9.74343C18.0806 6.46273 20.7425 3.80078 24.0232 3.80078Z" fill="url(#paint22_linear_505_8031)"/>
<path d="M18.0806 11.896V12.779C18.0806 16.0597 20.7425 18.7217 24.0232 18.7217C27.3039 18.7217 29.9659 16.0597 29.9659 12.779V11.896H18.0806Z" fill="url(#paint23_linear_505_8031)"/>
<path d="M24.0231 3.80078C23.8426 3.80078 23.6622 3.80723 23.4817 3.82656V18.6961C23.6622 18.709 23.8362 18.7219 24.0231 18.7219C27.3038 18.7219 29.9658 16.0599 29.9658 12.7792V9.74343C29.9658 6.46273 27.3038 3.80078 24.0231 3.80078Z" fill="url(#paint24_linear_505_8031)"/>
<path d="M24.2618 15.2929H23.7848C23.1854 15.2929 22.7213 14.7708 22.7858 14.1779L23.0371 12.0122H25.0094L25.2608 14.1779C25.3253 14.7708 24.8612 15.2929 24.2618 15.2929Z" fill="url(#paint25_linear_505_8031)"/>
<path d="M24.2618 15.2929H23.7848C23.1854 15.2929 22.7213 14.7708 22.7858 14.1779L23.0371 12.0122H25.0094L25.2608 14.1779C25.3253 14.7708 24.8612 15.2929 24.2618 15.2929Z" fill="url(#paint26_linear_505_8031)"/>
<path d="M24.2618 15.2929H23.7848C23.1854 15.2929 22.7213 14.7708 22.7858 14.1779L23.0371 12.0122H25.0094L25.2608 14.1779C25.3253 14.7708 24.8612 15.2929 24.2618 15.2929Z" fill="url(#paint27_linear_505_8031)"/>
<path d="M21.3289 10.7231C21.9283 10.7231 22.4117 11.2065 22.4117 11.806V12.3603C22.4117 12.9597 21.9283 13.4431 21.3289 13.4431C20.7295 13.4431 20.2461 12.9597 20.2461 12.3603V11.806C20.2525 11.2065 20.7359 10.7231 21.3289 10.7231Z" fill="url(#paint28_linear_505_8031)"/>
<path d="M26.711 10.7231C27.3104 10.7231 27.7938 11.2065 27.7938 11.806V12.3603C27.7938 12.9597 27.3104 13.4431 26.711 13.4431C26.1116 13.4431 25.6282 12.9597 25.6282 12.3603V11.806C25.6346 11.2065 26.118 10.7231 26.711 10.7231Z" fill="url(#paint29_linear_505_8031)"/>
<path d="M28.3416 3.00792C26.9107 2.13779 25.0545 3.0466 24.8418 4.70951L24.7902 5.1349C24.6097 6.55289 25.4089 7.91286 26.7367 8.44139C27.3426 8.67987 27.884 9.04081 28.3416 9.48554C28.7992 9.93672 29.1602 10.4717 29.4115 11.0711C29.4695 11.2065 29.5856 11.2838 29.708 11.3031C29.8692 11.3225 30.0367 11.2451 30.1076 11.0711L30.4106 10.3363C31.4998 7.68728 30.6168 4.70951 28.4447 3.07238C28.4189 3.05949 28.3867 3.0337 28.3416 3.00792Z" fill="url(#paint30_linear_505_8031)"/>
<path d="M28.3416 3.00792C26.9107 2.13779 25.0545 3.0466 24.8418 4.70951L24.7902 5.1349C24.6097 6.55289 25.4089 7.91286 26.7367 8.44139C27.3426 8.67987 27.884 9.04081 28.3416 9.48554C28.7992 9.93672 29.1602 10.4717 29.4115 11.0711C29.4695 11.2065 29.5856 11.2838 29.708 11.3031C29.8692 11.3225 30.0367 11.2451 30.1076 11.0711L30.4106 10.3363C31.4998 7.68728 30.6168 4.70951 28.4447 3.07238C28.4189 3.05949 28.3867 3.0337 28.3416 3.00792Z" fill="url(#paint31_linear_505_8031)"/>
<path d="M28.3416 3.00792C26.9107 2.13779 25.0545 3.0466 24.8418 4.70951L24.7902 5.1349C24.6097 6.55289 25.4089 7.91286 26.7367 8.44139C27.3426 8.67987 27.884 9.04081 28.3416 9.48554C28.7992 9.93672 29.1602 10.4717 29.4115 11.0711C29.4695 11.2065 29.5856 11.2838 29.708 11.3031C29.8692 11.3225 30.0367 11.2451 30.1076 11.0711L30.4106 10.3363C31.4998 7.68728 30.6168 4.70951 28.4447 3.07238C28.4189 3.05949 28.3867 3.0337 28.3416 3.00792Z" fill="url(#paint32_linear_505_8031)"/>
<path d="M22.7794 1.58339C22.7149 1.59628 22.6634 1.61562 22.6182 1.62851C19.228 2.79513 16.9076 6.17251 17.1848 9.93662L17.2621 10.9808C17.2815 11.2321 17.4619 11.3933 17.6682 11.4319C17.8293 11.4642 18.0098 11.4126 18.1387 11.2644C18.6994 10.6134 19.3762 10.0849 20.1303 9.71103C20.8844 9.3372 21.7094 9.10516 22.5667 9.0536C24.4487 8.93114 26.0085 7.55182 26.363 5.702L26.4661 5.14125C26.8786 2.9756 24.9257 1.07421 22.7794 1.58339Z" fill="url(#paint33_linear_505_8031)"/>
<path d="M17.1847 9.93659L17.262 10.9807C17.2814 11.2321 17.4618 11.3932 17.6681 11.4319C17.8292 11.4641 18.0097 11.4126 18.1386 11.2643C18.6993 10.6134 19.3761 10.0848 20.1302 9.711C20.8843 9.33717 21.7093 9.10513 22.5666 9.05357C24.4486 8.93111 26.0084 7.55179 26.3629 5.70197L26.466 5.14122C26.5112 4.90919 26.5241 4.67715 26.5176 4.45801H18.7702C17.6423 5.97912 17.0364 7.89985 17.1847 9.93659Z" fill="url(#paint34_linear_505_8031)"/>
<path d="M22.7794 1.58338C22.7149 1.59627 22.6634 1.61561 22.6182 1.6285C21.8641 1.88632 21.168 2.2537 20.5364 2.71133V9.53055C21.1745 9.26629 21.8641 9.10515 22.5667 9.06004C24.4487 8.93757 26.0085 7.55826 26.363 5.70843L26.4661 5.14768C26.8786 2.97559 24.9257 1.0742 22.7794 1.58338Z" fill="url(#paint35_linear_505_8031)"/>
<path d="M2.15401 12.6821H14.8643C15.2253 12.6821 15.5218 12.9786 15.5218 13.3396V21.6928C15.5218 22.0537 15.2253 22.3502 14.8643 22.3502H2.15401C1.79307 22.3502 1.49658 22.0537 1.49658 21.6928V13.3396C1.49658 12.9786 1.79307 12.6821 2.15401 12.6821Z" fill="url(#paint36_linear_505_8031)"/>
<path d="M1.49658 17.6323V21.6865C1.49658 22.0474 1.79307 22.3439 2.15401 22.3439H14.8643C15.2253 22.3439 15.5218 22.0474 15.5218 21.6865V17.6323H1.49658Z" fill="url(#paint37_linear_505_8031)"/>
<path d="M14.8643 12.6821H8.32227V22.3438H14.8708C15.2317 22.3438 15.5282 22.0473 15.5282 21.6863V13.3396C15.5218 12.9786 15.2253 12.6821 14.8643 12.6821Z" fill="url(#paint38_linear_505_8031)"/>
<path d="M8.50924 21.042C7.8647 21.042 7.33618 21.5641 7.33618 22.2151C7.33618 22.2602 7.33618 22.3053 7.34263 22.3504H9.66941C9.67586 22.3053 9.67586 22.2602 9.67586 22.2151C9.6823 21.5641 9.15378 21.042 8.50924 21.042Z" fill="url(#paint39_linear_505_8031)"/>
<path d="M8.50924 21.042C7.8647 21.042 7.33618 21.5641 7.33618 22.2151C7.33618 22.2602 7.33618 22.3053 7.34263 22.3504H9.66941C9.67586 22.3053 9.67586 22.2602 9.67586 22.2151C9.6823 21.5641 9.15378 21.042 8.50924 21.042Z" fill="url(#paint40_linear_505_8031)"/>
<path d="M11.835 16.4722L10.301 18.0062V22.3439H14.8644C15.2253 22.3439 15.5218 22.0474 15.5218 21.6865V20.1525L11.835 16.4722Z" fill="url(#paint41_linear_505_8031)"/>
<path d="M5.19629 20.9839L6.49826 22.2859V20.9839H5.19629Z" fill="url(#paint42_linear_505_8031)"/>
<path d="M5.41543 16.3691H11.603C11.777 16.3691 11.9188 16.5109 11.9188 16.685V20.7456C11.9188 20.9196 11.777 21.0614 11.603 21.0614H5.41543C5.24141 21.0614 5.09961 20.9196 5.09961 20.7456V16.685C5.09961 16.5109 5.24141 16.3691 5.41543 16.3691Z" fill="url(#paint43_linear_505_8031)"/>
<path d="M5.09961 18.7798V20.7521C5.09961 20.9261 5.24141 21.0679 5.41543 21.0679H11.603C11.777 21.0679 11.9188 20.9261 11.9188 20.7521V18.7798H5.09961Z" fill="url(#paint44_linear_505_8031)"/>
<path d="M11.603 16.3691H8.41895V21.0678H11.603C11.777 21.0678 11.9188 20.926 11.9188 20.752V16.6914C11.9188 16.5109 11.777 16.3691 11.603 16.3691Z" fill="url(#paint45_linear_505_8031)"/>
<path d="M11.9188 20.0944L9.94653 18.1221V21.0676H11.5966C11.7706 21.0676 11.9124 20.9258 11.9124 20.7518V20.0944H11.9188Z" fill="url(#paint46_linear_505_8031)"/>
<path d="M7.32964 15.209H9.68866C9.86268 15.209 9.99803 15.3508 9.99803 15.5184C9.99803 15.6924 9.85624 15.8277 9.68866 15.8277H7.32964C7.15562 15.8277 7.02026 15.6859 7.02026 15.5184C7.02026 15.3508 7.16206 15.209 7.32964 15.209Z" fill="url(#paint47_linear_505_8031)"/>
<path d="M7.32964 14.1904H9.68866C9.86268 14.1904 9.99803 14.3322 9.99803 14.4998C9.99803 14.6738 9.85624 14.8092 9.68866 14.8092H7.32964C7.15562 14.8092 7.02026 14.6674 7.02026 14.4998C7.02026 14.3258 7.16206 14.1904 7.32964 14.1904Z" fill="url(#paint48_linear_505_8031)"/>
<path d="M7.32964 13.1655H9.68866C9.86268 13.1655 9.99803 13.3073 9.99803 13.4749C9.99803 13.6489 9.85624 13.7843 9.68866 13.7843H7.32964C7.15562 13.7843 7.02026 13.6425 7.02026 13.4749C7.02026 13.3073 7.16206 13.1655 7.32964 13.1655Z" fill="url(#paint49_linear_505_8031)"/>
<path d="M11.2291 24.0907L10.0496 18.3092C10.0174 18.1352 9.86271 18.0127 9.68224 18.0127H7.32967C7.1492 18.0127 7.00096 18.1352 6.96229 18.3092L5.78278 24.0907C5.73766 24.3227 5.91169 24.5354 6.15017 24.5354H10.8682C11.1002 24.5354 11.2807 24.3227 11.2291 24.0907ZM8.50918 23.3882C7.86464 23.3882 7.33612 22.8661 7.33612 22.2151C7.33612 21.5641 7.8582 21.042 8.50918 21.042C9.15372 21.042 9.68224 21.5641 9.68224 22.2151C9.68224 22.8661 9.15372 23.3882 8.50918 23.3882Z" fill="url(#paint50_linear_505_8031)"/>
<path d="M8.50915 20.7261C7.68414 20.7261 7.02026 21.3899 7.02026 22.215C7.02026 23.04 7.68414 23.7038 8.50915 23.7038C9.33416 23.7038 9.99803 23.04 9.99803 22.215C9.99803 21.3899 9.33416 20.7261 8.50915 20.7261ZM8.50915 23.1818C7.97418 23.1818 7.53589 22.7499 7.53589 22.215C7.53589 21.68 7.96774 21.2482 8.50915 21.2482C9.04412 21.2482 9.47596 21.68 9.47596 22.215C9.47596 22.7499 9.04412 23.1818 8.50915 23.1818Z" fill="url(#paint51_linear_505_8031)"/>
<path d="M10.0496 18.3092C10.0174 18.1352 9.86267 18.0127 9.6822 18.0127H8.05151V21.3579C8.18687 21.287 8.34156 21.2418 8.50269 21.2418C9.03766 21.2418 9.4695 21.6737 9.4695 22.2086C9.4695 22.7436 9.03766 23.1755 8.50269 23.1755C8.34156 23.1755 8.18687 23.1368 8.05151 23.0594V24.529H10.8617C11.1002 24.529 11.2742 24.3098 11.2291 24.0843L10.0496 18.3092Z" fill="url(#paint52_linear_505_8031)"/>
<path d="M5.70552 23.9619H11.3195C11.6288 23.9619 11.8738 24.2133 11.8738 24.5162V25.1865H5.14478V24.5162C5.14478 24.2133 5.39615 23.9619 5.70552 23.9619Z" fill="url(#paint53_linear_505_8031)"/>
<path d="M33.1047 26.4946V33.6232C33.1047 34.1066 32.7115 34.4998 32.2281 34.4998H3.76524C3.28184 34.4998 2.88867 34.1066 2.88867 33.6232V26.4946C2.88867 26.153 3.16582 25.8823 3.50098 25.8823H32.4923C32.8275 25.8823 33.1047 26.153 33.1047 26.4946Z" fill="url(#paint54_linear_505_8031)"/>
<path d="M33.1047 26.4946V33.6232C33.1047 34.1066 32.7115 34.4998 32.2281 34.4998H3.76524C3.28184 34.4998 2.88867 34.1066 2.88867 33.6232V26.4946C2.88867 26.153 3.16582 25.8823 3.50098 25.8823H32.4923C32.8275 25.8823 33.1047 26.153 33.1047 26.4946Z" fill="url(#paint55_linear_505_8031)"/>
<path d="M32.4924 25.8823H26.3628V34.4998H32.2217C32.7051 34.4998 33.0982 34.1066 33.0982 33.6232V26.4946C33.1047 26.153 32.8275 25.8823 32.4924 25.8823Z" fill="url(#paint56_linear_505_8031)"/>
<path d="M33.1048 33.6232V33.5846L25.467 25.9468L10.5266 32.9078L12.1186 34.4998H32.2218C32.7116 34.4998 33.1048 34.1066 33.1048 33.6232Z" fill="url(#paint57_linear_505_8031)"/>
<path d="M2.10889 24.4712H33.8847C34.2263 24.4712 34.497 24.7483 34.497 25.0835V27.3072C34.497 27.6488 34.2198 27.9195 33.8847 27.9195H2.10889C1.76729 27.9195 1.49658 27.6423 1.49658 27.3072V25.0899C1.49658 24.7483 1.77373 24.4712 2.10889 24.4712Z" fill="url(#paint58_linear_505_8031)"/>
<path d="M33.8847 24.4712H28.4641V27.9259H33.8847C34.2263 27.9259 34.497 27.6488 34.497 27.3136V25.0899C34.497 24.7483 34.2198 24.4712 33.8847 24.4712Z" fill="url(#paint59_linear_505_8031)"/>
<path d="M25.4669 25.9468L21.2258 27.9255H27.4456L25.4669 25.9468Z" fill="url(#paint60_linear_505_8031)"/>
<path d="M11.0228 25.7471H24.977C25.3766 25.7471 25.7054 26.0758 25.7054 26.4754V32.3729C25.7054 32.7725 25.3766 33.1013 24.977 33.1013H11.0228C10.6231 33.1013 10.2944 32.7725 10.2944 32.3729V26.4754C10.2944 26.0758 10.6167 25.7471 11.0228 25.7471Z" fill="url(#paint61_linear_505_8031)"/>
<path d="M10.2944 28.8862V32.3732C10.2944 32.7728 10.6231 33.1015 11.0228 33.1015H24.977C25.3766 33.1015 25.7054 32.7728 25.7054 32.3732V28.8862H10.2944Z" fill="url(#paint62_linear_505_8031)"/>
<path d="M24.9708 25.7471H18.7832V33.0948H24.9708C25.3704 33.0948 25.6991 32.7661 25.6991 32.3665V26.469C25.6991 26.0758 25.3768 25.7471 24.9708 25.7471Z" fill="url(#paint63_linear_505_8031)"/>
<path d="M15.8569 30.0269L18.6671 32.8371C20.0529 32.5664 21.1422 31.4771 21.4064 30.0978L18.5962 27.2876L17.3071 28.7443L15.8569 30.0269Z" fill="url(#paint64_linear_505_8031)"/>
<path d="M20.1494 28.8345L18.6799 30.1107L17.4102 31.5802L18.9313 33.1013H24.4163L20.1494 28.8345Z" fill="url(#paint65_linear_505_8031)"/>
<path d="M19.9304 28.7379H18.68V27.4875C18.68 27.3199 18.5447 27.1846 18.3771 27.1846H17.6101C17.4425 27.1846 17.3071 27.3199 17.3071 27.4875V28.7379H16.0632C15.8956 28.7379 15.7603 28.8733 15.7603 29.0408V29.8078C15.7603 29.9754 15.8956 30.1108 16.0632 30.1108H17.3136V31.3612C17.3136 31.5288 17.4489 31.6641 17.6165 31.6641H18.3835C18.5511 31.6641 18.6865 31.5288 18.6865 31.3612V30.1108H19.9304C20.098 30.1108 20.2334 29.9754 20.2334 29.8078V29.0408C20.2334 28.8733 20.098 28.7379 19.9304 28.7379Z" fill="url(#paint66_linear_505_8031)"/>
<defs>
<linearGradient id="paint0_linear_505_8031" x1="24.0225" y1="10.8475" x2="24.0225" y2="19.2646" gradientUnits="userSpaceOnUse">
<stop stop-color="#766E6E"/>
<stop offset="0.2493" stop-color="#716B6B"/>
<stop offset="0.5076" stop-color="#656464"/>
<stop offset="0.769" stop-color="#505757"/>
<stop offset="1" stop-color="#384949"/>
</linearGradient>
<linearGradient id="paint1_linear_505_8031" x1="16.2394" y1="16.0144" x2="19.3178" y2="14.5901" gradientUnits="userSpaceOnUse">
<stop stop-color="#464646" stop-opacity="0"/>
<stop offset="0.6727" stop-color="#252529" stop-opacity="0.463"/>
<stop offset="1" stop-color="#000009"/>
</linearGradient>
<linearGradient id="paint2_linear_505_8031" x1="28.7354" y1="17.3288" x2="30.161" y2="19.5797" gradientUnits="userSpaceOnUse">
<stop stop-color="#464646" stop-opacity="0"/>
<stop offset="0.6727" stop-color="#252529" stop-opacity="0.463"/>
<stop offset="1" stop-color="#000009"/>
</linearGradient>
<linearGradient id="paint3_linear_505_8031" x1="30.9715" y1="16.5106" x2="28.3457" y2="14.8651" gradientUnits="userSpaceOnUse">
<stop stop-color="#464646" stop-opacity="0"/>
<stop offset="0.6727" stop-color="#252529" stop-opacity="0.463"/>
<stop offset="1" stop-color="#000009"/>
</linearGradient>
<linearGradient id="paint4_linear_505_8031" x1="27.8146" y1="16.7468" x2="27.5086" y2="13.6484" gradientUnits="userSpaceOnUse">
<stop stop-color="#464646" stop-opacity="0"/>
<stop offset="0.6727" stop-color="#252529" stop-opacity="0.463"/>
<stop offset="1" stop-color="#000009"/>
</linearGradient>
<linearGradient id="paint5_linear_505_8031" x1="20.6406" y1="18.79" x2="24.4834" y2="24.7646" gradientUnits="userSpaceOnUse">
<stop stop-color="#99E6FC"/>
<stop offset="0.1814" stop-color="#94E3FC"/>
<stop offset="0.3695" stop-color="#88DCFC"/>
<stop offset="0.5605" stop-color="#73D1FC"/>
<stop offset="0.7537" stop-color="#56C1FD"/>
<stop offset="0.9467" stop-color="#31ACFD"/>
<stop offset="1" stop-color="#26A6FE"/>
</linearGradient>
<linearGradient id="paint6_linear_505_8031" x1="24.9305" y1="22.7621" x2="22.7535" y2="24.1615" gradientUnits="userSpaceOnUse">
<stop stop-color="#0172FB" stop-opacity="0"/>
<stop offset="0.1214" stop-color="#0172FB" stop-opacity="0.12"/>
<stop offset="0.2474" stop-color="#0172FB" stop-opacity="0.17"/>
<stop offset="0.3754" stop-color="#0172FB" stop-opacity="0.25"/>
<stop offset="0.5049" stop-color="#0172FB" stop-opacity="0.36"/>
<stop offset="0.6355" stop-color="#0172FB" stop-opacity="0.51"/>
<stop offset="0.7672" stop-color="#0172FB" stop-opacity="0.7"/>
<stop offset="0.897" stop-color="#0172FB" stop-opacity="0.91"/>
<stop offset="1" stop-color="#0172FB"/>
</linearGradient>
<linearGradient id="paint7_linear_505_8031" x1="18.0944" y1="18.6591" x2="18.8422" y2="25.8731" gradientUnits="userSpaceOnUse">
<stop stop-color="#F5FBFF"/>
<stop offset="0.2414" stop-color="#F0F8FE"/>
<stop offset="0.4916" stop-color="#E4F2FE"/>
<stop offset="0.7457" stop-color="#CFE8FE"/>
<stop offset="1" stop-color="#B3DAFE"/>
</linearGradient>
<linearGradient id="paint8_linear_505_8031" x1="17.588" y1="23.4312" x2="21.863" y2="21.5623" gradientUnits="userSpaceOnUse">
<stop stop-color="#8AC9FE" stop-opacity="0"/>
<stop offset="0.1291" stop-color="#89C8FD" stop-opacity="0.019"/>
<stop offset="0.2629" stop-color="#88C6FB" stop-opacity="0.075"/>
<stop offset="0.3989" stop-color="#87C4F8" stop-opacity="0.168"/>
<stop offset="0.5365" stop-color="#85C0F4" stop-opacity="0.298"/>
<stop offset="0.6753" stop-color="#83BBEF" stop-opacity="0.466"/>
<stop offset="0.8151" stop-color="#7FB5E9" stop-opacity="0.672"/>
<stop offset="0.9532" stop-color="#7CAEE1" stop-opacity="0.911"/>
<stop offset="1" stop-color="#7BACDF"/>
</linearGradient>
<linearGradient id="paint9_linear_505_8031" x1="18.7853" y1="23.3088" x2="18.7853" y2="24.626" gradientUnits="userSpaceOnUse">
<stop stop-color="#8AC9FE" stop-opacity="0"/>
<stop offset="0.1291" stop-color="#89C8FD" stop-opacity="0.019"/>
<stop offset="0.2629" stop-color="#88C6FB" stop-opacity="0.075"/>
<stop offset="0.3989" stop-color="#87C4F8" stop-opacity="0.168"/>
<stop offset="0.5365" stop-color="#85C0F4" stop-opacity="0.298"/>
<stop offset="0.6753" stop-color="#83BBEF" stop-opacity="0.466"/>
<stop offset="0.8151" stop-color="#7FB5E9" stop-opacity="0.672"/>
<stop offset="0.9532" stop-color="#7CAEE1" stop-opacity="0.911"/>
<stop offset="1" stop-color="#7BACDF"/>
</linearGradient>
<linearGradient id="paint10_linear_505_8031" x1="18.6646" y1="21.8164" x2="23.4155" y2="21.4527" gradientUnits="userSpaceOnUse">
<stop stop-color="#F5FBFF"/>
<stop offset="0.2414" stop-color="#F0F8FE"/>
<stop offset="0.4916" stop-color="#E4F2FE"/>
<stop offset="0.7457" stop-color="#CFE8FE"/>
<stop offset="1" stop-color="#B3DAFE"/>
</linearGradient>
<linearGradient id="paint11_linear_505_8031" x1="27.9035" y1="19.0819" x2="29.8412" y2="26.978" gradientUnits="userSpaceOnUse">
<stop stop-color="#F5FBFF"/>
<stop offset="0.2414" stop-color="#F0F8FE"/>
<stop offset="0.4916" stop-color="#E4F2FE"/>
<stop offset="0.7457" stop-color="#CFE8FE"/>
<stop offset="1" stop-color="#B3DAFE"/>
</linearGradient>
<linearGradient id="paint12_linear_505_8031" x1="30.9957" y1="22.3694" x2="35.0226" y2="22.9677" gradientUnits="userSpaceOnUse">
<stop stop-color="#8AC9FE" stop-opacity="0"/>
<stop offset="0.1291" stop-color="#89C8FD" stop-opacity="0.019"/>
<stop offset="0.2629" stop-color="#88C6FB" stop-opacity="0.075"/>
<stop offset="0.3989" stop-color="#87C4F8" stop-opacity="0.168"/>
<stop offset="0.5365" stop-color="#85C0F4" stop-opacity="0.298"/>
<stop offset="0.6753" stop-color="#83BBEF" stop-opacity="0.466"/>
<stop offset="0.8151" stop-color="#7FB5E9" stop-opacity="0.672"/>
<stop offset="0.9532" stop-color="#7CAEE1" stop-opacity="0.911"/>
<stop offset="1" stop-color="#7BACDF"/>
</linearGradient>
<linearGradient id="paint13_linear_505_8031" x1="28.352" y1="22.6851" x2="26.1193" y2="21.3979" gradientUnits="userSpaceOnUse">
<stop stop-color="#8AC9FE" stop-opacity="0"/>
<stop offset="0.1291" stop-color="#89C8FD" stop-opacity="0.019"/>
<stop offset="0.2629" stop-color="#88C6FB" stop-opacity="0.075"/>
<stop offset="0.3989" stop-color="#87C4F8" stop-opacity="0.168"/>
<stop offset="0.5365" stop-color="#85C0F4" stop-opacity="0.298"/>
<stop offset="0.6753" stop-color="#83BBEF" stop-opacity="0.466"/>
<stop offset="0.8151" stop-color="#7FB5E9" stop-opacity="0.672"/>
<stop offset="0.9532" stop-color="#7CAEE1" stop-opacity="0.911"/>
<stop offset="1" stop-color="#7BACDF"/>
</linearGradient>
<linearGradient id="paint14_linear_505_8031" x1="29.2598" y1="23.3088" x2="29.2598" y2="24.626" gradientUnits="userSpaceOnUse">
<stop stop-color="#8AC9FE" stop-opacity="0"/>
<stop offset="0.1291" stop-color="#89C8FD" stop-opacity="0.019"/>
<stop offset="0.2629" stop-color="#88C6FB" stop-opacity="0.075"/>
<stop offset="0.3989" stop-color="#87C4F8" stop-opacity="0.168"/>
<stop offset="0.5365" stop-color="#85C0F4" stop-opacity="0.298"/>
<stop offset="0.6753" stop-color="#83BBEF" stop-opacity="0.466"/>
<stop offset="0.8151" stop-color="#7FB5E9" stop-opacity="0.672"/>
<stop offset="0.9532" stop-color="#7CAEE1" stop-opacity="0.911"/>
<stop offset="1" stop-color="#7BACDF"/>
</linearGradient>
<linearGradient id="paint15_linear_505_8031" x1="26.6689" y1="22.4075" x2="25.3938" y2="22.4075" gradientUnits="userSpaceOnUse">
<stop stop-color="#8AC9FE" stop-opacity="0"/>
<stop offset="0.1291" stop-color="#89C8FD" stop-opacity="0.019"/>
<stop offset="0.2629" stop-color="#88C6FB" stop-opacity="0.075"/>
<stop offset="0.3989" stop-color="#87C4F8" stop-opacity="0.168"/>
<stop offset="0.5365" stop-color="#85C0F4" stop-opacity="0.298"/>
<stop offset="0.6753" stop-color="#83BBEF" stop-opacity="0.466"/>
<stop offset="0.8151" stop-color="#7FB5E9" stop-opacity="0.672"/>
<stop offset="0.9532" stop-color="#7CAEE1" stop-opacity="0.911"/>
<stop offset="1" stop-color="#7BACDF"/>
</linearGradient>
<linearGradient id="paint16_linear_505_8031" x1="25.8429" y1="21.0131" x2="27.9582" y2="23.2267" gradientUnits="userSpaceOnUse">
<stop stop-color="#F5FBFF"/>
<stop offset="0.2414" stop-color="#F0F8FE"/>
<stop offset="0.4916" stop-color="#E4F2FE"/>
<stop offset="0.7457" stop-color="#CFE8FE"/>
<stop offset="1" stop-color="#B3DAFE"/>
</linearGradient>
<linearGradient id="paint17_linear_505_8031" x1="23.1433" y1="16.9952" x2="25.9261" y2="19.6734" gradientUnits="userSpaceOnUse">
<stop stop-color="#FFDFCF"/>
<stop offset="0.2453" stop-color="#FFDBCA"/>
<stop offset="0.4994" stop-color="#FFD0BE"/>
<stop offset="0.7566" stop-color="#FFBEA9"/>
<stop offset="1" stop-color="#FFA78F"/>
</linearGradient>
<linearGradient id="paint18_linear_505_8031" x1="24.0225" y1="20.2922" x2="24.0225" y2="17.9237" gradientUnits="userSpaceOnUse">
<stop stop-color="#F89580" stop-opacity="0"/>
<stop offset="0.1375" stop-color="#F6947F" stop-opacity="0.021"/>
<stop offset="0.2801" stop-color="#F3917C" stop-opacity="0.084"/>
<stop offset="0.4251" stop-color="#EE8E78" stop-opacity="0.19"/>
<stop offset="0.5717" stop-color="#E68873" stop-opacity="0.337"/>
<stop offset="0.7196" stop-color="#DD826B" stop-opacity="0.528"/>
<stop offset="0.8663" stop-color="#D17963" stop-opacity="0.757"/>
<stop offset="1" stop-color="#C5715A"/>
</linearGradient>
<linearGradient id="paint19_linear_505_8031" x1="23.4589" y1="18.5833" x2="22.0053" y2="19.4248" gradientUnits="userSpaceOnUse">
<stop stop-color="#F89580" stop-opacity="0"/>
<stop offset="0.1375" stop-color="#F6947F" stop-opacity="0.021"/>
<stop offset="0.2801" stop-color="#F3917C" stop-opacity="0.084"/>
<stop offset="0.4251" stop-color="#EE8E78" stop-opacity="0.19"/>
<stop offset="0.5717" stop-color="#E68873" stop-opacity="0.337"/>
<stop offset="0.7196" stop-color="#DD826B" stop-opacity="0.528"/>
<stop offset="0.8663" stop-color="#D17963" stop-opacity="0.757"/>
<stop offset="1" stop-color="#C5715A"/>
</linearGradient>
<linearGradient id="paint20_linear_505_8031" x1="28.8612" y1="12.0829" x2="31.6844" y2="12.0829" gradientUnits="userSpaceOnUse">
<stop stop-color="#FFDFCF"/>
<stop offset="0.2453" stop-color="#FFDBCA"/>
<stop offset="0.4994" stop-color="#FFD0BE"/>
<stop offset="0.7566" stop-color="#FFBEA9"/>
<stop offset="1" stop-color="#FFA78F"/>
</linearGradient>
<linearGradient id="paint21_linear_505_8031" x1="16.5509" y1="11.7567" x2="18.1368" y2="12.0552" gradientUnits="userSpaceOnUse">
<stop stop-color="#FFDFCF"/>
<stop offset="0.2453" stop-color="#FFDBCA"/>
<stop offset="0.4994" stop-color="#FFD0BE"/>
<stop offset="0.7566" stop-color="#FFBEA9"/>
<stop offset="1" stop-color="#FFA78F"/>
</linearGradient>
<linearGradient id="paint22_linear_505_8031" x1="18.4449" y1="8.31591" x2="29.6767" y2="14.249" gradientUnits="userSpaceOnUse">
<stop stop-color="#FFDFCF"/>
<stop offset="0.2453" stop-color="#FFDBCA"/>
<stop offset="0.4994" stop-color="#FFD0BE"/>
<stop offset="0.7566" stop-color="#FFBEA9"/>
<stop offset="1" stop-color="#FFA78F"/>
</linearGradient>
<linearGradient id="paint23_linear_505_8031" x1="24.0225" y1="14.3875" x2="24.0225" y2="18.7552" gradientUnits="userSpaceOnUse">
<stop stop-color="#F89580" stop-opacity="0"/>
<stop offset="0.1375" stop-color="#F6947F" stop-opacity="0.021"/>
<stop offset="0.2801" stop-color="#F3917C" stop-opacity="0.084"/>
<stop offset="0.4251" stop-color="#EE8E78" stop-opacity="0.19"/>
<stop offset="0.5717" stop-color="#E68873" stop-opacity="0.337"/>
<stop offset="0.7196" stop-color="#DD826B" stop-opacity="0.528"/>
<stop offset="0.8663" stop-color="#D17963" stop-opacity="0.757"/>
<stop offset="1" stop-color="#C5715A"/>
</linearGradient>
<linearGradient id="paint24_linear_505_8031" x1="25.6475" y1="11.2622" x2="30.0235" y2="11.2622" gradientUnits="userSpaceOnUse">
<stop stop-color="#F89580" stop-opacity="0"/>
<stop offset="0.1375" stop-color="#F6947F" stop-opacity="0.021"/>
<stop offset="0.2801" stop-color="#F3917C" stop-opacity="0.084"/>
<stop offset="0.4251" stop-color="#EE8E78" stop-opacity="0.19"/>
<stop offset="0.5717" stop-color="#E68873" stop-opacity="0.337"/>
<stop offset="0.7196" stop-color="#DD826B" stop-opacity="0.528"/>
<stop offset="0.8663" stop-color="#D17963" stop-opacity="0.757"/>
<stop offset="1" stop-color="#C5715A"/>
</linearGradient>
<linearGradient id="paint25_linear_505_8031" x1="24.1051" y1="13.5578" x2="25.4857" y2="14.528" gradientUnits="userSpaceOnUse">
<stop stop-color="#F89580" stop-opacity="0"/>
<stop offset="0.1375" stop-color="#F6947F" stop-opacity="0.021"/>
<stop offset="0.2801" stop-color="#F3917C" stop-opacity="0.084"/>
<stop offset="0.4251" stop-color="#EE8E78" stop-opacity="0.19"/>
<stop offset="0.5717" stop-color="#E68873" stop-opacity="0.337"/>
<stop offset="0.7196" stop-color="#DD826B" stop-opacity="0.528"/>
<stop offset="0.8663" stop-color="#D17963" stop-opacity="0.757"/>
<stop offset="1" stop-color="#C5715A"/>
</linearGradient>
<linearGradient id="paint26_linear_505_8031" x1="24.0226" y1="14.5583" x2="24.0226" y2="15.3807" gradientUnits="userSpaceOnUse">
<stop stop-color="#F89580" stop-opacity="0"/>
<stop offset="0.1375" stop-color="#F6947F" stop-opacity="0.021"/>
<stop offset="0.2801" stop-color="#F3917C" stop-opacity="0.084"/>
<stop offset="0.4251" stop-color="#EE8E78" stop-opacity="0.19"/>
<stop offset="0.5717" stop-color="#E68873" stop-opacity="0.337"/>
<stop offset="0.7196" stop-color="#DD826B" stop-opacity="0.528"/>
<stop offset="0.8663" stop-color="#D17963" stop-opacity="0.757"/>
<stop offset="1" stop-color="#C5715A"/>
</linearGradient>
<linearGradient id="paint27_linear_505_8031" x1="23.5456" y1="13.7493" x2="22.14" y2="14.3961" gradientUnits="userSpaceOnUse">
<stop stop-color="white" stop-opacity="0"/>
<stop offset="0.1205" stop-color="white" stop-opacity="0.016"/>
<stop offset="0.2454" stop-color="white" stop-opacity="0.065"/>
<stop offset="0.3724" stop-color="white" stop-opacity="0.147"/>
<stop offset="0.5008" stop-color="white" stop-opacity="0.261"/>
<stop offset="0.6304" stop-color="white" stop-opacity="0.408"/>
<stop offset="0.761" stop-color="white" stop-opacity="0.588"/>
<stop offset="0.8898" stop-color="white" stop-opacity="0.797"/>
<stop offset="1" stop-color="white"/>
</linearGradient>
<linearGradient id="paint28_linear_505_8031" x1="20.3373" y1="11.0885" x2="21.7142" y2="12.4654" gradientUnits="userSpaceOnUse">
<stop stop-color="#766E6E"/>
<stop offset="0.2493" stop-color="#716B6B"/>
<stop offset="0.5076" stop-color="#656464"/>
<stop offset="0.769" stop-color="#505757"/>
<stop offset="1" stop-color="#384949"/>
</linearGradient>
<linearGradient id="paint29_linear_505_8031" x1="25.6997" y1="11.0696" x2="26.9836" y2="12.3536" gradientUnits="userSpaceOnUse">
<stop stop-color="#766E6E"/>
<stop offset="0.2493" stop-color="#716B6B"/>
<stop offset="0.5076" stop-color="#656464"/>
<stop offset="0.769" stop-color="#505757"/>
<stop offset="1" stop-color="#384949"/>
</linearGradient>
<linearGradient id="paint30_linear_505_8031" x1="29.9207" y1="4.31679" x2="26.8154" y2="8.58285" gradientUnits="userSpaceOnUse">
<stop stop-color="#766E6E"/>
<stop offset="0.2493" stop-color="#716B6B"/>
<stop offset="0.5076" stop-color="#656464"/>
<stop offset="0.769" stop-color="#505757"/>
<stop offset="1" stop-color="#384949"/>
</linearGradient>
<linearGradient id="paint31_linear_505_8031" x1="28.5204" y1="6.95341" x2="31.3863" y2="7.85854" gradientUnits="userSpaceOnUse">
<stop stop-color="#464646" stop-opacity="0"/>
<stop offset="0.6727" stop-color="#252529" stop-opacity="0.463"/>
<stop offset="1" stop-color="#000009"/>
</linearGradient>
<linearGradient id="paint32_linear_505_8031" x1="28.5781" y1="5.54437" x2="26.8333" y2="9.08329" gradientUnits="userSpaceOnUse">
<stop stop-color="#464646" stop-opacity="0"/>
<stop offset="0.6727" stop-color="#252529" stop-opacity="0.463"/>
<stop offset="1" stop-color="#000009"/>
</linearGradient>
<linearGradient id="paint33_linear_505_8031" x1="19.2705" y1="4.07176" x2="23.6197" y2="9.42453" gradientUnits="userSpaceOnUse">
<stop stop-color="#766E6E"/>
<stop offset="0.2493" stop-color="#716B6B"/>
<stop offset="0.5076" stop-color="#656464"/>
<stop offset="0.769" stop-color="#505757"/>
<stop offset="1" stop-color="#384949"/>
</linearGradient>
<linearGradient id="paint34_linear_505_8031" x1="21.6149" y1="7.02637" x2="22.5528" y2="9.46131" gradientUnits="userSpaceOnUse">
<stop stop-color="#464646" stop-opacity="0"/>
<stop offset="0.6727" stop-color="#252529" stop-opacity="0.463"/>
<stop offset="1" stop-color="#000009"/>
</linearGradient>
<linearGradient id="paint35_linear_505_8031" x1="23.0397" y1="5.76238" x2="26.5207" y2="6.84456" gradientUnits="userSpaceOnUse">
<stop stop-color="#464646" stop-opacity="0"/>
<stop offset="0.6727" stop-color="#252529" stop-opacity="0.463"/>
<stop offset="1" stop-color="#000009"/>
</linearGradient>
<linearGradient id="paint36_linear_505_8031" x1="7.08171" y1="11.277" x2="9.31781" y2="21.0485" gradientUnits="userSpaceOnUse">
<stop stop-color="#766E6E"/>
<stop offset="0.2493" stop-color="#716B6B"/>
<stop offset="0.5076" stop-color="#656464"/>
<stop offset="0.769" stop-color="#505757"/>
<stop offset="1" stop-color="#384949"/>
</linearGradient>
<linearGradient id="paint37_linear_505_8031" x1="8.50897" y1="20.8703" x2="8.50897" y2="22.3725" gradientUnits="userSpaceOnUse">
<stop stop-color="#464646" stop-opacity="0"/>
<stop offset="0.6727" stop-color="#252529" stop-opacity="0.463"/>
<stop offset="1" stop-color="#000009"/>
</linearGradient>
<linearGradient id="paint38_linear_505_8031" x1="13.8366" y1="17.5141" x2="15.8511" y2="17.5141" gradientUnits="userSpaceOnUse">
<stop stop-color="#464646" stop-opacity="0"/>
<stop offset="0.6727" stop-color="#252529" stop-opacity="0.463"/>
<stop offset="1" stop-color="#000009"/>
</linearGradient>
<linearGradient id="paint39_linear_505_8031" x1="8.9628" y1="22.0874" x2="7.6533" y2="21.5246" gradientUnits="userSpaceOnUse">
<stop stop-color="#464646" stop-opacity="0"/>
<stop offset="0.6727" stop-color="#252529" stop-opacity="0.463"/>
<stop offset="1" stop-color="#000009"/>
</linearGradient>
<linearGradient id="paint40_linear_505_8031" x1="8.55816" y1="22.5641" x2="8.3514" y2="21.0708" gradientUnits="userSpaceOnUse">
<stop stop-color="#464646" stop-opacity="0"/>
<stop offset="0.6727" stop-color="#252529" stop-opacity="0.463"/>
<stop offset="1" stop-color="#000009"/>
</linearGradient>
<linearGradient id="paint41_linear_505_8031" x1="14.6111" y1="20.387" x2="10.338" y2="19.2077" gradientUnits="userSpaceOnUse">
<stop stop-color="#464646" stop-opacity="0"/>
<stop offset="0.6727" stop-color="#252529" stop-opacity="0.463"/>
<stop offset="1" stop-color="#000009"/>
</linearGradient>
<linearGradient id="paint42_linear_505_8031" x1="5.94234" y1="22.0529" x2="5.85043" y2="21.0038" gradientUnits="userSpaceOnUse">
<stop stop-color="#464646" stop-opacity="0"/>
<stop offset="0.6727" stop-color="#252529" stop-opacity="0.463"/>
<stop offset="1" stop-color="#000009"/>
</linearGradient>
<linearGradient id="paint43_linear_505_8031" x1="7.42607" y1="12.731" x2="8.98831" y2="21.3691" gradientUnits="userSpaceOnUse">
<stop stop-color="#766E6E"/>
<stop offset="0.2493" stop-color="#716B6B"/>
<stop offset="0.5076" stop-color="#656464"/>
<stop offset="0.769" stop-color="#505757"/>
<stop offset="1" stop-color="#384949"/>
</linearGradient>
<linearGradient id="paint44_linear_505_8031" x1="8.50903" y1="19.6552" x2="8.50903" y2="21.373" gradientUnits="userSpaceOnUse">
<stop stop-color="#464646" stop-opacity="0"/>
<stop offset="0.6727" stop-color="#252529" stop-opacity="0.463"/>
<stop offset="1" stop-color="#000009"/>
</linearGradient>
<linearGradient id="paint45_linear_505_8031" x1="9.60947" y1="18.7189" x2="12.2694" y2="18.7189" gradientUnits="userSpaceOnUse">
<stop stop-color="#464646" stop-opacity="0"/>
<stop offset="0.6727" stop-color="#252529" stop-opacity="0.463"/>
<stop offset="1" stop-color="#000009"/>
</linearGradient>
<linearGradient id="paint46_linear_505_8031" x1="11.3138" y1="19.5207" x2="10.0961" y2="19.6969" gradientUnits="userSpaceOnUse">
<stop stop-color="#464646" stop-opacity="0"/>
<stop offset="0.6727" stop-color="#252529" stop-opacity="0.463"/>
<stop offset="1" stop-color="#000009"/>
</linearGradient>
<linearGradient id="paint47_linear_505_8031" x1="8.50896" y1="15.8545" x2="8.50896" y2="15.0581" gradientUnits="userSpaceOnUse">
<stop stop-color="#766E6E"/>
<stop offset="0.2493" stop-color="#716B6B"/>
<stop offset="0.5076" stop-color="#656464"/>
<stop offset="0.769" stop-color="#505757"/>
<stop offset="1" stop-color="#384949"/>
</linearGradient>
<linearGradient id="paint48_linear_505_8031" x1="8.50896" y1="14.832" x2="8.50896" y2="14.0355" gradientUnits="userSpaceOnUse">
<stop stop-color="#766E6E"/>
<stop offset="0.2493" stop-color="#716B6B"/>
<stop offset="0.5076" stop-color="#656464"/>
<stop offset="0.769" stop-color="#505757"/>
<stop offset="1" stop-color="#384949"/>
</linearGradient>
<linearGradient id="paint49_linear_505_8031" x1="8.50896" y1="13.8096" x2="8.50896" y2="13.0132" gradientUnits="userSpaceOnUse">
<stop stop-color="#766E6E"/>
<stop offset="0.2493" stop-color="#716B6B"/>
<stop offset="0.5076" stop-color="#656464"/>
<stop offset="0.769" stop-color="#505757"/>
<stop offset="1" stop-color="#384949"/>
</linearGradient>
<linearGradient id="paint50_linear_505_8031" x1="5.90634" y1="20.1221" x2="10.593" y2="22.81" gradientUnits="userSpaceOnUse">
<stop stop-color="#766E6E"/>
<stop offset="0.2493" stop-color="#716B6B"/>
<stop offset="0.5076" stop-color="#656464"/>
<stop offset="0.769" stop-color="#505757"/>
<stop offset="1" stop-color="#384949"/>
</linearGradient>
<linearGradient id="paint51_linear_505_8031" x1="9.65082" y1="23.3561" x2="7.14285" y2="20.8481" gradientUnits="userSpaceOnUse">
<stop stop-color="#766E6E"/>
<stop offset="0.2493" stop-color="#716B6B"/>
<stop offset="0.5076" stop-color="#656464"/>
<stop offset="0.769" stop-color="#505757"/>
<stop offset="1" stop-color="#384949"/>
</linearGradient>
<linearGradient id="paint52_linear_505_8031" x1="9.83695" y1="21.1973" x2="10.8018" y2="20.9829" gradientUnits="userSpaceOnUse">
<stop stop-color="#464646" stop-opacity="0"/>
<stop offset="0.6727" stop-color="#252529" stop-opacity="0.463"/>
<stop offset="1" stop-color="#000009"/>
</linearGradient>
<linearGradient id="paint53_linear_505_8031" x1="8.50908" y1="23.9414" x2="8.50908" y2="24.9202" gradientUnits="userSpaceOnUse">
<stop stop-color="#766E6E"/>
<stop offset="0.2493" stop-color="#716B6B"/>
<stop offset="0.5076" stop-color="#656464"/>
<stop offset="0.769" stop-color="#505757"/>
<stop offset="1" stop-color="#384949"/>
</linearGradient>
<linearGradient id="paint54_linear_505_8031" x1="17.9967" y1="32.1099" x2="17.9967" y2="34.7748" gradientUnits="userSpaceOnUse">
<stop stop-color="#FE9738"/>
<stop offset="0.179" stop-color="#F99337"/>
<stop offset="0.3646" stop-color="#ED8A36"/>
<stop offset="0.5532" stop-color="#D87B34"/>
<stop offset="0.7438" stop-color="#BB6532"/>
<stop offset="0.9342" stop-color="#96492F"/>
<stop offset="1" stop-color="#883F2E"/>
</linearGradient>
<linearGradient id="paint55_linear_505_8031" x1="17.9967" y1="31.1451" x2="17.9967" y2="27.3494" gradientUnits="userSpaceOnUse">
<stop stop-color="#6D3326" stop-opacity="0"/>
<stop offset="0.1865" stop-color="#6D3326" stop-opacity="0.038"/>
<stop offset="0.3798" stop-color="#6D3326" stop-opacity="0.152"/>
<stop offset="0.5761" stop-color="#6D3326" stop-opacity="0.343"/>
<stop offset="0.7747" stop-color="#6D3326" stop-opacity="0.609"/>
<stop offset="0.9732" stop-color="#6D3326" stop-opacity="0.949"/>
<stop offset="1" stop-color="#6D3326"/>
</linearGradient>
<linearGradient id="paint56_linear_505_8031" x1="31.6028" y1="30.1904" x2="33.6608" y2="30.1904" gradientUnits="userSpaceOnUse">
<stop stop-color="#6D3326" stop-opacity="0"/>
<stop offset="0.1865" stop-color="#6D3326" stop-opacity="0.038"/>
<stop offset="0.3798" stop-color="#6D3326" stop-opacity="0.152"/>
<stop offset="0.5761" stop-color="#6D3326" stop-opacity="0.343"/>
<stop offset="0.7747" stop-color="#6D3326" stop-opacity="0.609"/>
<stop offset="0.9732" stop-color="#6D3326" stop-opacity="0.949"/>
<stop offset="1" stop-color="#6D3326"/>
</linearGradient>
<linearGradient id="paint57_linear_505_8031" x1="22.6876" y1="35.7172" x2="19.9614" y2="27.9674" gradientUnits="userSpaceOnUse">
<stop stop-color="#6D3326" stop-opacity="0"/>
<stop offset="0.1865" stop-color="#6D3326" stop-opacity="0.038"/>
<stop offset="0.3798" stop-color="#6D3326" stop-opacity="0.152"/>
<stop offset="0.5761" stop-color="#6D3326" stop-opacity="0.343"/>
<stop offset="0.7747" stop-color="#6D3326" stop-opacity="0.609"/>
<stop offset="0.9732" stop-color="#6D3326" stop-opacity="0.949"/>
<stop offset="1" stop-color="#6D3326"/>
</linearGradient>
<linearGradient id="paint58_linear_505_8031" x1="17.9968" y1="24.529" x2="17.9968" y2="28.6186" gradientUnits="userSpaceOnUse">
<stop stop-color="#FE9738"/>
<stop offset="0.179" stop-color="#F99337"/>
<stop offset="0.3646" stop-color="#ED8A36"/>
<stop offset="0.5532" stop-color="#D87B34"/>
<stop offset="0.7438" stop-color="#BB6532"/>
<stop offset="0.9342" stop-color="#96492F"/>
<stop offset="1" stop-color="#883F2E"/>
</linearGradient>
<linearGradient id="paint59_linear_505_8031" x1="32.601" y1="26.1991" x2="34.3352" y2="26.1991" gradientUnits="userSpaceOnUse">
<stop stop-color="#6D3326" stop-opacity="0"/>
<stop offset="0.1865" stop-color="#6D3326" stop-opacity="0.038"/>
<stop offset="0.3798" stop-color="#6D3326" stop-opacity="0.152"/>
<stop offset="0.5761" stop-color="#6D3326" stop-opacity="0.343"/>
<stop offset="0.7747" stop-color="#6D3326" stop-opacity="0.609"/>
<stop offset="0.9732" stop-color="#6D3326" stop-opacity="0.949"/>
<stop offset="1" stop-color="#6D3326"/>
</linearGradient>
<linearGradient id="paint60_linear_505_8031" x1="28.4117" y1="29.0651" x2="24.5522" y2="27.4416" gradientUnits="userSpaceOnUse">
<stop stop-color="#6D3326" stop-opacity="0"/>
<stop offset="0.1865" stop-color="#6D3326" stop-opacity="0.038"/>
<stop offset="0.3798" stop-color="#6D3326" stop-opacity="0.152"/>
<stop offset="0.5761" stop-color="#6D3326" stop-opacity="0.343"/>
<stop offset="0.7747" stop-color="#6D3326" stop-opacity="0.609"/>
<stop offset="0.9732" stop-color="#6D3326" stop-opacity="0.949"/>
<stop offset="1" stop-color="#6D3326"/>
</linearGradient>
<linearGradient id="paint61_linear_505_8031" x1="17.3008" y1="25.7049" x2="18.6333" y2="32.8267" gradientUnits="userSpaceOnUse">
<stop stop-color="#F5FBFF"/>
<stop offset="0.2414" stop-color="#F0F8FE"/>
<stop offset="0.4916" stop-color="#E4F2FE"/>
<stop offset="0.7457" stop-color="#CFE8FE"/>
<stop offset="1" stop-color="#B3DAFE"/>
</linearGradient>
<linearGradient id="paint62_linear_505_8031" x1="17.9967" y1="31.5487" x2="17.9967" y2="32.9437" gradientUnits="userSpaceOnUse">
<stop stop-color="#8AC9FE" stop-opacity="0"/>
<stop offset="0.1291" stop-color="#89C8FD" stop-opacity="0.019"/>
<stop offset="0.2629" stop-color="#88C6FB" stop-opacity="0.075"/>
<stop offset="0.3989" stop-color="#87C4F8" stop-opacity="0.168"/>
<stop offset="0.5365" stop-color="#85C0F4" stop-opacity="0.298"/>
<stop offset="0.6753" stop-color="#83BBEF" stop-opacity="0.466"/>
<stop offset="0.8151" stop-color="#7FB5E9" stop-opacity="0.672"/>
<stop offset="0.9532" stop-color="#7CAEE1" stop-opacity="0.911"/>
<stop offset="1" stop-color="#7BACDF"/>
</linearGradient>
<linearGradient id="paint63_linear_505_8031" x1="24.1289" y1="29.4241" x2="25.7756" y2="29.4241" gradientUnits="userSpaceOnUse">
<stop stop-color="#8AC9FE" stop-opacity="0"/>
<stop offset="0.1291" stop-color="#89C8FD" stop-opacity="0.019"/>
<stop offset="0.2629" stop-color="#88C6FB" stop-opacity="0.075"/>
<stop offset="0.3989" stop-color="#87C4F8" stop-opacity="0.168"/>
<stop offset="0.5365" stop-color="#85C0F4" stop-opacity="0.298"/>
<stop offset="0.6753" stop-color="#83BBEF" stop-opacity="0.466"/>
<stop offset="0.8151" stop-color="#7FB5E9" stop-opacity="0.672"/>
<stop offset="0.9532" stop-color="#7CAEE1" stop-opacity="0.911"/>
<stop offset="1" stop-color="#7BACDF"/>
</linearGradient>
<linearGradient id="paint64_linear_505_8031" x1="18.7073" y1="30.1346" x2="16.9021" y2="28.3294" gradientUnits="userSpaceOnUse">
<stop stop-color="#8AC9FE" stop-opacity="0"/>
<stop offset="0.1291" stop-color="#89C8FD" stop-opacity="0.019"/>
<stop offset="0.2629" stop-color="#88C6FB" stop-opacity="0.075"/>
<stop offset="0.3989" stop-color="#87C4F8" stop-opacity="0.168"/>
<stop offset="0.5365" stop-color="#85C0F4" stop-opacity="0.298"/>
<stop offset="0.6753" stop-color="#83BBEF" stop-opacity="0.466"/>
<stop offset="0.8151" stop-color="#7FB5E9" stop-opacity="0.672"/>
<stop offset="0.9532" stop-color="#7CAEE1" stop-opacity="0.911"/>
<stop offset="1" stop-color="#7BACDF"/>
</linearGradient>
<linearGradient id="paint65_linear_505_8031" x1="20.3024" y1="31.7297" x2="18.5803" y2="30.0075" gradientUnits="userSpaceOnUse">
<stop stop-color="#8AC9FE" stop-opacity="0"/>
<stop offset="0.1291" stop-color="#89C8FD" stop-opacity="0.019"/>
<stop offset="0.2629" stop-color="#88C6FB" stop-opacity="0.075"/>
<stop offset="0.3989" stop-color="#87C4F8" stop-opacity="0.168"/>
<stop offset="0.5365" stop-color="#85C0F4" stop-opacity="0.298"/>
<stop offset="0.6753" stop-color="#83BBEF" stop-opacity="0.466"/>
<stop offset="0.8151" stop-color="#7FB5E9" stop-opacity="0.672"/>
<stop offset="0.9532" stop-color="#7CAEE1" stop-opacity="0.911"/>
<stop offset="1" stop-color="#7BACDF"/>
</linearGradient>
<linearGradient id="paint66_linear_505_8031" x1="16.3033" y1="27.7308" x2="19.3692" y2="30.7966" gradientUnits="userSpaceOnUse">
<stop stop-color="#9CF8D2"/>
<stop offset="0.1628" stop-color="#97F6D0"/>
<stop offset="0.3315" stop-color="#8BF3CA"/>
<stop offset="0.503" stop-color="#76EEC0"/>
<stop offset="0.6763" stop-color="#59E6B3"/>
<stop offset="0.8494" stop-color="#34DCA1"/>
<stop offset="1" stop-color="#0ED290"/>
</linearGradient>
</defs>
</svg>
