<svg width="60" height="18" viewBox="0 0 60 18" fill="none" xmlns="http://www.w3.org/2000/svg">
<path d="M21.7705 17.5298L24.7863 0.56543H29.4985L26.577 17.5298H21.7705Z" fill="#3C58BF"/>
<path d="M21.7705 17.5298L25.6345 0.56543H29.4985L26.577 17.5298H21.7705Z" fill="#293688"/>
<path d="M43.6349 0.75397C42.6925 0.376984 41.1846 0 39.2997 0C34.5875 0 31.1947 2.35616 31.1947 5.74902C31.1947 8.29367 33.5508 9.61312 35.4357 10.4613C37.3206 11.3096 37.886 11.875 37.886 12.629C37.886 13.76 36.3781 14.3254 35.0587 14.3254C33.1738 14.3254 32.1371 14.0427 30.535 13.383L29.8753 13.1002L29.2156 16.9643C30.3465 17.4356 32.4199 17.9068 34.5875 17.9068C39.5824 17.9068 42.881 15.5506 42.881 11.9693C42.881 9.99011 41.6558 8.48217 38.8285 7.25696C37.1321 6.40875 36.0954 5.93752 36.0954 5.0893C36.0954 4.33533 36.9436 3.58136 38.8285 3.58136C40.4306 3.58136 41.5615 3.8641 42.4097 4.24108L42.881 4.42957L43.6349 0.75397Z" fill="#3C58BF"/>
<path d="M43.6349 0.75397C42.6925 0.376984 41.1846 0 39.2997 0C34.5875 0 32.0429 2.35616 32.0429 5.74902C32.0429 8.29367 33.5508 9.61312 35.4357 10.4613C37.3206 11.3096 37.886 11.875 37.886 12.629C37.886 13.76 36.3781 14.3254 35.0587 14.3254C33.1738 14.3254 32.1371 14.0427 30.535 13.383L29.8753 13.1002L29.2156 16.9643C30.3465 17.4356 32.4199 17.9068 34.5875 17.9068C39.5824 17.9068 42.881 15.5506 42.881 11.9693C42.881 9.99011 41.6558 8.48217 38.8285 7.25696C37.1321 6.40875 36.0954 5.93752 36.0954 5.0893C36.0954 4.33533 36.9436 3.58136 38.8285 3.58136C40.4306 3.58136 41.5615 3.8641 42.4097 4.24108L42.881 4.42957L43.6349 0.75397Z" fill="#293688"/>
<path d="M51.7398 0.56543C50.6089 0.56543 49.7607 0.659677 49.2895 1.79063L42.2212 17.5298H47.3104L48.2528 14.7024H54.2844L54.8499 17.5298H59.3736L55.4153 0.56543H51.7398ZM49.5722 11.875C49.855 11.0268 51.4571 6.87993 51.4571 6.87993C51.4571 6.87993 51.8341 5.84322 52.1168 5.1835L52.3995 6.78569C52.3995 6.78569 53.342 11.0268 53.5305 11.9692H49.5722V11.875Z" fill="#3C58BF"/>
<path d="M52.8708 0.56543C51.7398 0.56543 50.8916 0.659677 50.4204 1.79063L42.2212 17.5298H47.3104L48.2528 14.7024H54.2844L54.8499 17.5298H59.3736L55.4153 0.56543H52.8708ZM49.5722 11.875C49.9492 10.9325 51.4571 6.87993 51.4571 6.87993C51.4571 6.87993 51.8341 5.84322 52.1168 5.1835L52.3995 6.78569C52.3995 6.78569 53.342 11.0268 53.5305 11.9692H49.5722V11.875Z" fill="#293688"/>
<path d="M13.0998 12.4405L12.6286 9.99005C11.7804 7.16266 9.0473 4.05253 6.03149 2.54459L10.2725 17.624H15.3616L22.9954 0.659668H17.9062L13.0998 12.4405Z" fill="#3C58BF"/>
<path d="M13.0998 12.4405L12.6286 9.99005C11.7804 7.16266 9.0473 4.05253 6.03149 2.54459L10.2725 17.624H15.3616L22.9954 0.659668H18.8487L13.0998 12.4405Z" fill="#293688"/>
<path d="M0 0.56543L0.848196 0.753923C6.87981 2.16762 11.0265 5.74898 12.6287 9.99006L10.9323 1.97912C10.6496 0.848169 9.80137 0.56543 8.76469 0.56543H0Z" fill="#FFBC00"/>
<path d="M0 0.56543C6.03161 1.97912 11.0265 5.65473 12.6287 9.89581L11.0265 3.20433C10.7438 2.07337 9.80137 1.41365 8.76469 1.41365L0 0.56543Z" fill="#F7981D"/>
<path d="M0 0.56543C6.03161 1.97912 11.0265 5.65473 12.6287 9.89581L11.4978 6.22021C11.215 5.08925 10.8381 3.9583 9.51864 3.48707L0 0.56543Z" fill="#ED7C00"/>
<path d="M17.8122 11.8748L14.6079 8.67045L13.1 12.2518L12.7231 9.89565C11.8749 7.06826 9.14178 3.95814 6.12598 2.4502L10.367 17.5296H15.4561L17.8122 11.8748Z" fill="#051244"/>
<path d="M26.577 17.5296L22.5245 13.3828L21.7705 17.5296H26.577Z" fill="#051244"/>
<path d="M37.415 11.6855C37.792 12.0625 37.9805 12.3453 37.8863 12.7223C37.8863 13.8532 36.3784 14.4187 35.0589 14.4187C33.1741 14.4187 32.1374 14.136 30.5352 13.4762L29.8755 13.1935L29.2158 17.0576C30.3467 17.5288 32.4201 18 34.5877 18C37.6035 18 40.0539 17.1518 41.4675 15.6439L37.415 11.6855Z" fill="#051244"/>
<path d="M42.8811 17.5299H47.3106L48.253 14.7025H54.2846L54.8501 17.5299H59.3738L57.7717 10.6499L52.117 5.18359L52.3997 6.69153C52.3997 6.69153 53.3422 10.9326 53.5307 11.8751H49.5724C49.9494 10.9326 51.4573 6.88003 51.4573 6.88003C51.4573 6.88003 51.8343 5.84332 52.117 5.18359" fill="#051244"/>
</svg>
