<svg width="48" height="48" viewBox="0 0 48 48" fill="none" xmlns="http://www.w3.org/2000/svg">
<path d="M40.3334 43.1321H7.66665C5.08928 43.1321 3 41.0428 3 38.4655V17.4655C3 14.8881 5.08928 12.7988 7.66665 12.7988H40.3334C42.9107 12.7988 45 14.8881 45 17.4655V38.4655C45 41.0428 42.9107 43.1321 40.3334 43.1321Z" stroke="#1E3862" stroke-width="2.5"/>
<path d="M34.4995 29.1342C33.8553 29.1342 33.3328 28.6117 33.3328 27.9675C33.3328 27.3233 33.8553 26.8008 34.4995 26.8008C35.1437 26.8008 35.6662 27.3233 35.6662 27.9675C35.6662 28.6117 35.1437 29.1342 34.4995 29.1342Z" fill="#1E3862" stroke="#1E3862" stroke-width="2.5" stroke-linecap="round" stroke-linejoin="round"/>
<path d="M37.9999 12.7956V9.53649C37.9999 6.47027 35.0935 4.23726 32.131 5.02731L6.46434 11.8718C4.42149 12.4166 3 14.2666 3 16.3808V17.4622" stroke="#1E3862" stroke-width="2.5"/>
</svg>
