<svg width="23" height="23" viewBox="0 0 23 23" fill="none" xmlns="http://www.w3.org/2000/svg">
<path fill-rule="evenodd" clip-rule="evenodd" d="M11.4981 4.87692C15.1121 4.87392 18.1251 7.89292 18.1251 11.4999C18.1251 15.1099 15.1121 18.1199 11.4981 18.1179C10.5483 18.1184 9.60955 17.9152 8.74507 17.5219L5.46507 18.1149C5.378 18.1309 5.28826 18.1234 5.20502 18.0933C5.12178 18.0632 5.04801 18.0116 4.99127 17.9436C4.93452 17.8757 4.89683 17.7939 4.88203 17.7067C4.86724 17.6194 4.87588 17.5298 4.90707 17.4469L5.84707 14.9489C5.21378 13.9095 4.87824 12.7161 4.87707 11.4989C4.87807 7.89192 7.88807 4.87892 11.4981 4.87692ZM14.8231 14.3129C14.0861 14.9089 12.9451 15.5109 11.8541 14.8109C10.4241 13.8919 9.15807 12.6849 8.24007 11.2539C7.70107 10.4159 8.20807 9.07393 8.96607 8.25592C9.26807 7.92893 9.76607 7.98092 10.0951 8.28092L10.7871 8.91292C10.9971 9.10492 11.0051 9.43892 10.8741 9.69292C10.6671 10.0909 10.5451 10.6259 10.8011 11.0249C11.1231 11.5249 11.5191 12.0179 12.4651 12.3049C12.7511 12.3929 13.1181 12.3549 13.4301 12.2289C13.6911 12.1229 14.0221 12.1239 14.2151 12.3299L14.8591 13.0149C15.2141 13.3929 15.2261 13.9869 14.8231 14.3129Z" fill="#1E3862"/>
</svg>
