<svg width="22" height="22" viewBox="0 0 22 22" fill="none" xmlns="http://www.w3.org/2000/svg">
<path d="M20 12.5742V10.7742C20 7.3801 20 5.68305 18.9456 4.62863C17.8912 3.57422 16.1941 3.57422 12.8 3.57422H9.2C5.80588 3.57422 4.10883 3.57422 3.05441 4.62863C2 5.68305 2 7.3801 2 10.7742V12.5742C2 15.9683 2 17.6654 3.05441 18.7198C4.10883 19.7742 5.80588 19.7742 9.2 19.7742H12.8" stroke="#FFAB00" stroke-width="1.75" stroke-linecap="round"/>
<path d="M6.5 3.57461V2.22461" stroke="#FFAB00" stroke-width="1.75" stroke-linecap="round"/>
<path d="M15.5 3.57461V2.22461" stroke="#FFAB00" stroke-width="1.75" stroke-linecap="round"/>
<path d="M13.7002 16.1746C13.7002 16.8907 13.9847 17.5774 14.491 18.0838C14.9974 18.5901 15.6841 18.8746 16.4002 18.8746C17.1163 18.8746 17.803 18.5901 18.3094 18.0838C18.8157 17.5774 19.1002 16.8907 19.1002 16.1746C19.1002 15.4585 18.8157 14.7718 18.3094 14.2654C17.803 13.7591 17.1163 13.4746 16.4002 13.4746C15.6841 13.4746 14.9974 13.7591 14.491 14.2654C13.9847 14.7718 13.7002 15.4585 13.7002 16.1746Z" stroke="#FFAB00" stroke-width="1.75"/>
<path d="M18.6499 18.4238L19.9999 19.7738" stroke="#FFAB00" stroke-width="1.75" stroke-linecap="round"/>
<path d="M2.4502 8.07422H19.5502" stroke="#FFAB00" stroke-width="1.75" stroke-linecap="round"/>
</svg>
